<?xml version="1.0" encoding="utf-8"?>
<COLLADA xmlns="http://www.collada.org/2005/11/COLLADASchema" version="1.4.1" xmlns:xsi="http://www.w3.org/2001/XMLSchema-instance">
  <asset>
    <contributor>
      <author>Blender User</author>
      <authoring_tool>Blender 4.4.3 commit date:2025-04-29, commit time:14:09, hash:802179c51ccc</authoring_tool>
    </contributor>
    <created>2025-08-27T14:14:58</created>
    <modified>2025-08-27T14:14:58</modified>
    <unit name="meter" meter="1"/>
    <up_axis>Z_UP</up_axis>
  </asset>
  <library_images/>
  <library_geometries>
    <geometry id="right_elevator-mesh" name="right_elevator">
      <mesh>
        <source id="right_elevator-mesh-positions">
          <float_array id="right_elevator-mesh-positions-array" count="1572">-1158.788 -51.10525 218.0036 -1158.78 -51.08425 217.6988 -1158.819 -51.12627 218.3083 -1158.793 -51.06334 217.3949 -1158.881 -51.14981 218.6488 -1158.83 -51.04261 217.0928 -1158.971 -51.17321 218.9866 -1158.888 -51.02211 216.7936 -1159.09 -51.19646 219.3217 -1158.969 -51.00191 216.4982 -1159.237 -51.21937 219.6512 -1159.072 -50.98208 216.2077 -1159.411 -51.24163 219.9705 -1159.198 -50.9627 215.9231 -1159.614 -51.26334 220.2816 -1159.346 -50.94383 215.6453 -1159.516 -50.92553 215.3753 -1159.972 -51.29486 220.7317 -1159.709 -50.90789 215.1141 -1160.394 -51.32462 221.155 -1159.924 -50.89096 214.8628 -1160.161 -50.87482 214.6222 -1160.88 -51.35229 221.5468 -1160.42 -50.85954 214.3934 -1160.702 -50.84518 214.1775 -1161.43 -51.37755 221.9024 -1161.005 -50.83181 213.9753 -1161.773 -51.39077 222.0876 -1161.328 -50.81963 213.7896 -1162.137 -51.40304 222.2584 -1161.672 -50.80855 213.6194 -1162.522 -51.41428 222.4142 -1162.039 -50.79865 213.4656 -1162.928 -51.42445 222.5539 -1162.426 -50.78998 213.3292 -1163.355 -51.43348 222.6768 -1162.836 -50.78263 213.2111 -1163.803 -51.4413 222.7818 -1163.267 -50.77665 213.1123 -1164.272 -51.44786 222.8682 -1163.72 -50.77211 213.0337 -1164.763 -51.4531 222.9351 -1164.195 -50.76909 212.9764 -1165.274 -51.45695 222.9815 -1164.691 -50.76764 212.9412 -1165.806 -51.45935 223.0066 -1165.209 -50.76783 212.9292 -1166.36 -51.46024 223.0096 -1165.749 -50.76974 212.9413 -1166.934 -51.45957 222.9894 -1166.31 -50.77342 212.9785 -1167.53 -51.45726 222.9454 -1166.892 -50.77895 213.0417 -1168.146 -51.45326 222.8764 -1167.497 -50.78638 213.1319 -1171.49 -51.42525 222.4292 -1168.146 -50.7962 213.255 -1169.485 -50.81816 213.5356 -1174.935 -51.39112 221.9084 -1174.252 -50.89632 214.5245 -1177.909 -51.35958 221.4142 -1177.538 -50.9464 215.1539 -1181.025 -51.32288 220.8414 -1179.797 -50.9767 215.5299 -1184.147 -51.28295 220.2129 -1181.882 -50.9999 215.8229 -1184.024 -51.01991 216.0715 -1187.988 -51.23056 219.3672 -1186.212 -51.0341 216.2455 -1188.268 -51.04191 216.3354 -1191.634 -51.18189 218.5389 -1190.65 -51.04619 216.3751 -1192.132 -51.04782 216.3855 -1194.045 -51.15257 218.0342 -1194.804 -51.049 216.3788 -1195.375 -51.1372 217.7717 -1197.415 -51.1148 217.3913 -1197.462 -51.0479 216.3396 -1200.103 -51.08739 216.9302 -1200.359 -51.04421 216.2599 -1202.806 -51.06237 216.5141 -1202.804 -51.03899 216.1611 -1207.96 -328.0825 197.9027 -1205.298 -328.1107 198.3794 -1195.67 -328.2319 200.4259 -1199.467 -328.1803 199.5615 -1190.846 -328.2963 201.476 -1186.794 -328.346 202.2639 -1183.225 -328.386 202.8854 -1180.221 -328.4171 203.3664 -1176.892 -328.4481 203.8437 -1210.286 -328.0596 197.5201 -1203.934 -85.68537 214.1111 -1205.062 -120.3084 211.7081 -1206.189 -154.9314 209.3051 -1207.317 -189.5543 206.902 -1208.445 -224.1773 204.499 -1209.573 -258.8003 202.096 -1210.701 -293.4233 199.6929 -1211.829 -328.0457 197.29 -1202.352 -328.1445 198.9529 -1168.146 -328.5169 204.8826 -1168.146 -259.7729 209.3597 -1169.192 -328.5095 204.7737 -1168.146 -145.7541 216.7685 -1171.628 -328.4915 204.5051 -1174.766 -328.4662 204.1221 -1203.933 -85.66199 213.7581 -1205.062 -120.285 211.3551 -1206.191 -154.908 208.952 -1207.32 -189.531 206.549 -1208.449 -224.154 204.146 -1209.578 -258.7769 201.743 -1210.707 -293.4 199.34 -1211.836 -328.0234 196.9369 -1172.919 -327.7342 193.455 -1168.146 -180.5043 203.5104 -1168.146 -327.6576 192.4711 -1177.984 -327.8176 194.5165 -1181.96 -327.8822 195.3312 -1188.386 -327.9696 196.4306 -1190.295 -327.9893 196.6824 -1192.458 -328.0067 196.9027 -1196.013 -328.0238 197.1058 -1198.426 -328.0289 197.1513 -1204.705 -328.0334 197.1491 -1201.505 -328.0326 197.1707 -1207.562 -328.0316 197.0939 -1209.479 -328.0289 197.0376 -1185.166 -327.9299 195.9308 -1194.525 -328.0184 197.0451 -1167.682 -145.7572 216.8172 -1167.231 -98.60892 219.9111 -1166.362 -98.61005 219.9402 -1165.549 -77.5907 221.2977 -1166.457 -328.5208 204.9411 -1165.898 -328.5185 204.9083 -1166.396 -283.3114 207.9065 -1164.777 -77.58533 221.2329 -1165.16 -328.5122 204.8193 -1165.59 -283.308 207.8594 -1164.052 -77.57686 221.1225 -1164.435 -328.5021 204.6757 -1164.83 -283.3008 207.7594 -1163.729 -328.488 204.4744 -1164.115 -283.2902 207.6096 -1161.028 -328.3765 202.8888 -1160.732 -328.3554 202.5901 -1160.927 -305.7726 204.3915 -1160.457 -328.3331 202.2738 -1160.497 -305.7412 203.9476 -1160.203 -328.3097 201.9411 -1159.972 -328.2851 201.5933 -1160.119 -305.7078 203.4749 -1159.765 -328.2596 201.2319 -1159.795 -305.6727 202.9773 -1159.124 -77.08628 214.1054 -1159.638 -77.02812 213.2504 -1159.975 -77.00149 212.8562 -1159.776 -327.8463 195.3507 -1159.983 -327.8226 195.0096 -1159.83 -305.238 196.7761 -1160.365 -76.97683 212.489 -1160.213 -327.8 194.6833 -1160.466 -327.7786 194.3734 -1160.159 -305.2056 196.3086 -1160.808 -76.9544 212.1526 -1160.737 -327.7587 194.0854 -1160.541 -305.1754 195.8707 -1161.338 -327.7232 193.5668 -1161.665 -327.7077 193.3381 -1161.411 -282.5299 196.75 -1161.835 -97.92057 210.0214 -1162.439 -97.90608 209.796 -1162.008 -327.6937 193.1309 -1162.365 -327.6813 192.9454 -1161.952 -282.5083 196.4307 -1162.735 -327.6704 192.782 -1162.545 -282.4901 196.157 -1163.096 -97.8949 209.6167 -1163.806 -97.88727 209.487 -1163.115 -327.6612 192.6406 -1163.766 -327.6492 192.4538 -1163.189 -282.4754 195.9328 -1164.568 -97.88346 209.4109 -1164.437 -327.6413 192.3247 -1163.886 -282.4647 195.7621 -1165.384 -97.88372 209.3919 -1165.121 -327.6372 192.2505 -1164.635 -282.4581 195.6492 -1166.252 -97.88832 209.4338 -1165.639 -327.6365 192.2285 -1165.435 -282.4559 195.5978 -1166.735 -191.1448 202.4799 -1166.16 -327.6378 192.2336 -1166.682 -327.6407 192.264 -1166.287 -282.4585 195.612 -1167.225 -145.0137 206.0106 -1167.682 -191.1563 202.6185 -1166.758 -282.4619 195.6474 -1167.203 -327.6454 192.318 -1167.243 -282.4667 195.7028 -1166.364 -191.9306 213.8711 -1166.36 -145.7604 216.8781 -1167.23 -145.7592 216.8515 -1166.375 -238.1001 210.8511 -1167.238 -238.0996 210.84 -1167.019 -328.5212 204.9467 -1165.54 -98.60765 219.9174 -1163.351 -145.7303 216.4815 -1162.837 -119.586 218.019 -1163.356 -98.58113 219.568 -1162.839 -145.7184 216.3169 -1162.913 -260.658 208.7138 -1162.885 -238.0525 210.1918 -1163.393 -238.0656 210.3752 -1163.447 -283.2762 207.4131 -1162.945 -283.2628 207.2246 -1162.982 -305.8663 205.7176 -1159.583 -328.2334 200.8601 -1159.426 -328.2064 200.4778 -1159.522 -305.6361 202.459 -1159.354 -77.05648 213.6681 -1161.028 -327.7403 193.8162 -1164.575 -191.1375 202.4329 -1165.389 -191.1368 202.402 -1164.565 -145.0001 205.89 -1161.284 -97.93809 210.289 -1160.786 -97.95839 210.5953 -1167.686 -238.0978 210.8128 -1167.583 -328.5199 204.9267 -1163.296 -328.477 204.3169 -1163.373 -77.56547 220.9692 -1162.863 -77.55439 220.8177 -1162.383 -77.54169 220.6422 -1161.933 -77.52745 220.4442 -1161.616 -77.51589 220.2826 -1161.316 -77.5036 220.1099 -1161.03 -77.49047 219.925 -1162.875 -328.4642 204.1353 -1162.462 -328.4496 203.9262 -1162.513 -305.8508 205.4983 -1162.064 -328.4331 203.6922 -1162.073 -305.8336 205.2544 -1161.695 -328.4155 203.4417 -1161.763 -305.8196 205.0572 -1161.344 -328.3962 203.1688 -1161.47 -305.8048 204.848 -1161.19 -305.7891 204.6252 -1160.761 -77.47665 219.73 -1160.321 -77.45037 219.3577 -1159.934 -77.42232 218.959 -1159.602 -77.39277 218.5375 -1159.324 -77.36198 218.097 -1159.303 -305.5984 201.9239 -1159.24 -282.9989 203.4877 -1159.461 -283.0361 204.016 -1159.187 -260.3976 205.0253 -1159.41 -260.4343 205.5472 -1159.142 -237.7953 206.5488 -1159.365 -237.8315 207.0638 -1159.117 -222.4083 207.5986 -1159.34 -222.4441 208.1088 -1159.084 -191.6377 209.747 -1159.308 -191.6728 210.2463 -1159.06 -145.48 212.9409 -1159.286 -145.5137 213.4225 -1159.057 -119.3525 214.7116 -1159.282 -119.3855 215.1831 -1159.069 -98.34056 216.1649 -1159.294 -98.37294 216.6286 -1159.099 -77.3302 217.6412 -1159.642 -237.8665 207.5627 -1159.685 -260.4698 206.0525 -1159.735 -283.0722 204.5276 -1159.618 -222.4789 208.6028 -1159.587 -191.7067 210.7296 -1159.565 -145.5464 213.8883 -1159.562 -119.4174 215.6392 -1159.573 -98.40431 217.0771 -1159.295 -328.1788 200.0867 -1159.189 -328.1507 199.6884 -1159.16 -305.5663 201.4681 -1159.109 -328.1222 199.2844 -1159.054 -305.5338 201.0058 -1159.056 -328.0935 198.8766 -1158.984 -305.501 200.5394 -1159.03 -328.0646 198.467 -1158.955 -305.4764 200.1882 -1159.031 -328.0358 198.0569 -1158.96 -305.4272 199.4867 -1158.953 -77.30313 217.2522 -1158.844 -77.27572 216.8573 -1158.772 -77.2481 216.4586 -1158.743 -77.22734 216.1583 -1158.748 -77.18595 215.5585 -1158.781 -77.16545 215.2608 -1159.058 -328.007 197.6479 -1159.113 -327.9785 197.2419 -1158.992 -305.4027 199.1383 -1159.195 -327.9503 196.8405 -1159.068 -305.3706 198.6786 -1159.305 -327.9227 196.4457 -1159.179 -305.339 198.2263 -1159.437 -327.8965 196.0705 -1159.327 -305.3081 197.7839 -1159.594 -327.871 195.7049 -1159.553 -305.2722 197.2692 -1158.858 -77.13848 214.8681 -1158.973 -77.11203 214.4823 -1159.627 -191.3045 204.9503 -1159.376 -222.0998 203.1726 -1159.66 -222.0676 202.7069 -1159.4 -237.4832 202.0776 -1159.683 -237.4507 201.6066 -1159.442 -260.0804 200.4878 -1159.723 -260.0473 200.0083 -1159.492 -282.6771 198.8893 -1159.771 -282.6433 198.4025 -1159.343 -191.3359 205.4071 -1159.603 -145.1593 208.3082 -1159.318 -145.1895 208.7493 -1159.601 -119.0397 210.1831 -1159.316 -119.0691 210.6135 -1159.612 -98.03337 211.7085 -1159.327 -98.06216 212.1319 -1160.974 -305.1476 195.4665 -1160.923 -282.5544 197.1109 -1161.373 -259.9361 198.3852 -1160.882 -259.9601 198.7388 -1161.342 -237.342 200.0165 -1160.848 -237.3654 200.362 -1161.324 -221.9606 201.1373 -1160.828 -221.9836 201.4778 -1161.297 -191.1999 203.4121 -1160.8 -191.2224 203.7454 -1161.277 -145.0591 206.8248 -1160.778 -145.0806 207.1458 -1162.487 -237.3046 199.4535 -1163.139 -237.291 199.2438 -1162.472 -221.9238 200.5836 -1163.106 -191.1514 202.6714 -1162.45 -191.1642 202.8712 -1163.09 -145.013 206.1146 -1162.433 -145.0251 206.3054 -1166.256 -191.1408 202.4352 -1165.56 -238.0967 210.807 -1165.544 -191.9277 213.8364 -1165.538 -145.7578 216.8513 -1164.791 -238.0897 210.7109 -1164.77 -191.9213 213.7503 -1164.762 -145.7518 216.7743 -1164.765 -98.60187 219.8458 -1164.069 -238.0792 210.5659 -1164.043 -191.9114 213.616 -1164.033 -145.7426 216.65 -1164.037 -98.59296 219.7284 -1163.363 -191.8985 213.4365 -1162.844 -98.56967 219.4108 -1162.87 -222.663 211.2056 -1162.852 -191.886 213.2624 -1162.358 -145.7048 216.1275 -1162.355 -119.5726 217.8332 -1162.363 -98.55658 219.2295 -1162.371 -191.8717 213.0631 -1162.391 -222.6483 210.9989 -1162.408 -238.0376 209.9828 -1162.438 -260.643 208.5023 -1162.473 -283.2476 207.0098 -1161.906 -145.6896 215.9148 -1161.903 -119.5577 217.6247 -1161.911 -98.54195 219.0256 -1161.921 -191.8558 212.84 -1161.942 -222.6319 210.7684 -1161.96 -238.0211 209.7497 -1161.993 -260.6263 208.2665 -1162.03 -283.2307 206.7706 -1161.588 -145.6772 215.7417 -1161.585 -119.5456 217.4551 -1161.594 -98.5301 218.8596 -1161.604 -191.8429 212.6589 -1161.626 -222.6186 210.5816 -1161.645 -238.0077 209.561 -1161.679 -260.6127 208.0755 -1161.718 -283.2169 206.577 -1161.286 -145.6641 215.5573 -1161.283 -119.5327 217.2743 -1161.292 -98.51749 218.6824 -1161.303 -191.8293 212.4662 -1161.327 -222.6045 210.3831 -1161.346 -237.9935 209.3605 -1161.382 -260.5984 207.8726 -1161.423 -283.2024 206.3712 -1160.999 -145.6501 215.3602 -1160.996 -119.519 217.0811 -1161.005 -98.50405 218.493 -1161.017 -191.8147 212.2605 -1161.042 -222.5896 210.1716 -1161.062 -237.9783 209.1468 -1161.099 -260.5831 207.6563 -1161.141 -283.1869 206.1521 -1160.876 -283.1706 205.922 -1160.832 -260.567 207.4292 -1160.794 -237.9625 208.9225 -1160.773 -222.5739 209.9495 -1160.747 -191.7994 212.0442 -1160.729 -145.6354 215.1527 -1160.725 -119.5046 216.8778 -1160.735 -98.48992 218.2936 -1160.443 -283.1397 205.4846 -1160.396 -260.5365 206.9975 -1160.356 -237.9323 208.496 -1160.334 -222.544 209.5272 -1160.306 -191.7703 211.6325 -1160.287 -145.6075 214.7572 -1160.283 -119.4773 216.4903 -1160.294 -98.46308 217.9133 -1160.063 -283.1068 205.0185 -1160.014 -260.504 206.5372 -1159.972 -237.9003 208.0414 -1159.949 -222.5123 209.077 -1159.92 -191.7393 211.193 -1159.899 -145.5777 214.3344 -1159.895 -119.4481 216.0762 -1159.906 -98.43444 217.5065 -1158.914 -145.4513 212.5302 -1158.91 -119.3245 214.3097 -1158.922 -98.31301 215.7695 -1158.938 -191.6079 209.3214 -1158.971 -222.3778 207.1641 -1158.997 -237.7645 206.11 -1159.043 -260.3663 204.5808 -1159.096 -282.9673 203.0375 -1158.805 -145.4223 212.1135 -1158.801 -119.2961 213.9019 -1158.813 -98.28511 215.3683 -1158.829 -191.5777 208.8897 -1158.863 -222.347 206.7235 -1158.889 -237.7333 205.6651 -1158.935 -260.3347 204.1298 -1158.989 -282.9352 202.5808 -1158.733 -145.393 211.6928 -1158.729 -119.2675 213.4903 -1158.742 -98.25701 214.9633 -1158.758 -191.5473 208.4541 -1158.792 -222.3159 206.2791 -1158.818 -237.7018 205.2163 -1158.865 -260.3028 203.6748 -1158.919 -282.9028 202.12 -1158.704 -145.3709 211.3761 -1158.7 -119.246 213.1805 -1158.713 -98.23588 214.6584 -1158.729 -191.5244 208.1261 -1158.764 -222.2925 205.9446 -1158.789 -237.6782 204.8786 -1158.836 -260.2787 203.3322 -1158.89 -282.8785 201.7731 -1158.708 -145.327 210.7436 -1158.705 -119.2031 212.5619 -1158.717 -98.19379 214.0495 -1158.734 -191.4788 207.4713 -1158.769 -222.2459 205.2769 -1158.794 -237.6311 204.2042 -1158.84 -260.2309 202.648 -1158.894 -282.8299 201.0799 -1158.742 -145.3053 210.4296 -1158.739 -119.1819 212.255 -1158.751 -98.17295 213.7474 -1158.767 -191.4562 207.1464 -1158.802 -222.2228 204.9456 -1158.828 -237.6077 203.8695 -1158.874 -260.2072 202.3084 -1158.927 -282.8058 200.7357 -1158.819 -145.2767 210.0155 -1158.817 -119.154 211.8502 -1158.829 -98.14553 213.349 -1158.845 -191.4265 206.7177 -1158.88 -222.1924 204.5087 -1158.905 -237.577 203.4281 -1158.95 -260.1759 201.8602 -1159.003 -282.7741 200.2815 -1158.934 -145.2486 209.6086 -1158.932 -119.1266 211.4526 -1158.943 -98.11864 212.9576 -1158.96 -191.3973 206.2965 -1158.994 -222.1626 204.0793 -1159.019 -237.5468 202.9942 -1159.063 -260.1452 201.4195 -1159.116 -282.7429 199.8346 -1159.086 -145.2212 209.211 -1159.084 -119.1 211.0642 -1159.095 -98.09246 212.5755 -1159.112 -191.3688 205.885 -1159.146 -222.1335 203.6598 -1159.17 -237.5173 202.5702 -1159.214 -260.1152 200.9886 -1159.265 -282.7124 199.3976 -1160.103 -282.6115 197.9411 -1160.057 -260.016 199.5544 -1160.018 -237.42 201.161 -1159.996 -222.0374 202.2666 -1159.965 -191.2749 204.5184 -1159.942 -145.1309 207.8913 -1159.94 -119.0122 209.7767 -1159.95 -98.00628 211.3087 -1160.487 -282.5817 197.5093 -1160.443 -259.9868 199.1299 -1160.407 -237.3915 200.7448 -1160.386 -222.0093 201.8555 -1160.356 -191.2474 204.1155 -1160.333 -145.1046 207.5026 -1160.332 -118.9866 209.398 -1160.341 -97.9812 210.9364 -1161.917 -259.9151 198.073 -1161.888 -237.3217 199.7124 -1161.872 -221.9406 200.8379 -1161.847 -191.1805 203.1193 -1161.828 -145.0405 206.5434 -1162.513 -259.8974 197.8062 -1163.843 -237.2813 199.0874 -1163.814 -191.1424 202.524 -1163.801 -145.0046 205.9749 -1164.599 -237.2757 198.9881 -1165.408 -237.2745 198.95</float_array>
          <technique_common>
            <accessor source="#right_elevator-mesh-positions-array" count="524" stride="3">
              <param name="X" type="float"/>
              <param name="Y" type="float"/>
              <param name="Z" type="float"/>
            </accessor>
          </technique_common>
        </source>
        <source id="right_elevator-mesh-normals">
          <float_array id="right_elevator-mesh-normals-array" count="3858">-0.00136733 0.9976099 0.06908476 -0.001169681 0.9976289 0.06881433 -0.001169919 0.9976289 0.06881392 -0.00121349 0.9976451 0.06857746 -0.00121361 0.9976451 0.06857758 -0.001213669 0.997645 0.0685777 -0.001431524 0.9976436 0.06859594 -0.001543641 0.9976561 0.06841164 -0.001543641 0.9976561 0.06841176 -0.0015437 0.9976561 0.06841182 -0.001645743 0.9976317 0.06876415 -0.001634895 0.9976444 0.0685774 -0.001470565 0.9976374 0.06868398 -0.001632153 0.9976448 0.06857222 -0.001542508 0.997632 0.06876069 -0.001634359 0.9976396 0.06864911 -0.001645207 0.9976348 0.06871706 -0.001657128 0.9976398 0.06864607 -0.001429915 0.9976411 0.06863111 -0.001665234 0.9976359 0.0687018 -0.001651167 0.9976415 0.06862139 -0.001501917 0.9976399 0.06864684 -0.001725733 0.9976409 0.06862676 -0.001496732 0.9976364 0.06869673 -0.001633644 0.9976408 0.06863099 -0.001732707 0.9976455 0.06856083 -0.001466929 0.9976384 0.06866961 -0.001765251 0.99764 0.06864047 -0.001718103 0.9976471 0.06853675 -0.001462519 0.9976387 0.06866669 -0.001747667 0.997648 0.06852304 -0.00140661 0.9976416 0.06862473 -0.001804232 0.9976425 0.0686022 -0.001441955 0.9976453 0.06857049 -0.0017699 0.9976463 0.06854707 -0.001384735 0.9976451 0.06857496 -0.001811027 0.9976442 0.06857717 -0.001437962 0.9976266 0.06884247 -0.001440346 0.9976266 0.06884223 -0.001437902 0.9976266 0.06884247 -0.001792311 0.9976459 0.06855231 -0.001373589 0.9976493 0.06851458 -0.001845061 0.997649 0.06850624 -0.001352965 0.9976479 0.06853407 -0.001853704 0.9976531 0.0684455 -0.001336872 0.9976477 0.06853699 -0.001875638 0.9976561 0.06840264 -0.001322329 0.9976494 0.06851333 -0.001904189 0.9976558 0.06840598 -0.001298487 0.9976558 0.06842076 -0.001943349 0.9976562 0.06839841 -0.001280426 0.9976554 0.06842559 -0.001946747 0.9976603 0.06833809 -0.0012272 0.9976594 0.0683698 -0.001998126 0.9976604 0.06833589 -0.00123465 0.9976629 0.06831717 -0.002022027 0.9976664 0.06824791 -0.001179158 0.9976614 0.06834119 -0.002078115 0.9976704 0.06818765 -0.001164376 0.9976672 0.0682556 -0.0020864 0.9976741 0.06813317 -7.66834e-4 0.9976694 0.06822872 -0.00228393 0.9977119 0.0675708 -0.002192676 0.9977093 0.06761252 -3.97841e-4 0.9976845 0.06801152 -0.002538979 0.9977747 0.06662899 -5.20261e-4 0.9977658 0.0668078 -0.002622783 0.9978359 0.065701 -3.5057e-4 0.99783 0.06584227 -0.002663016 0.9979192 0.06442326 -3.14103e-4 0.9978874 0.06496673 -0.002222895 0.9979987 0.06319588 -0.001974165 0.9979907 0.06333047 -3.42868e-4 0.9979898 0.06337487 -0.001547634 0.9980791 0.06193441 -0.001070022 0.9980627 0.06220883 -8.02465e-4 0.9980649 0.0621764 -7.54627e-4 0.9980604 0.06224912 -6.61367e-4 0.9980576 0.0622971 -9.14655e-4 0.9980542 0.06234753 -6.00066e-4 0.9980313 0.06271666 -8.66868e-4 0.9980242 0.06282514 -7.6732e-4 0.9980209 0.06287914 -5.21102e-4 0.9979808 0.06351441 -7.19218e-4 0.9979811 0.06350827 -5.02685e-4 0.997918 0.06449425 -7.00858e-4 0.9979154 0.06453251 -5.41749e-4 0.9978141 0.06608122 -0.1693473 -0.06275981 0.9835562 -0.1765749 -0.0623995 0.9823074 -0.1836155 -0.06210684 0.9810342 -0.2223465 -0.06037688 0.9730965 -0.2154207 -0.06067293 0.9746347 -0.2130911 -0.06080007 0.9751388 -0.1977325 -0.06138885 0.9783319 -0.1912356 -0.06171393 0.9796022 -0.1811465 -0.06204289 0.9814972 -0.1719034 -0.06245702 0.983132 -0.1642584 -0.0626924 0.9844232 -0.1584151 -0.06292748 0.9853654 -0.149787 -0.06318843 0.9866971 -0.1422165 -0.06349456 0.9877971 -0.162597 -0.06302988 0.9846774 -0.1524251 -0.06351029 0.9862723 -0.1473913 -0.06375724 0.9870212 -0.1475599 -0.06370103 0.9869997 -0.1482185 -0.06362688 0.9869057 -0.1479737 -0.0636956 0.9869381 -0.1477352 -0.06366032 0.9869761 -0.1477515 -0.06369316 0.9869714 -0.1477993 -0.06368261 0.986965 -0.1477471 -0.06369245 0.9869722 -0.2218889 -0.06039953 0.9731995 -0.2052156 -0.06111896 0.9768067 -0.2067561 -0.06106489 0.9764851 -0.1939543 -0.06163746 0.9790723 -0.1914081 -0.0617246 0.9795678 -0.1038141 -0.0646311 0.9924946 -0.1133627 -0.06440985 0.9914638 -0.1098411 -0.06446701 0.9918564 -0.1215913 -0.06415975 0.9905045 -0.1214108 -0.06415873 0.9905267 -0.1327967 -0.06378787 0.9890886 -0.1301406 -0.0638433 0.9894379 -0.999458 0.03279602 -0.002879142 -0.999458 0.03279596 -0.002879142 -0.999458 0.03279596 -0.002879142 -0.9994673 0.03263193 -6.01167e-4 -0.9994686 0.03259223 -6.04894e-4 -0.9994717 0.03243333 0.002149999 -0.9994723 0.03238654 0.002484261 -0.9994723 0.03238654 0.002484261 -0.9994723 0.03238654 0.002484261 -0.9994564 0.03206747 0.007654249 -0.9994555 0.03201949 0.007983863 -0.9994555 0.03201949 0.007983863 -0.9994549 0.03199899 0.008126199 -0.9994378 0.03187829 0.01039421 -0.9994389 0.03184115 0.01039505 -0.9994084 0.03163635 0.01349562 -0.9994085 0.03163385 0.01349204 -0.9993674 0.03146016 0.01658743 -0.9993674 0.03146016 0.01658743 -0.9993674 0.03146016 0.01658743 -0.9993682 0.0314356 0.01658308 -0.9993683 0.0314356 0.01658308 -0.9993683 0.0314356 0.01658314 -0.9993311 0.03124397 0.01900577 -0.9993311 0.03124648 0.01900231 -0.9992735 0.03103023 0.02212816 -0.9992735 0.03103023 0.02212816 -0.9992735 0.03103119 0.02212834 -0.2024749 0.07325941 -0.9765434 -0.2037259 0.07327938 -0.9762817 -0.2013373 0.07328569 -0.9767766 -0.1886915 0.07311606 -0.9793109 -0.139563 0.07241952 -0.9875615 -0.1311612 0.07231348 -0.9887201 -0.1156682 0.07197207 -0.9906771 -0.1016461 0.07175672 -0.9922294 -0.07953423 0.07122695 -0.9942843 -0.01896756 0.06976664 -0.997383 -0.01674944 0.06970298 -0.9974272 0.006717741 0.0690242 -0.9975925 0.01473766 0.06871873 -0.9975273 0.01930218 0.06860315 -0.9974573 0.02753823 0.06828856 -0.9972855 0.04274606 0.06779259 -0.9967833 0.04273438 0.06778103 -0.9967846 0.04267925 0.06778222 -0.996787 0.04271358 0.06781464 -0.9967832 0.04277908 0.06778919 -0.9967822 0.04288691 0.06779497 -0.9967772 0.04260271 0.06774562 -0.9967926 0.0425871 0.06777447 -0.9967914 0.04042804 0.06786108 -0.9968754 0.02940285 0.0682398 -0.9972356 -0.2056062 0.07330936 -0.9758852 -0.2057186 0.07331693 -0.975861 -0.2057189 0.07331973 -0.9758607 -0.1843966 0.0731039 -0.9801294 -0.1538327 0.07262873 -0.9854242 -0.1647171 0.07292228 -0.9836416 -0.06894975 0.07105475 -0.9950865 -0.04091483 0.0703212 -0.996685 -0.04382121 0.07041472 -0.9965549 0.002474725 0.06911921 -0.9976054 -0.007104933 0.06944102 -0.9975608 -0.00636053 0.06941348 -0.9975678 -0.1045497 -0.06428039 0.9924402 -0.1114859 -0.06429088 0.9916843 -0.07929408 -0.06448483 0.9947634 -0.03351575 -0.06490409 0.9973285 -0.07373905 -0.06453895 0.9951871 0.01330989 -0.06495898 0.9977993 -0.03518736 -0.064906 0.9972709 0.05874377 -0.06542271 0.996127 0.08390092 -0.06494742 0.9943554 0.04733347 -0.06469839 0.9967817 0.1200358 -0.06546884 0.9906085 0.1508935 -0.0643382 0.9864542 0.09084582 -0.06480944 0.9937539 0.194801 -0.06506001 0.9786827 0.2748011 -0.06420928 0.9593548 0.7111982 -0.04975414 0.7012287 0.7554523 -0.04708737 0.6535095 0.8337428 -0.04050195 0.5506654 0.8682526 -0.03708535 0.4947345 0.9147379 0.03061884 -0.4028858 0.7608031 0.0482189 -0.6471891 0.8049144 0.04437345 -0.5917297 0.8554027 0.03462159 -0.5168052 0.6862787 0.05389803 -0.7253389 0.7132764 0.05234295 -0.6989257 0.7755813 0.04348987 -0.6297478 0.7755814 0.04348987 -0.6297478 0.7755813 0.04348987 -0.6297478 0.6056314 0.05914968 -0.7935439 0.6627637 0.0558061 -0.7467463 0.6627637 0.0558061 -0.7467463 0.6627637 0.05580604 -0.7467463 0.7291207 0.0476318 -0.6827256 0.5559541 0.06194883 -0.8289013 0.5740355 0.05847752 -0.8167397 0.3502619 0.06977671 -0.9340492 0.3871889 0.06886643 -0.919425 0.461785 0.06406837 -0.8846751 0.4046714 0.06643301 -0.912046 0.1800119 0.07342517 -0.9809202 0.2237719 0.0729081 -0.9719108 0.2762768 0.07026249 -0.9585064 0.3294013 0.06915718 -0.9416539 0.09947365 0.07429486 -0.9922628 0.1198114 0.07430982 -0.9900118 0.1892856 0.07221245 -0.9792631 0.02319782 0.07475978 -0.9969317 0.07083278 0.07474023 -0.9946843 0.1080085 0.07342576 -0.9914348 -0.04846948 0.07465445 -0.9960309 -0.02258026 0.07493585 -0.9969328 0.0423274 0.07413536 -0.9963495 -0.1032139 0.07438284 -0.9918741 -0.06647467 0.07478398 -0.9949817 -0.05837452 0.07426679 -0.9955285 -0.01689648 0.07451653 -0.9970766 -0.1587382 0.07397407 -0.9845457 -0.1479266 0.07406467 -0.9862211 -0.113921 0.07415902 -0.9907183 -0.03061735 -0.06494832 0.9974189 -0.01286286 -0.06525582 0.9977857 -0.01287186 -0.06498897 0.997803 0.01004785 -0.06546443 0.9978044 0.005583524 -0.06521677 0.9978556 0.02790504 -0.06550651 0.997462 0.1354576 -0.06490677 0.9886549 0.3183712 -0.06187915 0.9459444 0.3067719 -0.06185698 0.9497709 0.3402714 -0.06176686 0.9382965 0.3359072 -0.06199145 0.9398528 0.3523573 -0.06200808 0.9338091 0.3522869 -0.06283372 0.9337804 0.7957797 -0.04342454 0.6040273 0.7957797 -0.04342448 0.6040273 0.7957798 -0.04342454 0.6040273 0.9253553 -0.02920037 0.3779747 0.8829277 0.03523665 -0.4681851 0.7609935 0.04815787 -0.6469696 0.7609935 0.04815781 -0.6469697 0.7609328 0.04818367 -0.6470392 0.8180262 0.03930014 -0.573837 0.8182108 0.03937947 -0.5735682 0.8182108 0.03937947 -0.5735682 0.6085885 0.05889731 -0.7912972 0.6798501 0.05192846 -0.7315104 0.5178097 0.06144684 -0.8532863 0.5180723 0.06157052 -0.853118 0.3330063 0.07045912 -0.9402884 0.3493955 0.06832182 -0.9344811 0.1712251 0.07360696 -0.9824785 0.02297407 0.07474553 -0.9969381 0.03793615 0.07466745 -0.9964867 -0.009928882 0.07440489 -0.9971787 -0.1138619 0.07414567 -0.9907259 0.4375838 0.06694954 -0.8966818 0.4441291 0.06679862 -0.8934694 0.4992043 0.06462973 -0.8640706 0.5319352 0.06295102 -0.8444419 0.5246058 0.06350511 -0.8489734 -0.01806348 -0.06506097 0.9977178 -0.06073647 -0.06508511 0.9960297 -0.03552168 -0.0649513 0.9972561 -0.08646464 -0.06479865 0.9941455 -0.07816892 -0.06478935 0.9948326 0.2827264 -0.06399714 0.9570634 0.3426684 -0.06304228 0.9373388 0.3547108 -0.06271469 0.9328704 0.181635 -0.06405705 0.9812775 0.2208302 -0.06387335 0.9732186 0.2286759 -0.06365162 0.9714196 0.2855176 -0.06264448 0.956324 0.277311 -0.06305569 0.9587088 0.3441331 -0.06140321 0.936911 0.3261222 -0.06216812 0.9432812 0.4036735 -0.05983263 0.9129446 0.3759683 -0.06121039 0.9246087 0.4550339 -0.05819648 0.8885704 0.425673 -0.05983704 0.9028965 0.5001096 -0.05670356 0.8641037 0.5001096 -0.05670362 0.8641036 0.5001096 -0.05670362 0.8641037 0.4759689 -0.05811023 0.8775403 0.5438541 -0.05508327 0.83737 0.5439268 -0.05506694 0.837324 0.396807 -0.06226539 0.9157879 0.4526481 -0.0601114 0.8896609 0.4244546 -0.0618996 0.9033309 0.5078023 -0.0586524 0.8594748 0.4861125 -0.06007468 0.871829 0.4861125 -0.06007474 0.871829 0.4861125 -0.06007468 0.871829 0.5625692 -0.05681955 0.8247954 0.537772 -0.05854398 0.8410553 0.6146974 -0.05440688 0.7868844 0.581923 -0.05702602 0.8112421 0.6642068 -0.05173015 0.7457569 0.6235398 -0.05548191 0.7798205 0.5880466 -0.05349951 0.8070558 0.6468266 -0.04993957 0.7610002 0.6283156 -0.05158853 0.7762463 0.6283156 -0.05158853 0.7762463 0.6283156 -0.05158859 0.7762463 0.7184358 -0.04575824 0.6940867 0.7090577 -0.04667228 0.7036042 0.7863229 -0.04069584 0.616474 0.7833311 -0.04104733 0.620248 0.8462767 -0.03512489 0.5315845 0.8382685 -0.03626257 0.5440505 0.8382685 -0.03626257 0.5440505 0.8382685 -0.03626257 0.5440505 0.9258271 -0.02916306 0.3768206 0.9258219 -0.02869939 0.376869 0.9228391 -0.02892708 0.3840981 0.9228357 -0.02829873 0.3841527 0.9199006 -0.02857643 0.3911092 0.9199017 -0.02819734 0.3911342 0.9181933 -0.02839499 0.3951137 0.9181933 -0.02839505 0.3951137 0.9181934 -0.02839505 0.3951137 0.9178752 -0.02847695 0.3958463 0.9178752 -0.02847695 0.3958463 0.9178752 -0.02847695 0.3958463 0.9167206 -0.02855783 0.3985069 0.9167258 -0.0287984 0.3984779 0.9129009 -0.0292508 0.4071317 0.9129011 -0.0292508 0.4071318 0.9129009 -0.0292508 0.4071317 0.9127631 -0.02867537 0.4074817 0.905629 -0.0295552 0.4230397 0.9057763 -0.02875888 0.4227792 0.9057764 -0.02875888 0.4227792 0.9057764 -0.02875888 0.4227792 0.9028351 -0.02903699 0.4290053 0.9028411 -0.02918243 0.428983 0.9001233 -0.02939188 0.4346426 0.9000927 -0.02927273 0.4347141 0.8970655 -0.02953654 0.4409095 0.8970547 -0.02921116 0.440953 0.8787602 -0.03123223 0.4762407 0.8787602 -0.03123217 0.4762407 0.8786007 -0.0312826 0.4765316 0.8748094 -0.0342642 0.4832541 0.8748111 -0.03394961 0.4832733 0.8788129 -0.03370362 0.4759749 0.87883 -0.03406578 0.4759175 0.8819752 -0.03382468 0.4700804 0.8819795 -0.03458374 0.4700172 0.8852513 -0.03435075 0.463843 0.8852629 -0.03467005 0.4637972 0.8985956 -0.0334171 0.4375034 0.871925 -0.03438198 0.4884308 0.871928 -0.03484141 0.488393 0.8666463 -0.03527319 0.4976746 0.8666328 -0.03464037 0.4977427 0.8583855 -0.03542613 0.5117806 0.8584029 -0.03461849 0.5118068 0.8528439 -0.03499191 0.5209922 0.8531157 -0.03536015 0.5205222 0.8531157 -0.03536015 0.5205222 0.8531157 -0.03536021 0.5205222 0.8494886 -0.03553712 0.5264089 0.8494886 -0.03553706 0.5264089 0.8494885 -0.03553706 0.5264089 0.8497549 -0.0355342 0.5259792 0.8462681 -0.03577536 0.5315548 0.9484664 -0.02539324 0.3158589 0.9664185 -0.02051579 0.2561531 0.9664185 -0.02051585 0.2561531 0.9664185 -0.02051585 0.2561531 0.9543136 -0.02466809 0.2977871 0.9810037 -0.01651757 0.1932848 0.9748419 -0.01926833 0.222063 0.9917035 -0.01218187 0.1279684 0.9889978 -0.01399904 0.1472665 0.9889978 -0.01399904 0.1472665 0.9889978 -0.01399904 0.1472666 0.9980134 -0.007902741 0.06250506 0.9980134 -0.007902801 0.06250512 0.997996 -0.007746815 0.06280171 0.9966061 -0.009549498 0.08176356 0.9966061 -0.009549558 0.08176356 0.9966061 -0.009549498 0.08176356 0.9999918 -0.003119528 -0.002600431 0.9999709 -0.00269699 -0.007148265 0.9135202 -0.0264011 0.405936 0.9364966 -0.02282392 0.349933 0.9427039 -0.0214774 0.3329387 0.9641131 -0.01692694 0.2649516 0.9664608 -0.01618039 0.2563041 0.9841174 -0.01075619 0.1771934 0.9841429 -0.01074534 0.1770522 0.9841428 -0.0107454 0.1770522 0.9838901 -0.01085799 0.1784449 0.9954046 -0.004978358 0.09562939 0.9953727 -0.005040645 0.09595757 0.9954046 -0.004978239 0.09562939 0.9948857 -0.005344927 0.1008668 0.999964 0.002271413 -0.008184373 0.9996522 -9.15209e-4 0.02636122 0.9939507 0.01021754 -0.1093511 0.9990956 0.003930032 -0.04233878 0.9990813 0.003975272 -0.04267096 0.997816 0.00104922 -0.06604766 0.991012 0.006566524 -0.1336123 0.9958236 0.002318501 -0.09126925 0.9958236 0.002318441 -0.09126925 0.9958236 0.002318501 -0.09126925 0.9798466 0.01148724 -0.1994211 0.9866466 0.007707417 -0.162693 0.9634862 0.01631271 -0.2672606 0.9633982 0.0163998 -0.2675725 0.9713267 0.01334565 -0.2373739 0.9436048 0.02076613 -0.3304224 0.9485991 0.01936477 -0.3158877 0.919235 0.02527266 -0.3928973 0.9161195 0.02600967 -0.4000609 0.9161195 0.02600973 -0.4000609 0.9161195 0.02600967 -0.4000609 0.8898978 0.02989453 -0.4551794 0.8724699 0.03283363 -0.4875637 0.9926708 0.01026773 -0.1204136 0.9813836 0.01528316 -0.1914489 0.9817407 0.01513749 -0.1896209 0.958517 0.02205145 -0.2841811 0.9645185 0.02016949 -0.263244 0.9645185 0.02016949 -0.263244 0.9646065 0.02010858 -0.262926 0.9285799 0.0284242 -0.3700426 0.9427242 0.02493244 -0.3326401 0.8543767 0.03688907 -0.5183431 0.8543836 0.03554856 -0.5184257 0.8576429 0.03542888 -0.5130239 0.8576337 0.03447842 -0.513104 0.8631145 0.03409397 -0.503856 0.8631145 0.03409403 -0.503856 0.8631146 0.03409397 -0.5038561 0.8632975 0.03369957 -0.5035693 0.8679988 0.03333395 -0.4954462 0.8679988 0.03333395 -0.4954462 0.8679988 0.03333389 -0.4954462 0.8681855 0.03317052 -0.4951299 0.8724563 0.03281575 -0.4875892 0.8497499 0.03727537 -0.5258667 0.8497473 0.03780221 -0.5258334 0.8405755 0.03867298 -0.5403122 0.8405883 0.0387113 -0.5402894 0.8343519 0.03915667 -0.5498397 0.8343313 0.04035347 -0.5497846 0.8301257 0.04063391 -0.5560938 0.8301147 0.04181408 -0.5560228 0.8275117 0.04201292 -0.5598745 0.8274913 0.04172098 -0.5599263 0.8467128 0.03986877 -0.5305546 0.6278868 0.05526483 -0.7763401 0.6105945 0.0566225 -0.7899168 0.5951958 0.05690783 -0.8015633 0.5951958 0.05690783 -0.8015633 0.5951958 0.05690777 -0.8015633 0.5955181 0.05701428 -0.8013162 0.5853127 0.05720895 -0.8087868 0.5853419 0.05759441 -0.8087384 0.5740093 0.05783009 -0.8168042 0.5740143 0.05882883 -0.8167293 0.5667536 0.05886453 -0.8217818 0.5667965 0.06028127 -0.8216495 0.5579066 0.06051379 -0.8276947 0.5579171 0.06098031 -0.8276534 0.5417929 0.06151455 -0.838258 0.5418159 0.06168705 -0.8382304 0.5246888 0.06223964 -0.8490158 0.3067199 0.06946951 -0.9492613 0.288538 0.07071739 -0.9548534 0.2918041 0.07074242 -0.9538584 0.2918159 0.07106161 -0.9538311 0.2794719 0.07117909 -0.9575119 0.2794088 0.07119661 -0.957529 0.2637199 0.071316 -0.9619595 0.2637673 0.07195031 -0.9618992 0.2772551 0.07174634 -0.9581139 -0.141843 0.0740745 -0.9871138 -0.1342991 0.07420635 -0.9881585 -0.1083414 0.07447689 -0.9913201 -0.09330117 0.07451289 -0.9928458 -0.09327721 0.07421392 -0.9928705 -0.07521122 0.0744121 -0.9943873 -0.07530575 0.07430166 -0.9943885 -0.1034207 0.07409435 -0.9918741 -0.1955981 0.07334226 -0.9779378 -0.1935012 0.0735771 -0.9783372 -0.1935012 0.07357716 -0.9783372 -0.1935012 0.07357716 -0.9783373 -0.1869529 0.07361179 -0.9796071 -0.1490974 0.07395827 -0.9860529 -0.2032915 0.07300186 -0.9763931 -0.2032915 0.0730018 -0.9763931 -0.2032915 0.0730018 -0.9763931 -0.160717 0.07372283 -0.9842434 -0.02914893 -0.06493037 0.997464 -0.07579058 -0.06475895 0.9950187 -0.06066429 -0.06480264 0.9960525 -0.1046414 -0.06449937 0.9924163 -0.09654384 -0.06454747 0.9932336 -0.07577389 -0.06458109 0.9950315 -0.03061735 -0.06471008 0.9974344 -0.03346812 -0.06477314 0.9973387 0.05846881 -0.06542116 0.9961434 0.0585162 -0.06500315 0.996168 0.05416464 -0.06490612 0.9964204 0.05419731 -0.06539356 0.9963867 0.04237741 -0.06523138 0.9969699 0.04243493 -0.06511837 0.9969749 0.03275287 -0.06496495 0.9973499 0.03272354 -0.06484389 0.9973587 0.02786928 -0.06478977 0.9975097 0.130806 -0.06528365 0.9892563 0.1307995 -0.06466871 0.9892975 0.1243044 -0.0646401 0.9901365 0.1243613 -0.06525832 0.9900887 0.1108208 -0.06508952 0.9917067 0.1107841 -0.06495827 0.9917194 0.09902513 -0.06484574 0.9929698 0.09906834 -0.06468063 0.9929763 0.0922687 -0.06461626 0.9936354 0.09228712 -0.06553637 0.9935734 0.0839039 -0.06526666 0.9943342 0.2055628 -0.06480956 0.9764956 0.2056118 -0.06404715 0.9765356 0.1974113 -0.06405973 0.9782255 0.1974726 -0.06471598 0.97817 0.1820838 -0.06468582 0.9811531 0.1820901 -0.06452232 0.9811627 0.1685932 -0.06445401 0.9835761 0.1685116 -0.06420487 0.9836065 0.1596327 -0.06415486 0.9850897 0.1596524 -0.06522226 0.9850164 0.1509512 -0.06500661 0.9864016 0.2298347 -0.06340008 0.9711625 0.2297869 -0.06458616 0.9710956 0.2208296 -0.06439727 0.9731841 0.2404771 -0.06340092 0.968582 0.2403814 -0.06371515 0.9685851 0.2559123 -0.06367278 0.9646009 0.2558117 -0.0638929 0.964613 0.2721225 -0.06383705 0.9601428 0.2720775 -0.06304901 0.9602077 0.2828657 -0.06304198 0.9570856 0.2942475 -0.06304395 0.9536477 0.2942028 -0.06359678 0.9536249 0.2851541 -0.06348967 0.9563767 0.285154 -0.06348961 0.9563766 0.2851541 -0.06348961 0.9563766 0.340323 -0.06215518 0.9382522 0.3601554 -0.06239092 0.9308037 0.3232698 -0.06281238 0.9442199 0.3232548 -0.06255978 0.9442419 0.3067234 -0.06272041 0.94973 0.3671377 -0.0615288 0.9281294 0.3672029 -0.06063568 0.9281624 0.3600732 -0.06065416 0.9309503 0.3600733 -0.06065887 0.93095 0.3600732 -0.0606541 0.9309503 0.3605578 -0.06169325 0.9306944 0.3535056 -0.06169122 0.933396 0.3534197 -0.06238937 0.9333821 0.3442257 -0.06239801 0.9368112 0.3836832 -0.06126207 0.9214307 0.3836417 -0.06182277 0.9214104 0.3970946 -0.06168055 0.9157028 0.3971695 -0.06070393 0.9157355 0.4022014 -0.06073504 0.9135347 0.4022573 -0.06022274 0.9135439 0.4076822 -0.06022346 0.9111359 0.4076625 -0.06058168 0.9111208 0.4150485 -0.06058442 0.9077799 0.4147845 -0.06115949 0.9078621 0.4147845 -0.06115943 0.907862 0.4147845 -0.06115949 0.907862 0.4244499 -0.06117135 0.9033828 0.4266287 -0.06001067 0.9024338 0.4266936 -0.05910962 0.9024626 0.419707 -0.05916142 0.9057295 0.4197744 -0.06023377 0.9056277 0.4120593 -0.06026941 0.9091617 0.4120621 -0.06091207 0.9091174 0.4036259 -0.06098926 0.9128891 0.445055 -0.05964362 0.8935148 0.445474 -0.06020241 0.8932685 0.445474 -0.06020241 0.8932685 0.445474 -0.06020253 0.8932685 0.4575161 -0.06003677 0.8871723 0.4575365 -0.05911177 0.8872239 0.462366 -0.05912071 0.884716 0.4623241 -0.05855816 0.8847754 0.4690874 -0.05848264 0.8812133 0.4690312 -0.05889618 0.8812156 0.4760249 -0.05887269 0.8774591 0.4760642 -0.05951869 0.8773941 0.4856578 -0.05941218 0.8721277 0.4789745 -0.05850702 0.875877 0.478987 -0.05749285 0.8759372 0.471552 -0.05762016 0.8799538 0.4715056 -0.05860066 0.8799139 0.4647484 -0.05869197 0.8834955 0.4647703 -0.05934268 0.8834405 0.4551315 -0.05950236 0.8884339 0.4970653 -0.05800008 0.8657725 0.4969299 -0.05862802 0.865808 0.5099862 -0.05830013 0.8582048 0.5099158 -0.05741399 0.8583062 0.5149712 -0.05735749 0.8552864 0.5147981 -0.05688357 0.8554223 0.5207179 -0.05675619 0.8518401 0.5206971 -0.05720394 0.851823 0.5282099 -0.05707406 0.8471935 0.5281729 -0.05780923 0.8471667 0.5375362 -0.05767232 0.8412662 0.5378189 -0.0576474 0.8410872 0.5375362 -0.05767232 0.8412663 0.5220913 -0.05695849 0.8509856 0.5217704 -0.05594319 0.8512497 0.5217705 -0.05594319 0.8512496 0.5217705 -0.05594319 0.8512497 0.5145468 -0.05616849 0.8556206 0.5145812 -0.05709886 0.8555384 0.5071669 -0.05725395 0.859944 0.5067368 -0.05772483 0.8601661 0.5067369 -0.05772477 0.8601661 0.5002075 -0.05804812 0.8639578 0.5002076 -0.05804812 0.8639577 0.5002076 -0.05804812 0.8639577 0.5401962 -0.0564385 0.8396445 0.5402621 -0.05701881 0.8395628 0.5539485 -0.05667269 0.8306198 0.5539274 -0.05574524 0.8306967 0.5579194 -0.05575376 0.8280203 0.5577168 -0.05522412 0.8281922 0.5577168 -0.05522406 0.8281922 0.5577167 -0.05522412 0.8281923 0.5649987 -0.05509328 0.8232504 0.5650981 -0.05553382 0.8231526 0.5731666 -0.05533671 0.8175683 0.5732223 -0.05611252 0.8174763 0.5819529 -0.05585837 0.8113018 0.5670308 -0.05521929 0.8218436 0.5667303 -0.05413454 0.8221231 0.5667303 -0.05413448 0.8221231 0.5667304 -0.05413454 0.8221231 0.5594304 -0.05437356 0.8270921 0.5594668 -0.05537086 0.8270012 0.5515588 -0.05553621 0.8322852 0.5515038 -0.05607312 0.8322857 0.543917 -0.05622428 0.8372533 0.5848704 -0.05459022 0.8092878 0.5848721 -0.05521893 0.8092438 0.5969786 -0.05483114 0.8003813 0.5970053 -0.05388826 0.8004255 0.6022028 -0.05384927 0.796525 0.6022443 -0.05336719 0.7965261 0.6080394 -0.05319494 0.7921229 0.6084624 -0.05362695 0.7917687 0.6083503 -0.05365991 0.7918527 0.6083503 -0.05365979 0.7918527 0.6145104 -0.05346608 0.787095 0.6144947 -0.05433362 0.7870479 0.6236012 -0.05401921 0.779874 0.6652642 -0.05246585 0.7447624 0.6652697 -0.05189961 0.7447971 0.6565081 -0.05227047 0.7525058 0.6565424 -0.05150133 0.7525289 0.6489266 -0.05174607 0.7590894 0.6489297 -0.05126196 0.7591195 0.6425634 -0.05145275 0.764503 0.6425634 -0.05145281 0.764503 0.6427606 -0.05186617 0.7643094 0.6375549 -0.05202639 0.7686464 0.6375777 -0.05285191 0.768571 0.6261754 -0.05331903 0.777857 0.6260845 -0.05263084 0.777977 0.6103191 -0.05331683 0.7903594 0.6102666 -0.05226868 0.79047 0.6010961 -0.05258387 0.7974451 0.6010848 -0.05342894 0.7973973 0.5951605 -0.05358093 0.8018187 0.5953215 -0.05410754 0.8016638 0.5879559 -0.05433374 0.8070661 0.719172 -0.04911684 0.693094 0.7191843 -0.04883736 0.6931009 0.7115539 -0.0490778 0.7009155 0.7118682 -0.04842001 0.700642 0.7118681 -0.04842001 0.7006421 0.7118682 -0.04841995 0.7006421 0.70447 -0.04858219 0.708069 0.7044749 -0.0482046 0.70809 0.6984684 -0.04833221 0.714007 0.6985678 -0.04885214 0.7138743 0.6941888 -0.04885774 0.7181329 0.6941917 -0.04975938 0.7180683 0.6832787 -0.05014687 0.7284336 0.6832726 -0.04956638 0.7284791 0.6674774 -0.05026674 0.7429315 0.6674774 -0.0502668 0.7429315 0.6674774 -0.0502668 0.7429315 0.6678222 -0.04935485 0.7426828 0.6601135 -0.04956924 0.7495286 0.660124 -0.05038779 0.7494648 0.6539707 -0.05055665 0.7548288 0.6539782 -0.05101871 0.7547911 0.6537249 -0.05101293 0.755011 0.6537248 -0.05101299 0.755011 0.6467927 -0.05120611 0.7609449 0.7816845 -0.0451228 0.6220397 0.7816948 -0.04441124 0.622078 0.7758146 -0.04465532 0.6293789 0.7758204 -0.04394811 0.6294216 0.7703544 -0.04419392 0.6360827 0.7703273 -0.04377347 0.6361446 0.7647073 -0.04394197 0.6428779 0.7649208 -0.04441243 0.6425915 0.7649208 -0.04441243 0.6425915 0.7649208 -0.04441237 0.6425914 0.7607576 -0.04448479 0.6475099 0.7607768 -0.04520362 0.6474375 0.752034 -0.04569584 0.6575385 0.7520657 -0.04510807 0.6575427 0.7376003 -0.04591405 0.6736748 0.7375301 -0.04503703 0.6738108 0.7305489 -0.04532271 0.6813547 0.7308321 -0.04600679 0.681005 0.7308321 -0.04600679 0.681005 0.7308321 -0.04600685 0.681005 0.7244319 -0.04619508 0.687797 0.7246345 -0.04660701 0.6875556 0.7246345 -0.04660707 0.6875556 0.7246345 -0.04660701 0.6875556 0.7181773 -0.04676628 0.6942871 0.7181772 -0.04676628 0.694287 0.7181772 -0.04676634 0.694287 0.8386322 -0.03979033 0.5432429 0.8386591 -0.03946161 0.5432255 0.8321225 -0.03986048 0.5531577 0.8319278 -0.03914952 0.5535011 0.8321121 -0.03917831 0.5532222 0.8319279 -0.03914952 0.5535011 0.8280591 -0.03937703 0.5592564 0.8280708 -0.03895354 0.5592687 0.8240098 -0.03913038 0.5652227 0.8237528 -0.0394923 0.565572 0.8237528 -0.0394923 0.565572 0.8237528 -0.0394923 0.565572 0.8206117 -0.03958249 0.570114 0.8206129 -0.04019719 0.5700689 0.8128591 -0.04074358 0.5810337 0.8128559 -0.04012572 0.5810811 0.8012073 -0.04100155 0.5969806 0.801236 -0.04010188 0.5970033 0.7961153 -0.04037141 0.6037968 0.7960915 -0.04088729 0.6037935 0.7906834 -0.04113376 0.6108419 0.7906833 -0.0411337 0.6108419 0.7906834 -0.0411337 0.6108419 0.7909762 -0.04135906 0.6104474 0.7863001 -0.0415638 0.6164453 0.942352 -0.02364563 0.3337869 0.9423519 -0.02364563 0.3337869 0.9423199 -0.02365642 0.3338766 0.942347 -0.02287775 0.3338544 0.9423791 -0.02287238 0.3337642 0.9423471 -0.02287757 0.3338544 0.9394423 -0.02329832 0.3419144 0.9394255 -0.02322071 0.3419659 0.9375321 -0.02341967 0.3471097 0.9377598 -0.02312344 0.346514 0.9377598 -0.0231235 0.3465139 0.9377598 -0.02312338 0.346514 0.9365062 -0.02323949 0.3498803 0.9366232 -0.02325326 0.3495662 0.9366232 -0.0232532 0.3495662 0.9461382 -0.02294683 0.3229491 0.9461456 -0.02355355 0.3228837 0.9481577 -0.023229 0.31695 0.9481627 -0.02318894 0.3169382 0.9497107 -0.02298617 0.3122842 0.9497191 -0.02291923 0.3122632 0.9514595 -0.0226708 0.3069382 0.9514595 -0.02267074 0.3069382 0.9514594 -0.0226708 0.3069382 0.9514957 -0.023099 0.3067941 0.9514957 -0.023099 0.3067941 0.9514957 -0.023099 0.3067941 0.9527245 -0.02292227 0.30297 0.952726 -0.02359288 0.3029134 0.9543134 -0.02338629 0.2978912 0.9544136 -0.02337312 0.2975712 0.9544136 -0.02337312 0.2975712 0.9676011 -0.01798731 0.2518423 0.967598 -0.01740497 0.2518952 0.966233 -0.01768451 0.2570622 0.9662245 -0.01737338 0.2571157 0.9651659 -0.01758456 0.2610473 0.9651283 -0.01758617 0.261186 0.9651283 -0.01758635 0.261186 0.9652482 -0.01705372 0.2607783 0.9651228 -0.01709097 0.2612395 0.9651604 -0.01707977 0.2611011 0.964112 -0.01726347 0.2649344 0.9697061 -0.01749724 0.2436477 0.9697085 -0.01812571 0.243592 0.9714412 -0.01772296 0.2366179 0.9714412 -0.0177229 0.2366179 0.9713617 -0.01777338 0.23694 0.9714412 -0.01781749 0.2366104 0.9713644 -0.01792889 0.2369175 0.9720037 -0.01770269 0.2342981 0.9720037 -0.01770269 0.2342981 0.9719704 -0.01773703 0.2344337 0.971968 -0.01784425 0.2344353 0.9718891 -0.01785004 0.2347614 0.9726192 -0.01771265 0.2317287 0.9726184 -0.01808357 0.2317033 0.9737313 -0.01789015 0.2269966 0.9737279 -0.01856684 0.2269567 0.9748411 -0.0182836 0.2221502 0.9857277 -0.01227521 0.1678996 0.9857265 -0.01172441 0.1679463 0.9851043 -0.01186978 0.1715477 0.9851059 -0.01137423 0.1715722 0.9851601 -0.01146864 0.1712548 0.9850323 -0.01146709 0.1719884 0.985034 -0.0108267 0.1720196 0.9841994 -0.01110398 0.1767152 0.9870954 -0.01176595 0.1597008 0.9870726 -0.01175743 0.1598425 0.9870954 -0.01176601 0.1597008 0.9870186 -0.01234573 0.1601311 0.9875112 -0.01218819 0.1570774 0.9875111 -0.01218819 0.1570773 0.9875111 -0.01218813 0.1570774 0.9875625 -0.01242256 0.1567357 0.9878022 -0.01237255 0.1552222 0.9877517 -0.01255595 0.155528 0.9877517 -0.01255589 0.155528 0.9877517 -0.01255595 0.155528 0.9883909 -0.01236182 0.1514288 0.9883909 -0.01236182 0.1514288 0.9883909 -0.01236182 0.1514288 0.9883908 -0.01271414 0.1514008 0.9883908 -0.01271414 0.1514008 0.9883908 -0.01271414 0.1514008 0.9887275 -0.01261782 0.1491941 0.9887249 -0.01321834 0.149159 0.9889531 -0.01317548 0.1476424 0.9958739 -0.006914138 0.09048432 0.9958735 -0.006375551 0.09052807 0.9958431 -0.006426036 0.09085845 0.9956894 -0.006493449 0.09252345 0.9956576 -0.005918502 0.0929026 0.9956576 -0.005918502 0.0929026 0.9956576 -0.005918502 0.0929026 0.9955425 -0.006001055 0.0941233 0.995565 -0.005965173 0.09388744 0.9955649 -0.005965411 0.09388738 0.9955649 -0.005262196 0.09392994 0.9955649 -0.005262255 0.09392994 0.9955649 -0.005262255 0.09392994 0.9954051 -0.005384802 0.09560286 0.9954051 -0.005384743 0.09560292 0.9954051 -0.005384802 0.09560286 0.9961189 -0.006710112 0.08776259 0.9961175 -0.00738573 0.08772408 0.9965134 -0.006950259 0.08314448 0.9965113 -0.007480144 0.08312332 0.9963368 -0.007466137 0.08518993 0.9963363 -0.007834374 0.08516293 0.9964383 -0.007856965 0.0839582 0.9964107 -0.008138537 0.08425903 0.9964107 -0.008138597 0.08425903 0.9964107 -0.008138537 0.08425903 0.9965264 -0.008090734 0.08288341 0.9965632 -0.008663713 0.08238291 0.9965632 -0.008663654 0.08238291 0.9965632 -0.008663713 0.08238291 0.99659 -0.008619964 0.08206284 0.9965899 -0.008620083 0.08206278 0.9965899 -0.008619904 0.08206284 0.9999809 -1.04029e-4 -0.006182909 0.999978 3.3225e-4 -0.006633341 0.999978 3.32328e-4 -0.006633341 0.999978 3.32233e-4 -0.006633341 0.9999675 3.9841e-4 -0.008062422 0.9999673 0.00112152 -0.008011281 0.9999803 0.001077294 -0.006205558 0.9999803 0.001077294 -0.006205558 0.9999803 0.001077294 -0.006205558 0.9999771 0.001956045 -0.00648117 0.9999644 0.002014577 -0.008204579 0.9999708 -3.61746e-5 -0.007644593 0.9999703 -6.27031e-4 -0.007684528 0.9999715 -6.08988e-4 -0.007537484 0.9999708 -0.001111567 -0.00757271 0.9999713 -0.001112103 -0.007497608 0.9999704 -0.001561999 -0.007529199 0.9999818 -0.001626372 -0.005823194 0.999981 -0.001995682 -0.00584805 0.9999803 -0.001992762 -0.005949616 0.999979 -0.002481281 -0.005983293 0.9999718 -0.00240606 -0.007129728 0.9942583 0.007006525 -0.1067771 0.9942583 0.007006525 -0.1067771 0.9942584 0.007006585 -0.1067771 0.9941966 0.007362186 -0.1073263 0.9939702 0.007478356 -0.1093963 0.993932 0.008365333 -0.109678 0.9939163 0.008354544 -0.1098206 0.993932 0.008365333 -0.1096781 0.9938102 0.008388698 -0.1107749 0.9938102 0.008388698 -0.1107749 0.9938102 0.008388698 -0.1107749 0.9937704 0.009420573 -0.1110486 0.9937864 0.009398698 -0.1109073 0.9937704 0.009420573 -0.1110486 0.9939539 0.009343624 -0.1094 0.9948802 0.006653428 -0.1008416 0.9948815 0.00609225 -0.1008657 0.9951111 0.005929052 -0.09858441 0.9951103 0.005312263 -0.0986272 0.9948889 0.005377948 -0.100834 0.9948888 0.005377888 -0.1008341 0.9948888 0.005377888 -0.1008341 0.9949218 0.004889547 -0.1005331 0.9950308 0.004890322 -0.0994479 0.9950301 0.004536032 -0.09947186 0.9954663 0.004290699 -0.0950191 0.9954649 0.003793299 -0.09505432 0.9957982 0.003579676 -0.09150522 0.9832171 0.01239818 -0.1820181 0.9832153 0.01271969 -0.1820057 0.9819587 0.0130344 -0.1886463 0.9819587 0.0130344 -0.1886463 0.9819587 0.0130344 -0.1886463 0.9820147 0.01394456 -0.1882894 0.9815406 0.01415091 -0.1907296 0.9815406 0.01415091 -0.1907296 0.9815407 0.01415091 -0.1907296 0.9814478 0.01515704 -0.19113 0.9814506 0.01519274 -0.1911124 0.9814506 0.0151928 -0.1911124 0.9814506 0.0151928 -0.1911124 0.983923 0.01215106 -0.1781797 0.983922 0.01159852 -0.1782225 0.9845055 0.01147645 -0.1749776 0.9845659 0.01054686 -0.1746965 0.9845659 0.01054686 -0.1746965 0.9845659 0.01054698 -0.1746965 0.9851807 0.01045989 -0.1712002 0.985179 0.009791314 -0.1712503 0.9860752 0.009583294 -0.1660242 0.9860752 0.009583234 -0.1660242 0.9860752 0.009583294 -0.1660242 0.9860188 0.009247124 -0.1663773 0.9863324 0.009198844 -0.1645113 0.9863328 0.008801519 -0.1645302 0.986652 0.008721828 -0.1626096 0.9624773 0.01884651 -0.270707 0.9624778 0.01909643 -0.2706877 0.96092 0.01952409 -0.2761372 0.96092 0.0195235 -0.2761369 0.9608867 0.01945388 -0.2762582 0.960812 0.02025908 -0.2764598 0.9602766 0.02046179 -0.278299 0.9602758 0.02153301 -0.2782207 0.9585184 0.02191478 -0.284187 0.9584252 0.02186208 -0.284505 0.964923 0.01824098 -0.2618991 0.9649332 0.01768958 -0.2618989 0.9666593 0.01738977 -0.255475 0.9666658 0.01635283 -0.2555193 0.9673164 0.01628315 -0.2530491 0.96732 0.01562666 -0.2530768 0.9687187 0.01535052 -0.2476863 0.9688367 0.01502847 -0.2472441 0.9688367 0.01502853 -0.2472441 0.9688367 0.01502853 -0.2472441 0.9696103 0.01485812 -0.244203 0.9697247 0.01453363 -0.2437684 0.9697247 0.01453357 -0.2437684 0.9697247 0.01453357 -0.2437683 0.9713323 0.01418769 -0.2373024 0.9343643 0.0249598 -0.3554439 0.9343681 0.02517992 -0.3554185 0.9316031 0.02555 -0.362578 0.9316031 0.02555 -0.362578 0.9316031 0.02555 -0.362578 0.9316049 0.02656775 -0.3625002 0.9316051 0.02656775 -0.3625002 0.9316049 0.02656775 -0.3625002 0.9294949 0.0268796 -0.3678544 0.9294892 0.02807593 -0.3677794 0.928566 0.02822113 -0.370093 0.9382502 0.02439427 -0.3450965 0.9382517 0.02380013 -0.3451339 0.9404606 0.02352184 -0.3390881 0.9404636 0.02241051 -0.339155 0.9423856 0.0221737 -0.3337931 0.9422299 0.02141731 -0.3342818 0.9422298 0.02141737 -0.3342818 0.9422298 0.02141737 -0.3342818 0.9439872 0.02120792 -0.3292999 0.9439711 0.02086925 -0.3293679 0.9467797 0.020469 -0.3212309 0.9467839 0.02021765 -0.3212345 0.9485012 0.01994413 -0.3161454 0.9485011 0.01994413 -0.3161454 0.9485012 0.01994413 -0.3161454 0.8855171 0.03475344 -0.4633053 0.8855016 0.03496384 -0.463319 0.8856555 0.03499424 -0.4630224 0.8856555 0.03499424 -0.4630224 0.8866279 0.0348556 -0.4611682 0.8866139 0.03363287 -0.461286 0.8896191 0.03340452 -0.4554802 0.8895907 0.03227728 -0.4556166 0.8939304 0.03185433 -0.4470725 0.8939186 0.03167808 -0.4471086 0.9007815 0.03089207 -0.4331726 0.9007689 0.03033322 -0.4332383 0.9046145 0.02993154 -0.4251787 0.9046067 0.02867949 -0.4252815 0.9064187 0.0286079 -0.4214106 0.9064106 0.02773672 -0.4214861 0.9105564 0.02731895 -0.4124812 0.910556 0.02701562 -0.4125022 0.9134147 0.0267198 -0.4061524 0.913422 0.02648687 -0.4061512 0.9159188 0.02625119 -0.4005044 0.8183599 0.03929752 -0.5733609 0.8183701 0.03939026 -0.5733401 0.8123263 0.03977221 -0.5818456 0.8123553 0.03988331 -0.5817975 0.806112 0.04023492 -0.5903938 0.8061488 0.0405938 -0.5903189 0.8000294 0.04091447 -0.5985642 0.8000171 0.04185241 -0.5985159 0.7955912 0.04203665 -0.6043738 0.7955697 0.04343724 -0.604303 0.7882049 0.04389244 -0.6138458 0.7881968 0.04448252 -0.6138136 0.7765827 0.04533737 -0.628382 0.7766185 0.04525536 -0.6283436 0.7687197 0.04575085 -0.6379475 0.7687545 0.04688221 -0.6378234 0.7644965 0.04707652 -0.6429066 0.764514 0.04827409 -0.6427969 0.760787 0.04846954 -0.6471893 0.7543828 0.0458799 -0.6548296 0.754346 0.04569715 -0.6548847 0.7480493 0.04596042 -0.6620497 0.748008 0.04604268 -0.6620908 0.7405714 0.04633909 -0.670378 0.7405507 0.04672521 -0.6703741 0.7313244 0.04710298 -0.6804013 0.7313568 0.04812067 -0.6802954 0.7262797 0.04826182 -0.685703 0.7262444 0.04966628 -0.6856402 0.7184628 0.0500611 -0.6937615 0.7184298 0.0505439 -0.6937608 0.7058253 0.05127906 -0.7065275 0.7058379 0.05128079 -0.7065148 0.6955075 0.05169457 -0.7166569 0.6954882 0.05276703 -0.7165974 0.69031 0.05295932 -0.7215729 0.6903038 0.05410152 -0.7214942 0.6862437 0.05425614 -0.7253454 0.6263404 0.05640262 -0.7775067 0.603715 0.05827176 -0.7950678 0.6092945 0.05820292 -0.7908051 0.609256 0.05928945 -0.790754 0.6056797 0.05937606 -0.7934902 0.6832436 0.05155467 -0.7283683 0.6832454 0.05145418 -0.7283737 0.6753838 0.05174905 -0.7356486 0.675423 0.05178314 -0.7356101 0.666047 0.05206567 -0.7440904 0.6661183 0.05244565 -0.744 0.6564155 0.05273836 -0.752554 0.6564337 0.05373674 -0.7524674 0.6505783 0.05380713 -0.7575306 0.6505637 0.0552293 -0.7574409 0.6411874 0.05559641 -0.7653678 0.6412093 0.05609118 -0.7653133 0.6263698 0.05677223 -0.7774561 0.5091289 0.06205457 -0.8584504 0.5091018 0.06162303 -0.8584976 0.4985798 0.06171411 -0.8646443 0.4985375 0.06209391 -0.8646415 0.4873573 0.06222426 -0.8709828 0.4873426 0.06324058 -0.8709178 0.4803338 0.06319999 -0.8748058 0.4803158 0.06448632 -0.8747218 0.4706573 0.06464737 -0.8799446 0.4706791 0.06510686 -0.8798991 0.455632 0.06545752 -0.8877583 0.4556655 0.06557452 -0.8877325 0.4376198 0.06602287 -0.8967329 0.4198318 0.06600582 -0.9051986 0.4197723 0.06548631 -0.9052639 0.4094087 0.06553226 -0.9099945 0.4096298 0.06594538 -0.9098653 0.4096298 0.06594544 -0.9098653 0.4096298 0.06594544 -0.9098653 0.3974765 0.06590467 -0.9152426 0.3975127 0.06685835 -0.9151578 0.3909627 0.06674778 -0.9179831 0.3909848 0.06799733 -0.917882 0.3812019 0.06805902 -0.9219833 0.3812593 0.06846809 -0.9219293 0.3666744 0.06870383 -0.9278091 0.3667715 0.06876564 -0.9277662 0.3501974 0.06899952 -0.934131 0.3293472 0.06829005 -0.9417361 0.318057 0.06893533 -0.9455621 0.306822 0.06887018 -0.9492719 0.2380455 0.07146388 -0.9686214 0.2380455 0.07146394 -0.9686214 0.2380455 0.07146388 -0.9686214 0.238345 0.07102894 -0.9685797 0.2171854 0.07111382 -0.9735366 0.2172746 0.07237607 -0.9734236 0.2041556 0.07237702 -0.9762592 0.2041168 0.07296139 -0.976224 0.1930974 0.07295942 -0.9784632 0.1931402 0.07294088 -0.9784563 0.1799639 0.07293385 -0.9809657 0.1492992 0.07319331 -0.9860795 0.1492436 0.07274347 -0.9861211 0.1304535 0.07264965 -0.9887892 0.1304367 0.07377207 -0.9887083 0.1190021 0.07365316 -0.9901584 0.1189714 0.07416433 -0.9901241 0.1106067 0.07408696 -0.9910991 0.1105564 0.07407176 -0.9911058 0.0994482 0.07398557 -0.9922884 -0.04844945 0.07476502 -0.9960236 -0.03851193 0.07470118 -0.9964621 0.02318543 0.07472568 -0.9969346 0.04858034 0.0744183 -0.9960431 0.06415939 0.07417559 -0.9951792 0.06415146 0.07381719 -0.9952063 0.0470286 0.07357329 -0.9961804 0.04706257 0.07451575 -0.9961087 0.03785806 0.07437306 -0.9965116 -0.01684594 0.07398557 -0.9971171 -0.0440132 0.07445734 -0.9962525 -0.03851431 0.07455706 -0.9964727 0.004658699 -0.9975282 -0.07011395 0.004627823 -0.9975347 -0.07002365 0.004658818 -0.9975282 -0.07011371 3.05533e-4 -0.9976574 -0.06840723 0.001666724 -0.9975664 -0.06970322 0.001666724 -0.9975665 -0.06970328 0.001666724 -0.9975665 -0.06970322 0.001600086 -0.9975649 -0.06972712 -5.58168e-5 -0.9975572 -0.06985467 0.001419842 -0.9975655 -0.06972193 2.19213e-4 -0.9975563 -0.0698685 0.00153923 -0.9975535 -0.06989127 1.28462e-4 -0.9975522 -0.06992626 0.001231312 -0.9975579 -0.06983423 5.23684e-4 -0.9975507 -0.06994509 0.0015859 -0.9975501 -0.0699383 1.12783e-4 -0.9975467 -0.07000464 0.001116633 -0.9975516 -0.06992495 5.24301e-4 -0.9975439 -0.07004266 0.00124973 -0.9975511 -0.06993186 2.42357e-4 -0.997542 -0.07007151 0.001380205 -0.9975434 -0.07003861 1.1726e-4 -0.9975385 -0.07012134 9.89036e-4 -0.9975425 -0.07005941 8.45948e-4 -0.9975435 -0.07004481 9.89026e-4 -0.9975425 -0.07005941 6.64674e-4 -0.9975422 -0.07006764 9.21962e-4 -0.9975424 -0.07005965 8.70112e-4 -0.9975367 -0.07014149 8.70121e-4 -0.9975367 -0.07014155 8.70117e-4 -0.9975367 -0.07014149 0.001308083 -0.9975357 -0.07014942 2.04597e-4 -0.9975411 -0.07008379 0.001505196 -0.9975542 -0.06988161 0.001505196 -0.9975543 -0.06988155 0.001505255 -0.9975542 -0.06988161 7.50852e-4 -0.9975452 -0.07002335 0.001566171 -0.9975268 -0.07027155 7.82994e-4 -0.9975365 -0.07014602 7.82997e-4 -0.9975365 -0.07014608 7.82991e-4 -0.9975364 -0.07014602 6.33017e-4 -0.997536 -0.07015317 9.97901e-4 -0.9975383 -0.07011651 9.98035e-4 -0.9975383 -0.07011657 9.97996e-4 -0.9975383 -0.07011657 0.001038908 -0.9975346 -0.07016944 0.001038849 -0.9975346 -0.07016921 0.001038908 -0.9975346 -0.07016932 0.000999987 -0.9975319 -0.07020789 -2.82687e-4 -0.9975454 -0.07002246 -2.82751e-4 -0.9975455 -0.07002198 -2.82684e-4 -0.9975455 -0.07002216 -5.54432e-4 -0.9975233 -0.07033437 -5.54401e-4 -0.9975234 -0.07033413 -5.54436e-4 -0.9975234 -0.07033425 2.88055e-4 -0.9975661 -0.06972849 0.00180763 -0.9975686 -0.06966912 -3.71813e-5 -0.9975686 -0.06969267 0.00159645 -0.9975728 -0.06961369 7.29201e-5 -0.9975736 -0.06961971 0.001631081 -0.9975795 -0.06951659 1.67285e-4 -0.9976587 -0.06838965 0.001801848 -0.9976201 -0.06892699 1.17271e-4 -0.9976114 -0.06907737 0.001702129 -0.9976105 -0.06906998 1.19806e-4 -0.9976034 -0.06919193 0.001833736 -0.9976045 -0.06915253 1.87135e-4 -0.9975987 -0.06925898 0.001509547 -0.9976003 -0.0692209 1.27906e-5 -0.9975948 -0.06931626 0.001782894 -0.9975953 -0.06928586 8.59755e-6 -0.9975914 -0.06936502 0.00197941 -0.9975858 -0.06941699 0.00197941 -0.9975858 -0.06941699 0.00197941 -0.9975858 -0.06941699 1.64215e-4 -0.997584 -0.06947118 0.001527726 -0.9975853 -0.06943494 8.15905e-5 -0.9975802 -0.0695247 3.2736e-4 -0.997787 -0.06649124 0.002492129 -0.9977536 -0.06694591 3.83452e-4 -0.9977205 -0.06748151 0.002240657 -0.997703 -0.06770318 4.60761e-4 -0.9976588 -0.06838685 0.001890838 -0.9979675 -0.06369775 0.002460896 -0.9979835 -0.06342661 4.8199e-4 -0.9978569 -0.06543314 0.002713859 -0.9978897 -0.06487518 3.9127e-4 -0.997787 -0.06649059 0.001347839 -0.9980384 -0.06259161 0.001683831 -0.998059 -0.06225365 5.77571e-4 -0.99796 -0.06383985 0.001066386 -0.9980357 -0.06263804 6.92806e-4 -0.9980367 -0.06262964 9.3457e-4 -0.9980574 -0.06229406 7.70658e-4 -0.9980519 -0.06238526 8.03814e-4 -0.9980606 -0.06224513 6.81483e-4 -0.9980562 -0.06231611 6.68969e-4 -0.9980485 -0.06243968 6.05447e-4 -0.9980471 -0.06246352 5.78601e-4 -0.9980469 -0.06246602 4.72698e-4 -0.9980385 -0.06260204 4.45324e-4 -0.9980276 -0.06277692 3.75015e-4 -0.9980219 -0.06286752 3.55966e-4 -0.998005 -0.06313526</float_array>
          <technique_common>
            <accessor source="#right_elevator-mesh-normals-array" count="1286" stride="3">
              <param name="X" type="float"/>
              <param name="Y" type="float"/>
              <param name="Z" type="float"/>
            </accessor>
          </technique_common>
        </source>
        <vertices id="right_elevator-mesh-vertices">
          <input semantic="POSITION" source="#right_elevator-mesh-positions"/>
        </vertices>
        <triangles count="1044">
          <input semantic="VERTEX" source="#right_elevator-mesh-vertices" offset="0"/>
          <input semantic="NORMAL" source="#right_elevator-mesh-normals" offset="1"/>
          <p>0 0 1 1 2 2 2 3 1 4 3 5 2 6 3 6 4 6 4 7 3 8 5 9 4 10 5 10 6 10 6 11 5 11 7 11 6 12 7 12 8 12 8 13 7 13 9 13 8 14 9 14 10 14 10 15 9 15 11 15 10 16 11 16 12 16 12 17 11 17 13 17 12 18 13 18 14 18 14 19 13 19 15 19 14 20 15 20 16 20 14 21 16 21 17 21 17 22 16 22 18 22 17 23 18 23 19 23 19 24 18 24 20 24 19 25 20 25 21 25 19 26 21 26 22 26 22 27 21 27 23 27 22 28 23 28 24 28 22 29 24 29 25 29 25 30 24 30 26 30 25 31 26 31 27 31 27 32 26 32 28 32 27 33 28 33 29 33 29 34 28 34 30 34 29 35 30 35 31 35 31 36 30 36 32 36 31 37 32 38 33 39 33 40 32 40 34 40 33 41 34 41 35 41 35 42 34 42 36 42 35 43 36 43 37 43 37 44 36 44 38 44 37 45 38 45 39 45 39 46 38 46 40 46 39 47 40 47 41 47 41 48 40 48 42 48 41 49 42 49 43 49 43 50 42 50 44 50 43 51 44 51 45 51 45 52 44 52 46 52 45 53 46 53 47 53 47 54 46 54 48 54 47 55 48 55 49 55 49 56 48 56 50 56 49 57 50 57 51 57 51 58 50 58 52 58 51 59 52 59 53 59 53 60 52 60 54 60 53 61 54 61 55 61 55 62 54 62 56 62 55 63 56 63 57 63 55 64 57 64 58 64 58 65 57 65 59 65 58 66 59 66 60 66 60 67 59 67 61 67 60 68 61 68 62 68 62 69 61 69 63 69 62 70 63 70 64 70 64 71 63 71 65 71 64 72 65 72 66 72 64 73 66 73 67 73 67 74 66 74 68 74 67 75 68 75 69 75 67 76 69 76 70 76 70 77 69 77 71 77 70 78 71 78 72 78 70 79 72 79 73 79 73 80 72 80 74 80 73 81 74 81 75 81 75 82 74 82 76 82 76 83 74 83 77 83 76 84 77 84 78 84 78 85 77 85 79 85 78 86 79 86 80 86 80 87 79 87 81 87 76 88 78 88 82 88 83 89 76 89 82 89 75 90 76 90 83 90 84 91 67 91 85 91 64 92 67 92 84 92 86 93 64 93 84 93 62 94 64 94 86 94 87 95 62 95 86 95 60 96 62 96 87 96 88 97 60 97 87 97 88 98 58 98 60 98 58 99 88 99 89 99 89 100 55 100 58 100 90 101 55 101 89 101 91 102 82 102 78 102 91 103 78 103 80 103 91 104 80 104 92 104 91 105 92 105 93 105 91 106 93 106 94 106 91 107 94 107 95 107 91 108 95 108 96 108 91 109 96 109 97 109 91 110 97 110 98 110 91 111 98 111 99 111 67 112 70 112 85 112 85 113 70 113 73 113 85 114 73 114 100 114 100 115 73 115 75 115 100 116 75 116 83 116 101 117 102 117 103 117 103 118 102 118 104 118 103 119 104 119 105 119 105 120 104 120 53 120 105 121 53 121 106 121 106 122 53 122 55 122 106 123 55 123 90 123 80 124 81 125 92 126 92 127 81 127 107 127 92 128 107 128 93 128 93 129 107 129 108 129 93 130 108 131 94 132 94 133 108 133 109 133 94 134 109 135 95 136 95 137 109 137 110 137 95 138 110 138 96 138 96 139 110 139 111 139 96 140 111 140 97 140 97 141 111 142 112 143 97 144 112 145 98 146 98 147 112 147 113 147 98 148 113 148 99 148 99 149 113 150 114 151 115 152 116 152 117 152 59 153 57 153 118 153 119 154 59 154 118 154 61 155 59 155 119 155 120 156 65 156 63 156 65 157 120 157 121 157 121 158 66 158 65 158 122 159 66 159 121 159 68 160 66 160 122 160 69 161 123 161 124 161 124 162 71 162 69 162 125 163 74 163 126 163 125 164 77 164 74 164 77 165 125 165 127 165 127 166 79 166 77 166 128 167 114 167 113 167 128 168 113 168 112 168 128 169 112 169 111 169 128 170 111 170 110 170 128 171 110 171 109 171 128 172 109 172 108 172 128 173 108 173 107 173 128 174 107 174 81 174 128 175 81 175 79 175 128 176 79 176 127 176 116 177 115 177 56 177 56 178 115 178 118 178 56 179 118 179 57 179 119 180 129 180 61 180 61 181 129 181 120 181 61 182 120 182 63 182 122 183 130 183 68 183 68 184 130 184 123 184 68 185 123 185 69 185 74 186 72 186 126 186 126 187 72 187 71 187 126 188 71 188 124 188 104 189 131 189 53 189 131 190 51 190 53 190 131 191 132 191 51 191 132 192 133 192 49 192 51 193 132 193 49 193 133 194 134 194 47 194 49 195 133 195 47 195 135 196 136 196 137 196 134 197 138 197 43 197 45 198 134 198 43 198 136 199 139 199 140 199 138 200 141 200 41 200 43 201 138 201 41 201 139 202 142 202 143 202 142 203 144 203 145 203 146 204 147 204 148 204 147 205 149 205 150 205 151 206 152 206 153 206 152 207 154 207 155 207 11 208 156 208 13 208 157 209 158 209 18 209 16 210 157 210 18 210 159 211 160 211 161 211 158 212 162 212 21 212 20 213 158 213 21 213 163 214 164 215 165 216 162 217 166 217 23 217 21 218 162 219 23 220 164 221 167 221 168 221 24 222 166 222 26 222 169 223 170 223 171 223 172 224 173 224 32 224 30 225 172 225 32 225 174 226 175 226 176 226 175 227 177 227 178 227 179 228 180 228 38 228 36 229 179 229 38 229 181 230 182 230 183 230 178 231 181 231 183 231 180 232 184 232 42 232 40 233 180 233 42 233 182 234 185 234 186 234 184 235 187 235 44 235 42 236 184 236 44 236 185 237 188 237 189 237 187 238 190 238 48 238 46 239 187 239 48 239 188 240 191 240 192 240 190 241 193 241 50 241 48 242 190 242 50 242 194 243 195 243 196 243 192 244 194 244 196 244 197 245 198 245 54 245 52 246 197 246 54 246 199 247 200 247 201 247 202 248 203 248 204 248 205 249 202 249 206 249 137 250 205 250 206 250 135 251 137 251 207 251 134 252 45 252 47 252 208 253 134 253 133 253 39 254 41 254 141 254 209 255 210 255 211 255 212 256 210 256 209 256 213 257 214 257 215 257 216 258 213 258 215 258 217 259 213 259 216 259 217 260 216 260 218 260 149 261 151 262 150 263 219 264 220 264 221 264 15 265 13 265 222 265 20 266 18 267 158 268 160 269 163 270 161 271 24 272 23 272 166 272 167 273 223 273 168 273 170 274 174 275 171 274 34 276 32 276 173 276 177 277 181 277 178 277 40 278 38 278 180 278 46 279 44 279 187 279 224 280 225 280 226 280 191 281 194 281 192 281 199 282 201 282 193 282 227 283 172 283 30 283 227 284 30 284 28 284 227 285 28 285 26 285 227 286 26 286 166 286 227 287 166 287 228 287 137 288 206 288 207 288 207 289 206 289 229 289 207 290 229 290 230 290 230 291 229 291 102 291 230 292 102 292 101 292 145 293 144 293 216 293 216 294 144 294 231 294 216 295 231 295 218 295 39 296 141 296 37 296 37 297 141 297 232 297 37 298 232 298 35 298 35 299 232 299 233 299 35 300 233 300 33 300 33 301 233 301 234 301 33 302 234 302 31 302 31 303 234 303 235 303 31 304 235 304 29 304 29 305 235 305 236 305 29 306 236 306 27 306 27 307 236 308 237 309 27 310 237 310 25 310 25 311 237 311 238 311 25 312 238 312 22 312 231 313 239 313 218 313 218 314 239 314 240 314 218 315 240 315 241 315 241 316 240 316 242 316 241 317 242 318 243 319 243 320 242 320 244 320 243 321 244 321 245 321 245 322 244 322 246 322 245 323 246 323 247 323 247 324 246 324 146 324 247 325 146 325 248 325 238 326 249 326 22 326 22 327 249 327 250 327 22 328 250 329 19 330 19 331 250 331 251 331 19 332 251 332 17 332 17 333 251 333 252 333 17 334 252 334 14 334 14 335 252 335 253 335 14 336 253 337 12 338 220 339 254 339 221 339 221 340 254 340 255 340 221 341 255 341 256 341 256 342 255 342 257 342 256 343 257 343 258 343 258 344 257 344 259 344 258 345 259 346 260 347 260 348 259 349 261 350 260 351 261 351 262 351 262 352 261 352 263 352 262 353 263 354 264 355 264 356 263 356 265 356 264 357 265 357 266 357 266 358 265 359 267 360 266 361 267 361 268 361 268 362 267 362 269 362 268 363 269 363 270 363 270 364 269 364 271 364 270 365 271 365 253 365 253 366 271 366 10 366 253 367 10 368 12 369 262 370 272 370 260 370 260 371 272 371 273 371 260 372 273 372 258 372 258 373 273 373 274 373 258 374 274 374 256 374 256 375 274 375 155 375 256 376 155 376 221 376 221 377 155 377 154 377 221 378 154 378 219 378 272 379 262 379 275 379 275 380 262 380 264 380 275 381 264 381 276 381 276 382 264 382 266 382 276 383 266 383 277 383 277 384 266 384 268 384 277 385 268 385 278 385 278 386 268 387 270 388 278 389 270 390 279 391 279 392 270 392 253 392 279 393 253 393 252 393 220 394 280 394 254 394 254 395 280 396 281 397 254 398 281 398 282 398 282 399 281 399 283 399 282 400 283 400 284 400 284 401 283 401 285 401 284 402 285 403 286 404 286 405 285 406 287 407 286 408 287 409 288 410 288 411 287 411 289 411 288 412 289 412 290 412 10 413 271 413 8 413 8 414 271 414 291 414 8 415 291 415 6 415 6 416 291 416 292 416 6 417 292 417 4 417 4 418 292 419 293 420 4 421 293 421 2 421 2 422 293 423 294 424 2 425 294 425 0 425 0 426 294 426 295 426 0 427 295 427 1 427 1 428 295 428 296 428 1 429 296 430 3 430 289 431 297 431 290 431 290 432 297 432 298 432 290 433 298 434 299 435 299 436 298 436 300 436 299 437 300 437 301 437 301 438 300 439 302 438 301 440 302 440 303 440 303 441 302 441 304 441 303 442 304 442 305 442 305 443 304 443 306 443 305 444 306 445 307 446 307 447 306 447 159 447 307 448 159 448 161 448 3 449 296 449 5 449 5 450 296 450 308 450 5 451 308 451 7 451 7 452 308 452 309 452 7 453 309 454 9 455 9 456 309 456 156 456 9 457 156 457 11 457 310 458 311 458 312 458 312 459 311 459 313 459 312 460 313 460 314 460 314 461 313 461 315 461 314 462 315 463 316 464 316 465 315 465 317 465 316 466 317 467 318 468 318 469 317 469 307 469 318 470 307 470 161 470 311 471 310 471 319 471 319 472 310 472 320 472 319 473 320 473 321 473 321 474 320 474 322 474 321 475 322 475 323 475 323 476 322 476 324 476 323 477 324 477 325 477 325 478 324 478 157 478 325 479 157 479 222 479 222 480 157 480 16 480 222 481 16 481 15 481 223 482 169 482 326 482 326 483 169 483 171 483 326 484 171 485 327 486 327 487 171 487 328 487 327 488 328 488 329 488 329 489 328 489 330 489 329 490 330 490 331 490 331 491 330 491 332 491 331 492 332 492 333 492 333 493 332 493 334 493 333 494 334 494 335 494 335 495 334 495 336 495 335 496 336 496 337 496 337 497 336 497 227 497 337 498 227 498 228 498 338 499 339 499 340 499 340 500 339 500 341 500 340 501 341 501 342 501 342 502 341 502 343 502 342 503 343 503 344 503 344 504 343 504 179 504 344 505 179 505 173 505 173 506 179 506 36 506 173 507 36 507 34 507 201 508 197 508 193 508 193 509 197 509 52 509 193 510 52 510 50 510 190 511 345 511 193 511 193 512 345 512 196 512 193 513 196 513 199 513 199 514 196 514 195 514 199 515 195 515 200 515 117 516 116 516 198 516 198 517 116 518 56 519 198 520 56 520 54 520 197 521 201 521 198 521 198 522 201 523 200 524 198 525 200 525 117 525 202 526 204 526 206 526 206 527 204 527 131 527 206 528 131 528 229 528 229 529 131 529 104 529 229 530 104 530 102 530 131 531 204 531 132 531 132 532 204 532 203 532 132 533 203 533 133 533 136 534 140 534 137 534 137 535 140 535 346 535 137 536 346 536 205 536 205 537 346 537 347 537 205 538 347 538 202 538 202 539 347 539 348 539 202 540 348 540 203 540 203 541 348 541 208 541 203 542 208 542 133 542 139 543 143 543 140 543 140 544 143 544 349 544 140 545 349 545 346 545 346 546 349 546 350 546 346 547 350 547 347 547 347 548 350 548 351 548 347 549 351 549 348 549 348 550 351 550 352 550 348 551 352 551 208 551 208 552 352 552 138 552 208 553 138 553 134 553 142 554 145 554 143 554 143 555 145 555 353 555 143 556 353 556 349 556 349 557 353 557 354 557 349 558 354 558 350 558 350 559 354 559 355 559 350 560 355 560 351 560 351 561 355 561 356 561 351 562 356 562 352 562 352 563 356 563 141 563 352 564 141 564 138 564 355 565 211 565 356 565 356 566 211 566 232 566 356 567 232 567 141 567 211 568 355 568 209 568 209 569 355 569 354 569 209 570 354 570 357 570 357 571 354 571 353 571 357 572 353 572 215 572 215 573 353 573 145 573 215 574 145 574 216 574 210 575 358 575 211 575 211 576 358 576 233 576 211 577 233 578 232 579 214 580 359 580 215 580 215 581 359 581 360 581 215 582 360 582 357 582 357 583 360 583 212 583 357 584 212 584 209 584 360 585 361 585 212 585 212 586 361 586 362 586 212 587 362 588 210 589 210 590 362 590 363 590 210 591 363 591 358 591 358 592 363 592 234 592 358 593 234 593 233 593 361 594 360 594 364 594 364 595 360 595 359 595 364 596 359 596 365 596 365 597 359 597 214 597 365 598 214 598 366 598 366 599 214 599 213 599 366 600 213 600 367 600 367 601 213 601 217 601 367 602 217 602 368 602 368 603 217 604 218 605 368 606 218 606 241 606 364 607 369 607 361 607 361 608 369 608 370 608 361 609 370 609 362 609 362 610 370 610 371 610 362 611 371 611 363 611 363 612 371 612 235 612 363 613 235 613 234 613 369 614 364 614 372 614 372 615 364 616 365 617 372 618 365 618 373 618 373 619 365 619 366 619 373 620 366 620 374 620 374 621 366 621 367 621 374 622 367 622 375 622 375 623 367 623 368 623 375 624 368 624 376 624 376 625 368 625 241 625 376 626 241 626 243 626 372 627 377 627 369 627 369 628 377 628 378 628 369 629 378 629 370 629 370 630 378 630 379 630 370 631 379 631 371 631 371 632 379 632 236 632 371 633 236 633 235 633 377 634 372 634 380 634 380 635 372 635 373 635 380 636 373 636 381 636 381 637 373 637 374 637 381 638 374 638 382 638 382 639 374 639 375 639 382 640 375 640 383 640 383 641 375 641 376 641 383 642 376 642 384 642 384 643 376 643 243 643 384 644 243 645 245 646 380 647 385 647 377 647 377 648 385 649 386 650 377 651 386 651 378 651 378 652 386 652 387 652 378 653 387 653 379 653 379 654 387 655 237 655 379 656 237 657 236 658 385 659 380 659 388 659 388 660 380 660 381 660 388 661 381 661 389 661 389 662 381 662 382 662 389 663 382 663 390 663 390 664 382 665 383 666 390 667 383 667 391 667 391 668 383 668 384 668 391 669 384 669 392 669 392 670 384 670 245 670 392 671 245 671 247 671 388 672 393 672 385 672 385 673 393 674 394 675 385 676 394 676 386 676 386 677 394 677 395 677 386 678 395 678 387 678 387 679 395 679 238 679 387 680 238 680 237 680 393 681 388 681 396 681 396 682 388 682 389 682 396 683 389 683 397 683 397 684 389 684 390 684 397 685 390 685 398 685 398 686 390 686 391 686 398 687 391 687 399 687 399 688 391 689 392 690 399 691 392 691 400 691 400 692 392 692 247 692 400 693 247 693 248 693 146 694 148 694 248 694 248 695 148 695 401 695 248 696 401 696 400 696 400 697 401 697 402 697 400 698 402 698 399 698 399 699 402 699 403 699 399 700 403 701 398 701 398 702 403 702 404 702 398 703 404 703 397 703 397 704 404 704 405 704 397 705 405 705 396 705 396 706 405 706 406 706 396 707 406 707 393 707 393 708 406 708 407 708 393 709 407 709 394 709 394 710 407 710 408 710 394 711 408 711 395 711 395 712 408 712 249 712 395 713 249 713 238 713 147 714 150 714 148 714 148 715 150 715 409 715 148 716 409 716 401 716 401 717 409 718 410 719 401 720 410 720 402 720 402 721 410 721 411 721 402 722 411 722 403 722 403 723 411 723 412 723 403 724 412 724 404 724 404 725 412 725 413 725 404 726 413 726 405 726 405 727 413 727 414 727 405 728 414 729 406 730 406 731 414 731 415 731 406 732 415 732 407 732 407 733 415 733 416 733 407 734 416 734 408 734 408 735 416 736 250 737 408 738 250 738 249 738 151 739 153 739 150 739 150 740 153 740 417 740 150 741 417 741 409 741 409 742 417 742 418 742 409 743 418 743 410 743 410 744 418 744 419 744 410 745 419 745 411 745 411 746 419 747 420 748 411 749 420 749 412 749 412 750 420 750 421 750 412 751 421 751 413 751 413 752 421 752 422 752 413 753 422 753 414 753 414 754 422 754 423 754 414 755 423 755 415 755 415 756 423 757 424 758 415 759 424 759 416 759 416 760 424 761 251 762 416 763 251 764 250 765 152 766 155 766 153 766 153 767 155 767 274 767 153 768 274 768 417 768 417 769 274 770 273 771 417 772 273 772 418 772 418 773 273 773 272 773 418 774 272 774 419 774 419 775 272 776 275 777 419 778 275 778 420 778 420 779 275 779 276 779 420 780 276 780 421 780 421 781 276 781 277 781 421 782 277 782 422 782 422 783 277 783 278 783 422 784 278 784 423 784 423 785 278 785 279 785 423 786 279 787 424 788 424 789 279 789 252 789 424 790 252 790 251 790 263 791 425 792 265 793 265 794 425 795 426 796 265 797 426 797 267 797 267 798 426 798 427 798 267 799 427 799 269 799 269 800 427 801 291 802 269 803 291 804 271 805 425 806 263 806 428 806 428 807 263 807 261 807 428 808 261 808 429 808 429 809 261 809 259 809 429 810 259 810 430 810 430 811 259 811 257 811 430 812 257 813 431 814 431 815 257 816 255 817 431 818 255 818 432 818 432 819 255 819 254 819 432 820 254 821 282 822 428 823 433 823 425 823 425 824 433 824 434 824 425 825 434 825 426 825 426 826 434 826 435 826 426 827 435 828 427 829 427 830 435 831 292 832 427 833 292 833 291 833 433 834 428 834 436 834 436 835 428 835 429 835 436 836 429 837 437 838 437 839 429 840 430 840 437 841 430 842 438 843 438 844 430 845 431 845 438 846 431 846 439 846 439 847 431 847 432 847 439 848 432 848 440 848 440 849 432 849 282 849 440 850 282 850 284 850 436 851 441 851 433 851 433 852 441 852 442 852 433 853 442 853 434 853 434 854 442 855 443 854 434 856 443 856 435 856 435 857 443 857 293 857 435 858 293 858 292 858 441 859 436 860 444 861 444 862 436 862 437 862 444 863 437 864 445 865 445 866 437 866 438 866 445 867 438 867 446 867 446 868 438 869 439 870 446 871 439 872 447 873 447 874 439 875 440 876 447 877 440 877 448 877 448 878 440 878 284 878 448 879 284 879 286 879 444 880 449 880 441 880 441 881 449 882 450 881 441 883 450 883 442 883 442 884 450 885 451 886 442 887 451 888 443 889 443 890 451 891 294 892 443 893 294 894 293 895 449 896 444 896 452 896 452 897 444 897 445 897 452 898 445 898 453 898 453 899 445 899 446 899 453 900 446 900 454 900 454 901 446 901 447 901 454 902 447 902 455 902 455 903 447 904 448 905 455 906 448 906 456 906 456 907 448 908 286 909 456 910 286 911 288 912 452 913 457 913 449 913 449 914 457 915 458 916 449 917 458 917 450 917 450 918 458 918 459 918 450 919 459 920 451 921 451 922 459 922 295 922 451 923 295 923 294 923 457 924 452 924 460 924 460 925 452 925 453 925 460 926 453 926 461 926 461 927 453 927 454 927 461 928 454 928 462 928 462 929 454 929 455 929 462 930 455 930 463 930 463 931 455 931 456 931 463 932 456 932 464 932 464 933 456 933 288 933 464 934 288 934 290 934 460 935 465 936 457 937 457 938 465 938 466 938 457 939 466 939 458 939 458 940 466 941 467 942 458 943 467 944 459 945 459 946 467 947 296 948 459 949 296 949 295 949 465 950 460 950 468 950 468 951 460 951 461 951 468 952 461 952 469 952 469 953 461 953 462 953 469 954 462 955 470 956 470 957 462 957 463 957 470 958 463 958 471 958 471 959 463 959 464 959 471 960 464 960 472 960 472 961 464 961 290 961 472 962 290 962 299 962 468 963 473 963 465 963 465 964 473 964 474 964 465 965 474 966 466 967 466 968 474 968 475 968 466 969 475 970 467 971 467 972 475 972 308 972 467 973 308 974 296 975 473 976 468 976 476 976 476 977 468 977 469 977 476 978 469 978 477 978 477 979 469 980 470 981 477 982 470 982 478 982 478 983 470 983 471 983 478 984 471 985 479 986 479 987 471 987 472 987 479 988 472 988 480 988 480 989 472 989 299 989 480 990 299 990 301 990 476 991 481 991 473 991 473 992 481 992 482 992 473 993 482 994 474 995 474 996 482 996 483 996 474 997 483 997 475 997 475 998 483 998 309 998 475 999 309 1000 308 999 481 1001 476 1001 484 1001 484 1002 476 1002 477 1002 484 1003 477 1003 485 1003 485 1004 477 1004 478 1004 485 1005 478 1005 486 1005 486 1006 478 1006 479 1006 486 1007 479 1007 487 1007 487 1008 479 1009 480 1010 487 1011 480 1011 488 1011 488 1012 480 1013 301 1014 488 1015 301 1015 303 1015 484 1016 489 1016 481 1016 481 1017 489 1017 490 1017 481 1018 490 1019 482 1020 482 1021 490 1022 491 1023 482 1024 491 1024 483 1024 483 1025 491 1025 156 1025 483 1026 156 1026 309 1026 489 1027 484 1027 492 1027 492 1028 484 1028 485 1028 492 1029 485 1029 493 1029 493 1030 485 1030 486 1030 493 1031 486 1031 494 1031 494 1032 486 1033 487 1034 494 1035 487 1035 495 1035 495 1036 487 1036 488 1036 495 1037 488 1037 496 1037 496 1038 488 1038 303 1038 496 1039 303 1040 305 1041 13 1042 156 1042 222 1042 222 1043 156 1044 491 1045 222 1046 491 1046 325 1046 325 1047 491 1047 490 1047 325 1048 490 1048 323 1048 323 1049 490 1049 489 1049 323 1050 489 1050 321 1050 321 1051 489 1051 492 1051 321 1052 492 1052 319 1052 319 1053 492 1053 493 1053 319 1054 493 1054 311 1054 311 1055 493 1055 494 1055 311 1056 494 1056 313 1056 313 1057 494 1057 495 1057 313 1058 495 1058 315 1058 315 1059 495 1059 496 1059 315 1060 496 1060 317 1060 317 1061 496 1061 305 1061 317 1062 305 1062 307 1062 163 1063 165 1063 161 1063 161 1064 165 1064 497 1064 161 1065 497 1065 318 1065 318 1066 497 1066 498 1066 318 1067 498 1067 316 1067 316 1068 498 1068 499 1068 316 1069 499 1069 314 1069 314 1070 499 1070 500 1070 314 1071 500 1071 312 1071 312 1072 500 1072 501 1072 312 1073 501 1073 310 1073 310 1074 501 1074 502 1074 310 1075 502 1075 320 1075 320 1076 502 1076 503 1076 320 1077 503 1077 322 1077 322 1078 503 1078 504 1078 322 1079 504 1079 324 1079 324 1080 504 1080 158 1080 324 1081 158 1081 157 1081 164 1082 168 1082 165 1082 165 1083 168 1083 505 1083 165 1084 505 1084 497 1084 497 1085 505 1085 506 1085 497 1086 506 1086 498 1086 498 1087 506 1087 507 1087 498 1088 507 1088 499 1088 499 1089 507 1089 508 1089 499 1090 508 1090 500 1090 500 1091 508 1091 509 1091 500 1092 509 1092 501 1092 501 1093 509 1093 510 1093 501 1094 510 1094 502 1094 502 1095 510 1095 511 1095 502 1096 511 1096 503 1096 503 1097 511 1097 512 1097 503 1098 512 1098 504 1098 504 1099 512 1099 162 1099 504 1100 162 1100 158 1100 510 1101 337 1101 511 1101 511 1102 337 1102 228 1102 511 1103 228 1103 512 1103 512 1104 228 1104 166 1104 512 1105 166 1105 162 1105 223 1106 326 1106 168 1106 168 1107 326 1107 327 1107 168 1108 327 1108 505 1108 505 1109 327 1109 329 1109 505 1110 329 1110 506 1110 506 1111 329 1111 331 1111 506 1112 331 1112 507 1112 507 1113 331 1113 333 1113 507 1114 333 1114 508 1114 508 1115 333 1115 335 1115 508 1116 335 1116 509 1116 509 1117 335 1117 337 1117 509 1118 337 1118 510 1118 174 1119 176 1119 171 1119 171 1120 176 1120 513 1120 171 1121 513 1121 328 1121 328 1122 513 1122 514 1122 328 1123 514 1123 330 1123 330 1124 514 1124 515 1124 330 1125 515 1125 332 1125 332 1126 515 1126 516 1126 332 1127 516 1127 334 1127 334 1128 516 1128 517 1128 334 1129 517 1129 336 1129 336 1130 517 1130 172 1130 336 1131 172 1131 227 1131 175 1132 178 1132 176 1132 176 1133 178 1133 518 1133 176 1134 518 1134 513 1134 513 1135 518 1136 338 1137 513 1138 338 1138 514 1138 514 1139 338 1139 340 1139 514 1140 340 1140 515 1140 515 1141 340 1141 342 1141 515 1142 342 1142 516 1142 516 1143 342 1143 344 1143 516 1144 344 1144 517 1144 517 1145 344 1145 173 1145 517 1146 173 1146 172 1146 178 1147 183 1147 518 1147 518 1148 183 1148 339 1148 518 1149 339 1149 338 1149 182 1150 186 1151 183 1152 183 1153 186 1153 519 1153 183 1154 519 1154 339 1154 339 1155 519 1155 520 1155 339 1156 520 1156 341 1156 341 1157 520 1157 521 1157 341 1158 521 1158 343 1158 343 1159 521 1159 180 1159 343 1160 180 1160 179 1160 185 1161 189 1161 186 1161 186 1162 189 1162 522 1162 186 1163 522 1163 519 1163 519 1164 522 1164 224 1164 519 1165 224 1165 520 1165 520 1166 224 1166 226 1166 520 1167 226 1167 521 1167 521 1168 226 1168 184 1168 521 1169 184 1169 180 1169 190 1170 187 1170 345 1170 345 1171 187 1171 225 1171 187 1172 184 1172 225 1172 225 1173 184 1173 226 1173 188 1174 192 1174 189 1174 189 1175 192 1175 523 1175 189 1176 523 1176 522 1176 522 1177 523 1177 225 1177 522 1178 225 1178 224 1178 192 1179 196 1179 523 1179 523 1180 196 1180 345 1180 523 1181 345 1181 225 1181 287 1182 285 1183 289 1184 106 1185 115 1185 105 1185 177 1186 175 1187 239 1188 239 1189 175 1189 174 1189 239 1190 174 1190 240 1190 240 1191 174 1191 170 1191 240 1192 170 1192 242 1192 242 1193 170 1193 169 1193 242 1194 169 1194 244 1194 244 1195 169 1195 223 1195 244 1196 223 1196 246 1196 246 1197 223 1197 167 1197 246 1198 167 1198 146 1198 146 1199 167 1199 164 1199 146 1200 164 1200 147 1200 147 1201 164 1201 163 1201 147 1202 163 1202 149 1202 149 1203 163 1203 160 1203 149 1204 160 1204 151 1204 151 1205 160 1206 159 1207 151 1208 159 1208 152 1208 152 1209 159 1209 306 1209 152 1210 306 1211 154 1212 154 1213 306 1213 304 1213 154 1214 304 1214 219 1214 219 1215 304 1216 302 1217 219 1218 302 1218 220 1218 220 1219 302 1219 300 1219 220 1220 300 1221 280 1222 280 1223 300 1223 298 1223 280 1224 298 1225 281 1226 281 1227 298 1228 297 1229 281 1230 297 1230 283 1230 283 1231 297 1232 289 1233 283 1234 289 1235 285 1236 231 1237 177 1237 239 1237 177 1238 231 1238 181 1238 181 1239 231 1239 144 1239 181 1240 144 1240 182 1240 182 1241 144 1241 142 1241 182 1242 142 1242 185 1242 105 1243 115 1243 103 1243 103 1244 115 1244 117 1244 103 1245 117 1245 101 1245 101 1246 117 1246 200 1246 101 1247 200 1247 230 1247 230 1248 200 1248 195 1248 230 1249 195 1249 207 1249 207 1250 195 1250 194 1250 207 1251 194 1251 135 1251 135 1252 194 1252 191 1252 135 1253 191 1253 136 1253 136 1254 191 1255 188 1256 136 1257 188 1257 139 1257 139 1258 188 1258 185 1258 139 1259 185 1259 142 1259 88 1260 119 1260 89 1260 89 1261 119 1261 118 1261 89 1262 118 1262 90 1262 90 1263 118 1263 115 1263 90 1264 115 1264 106 1264 121 1265 120 1265 86 1265 86 1266 120 1266 129 1266 86 1267 129 1267 87 1267 87 1268 129 1268 119 1268 87 1269 119 1269 88 1269 130 1270 122 1270 84 1270 84 1271 122 1271 121 1271 84 1272 121 1272 86 1272 130 1273 84 1273 123 1273 123 1274 84 1274 85 1274 123 1275 85 1275 124 1275 124 1276 85 1276 100 1276 124 1277 100 1277 126 1277 126 1278 100 1278 83 1278 126 1279 83 1279 125 1279 125 1280 83 1280 82 1280 125 1281 82 1281 127 1281 127 1282 82 1282 91 1282 127 1283 91 1283 128 1283 128 1284 91 1284 99 1284 128 1285 99 1285 114 1285</p>
        </triangles>
      </mesh>
    </geometry>
  </library_geometries>
  <library_visual_scenes>
    <visual_scene id="Scene" name="Scene">
      <node id="right_elevator" name="right_elevator" type="NODE">
        <matrix sid="transform">0.001980197 0 0 0.004484674 0 0.001980197 0 0 0 0 0.001980197 0.003122766 0 0 0 1</matrix>
        <instance_geometry url="#right_elevator-mesh" name="right_elevator"/>
      </node>
    </visual_scene>
  </library_visual_scenes>
  <scene>
    <instance_visual_scene url="#Scene"/>
  </scene>
</COLLADA>