<?xml version="1.0" encoding="utf-8"?>
<COLLADA xmlns="http://www.collada.org/2005/11/COLLADASchema" version="1.4.1" xmlns:xsi="http://www.w3.org/2001/XMLSchema-instance">
  <asset>
    <contributor>
      <author>Blender User</author>
      <authoring_tool>Blender 4.4.3 commit date:2025-04-29, commit time:14:09, hash:802179c51ccc</authoring_tool>
    </contributor>
    <created>2025-08-27T14:14:49</created>
    <modified>2025-08-27T14:14:49</modified>
    <unit name="meter" meter="1"/>
    <up_axis>Z_UP</up_axis>
  </asset>
  <library_images/>
  <library_geometries>
    <geometry id="right_canard-mesh" name="right_canard">
      <mesh>
        <source id="right_canard-mesh-positions">
          <float_array id="right_canard-mesh-positions-array" count="1932">-254.0525 -101.0469 -4.980228 -253.0084 -100.835 -5.00873 -254.0267 -101.0587 -5.300811 -251.9805 -100.6111 -4.749679 -164.2843 -82.77524 -6.372907 -147.4521 -79.26796 -5.115819 -147.6255 -79.30439 -5.134792 -119.0647 -72.59431 11.1869 -229.9816 -95.71418 2.74538 -120.136 -72.78829 11.65341 -204.3128 -90.89323 -5.200811 -115.9632 -72.46165 1.817146 -116.3232 -72.54501 1.634411 -117.3139 -72.77157 1.183684 -118.4368 -73.02556 0.7258885 -197.8087 -89.58689 -5.629202 -213.7274 -92.78236 -4.547002 -113.8585 -71.95333 3.279636 -114.2838 -72.06038 2.901692 -114.9534 -72.22387 2.404287 -113.0121 -71.59851 6.678359 -112.8739 -71.59214 6.268658 -236.1473 -97.31035 -3.537254 -238.4067 -97.77262 -3.546727 -240.6612 -98.23571 -3.590491 -242.0319 -98.51828 -3.636249 -244.3763 -99.00373 -3.754055 -246.7139 -99.49134 -3.938538 -251.0628 -100.3883 -4.09206 -113.1315 -71.60875 6.941243 -247.2968 -99.55553 -2.911805 -113.5854 -71.66666 7.593168 -113.3204 -71.63092 7.24895 -222.9517 -94.15615 5.013466 -218.3892 -93.14735 6.440556 -124.6121 -73.61835 13.23761 -122.8244 -73.2837 12.66354 -121.2177 -72.9863 12.08473 -247.5246 -99.6614 -4.020368 -249.1183 -99.9974 -4.212713 -249.9 -100.1636 -4.332882 -250.944 -100.3872 -4.524271 -152.5119 -80.32901 -5.620214 -157.4019 -81.34907 -6.006729 -159.4532 -81.77536 -6.138613 -142.7459 -78.27581 -4.548512 -167.5768 -83.45341 -6.471825 -139.7265 -77.63631 -4.129702 -172.7437 -84.51274 -6.534723 -135.3227 -76.69905 -3.433324 -132.8743 -76.17543 -2.998684 -176.2231 -85.2229 -6.516863 -130.4318 -75.651 -2.526932 -181.5375 -86.30318 -6.408029 -128.123 -75.15311 -2.040373 -126.6894 -74.8427 -1.714687 -186.0454 -87.21601 -6.249767 -124.1866 -74.29803 -1.094746 -192.8134 -88.58169 -5.922228 -122.571 -73.94409 -0.6504781 -120.9673 -73.59032 -0.1639525 -119.6936 -73.30716 0.2629815 -113.5821 -71.88179 3.559787 -219.6898 -93.98006 -4.157461 -113.2471 -71.79065 3.983973 -113.1064 -71.74953 4.21423 -112.9877 -71.71231 4.456294 -225.5078 -95.15192 -3.836321 -112.8929 -71.67956 4.708524 -112.8248 -71.65174 4.969357 -112.7846 -71.62913 5.236307 -228.8695 -95.83123 -3.691698 -112.7717 -71.61193 5.506364 -112.7977 -71.59679 5.891372 -232.6854 -96.60509 -3.579558 -114.0519 -71.73537 8.0916 -239.9506 -97.9266 -0.5266865 -114.7118 -71.83972 8.662419 -115.4144 -71.95555 9.181737 -116.2187 -72.09234 9.697124 -117.542 -72.3229 10.44319 -207.1176 -90.66774 9.73097 -133.6806 -75.35704 15.38117 -209.9316 -91.28485 8.946099 -130.5983 -74.75976 14.77044 -213.3906 -92.04523 7.946445 -128.7823 -74.41059 14.3597 -127.1127 -74.09172 13.94226 -136.3773 -75.88391 15.8345 -204.2944 -90.05017 10.49003 -139.2203 -76.44326 16.24008 -199.1669 -88.93276 11.78925 -142.2221 -77.03791 16.59182 -197.5344 -88.57822 12.17991 -145.4844 -77.68854 16.89294 -193.8029 -87.77012 13.03002 -149.4014 -78.47531 17.15 -189.3195 -86.80363 13.96876 -152.5077 -79.10324 17.2793 -184.7186 -85.81729 14.82961 -155.6127 -79.73439 17.34337 -182.348 -85.3114 15.22989 -157.6991 -80.16044 17.34981 -179.0033 -84.60044 15.74191 -161.2194 -80.88285 17.29458 -175.6475 -83.89064 16.19007 -165.1318 -81.6911 17.13276 -173.58 -83.45515 16.43197 -166.3377 -81.94136 17.06162 -170.1981 -82.74597 16.76862 -26.81607 -400.5902 37.36666 -26.84277 -400.5902 37.51778 -26.80689 -400.5902 37.21347 -92.85498 -400.5902 31.73493 -92.10534 -400.5902 31.76839 -94.32852 -400.5902 32.90978 -94.90681 -400.5902 31.60541 -101.1829 -400.5902 30.7521 -101.1548 -400.5902 30.43086 -100.2815 -400.5902 30.68692 -99.39978 -400.5902 30.91426 -98.51102 -400.5902 31.11221 -97.61655 -400.5902 31.28026 -98.0327 -400.5902 31.70594 -96.72296 -400.5902 31.41734 -95.81592 -400.5902 31.52512 -27.09233 -400.5902 36.45702 -26.98166 -400.5902 36.61074 -27.37643 -400.5902 38.39014 -26.89379 -400.5902 36.77965 -27.08854 -400.5902 38.06139 -26.82853 -400.5902 36.99205 -26.89218 -400.5902 37.68188 -41.25577 -400.5902 42.43526 -39.32587 -400.5902 32.87277 -40.071 -400.5902 42.30576 -36.76933 -400.5902 33.30475 -38.17933 -400.5902 42.05053 -34.24399 -400.5902 33.80232 -36.0246 -400.5902 41.6795 -32.47086 -400.5902 34.21039 -34.15094 -400.5902 41.27361 -31.55497 -400.5902 34.4485 -32.43501 -400.5902 40.81533 -30.26245 -400.5902 34.83262 -31.40766 -400.5902 40.48863 -29.612 -400.5902 35.05346 -30.29968 -400.5902 40.07588 -28.97159 -400.5902 35.29543 -29.19162 -400.5902 39.57823 -28.17696 -400.5902 35.6512 -28.32336 -400.5902 39.10179 -27.61825 -400.5902 35.98404 -28.0729 -400.5902 38.94246 -27.30269 -400.5902 36.24206 -27.76842 -400.5902 38.72554 -48.67126 -400.5902 42.79595 -48.6255 -400.5902 31.75428 -46.81846 -400.5902 42.77256 -44.58043 -400.5902 32.16361 -44.96669 -400.5902 42.70639 -41.07412 -400.5902 32.61204 -43.22063 -400.5902 42.60309 -71.01765 -400.5902 39.91463 -70.57412 -400.5902 31.38698 -68.85437 -400.5902 40.4101 -64.9607 -400.5902 31.25487 -65.82273 -400.5902 41.04021 -62.15987 -400.5902 31.22833 -62.77549 -400.5902 41.58986 -59.93029 -400.5902 31.23328 -61.28183 -400.5902 41.82602 -57.69788 -400.5902 31.26608 -58.13918 -400.5902 42.24536 -55.62131 -400.5902 31.3252 -56.35372 -400.5902 42.43335 -53.58456 -400.5902 31.41251 -53.68042 -400.5902 42.64338 -51.10358 -400.5902 31.56014 -51.35754 -400.5902 42.75364 -75.9178 -400.5902 38.66179 -73.83032 -400.5902 31.49429 -73.29076 -400.5902 39.35478 -89.40129 -400.5902 31.84009 -86.69755 -400.5902 31.8497 -88.1911 -400.5902 34.93214 -83.18419 -400.5902 31.79676 -83.34885 -400.5902 36.4795 -79.19773 -400.5902 31.68241 -79.29537 -400.5902 37.7063 -127.9764 -348.0371 24.16171 -128.0039 -348.0352 24.48286 -154.661 -295.7523 17.92455 -154.6881 -295.7484 18.2456 -180.1071 -245.894 11.97686 -180.1338 -245.8882 12.29781 -205.3969 -196.3422 6.065738 -205.4232 -196.3345 6.38657 -229.8005 -148.5267 0.3617303 -229.8265 -148.5169 0.6824419 -41.31071 -345.1243 31.70391 -115.8586 -347.6258 25.68615 -112.4315 -347.5129 25.71107 -108.2781 -347.377 25.64772 -103.0843 -347.2078 25.48207 -90.01802 -346.7827 24.98666 -84.37017 -346.5981 24.85856 -73.6678 -346.2454 24.98049 -64.14857 -345.9267 25.66899 -61.18109 -345.8263 25.99809 -55.19663 -345.6224 26.8411 -52.22623 -345.5203 27.36484 -48.72089 -345.3987 28.10541 -43.61483 -345.2174 29.67819 -42.94537 -345.1927 29.98968 -42.40229 -345.1722 30.30367 -42.04583 -345.1582 30.5688 -41.74815 -345.1461 30.84269 -41.54185 -345.1371 31.09708 -41.45784 -345.1331 31.23774 -41.38995 -345.1296 31.38678 -191.3936 -141.9946 1.276105 -180.5464 -140.1913 0.5962181 -172.5771 -138.8637 0.1572345 -165.89 -137.746 -0.1255432 -150.3894 -135.1322 -0.2665684 -133.2263 -132.1849 0.7831303 -137.7591 -132.9691 0.3742446 -128.699 -131.3977 1.279604 -124.1797 -130.6077 1.871888 -120.7408 -130.0033 2.395084 -109.2336 -127.955 4.728767 -111.9485 -128.4429 4.073766 -106.9892 -127.5483 5.348654 -105.0646 -127.1958 5.962475 -103.5045 -126.9069 6.533651 -102.3897 -126.6979 6.997336 -191.9914 -194.4774 7.774643 -213.1679 -145.6373 2.128155 -188.5674 -194.0149 7.817367 -209.9474 -145.0937 2.111099 -185.4449 -193.5954 7.793447 -206.3983 -144.4973 2.03161 -197.8603 -143.0707 1.657847 -170.8208 -191.6476 7.202255 -159.9713 -190.2087 6.58781 -88.06237 -180.3186 12.54037 -84.95619 -179.8262 14.64603 -85.29879 -179.8862 14.25336 -99.36347 -126.1 8.950866 -118.1933 -239.6864 12.14439 -136.0047 -187.0082 5.852521 -114.615 -239.3268 12.18756 -132.206 -186.4948 5.909682 -110.182 -238.8789 12.329 -128.5453 -185.9978 6.028771 -79.15483 -235.6643 16.37069 -96.8609 -181.596 9.902649 -94.36392 -181.2389 10.49554 -72.79715 -234.9723 18.47073 -87.37112 -180.2144 12.85596 -151.2106 -295.5072 18.77258 -175.6483 -245.4205 12.99861 -149.8099 -295.4097 19.00149 -174.3941 -245.2902 13.17501 -148.6182 -242.7063 13.22893 -138.7446 -241.7302 12.72731 -122.3586 -293.5769 19.05822 -115.2083 -293.1053 18.73905 -132.0636 -241.0686 12.42906 -109.8084 -292.7484 18.54232 -126.4649 -240.5125 12.24391 -105.0493 -292.4329 18.42507 -122.1637 -240.0838 12.16135 -100.1476 -292.1065 18.38453 -96.87879 -291.8878 18.41527 -92.84836 -291.6169 18.52969 -88.50074 -291.3228 18.75651 -106.4393 -238.4987 12.52948 -71.7744 -290.1737 20.64267 -85.87806 -236.375 14.95779 -68.38486 -289.937 21.24583 -64.38568 -289.6552 22.10209 -66.78073 -289.8243 21.56659 -81.8105 -235.9465 15.75602 -62.37165 -289.5117 22.62229 -77.27928 -235.4633 16.86965 -58.56769 -289.235 23.93039 -59.45995 -289.3009 23.56774 -73.81575 -235.0858 18.03142 -57.80795 -289.1779 24.29448 -97.28712 -347.0193 25.25077 -56.6657 -289.0879 25.08448 -56.33771 -289.06 25.42814 -55.97269 -289.0209 26.27366 -70.18347 -234.6438 21.01099 -84.5338 -179.7323 15.69701 -98.60118 -125.9032 10.48807 -127.3437 -348.0147 24.34972 -126.0664 -347.9698 24.68328 -125.1827 -347.9391 24.87858 -123.7117 -347.8885 25.14202 -122.0186 -347.831 25.36009 -120.5683 -347.7823 25.48198 -118.3245 -347.7075 25.60874 -77.20201 -346.3625 24.87237 -80.06878 -346.457 24.83748 -69.85581 -346.1184 25.18538 -67.12091 -346.0267 25.39178 -58.21986 -345.7257 26.38262 -50.81958 -345.4717 27.64274 -46.95486 -345.3369 28.55369 -45.68921 -345.2921 28.92557 -44.65872 -345.2552 29.27199 -41.34036 -345.1266 31.54286 -228.852 -148.3543 0.6353303 -227.8951 -148.1817 0.8802404 -226.9308 -148.0092 1.095941 -225.9599 -147.8368 1.2821 -224.4936 -147.5791 1.505481 -222.9985 -147.3186 1.682045 -220.8241 -146.9426 1.874245 -218.6427 -146.5683 1.999202 -216.3188 -146.1719 2.081921 -203.2716 -143.9738 1.91902 -160.7489 -136.8832 -0.2654172 -157.4816 -136.3329 -0.3106786 -154.5195 -135.8326 -0.3175153 -146.4091 -134.4542 -0.1459957 -141.9284 -133.6869 0.07919627 -117.2887 -129.3935 2.989104 -115.0244 -128.9917 3.421327 -98.64025 -125.9207 10.24152 -98.7061 -125.9425 10.00101 -98.79734 -125.9681 9.769027 -98.91122 -125.9972 9.547129 -99.0456 -126.0292 9.3368 -99.62347 -126.1553 8.694919 -100.0232 -126.238 8.351392 -100.7223 -126.378 7.858037 -101.6408 -126.5558 7.348773 -204.5208 -196.2153 6.320043 -203.6376 -196.0883 6.549674 -202.7479 -195.9614 6.754197 -201.8524 -195.8345 6.933322 -200.501 -195.6448 7.153862 -199.1228 -195.453 7.33212 -197.1171 -195.1761 7.527906 -195.1042 -194.9006 7.656917 -180.9237 -192.9909 7.676641 -176.9853 -192.4663 7.517781 -152.6278 -189.233 6.222169 -146.4699 -188.4121 5.990538 -141.7373 -187.7789 5.881009 -138.7301 -187.3752 5.850144 -124.4238 -185.4354 6.242809 -120.5897 -184.9095 6.518848 -116.4217 -184.3351 6.898108 -112.2591 -183.7586 7.355835 -108.1042 -183.1801 7.898922 -104.9434 -182.7378 8.376798 -101.7706 -182.2916 8.917919 -99.6888 -181.9975 9.310925 -92.29895 -180.9412 11.05519 -90.52782 -180.6833 11.60823 -89.45267 -180.5252 11.98683 -86.58764 -180.0942 13.27283 -85.86975 -179.9806 13.75516 -84.57128 -179.7454 15.47089 -84.63421 -179.7616 15.25069 -84.72103 -179.7807 15.03881 -84.82912 -179.8024 14.83682 -179.3084 -245.8078 12.2104 -178.5035 -245.7216 12.42306 -177.6932 -245.6354 12.6145 -176.8779 -245.5493 12.78448 -172.5674 -245.1021 13.37018 -170.7337 -244.9149 13.50014 -167.8976 -244.6275 13.6255 -164.779 -244.3135 13.68465 -161.9351 -244.0286 13.68154 -157.8176 -243.6182 13.60222 -154.2308 -243.262 13.48078 -102.9584 -238.1432 12.78429 -99.17459 -237.755 13.13154 -95.39615 -237.3655 13.54821 -91.62503 -236.9748 14.03996 -88.75703 -236.6762 14.47099 -83.98864 -236.1764 15.31071 -75.67025 -235.2892 17.3617 -74.69268 -235.1824 17.69858 -72.08142 -234.8909 18.83995 -71.42158 -234.8136 19.26709 -70.93791 -234.7545 19.67333 -70.57915 -234.7083 20.0628 -70.21882 -234.6527 20.80603 -70.27804 -234.6639 20.60676 -70.35947 -234.677 20.41552 -70.46062 -234.6919 20.2338 -153.9422 -295.7006 18.13634 -153.2183 -295.6489 18.33074 -152.4898 -295.5972 18.50747 -147.8842 -295.2772 19.2316 -146.2352 -295.1649 19.35928 -143.6846 -294.9925 19.48769 -140.8808 -294.8041 19.55831 -138.3239 -294.6333 19.57155 -134.6223 -294.3871 19.52341 -132.2606 -294.2306 19.4613 -128.4443 -293.9783 19.32538 -85.38099 -291.1106 18.98845 -81.99009 -290.8788 19.30219 -78.60435 -290.6463 19.67661 -75.22546 -290.4132 20.11628 -60.92873 -289.4078 23.05481 -56.00547 -289.0263 26.09006 -56.0603 -289.0331 25.91183 -56.13552 -289.041 25.74121 -56.22876 -289.0501 25.57964 -57.10397 -289.1234 24.72571 -55.97574 -289.0139 26.68376 -70.18822 -234.632 21.47989 -70.23709 -234.6301 21.73635 -70.32685 -234.6318 22.01472 -56.05077 -289.013 27.02446 -56.22518 -289.0176 27.42632 -70.5642 -234.6437 22.4677 -56.79028 -289.0433 28.11559 -56.39866 -289.0246 27.68739 -70.82126 -234.6608 22.79749 -71.32283 -234.6982 23.28887 -57.22186 -289.0656 28.48564 -71.90441 -234.7445 23.74439 -31.66775 -382.1361 35.76127 -31.72121 -382.1362 35.93719 -98.61087 -125.8786 11.07934 -84.54077 -179.7146 16.22685 -31.63885 -382.1363 35.59924 -42.8794 -345.1564 33.96466 -32.52241 -382.1421 36.93916 -57.87963 -289.1014 28.94735 -72.44056 -234.7888 24.10255 -32.11665 -382.1387 36.56219 -31.93445 -382.1374 36.34299 -98.67728 -125.875 11.41435 -98.79838 -125.8794 11.77806 -99.01438 -125.8969 12.20599 -99.29878 -125.9279 12.59375 -99.61165 -125.9654 12.94056 -100.1409 -126.0335 13.42466 -101.6227 -126.2376 14.4723 -100.9119 -126.1378 14.0115 -84.59819 -179.7119 16.52198 -84.70327 -179.7148 16.84233 -84.89002 -179.7265 17.22025 -85.1354 -179.7475 17.56432 -85.40764 -179.7734 17.87099 -85.8693 -179.8204 18.30015 -86.54419 -179.8929 18.8205 -87.16635 -179.9622 19.2294 -125.0936 -347.9321 25.35693 -43.6749 -345.1785 34.43361 -44.59811 -345.2049 34.89297 -45.9079 -345.2432 35.44083 -47.15697 -345.2805 35.87899 -48.58086 -345.3236 36.30533 -50.51865 -345.3831 36.7923 -52.37184 -345.4406 37.1788 -57.80645 -345.6124 37.97507 -59.64388 -345.6713 38.14907 -62.5072 -345.7638 38.33768 -88.67111 -346.6431 36.06479 -91.69293 -346.748 35.4052 -106.4917 -347.2691 31.37042 -111.8828 -347.4609 29.66281 -118.8598 -347.7099 27.37586 -122.423 -347.837 26.20325 -131.4837 -130.9847 21.25467 -155.6641 -135.1049 20.50578 -159.7448 -135.8181 19.97511 -85.2424 -235.9611 28.31076 -83.08013 -235.7557 27.88192 -99.67543 -181.4935 23.56392 -102.0608 -181.7986 24.01793 -169.3154 -191.0716 17.79611 -174.6603 -191.8472 16.20445 -150.0858 -242.6272 21.85277 -154.0642 -243.0576 20.63717 -179.3306 -192.5273 14.74845 -159.8506 -243.6856 18.79843 -184.6444 -193.3028 13.03944 -198.6667 -195.3519 8.458899 -202.1308 -195.8566 7.368811 -176.4772 -245.4931 13.39501 -94.29605 -291.4484 33.71001 -91.9365 -291.288 33.8784 -111.0595 -238.514 29.59893 -114.3543 -238.8508 29.34063 -97.84957 -291.6916 33.36091 -117.6586 -239.191 28.99258 -106.0138 -292.2575 32.15398 -128.318 -240.3029 27.31652 -110.0382 -292.5396 31.37589 -132.78 -240.7742 26.39518 -113.4734 -292.7819 30.62752 -135.9623 -241.112 25.66968 -58.04638 -289.1107 29.0521 -59.37601 -289.1868 29.77598 -60.5853 -289.258 30.31971 -63.69579 -289.4467 31.40476 -65.48711 -289.5576 31.89254 -67.00506 -289.6527 32.25031 -69.35498 -289.8013 32.72097 -54.33194 -345.5021 37.51881 -71.8815 -289.9627 33.13251 -56.02229 -345.5556 37.76255 -73.85744 -290.09 33.3952 -75.94889 -290.2256 33.62085 -58.78923 -289.1529 29.47648 -64.71367 -345.8355 38.41983 -66.92106 -345.9078 38.44997 -68.64045 -345.9644 38.43718 -70.35894 -346.0213 38.39295 -72.76068 -346.1012 38.27691 -74.83378 -346.1706 38.12685 -77.95597 -346.2759 37.81718 -81.18672 -346.3857 37.39489 -83.35639 -346.4599 37.05736 -85.13243 -346.5209 36.7509 -95.59485 -346.8844 34.4623 -99.00641 -347.0043 33.56007 -101.8274 -347.1038 32.76562 -102.8467 -126.4138 15.16582 -103.6339 -126.5293 15.56229 -105.2505 -126.7706 16.28551 -106.2539 -126.9226 16.68371 -107.7438 -127.1508 17.21675 -109.4024 -127.4078 17.74441 -111.7934 -127.7825 18.40875 -113.271 -128.0162 18.77225 -115.2237 -128.3271 19.20397 -117.8162 -128.7432 19.70469 -120.3189 -129.148 20.11718 -122.9562 -129.5775 20.48504 -125.7425 -130.0343 20.80322 -128.5335 -130.4949 21.05566 -134.8293 -131.5437 21.40219 -138.1744 -132.1061 21.4694 -140.7797 -132.5466 21.46595 -143.3815 -132.9887 21.41387 -145.1997 -133.2989 21.34778 -147.7941 -133.7435 21.21149 -151.7237 -134.4209 20.91295 -163.0172 -136.3933 19.47433 -165.692 -136.8656 19.01836 -168.3624 -137.3389 18.52327 -171.0224 -137.8119 17.9926 -173.6721 -138.2848 17.42813 -177.4577 -138.9628 16.56454 -181.4284 -139.6771 15.58864 -186.5477 -140.6024 14.23257 -190.7776 -141.3702 13.03786 -196.5636 -142.4245 11.31076 -201.618 -143.3487 9.731251 -207.3672 -144.4024 7.878485 -216.228 -146.0285 4.975562 -222.5284 -147.1841 2.925148 -226.27 -147.8688 1.744416 -87.37247 -179.9856 19.35554 -88.28933 -180.0909 19.87 -89.01232 -180.1753 20.23495 -90.49876 -180.352 20.89958 -91.42195 -180.4634 21.265 -92.79219 -180.6307 21.75299 -94.3184 -180.8192 22.23518 -96.51812 -181.0939 22.84065 -97.87776 -181.2653 23.17138 -104.3644 -182.0956 24.39127 -106.7907 -182.4105 24.72323 -109.3556 -182.7457 25.00963 -111.9252 -183.0836 25.2358 -114.641 -183.443 25.41275 -117.7218 -183.8532 25.54189 -120.8025 -184.266 25.59765 -123.2019 -184.5892 25.59005 -125.5986 -184.9137 25.53802 -127.2736 -185.1414 25.4745 -129.6642 -185.4678 25.34546 -133.2855 -185.9651 25.06587 -136.917 -186.4674 24.687 -140.6788 -186.9911 24.19496 -143.6961 -187.4136 23.73162 -146.1633 -187.7606 23.31013 -148.6259 -188.1082 22.853 -151.0797 -188.4558 22.36325 -153.5246 -188.8033 21.8425 -157.0177 -189.3016 21.04626 -160.683 -189.8267 20.14658 -165.4094 -190.507 18.89691 -192.8385 -194.5004 10.35711 -72.62715 -234.8045 24.21813 -73.45777 -234.8754 24.68794 -74.1133 -234.9324 25.02033 -75.46273 -235.0517 25.62468 -76.30126 -235.127 25.95652 -77.54547 -235.2401 26.39863 -78.93197 -235.3676 26.83471 -80.9299 -235.5534 27.38088 -88.05913 -236.2312 28.77415 -90.26292 -236.4442 29.07078 -92.59407 -236.6711 29.32611 -94.92966 -236.8998 29.52685 -97.39793 -237.143 29.68275 -100.1987 -237.4207 29.79482 -102.9999 -237.7001 29.84055 -105.1816 -237.919 29.82999 -107.3613 -238.1387 29.77929 -108.8848 -238.2929 29.7193 -121.0823 -239.5459 28.54199 -123.829 -239.8322 28.11849 -126.0758 -240.0674 27.73355 -139.3026 -241.4682 24.85 -143.6107 -241.9297 23.71187 -146.2212 -242.2103 22.98205 -168.6362 -244.6411 15.92617 -173.1208 -245.1289 14.45927 -61.33718 -289.303 30.61792 -62.45242 -289.3705 31.01436 -78.0445 -290.3623 33.79758 -80.25901 -290.5078 33.93393 -82.77256 -290.6738 34.03059 -85.28678 -290.8409 34.06792 -87.24508 -290.9718 34.05565 -89.20198 -291.1032 34.00752 -101.5259 -291.9453 32.8834 -103.9941 -292.1166 32.50119 -117.9078 -293.0965 29.55749 -121.7839 -293.373 28.53334 -125.8424 -293.664 27.38351 -130.2852 -293.9838 26.04786 -136.4046 -294.4259 24.11079 -144.3207 -294.9994 21.52044 -148.3625 -295.2923 20.19483 -151.3896 -295.511 19.23553</float_array>
          <technique_common>
            <accessor source="#right_canard-mesh-positions-array" count="644" stride="3">
              <param name="X" type="float"/>
              <param name="Y" type="float"/>
              <param name="Z" type="float"/>
            </accessor>
          </technique_common>
        </source>
        <source id="right_canard-mesh-normals">
          <float_array id="right_canard-mesh-normals-array" count="3795">-0.1999915 0.9784079 -0.05216801 -0.1999834 0.9784082 -0.05219238 -0.200275 0.9785377 -0.04851901 -0.2002748 0.9785377 -0.04851913 -0.2002749 0.9785377 -0.04851907 -0.1999582 0.9784054 -0.05234211 -0.1999535 0.9784051 -0.052365 -0.1999616 0.9784068 -0.05230236 -0.1999561 0.9784043 -0.05237048 -0.1999581 0.9784054 -0.05234175 -0.1999785 0.9784135 -0.05211269 -0.199953 0.9784039 -0.05238908 -0.1999597 0.9784052 -0.05233979 -0.1999601 0.9784062 -0.05232024 -0.1999654 0.9784069 -0.0522868 -0.1999634 0.9784036 -0.05235666 -0.1999561 0.9784103 -0.05225789 -0.1999411 0.978399 -0.05252504 -0.1999778 0.9784045 -0.05228501 -0.1994777 0.9781951 -0.05781906 -0.1994762 0.9781956 -0.05781757 -0.199475 0.9781959 -0.05781602 -0.1999413 0.9784004 -0.05249994 -0.1999278 0.9783906 -0.05273479 -0.1999572 0.9784024 -0.05240082 -0.1999652 0.9784091 -0.05224621 -0.1999617 0.9784072 -0.0522961 -0.199957 0.9784039 -0.05237507 -0.1999591 0.9784069 -0.05231165 -0.1999583 0.9784039 -0.05236899 -0.1999619 0.9784084 -0.05227166 -0.199959 0.9784056 -0.05233371 -0.1999331 0.9783867 -0.05278623 -0.1999331 0.9783867 -0.05278623 -0.1999414 0.9783996 -0.05251449 -0.1999444 0.9784008 -0.05248236 -0.1999363 0.9784044 -0.0524457 -0.1999434 0.9784008 -0.05248367 -0.1999473 0.9784045 -0.05240082 -0.1999541 0.9784137 -0.05220174 -0.1999701 0.9784068 -0.05226975 -0.199958 0.9784049 -0.0523501 -0.1999629 0.9784117 -0.05220645 -0.1999499 0.9783993 -0.05248707 -0.1999478 0.9784027 -0.05243253 -0.1999584 0.9784044 -0.05236148 -0.1999596 0.9784066 -0.05231469 -0.199967 0.9784066 -0.05228596 -0.1999638 0.9784075 -0.05228215 -0.1999543 0.9784041 -0.05238032 -0.1999564 0.9784046 -0.05236369 -0.1999548 0.9784039 -0.05238336 -0.1999585 0.9784053 -0.05234348 -0.1999602 0.9784061 -0.05232077 -0.1999588 0.9784033 -0.05237948 -0.1999593 0.9784063 -0.05232107 -0.1999627 0.9784066 -0.05230212 -0.199959 0.9784052 -0.05234205 -0.1999576 0.9784067 -0.05231976 -0.1999558 0.9784035 -0.05238515 -0.1999634 0.9784101 -0.05223548 -0.1999381 0.978398 -0.05255722 -0.1999582 0.9784042 -0.05236452 -0.1999608 0.9784074 -0.0522958 -0.1999388 0.978396 -0.05259114 -0.199955 0.9784038 -0.05238336 -0.1999593 0.9784052 -0.05234062 -0.1999965 0.9784227 -0.05186951 -0.1999763 0.9784074 -0.05223482 -0.19992 0.9783899 -0.05277603 -0.1999608 0.9784074 -0.05229634 -0.1999253 0.9783909 -0.05273759 -0.1999896 0.9784169 -0.05200785 -0.1999576 0.9784059 -0.05233407 -0.1999503 0.978402 -0.05243754 -0.1999624 0.9784073 -0.05228984 -0.1999642 0.978408 -0.05226987 -0.1999598 0.9784055 -0.0523346 -0.1999631 0.9784086 -0.05226325 -0.1999603 0.9784054 -0.05233395 -0.1999564 0.9784056 -0.05234402 -0.1999589 0.9784054 -0.05233949 -0.1999603 0.9784058 -0.05232679 -0.199958 0.978406 -0.05233138 -0.1999534 0.9784047 -0.05237567 -0.1999608 0.9784052 -0.05233526 -0.1999608 0.9784065 -0.05231237 -0.1999592 0.978407 -0.05230784 -0.1999595 0.9784055 -0.05233615 -0.1999547 0.9784039 -0.05238282 -0.1999602 0.9784073 -0.05229812 -0.1999574 0.978405 -0.05235326 -0.1999629 0.9784064 -0.0523051 -0.1999616 0.9784076 -0.0522893 -0.1999572 0.9784043 -0.05236566 -0.1999573 0.9784055 -0.05234229 -0.1999573 0.9784022 -0.05240517 -0.1999604 0.9784081 -0.05228388 -0.1999578 0.9784032 -0.05238503 -0.1999583 0.9784051 -0.05234825 -0.1999593 0.9784058 -0.05233043 -0.1999616 0.9784083 -0.05227321 -0.1999608 0.9784053 -0.05233323 -0.1999576 0.9784042 -0.05236726 -0.1999618 0.9784091 -0.05225837 -0.1999538 0.9784007 -0.0524469 -0.1999576 0.9784062 -0.05232894 -0.1999616 0.978406 -0.0523166 -0.199962 0.9784089 -0.05226081 -0.1999606 0.9784037 -0.05236589 -0.1999689 0.9784037 -0.05233258 -0.199969 0.9784037 -0.05233258 -0.2000291 0.9783989 -0.05219298 -0.2000292 0.9783989 -0.05219298 -0.2000292 0.9783988 -0.05219298 -0.1999409 0.9783838 -0.05280977 0 -1 0 0 -1 -1.31255e-4 0 -1 -2.32609e-4 0 -1 3.19991e-6 0 -1 3.13262e-6 0 -1 3.02069e-6 -8.13844e-5 -1 1.86005e-4 -8.13849e-5 -1 1.86032e-4 -8.13888e-5 -1 1.86019e-4 0 -1 1.51477e-4 0 -1 -1.78274e-4 0 -1 -7.37953e-6 0 -1 -6.8415e-5 0 -1 5.00325e-5 0 -1 3.05155e-5 0 -1 -1.02824e-4 0 -1 -1.31428e-4 0 -1 2.08507e-4 0 -1 -9.99032e-6 0 -1 5.35687e-6 0 -1 -7.48321e-6 0 -1 8.30758e-6 0 -1 -9.72502e-6 0 -1 5.80085e-6 0 -1 1.42484e-5 0 -1 1.80427e-5 0 -1 -1.64564e-5 0 -1 -1.75312e-5 0 -1 1.56433e-5 0 -1 -4.56496e-5 0 -1 1.45202e-5 0 -1 2.45104e-5 0 -1 2.3033e-5 0 -1 -5.96716e-6 0 -1 -6.57362e-6 0 -1 6.77169e-6 0 -1 2.02045e-6 0 -1 9.5629e-7 0 -1 2.63925e-6 0 -1 -5.34799e-6 0 -1 2.53944e-7 0 -1 1.75866e-6 0 -1 2.31482e-6 0 -1 1.50512e-6 0 -1 -4.66334e-6 0 -1 -7.5218e-5 0 -1 -6.65456e-7 0 -1 -3.10929e-7 0 -1 4.65857e-6 -0.8842687 -0.4605295 -0.07733994 -0.8847734 -0.46026 -0.07305324 -0.8847646 -0.460283 -0.07301688 -0.8852197 -0.4600103 -0.06911337 -0.8852128 -0.4600284 -0.06908106 -0.8856287 -0.4597716 -0.06536191 -0.885619 -0.4597942 -0.06533408 -0.886031 -0.4595234 -0.06154114 -0.8860165 -0.4595457 -0.06158393 -0.8864164 -0.4592641 -0.05781573 -0.8863999 -0.4592959 -0.05781561 -0.886748 -0.4590324 -0.05447369 0.9654086 0.2430745 -0.09434533 0.01085382 -0.1100574 -0.993866 0.003530979 -0.1131979 -0.9935663 -0.01120734 -0.1202419 -0.9926814 -0.01495444 -0.1217339 -0.9924502 -0.02746683 -0.1275201 -0.9914557 -0.02843725 -0.127874 -0.9913827 -0.01844424 -0.1241608 -0.9920907 0.04260504 -0.1018856 -0.9938834 0.100338 -0.08189105 -0.9915777 0.1124858 -0.07743209 -0.9906318 0.175255 -0.05682468 -0.9828819 0.2240791 -0.04172557 -0.9736773 0.4211742 0.01961272 -0.9067677 0.4987787 0.04450756 -0.8655859 0.5111914 0.04841554 -0.8581022 0.593168 0.07608497 -0.8014755 0.6304922 0.08877205 -0.7711026 0.6711498 0.1033821 -0.7340778 0.7097969 0.1172817 -0.6945742 0.7667352 0.1392152 -0.6266868 0.8912213 0.1930292 -0.410444 -0.03952968 -0.1354718 -0.9899924 -0.03813731 -0.1348168 -0.9901364 -0.02047741 -0.12834 -0.9915189 0.03422105 -0.1079201 -0.9935705 0.1038877 -0.08374208 -0.9910573 0.1150333 -0.07948887 -0.9901762 0.1417822 -0.07083344 -0.9873604 0.1510705 -0.06739985 -0.9862226 0.1611328 -0.06428945 -0.9848366 0.1686378 -0.06143367 -0.9837619 0.2408886 -0.03848195 -0.9697896 0.2945455 -0.02130502 -0.9554 0.3067566 -0.0177555 -0.9516224 0.3766383 0.004531562 -0.9263494 0.3830064 0.006412148 -0.9237235 0.02638864 -0.1035115 -0.9942783 0.01332098 -0.1100991 -0.9938313 0.007517158 -0.1126119 -0.9936107 -0.002480268 -0.1175988 -0.9930581 -0.0362935 -0.1332451 -0.9904184 -0.0383014 -0.1340554 -0.9902335 -0.03962898 -0.1349017 -0.9900662 0.3829401 0.006827592 -0.923748 0.7376286 0.1275162 -0.6630564 0.02312713 -0.1108511 -0.993568 0.02957969 -0.1082278 -0.993686 0.04221439 -0.1040203 -0.993679 0.04622 -0.1023365 -0.9936755 0.2360998 -0.03883612 -0.9709525 0.4131803 0.01660776 -0.9104979 0.1634925 -0.03389245 -0.9859623 0.1436633 -0.04445898 -0.9886274 -0.03720051 -0.1327004 -0.9904579 -0.03549915 -0.1321782 -0.9905902 -0.03133368 -0.1303161 -0.9909773 -0.02757811 -0.1291311 -0.991244 -0.02027916 -0.1260561 -0.9918159 -0.01616972 -0.1247742 -0.9920534 -0.006988286 -0.1210545 -0.9926213 -2.94475e-4 -0.1189005 -0.9929062 0.007339 -0.1157119 -0.9932558 0.01686847 -0.1124624 -0.9935129 0.0230385 -0.1099609 -0.9936689 0.03532493 -0.1058259 -0.9937571 0.04211533 -0.1030027 -0.9937891 0.0584352 -0.0976054 -0.9935082 0.06293767 -0.09573352 -0.9934154 0.1787632 -0.05693024 -0.9822437 0.2209141 -0.04345226 -0.9743248 0.2293893 -0.04048484 -0.9724925 0.2521888 -0.03367626 -0.967092 0.2600683 -0.03098779 -0.9650929 0.3762031 0.005002558 -0.9265238 0.3949557 0.0111404 -0.9186327 0.4307066 0.02216774 -0.9022197 -0.03525727 -0.1313374 -0.9907106 -0.03554981 -0.1314712 -0.9906824 -0.03176617 -0.1302481 -0.9909725 -0.02763324 -0.1283532 -0.9913436 -0.0184127 -0.1250506 -0.9919795 -0.01622068 -0.1240357 -0.9921452 0.3761829 0.005349755 -0.92653 0.7134328 0.1189174 -0.6905594 0.7667458 0.1389465 -0.6267336 0.9671763 0.2469878 -0.05972599 0.9670152 0.2464581 -0.06434249 0.9670231 0.2465217 -0.06397867 0.9670525 0.2466241 -0.06313604 0.9670692 0.2466601 -0.06273752 0.9671016 0.2467415 -0.06191152 0.2812463 0.02911502 -0.9591939 0.2837152 0.0305165 -0.958423 0.2496488 0.01179474 -0.9682646 0.2522138 0.01324111 -0.967581 0.2173939 -0.005408704 -0.976069 0.2160015 -0.006180167 -0.9763735 0.1845923 -0.02281618 -0.9825503 0.1771169 -0.02688813 -0.9838225 0.1514976 -0.04000937 -0.9876477 0.1293014 -0.05169969 -0.9902567 0.1178027 -0.05733603 -0.9913805 0.0877459 -0.07251644 -0.9934999 0.08597117 -0.07343685 -0.9935875 0.06277287 -0.08480483 -0.9944183 0.05907392 -0.08675545 -0.9944767 0.04438984 -0.09383612 -0.9945976 0.03449046 -0.09873819 -0.9945156 0.02636754 -0.1023665 -0.9943972 -0.03472751 -0.1306226 -0.9908238 -0.03527295 -0.1309157 -0.9907658 -0.03265851 -0.1297999 -0.9910023 -0.0317977 -0.1293783 -0.9910854 -0.0233398 -0.1263952 -0.9917054 0.03387695 -0.1047897 -0.9939173 0.02829611 -0.1070036 -0.993856 0.01577007 -0.1114816 -0.9936414 0.01460134 -0.1119636 -0.9936051 -0.00100702 -0.1177031 -0.9930484 0.002203643 -0.1162685 -0.9932155 -0.009405136 -0.1209737 -0.9926112 0.05912518 -0.09575438 -0.9936475 0.05663549 -0.09679394 -0.9936918 0.07779103 -0.08942306 -0.9929512 0.07793289 -0.08936774 -0.9929451 0.09531778 -0.08335888 -0.9919505 0.1265193 -0.07302391 -0.9892727 0.1308306 -0.07138741 -0.9888312 0.1471826 -0.0660572 -0.9869012 0.1517768 -0.06440711 -0.9863141 0.1663081 -0.05998462 -0.9842478 0.1930579 -0.05149912 -0.979835 0.1952562 -0.05073708 -0.979439 0.2165338 -0.04387223 -0.9752889 0.251482 -0.03295588 -0.9673008 0.2470187 -0.03446751 -0.9683976 0.2847952 -0.02286201 -0.9583157 0.2826014 -0.02359914 -0.9589471 0.3214753 -0.0114606 -0.9468486 0.3190116 -0.01226603 -0.9476715 0.3534497 -0.001627266 -0.9354521 0.3625944 0.001345336 -0.9319461 0.4085859 0.01547282 -0.9125888 0.8437134 0.1707313 -0.5089191 0.8720334 0.1838619 -0.4535997 0.8019509 0.1531639 -0.5774215 0.933304 0.2160602 -0.2868133 0.929843 0.2138599 -0.299426 0.9560026 0.2324956 -0.1788994 0.9560026 0.2324955 -0.1788994 0.9560026 0.2324956 -0.1788994 0.2729497 0.02458208 -0.9617142 0.2708852 0.02340668 -0.9623271 0.2462319 0.01005727 -0.9691588 0.2427157 0.008086323 -0.9700638 0.2190669 -0.004556834 -0.9756993 0.2140194 -0.007363736 -0.9768018 0.1915645 -0.01921302 -0.981292 0.1849957 -0.022816 -0.9824745 0.1569257 -0.03743702 -0.9869007 0.1593335 -0.03609699 -0.9865648 0.1303626 -0.05152237 -0.9901268 0.1263036 -0.05352663 -0.9905465 0.1128183 -0.06060272 -0.9917657 0.09940445 -0.06737869 -0.9927632 0.09315299 -0.07083421 -0.9931289 0.07098793 -0.08183968 -0.9941142 0.06731837 -0.08383429 -0.9942033 0.05105429 -0.09178388 -0.9944693 0.05201244 -0.0912671 -0.9944672 0.03936868 -0.09768176 -0.9944387 0.03175181 -0.1011497 -0.9943645 0.02553105 -0.1044121 -0.9942064 0.01333248 -0.1101689 -0.9938235 0.01060235 -0.1116492 -0.9936912 -0.002462983 -0.1176989 -0.9930463 -0.005027532 -0.1190861 -0.9928713 -0.01502996 -0.1236286 -0.9922147 -0.01744085 -0.1248864 -0.9920178 -0.02633976 -0.1288564 -0.9913134 -0.02850508 -0.1300813 -0.9910936 -0.03625863 -0.1334463 -0.9903926 -0.03771919 -0.1342877 -0.9902243 -0.04146313 -0.135942 -0.9898489 -0.03242242 -0.1329246 -0.9905958 -0.03146255 -0.1324435 -0.9906911 -0.02200537 -0.1287285 -0.9914357 -0.006386816 -0.1228274 -0.9924076 -0.00963205 -0.1244525 -0.9921789 0.006130635 -0.1180708 -0.9929863 0.003884494 -0.1191381 -0.9928702 0.01702463 -0.1143709 -0.9932922 0.0181474 -0.1138947 -0.9933272 0.03081113 -0.1094188 -0.9935181 0.04771268 -0.1034237 -0.9934924 0.05087894 -0.1021073 -0.9934715 0.06646525 -0.09667026 -0.9930948 0.06802523 -0.09598088 -0.993056 0.08569908 -0.08991903 -0.9922552 0.08275306 -0.09118187 -0.99239 0.09630638 -0.08593344 -0.9916353 0.1219896 -0.0775184 -0.9894997 0.1243417 -0.07662683 -0.9892763 0.1344858 -0.07286041 -0.9882332 0.1792933 -0.05833351 -0.9820647 0.1860862 -0.05587238 -0.9809436 0.1962539 -0.05269223 -0.9791364 0.2000034 -0.0513395 -0.9784492 0.2152221 -0.04661107 -0.9754521 0.2155765 -0.0464766 -0.9753803 0.229933 -0.04176783 -0.9723098 0.2709217 -0.02892899 -0.9621666 0.2709776 -0.02890902 -0.9621515 0.2476635 -0.03605955 -0.9681748 0.3466162 -0.005048215 -0.9379936 0.3447207 -0.005698561 -0.9386881 0.3204222 -0.01319384 -0.9471831 0.9581562 0.2345055 -0.1641467 0.9575642 0.2339298 -0.1683682 0.9380888 0.2191249 -0.2682793 0.9361321 0.2178246 -0.2760602 0.9079566 0.2015478 -0.3674144 0.9042061 0.1995098 -0.3776338 0.8712167 0.1832612 -0.4554087 0.8652614 0.1804418 -0.4677217 0.8284206 0.1641294 -0.5355193 0.8204571 0.1606828 -0.5486631 0.7627745 0.1373554 -0.6319086 0.7528599 0.1333467 -0.6445313 0.6931464 0.1109665 -0.712204 0.6856356 0.1081451 -0.7198671 0.6478695 0.09463238 -0.7558505 0.6381537 0.09107381 -0.7645034 0.5833436 0.07217025 -0.8090129 0.5664517 0.06613194 -0.8214373 0.4946823 0.04258036 -0.8680301 0.4790594 0.03715604 -0.8769958 0.4474657 0.0270735 -0.8938913 0.4218294 0.01876419 -0.906481 0.4111219 0.015518 -0.9114484 0.275222 0.0258215 -0.9610339 0.272952 0.02453029 -0.9617149 0.2499831 0.01208913 -0.9681748 0.2462466 0.009991586 -0.9691557 0.2242687 -0.001764774 -0.9745258 0.219084 -0.00464493 -0.975695 0.1982526 -0.01565808 -0.980026 0.1915788 -0.0193116 -0.9812873 0.165477 -0.03293675 -0.9856636 0.1569586 -0.03762733 -0.9868882 0.13482 -0.04900062 -0.9896578 0.1263195 -0.05361503 -0.9905397 0.1057087 -0.06404411 -0.9923327 0.09942412 -0.06750005 -0.9927531 0.07463514 -0.07982939 -0.9940105 0.0709818 -0.08180135 -0.9941178 0.05011969 -0.09200274 -0.9944967 0.05100876 -0.09151232 -0.9944968 0.03175848 -0.1011869 -0.9943605 -0.009526371 -0.1205581 -0.9926606 -0.0150659 -0.1234187 -0.9922403 -0.02308189 -0.1270027 -0.9916338 -0.02635949 -0.1287431 -0.9913277 -0.0332359 -0.1315808 -0.9907482 -0.03182327 -0.1317756 -0.9907686 -0.0325514 -0.1321805 -0.990691 -0.02031075 -0.127447 -0.9916374 -0.02060526 -0.1275988 -0.9916119 -0.006601452 -0.1223344 -0.992467 -0.006481051 -0.1222774 -0.9924748 0.00562483 -0.1178202 -0.9930191 0.006056249 -0.1176352 -0.9930384 0.01621007 -0.1139436 -0.993355 0.01690322 -0.1136513 -0.993377 0.02968961 -0.1090521 -0.9935926 0.03067672 -0.1086204 -0.9936099 0.04631787 -0.1030794 -0.9935942 0.04756575 -0.1025437 -0.9935907 0.06475371 -0.09654343 -0.9932202 0.06633073 -0.09585785 -0.9931826 0.08377641 -0.08986538 -0.9924243 0.08556616 -0.08911031 -0.9923396 0.1017279 -0.08364331 -0.9912897 0.1037322 -0.08279317 -0.9911534 0.1195769 -0.07752853 -0.9897933 0.1218369 -0.07658386 -0.9895913 0.1389915 -0.07098388 -0.9877462 0.1416294 -0.06989574 -0.9874491 0.1580143 -0.06464296 -0.9853186 0.1610034 -0.06348776 -0.9849098 0.1758588 -0.05878216 -0.9826589 0.1791618 -0.05751949 -0.9821368 0.1925132 -0.0533455 -0.9798433 0.1961497 -0.05204999 -0.9791916 0.2110263 -0.04742813 -0.9763291 0.2151102 -0.04591739 -0.9755098 0.2361759 -0.03943365 -0.9709098 0.2407749 -0.0377717 -0.9698458 0.2655195 -0.03019404 -0.9636327 0.2708805 -0.02830946 -0.9621967 0.3005525 -0.01922351 -0.9535716 0.3066547 -0.01710957 -0.9516671 0.3332999 -0.008926987 -0.9427787 0.3446345 -0.005153656 -0.9387228 0.3695994 0.00236082 -0.9291883 0.4132263 0.01629173 -0.9104827 0.421768 0.01912641 -0.906502 0.465512 0.0330258 -0.8844253 0.4789793 0.03762859 -0.8770194 0.5500149 0.06076395 -0.8329415 0.5663797 0.06656301 -0.8214522 0.6457074 0.09385341 -0.7577953 0.6381616 0.09105026 -0.7644996 0.6856076 0.1083127 -0.7198685 0.9575631 0.2339563 -0.1683369 0.9570186 0.2334209 -0.1721341 0.9361125 0.2178729 -0.2760885 0.9343404 0.216694 -0.2829344 0.9041894 0.1995806 -0.3776363 0.9006795 0.1977118 -0.3868934 0.8652499 0.1805264 -0.4677102 0.8595639 0.1778769 -0.479072 0.8204284 0.1607767 -0.5486786 0.8127322 0.1575029 -0.5609452 0.7528187 0.1335539 -0.6445366 0.2778314 0.02725106 -0.9602434 0.2752253 0.02577638 -0.9610341 0.2539862 0.01425373 -0.9671029 0.2499916 0.01202684 -0.9681733 0.2298094 0.001205265 -0.973235 0.2242869 -0.001843392 -0.9745215 0.2052883 -0.01190799 -0.9786291 0.1982682 -0.01574748 -0.9800213 0.1743649 -0.02824765 -0.9842759 0.1654999 -0.03310728 -0.985654 0.1436579 -0.04436075 -0.9886327 0.1348348 -0.04911881 -0.9896499 0.1122121 -0.06060475 -0.9918344 0.1057201 -0.06413269 -0.9923257 0.07837861 -0.07776528 -0.9938861 0.07462626 -0.07976669 -0.9940162 0.05311042 -0.09030896 -0.9944967 0.05011224 -0.09194934 -0.994502 0.02913159 -0.1020137 -0.9943564 0.02638673 -0.1035019 -0.9942793 0.01005047 -0.1111653 -0.9937511 0.007502973 -0.1125088 -0.9936225 -0.007236897 -0.1192871 -0.9928335 -0.00952959 -0.1205339 -0.9926636 -0.02109646 -0.1257164 -0.9918419 -0.02311468 -0.1267681 -0.9916631 -0.03154879 -0.130462 -0.9909512 -0.03325992 -0.1314076 -0.9907703 -0.0371626 -0.1330626 -0.9904108 -0.03833729 -0.133799 -0.9902667 -0.03126597 -0.1309601 -0.9908945 -0.03188985 -0.1312949 -0.9908304 -0.02020537 -0.1267679 -0.9917267 -0.02039211 -0.1268604 -0.991711 -0.006913185 -0.1217831 -0.9925327 -0.0066908 -0.1216805 -0.9925468 0.007415652 -0.1164754 -0.993166 0.00555551 -0.1173101 -0.9930799 0.01611125 -0.113209 -0.9934406 0.06300812 -0.09646594 -0.9933401 0.06465256 -0.09576892 -0.9933018 0.08183634 -0.08985942 -0.9925866 0.08367681 -0.0891003 -0.9925016 0.09958094 -0.08371454 -0.9915016 0.1016285 -0.08286839 -0.991365 0.1171898 -0.07769286 -0.9900659 0.1194779 -0.07675963 -0.9898652 0.1362338 -0.07128626 -0.9881087 0.1388936 -0.07021844 -0.9878147 0.1549274 -0.0650742 -0.9857803 0.1579253 -0.06394028 -0.9853788 0.1724595 -0.05933618 -0.9832279 0.1757726 -0.05809611 -0.9827151 0.1888279 -0.05401349 -0.9805237 0.1924386 -0.05274885 -0.9798904 0.2050071 -0.0488435 -0.977541 0.2109393 -0.04674118 -0.9763811 0.2294565 -0.04119008 -0.972447 0.2601122 -0.03148758 -0.9650649 0.2654494 -0.02964401 -0.963669 0.294429 -0.02078378 -0.9554473 0.3004883 -0.01871573 -0.9536019 0.3268276 -0.01064646 -0.945024 0.3332504 -0.008529067 -0.9427999 0.3550239 -0.001821935 -0.9348555 0.3695229 0.002959549 -0.9292169 0.3950067 0.01065146 -0.9186165 0.455547 0.03001856 -0.8897055 0.46547 0.03336763 -0.8844345 0.5378223 0.05692124 -0.8411344 0.5499572 0.06117957 -0.8329491 0.634097 0.08987635 -0.7680125 0.6456598 0.09413546 -0.7578007 0.7227561 0.1219733 -0.6802545 0.9570109 0.2334378 -0.1721545 0.956582 0.2330347 -0.1750592 0.9343094 0.2167323 -0.2830071 0.9326443 0.2156493 -0.289258 0.9006661 0.1977673 -0.3868964 0.8972982 0.1960063 -0.3955218 0.8595402 0.1779448 -0.4790892 0.854053 0.1754139 -0.4897177 0.8127296 0.1575914 -0.5609239 0.8050177 0.1543469 -0.5728208 0.737577 0.1277766 -0.6630637 0.2806045 0.02876585 -0.9593924 0.2778421 0.02720481 -0.9602416 0.2582081 0.01654475 -0.9659478 0.2539974 0.01420432 -0.9671007 0.2354711 0.004250645 -0.9718722 0.2298128 0.001137852 -0.9732342 0.2037723 -0.01267039 -0.9789363 0.2052942 -0.01183259 -0.9786288 0.1743749 -0.02838534 -0.9842702 0.1222179 -0.05525344 -0.9909641 0.112216 -0.06066048 -0.9918306 0.08210134 -0.07569777 -0.9937451 0.07837057 -0.07768207 -0.9938932 0.05605804 -0.0886265 -0.9944863 0.05310148 -0.09022504 -0.9945048 0.03179591 -0.1004607 -0.9944329 0.02911972 -0.1018951 -0.9943689 0.01247555 -0.1097131 -0.9938851 0.01003199 -0.1109879 -0.9937711 -0.005068778 -0.1179437 -0.9930074 -0.007254302 -0.1191111 -0.9928544 -0.01788347 -0.1238827 -0.9921358 -0.02112126 -0.1254881 -0.9918703 -0.02685362 -0.127906 -0.9914228 -0.03157126 -0.1302533 -0.990978 -0.03481829 -0.1314986 -0.9907048 0.07991898 -0.08988589 -0.9927404 0.08176845 -0.0891363 -0.9926574 0.0974856 -0.08380877 -0.991702 0.09951245 -0.08298718 -0.9915698 0.1148641 -0.07787531 -0.990324 0.1171222 -0.0769729 -0.9901302 0.1335598 -0.07159954 -0.988451 0.1361672 -0.07057321 -0.9881691 0.1548489 -0.06457424 -0.9858256 0.1548807 -0.0645619 -0.9858214 0.1724021 -0.05870574 -0.9832757 0.2049548 -0.04825556 -0.9775813 0.1992232 -0.05021983 -0.9786665 0.1887762 -0.05346018 -0.9805639 0.2885351 -0.02229732 -0.9572098 0.2943897 -0.02032357 -0.9554694 0.3302794 -0.009321272 -0.9438372 0.3268162 -0.01050031 -0.9450297 0.3549951 -0.001467525 -0.934867 0.9565768 0.2330458 -0.1750726 0.9561874 0.2326909 -0.1776527 0.9326344 0.2156803 -0.2892667 0.9311807 0.2147561 -0.2945886 0.8972944 0.196049 -0.3955094 0.8941888 0.1944643 -0.4032493 0.8540191 0.1754675 -0.4897577 0.8488148 0.1731081 -0.4995468 0.8050219 0.1544304 -0.5727924 0.7977589 0.1514204 -0.5836547 0.7227241 0.1222212 -0.6802439 0.7134599 0.1186368 -0.6905798 0.6340766 0.09006756 -0.768007 0.6267528 0.0874089 -0.7743002 0.5377956 0.05723518 -0.8411303 0.5188214 0.05066752 -0.8533799 0.45552 0.03037321 -0.8897074 0.2837246 0.03047347 -0.9584216 0.2806159 0.02872598 -0.9593902 0.2582118 0.01656275 -0.9659463 0.2521985 0.01340448 -0.9675827 0.2354906 0.004195809 -0.9718676 0.2159782 -0.006159782 -0.9763789 0.203789 -0.01283812 -0.9789307 0.1771087 -0.0266546 -0.9838303 0.1635063 -0.03405559 -0.9859544 0.1292978 -0.05157089 -0.9902639 0.1222243 -0.05540198 -0.990955 0.08597385 -0.07354944 -0.9935789 0.08209306 -0.07559055 -0.9937539 0.0590772 -0.08690083 -0.9944638 0.05605107 -0.08851093 -0.994497 0.03449642 -0.09888291 -0.9945011 0.03178811 -0.10031 -0.9944483 0.01085513 -0.1101545 -0.9938552 0.01244956 -0.1093024 -0.9939306 -0.005081415 -0.1177824 -0.9930265 -0.01120591 -0.1202995 -0.9926744 -0.01790493 -0.1235717 -0.9921742 -0.02745628 -0.1277939 -0.9914207 -0.02688312 -0.1274854 -0.9914761 -0.03484058 -0.1311913 -0.9907447 -9.85511e-4 -0.1183168 -0.9929755 -3.5423e-4 -0.1180295 -0.9930101 0.01578855 -0.1121311 -0.9935681 0.01681941 -0.1116995 -0.9935997 0.03390163 -0.105558 -0.9938352 0.03526991 -0.1049748 -0.9938493 0.05665254 -0.09744077 -0.9936276 0.05837911 -0.09671008 -0.9935991 0.07794934 -0.08996719 -0.9928897 0.07987678 -0.08920335 -0.9928054 0.09533441 -0.08395808 -0.9918984 0.09744304 -0.08312362 -0.9917638 0.1125007 -0.07810783 -0.990577 0.1148254 -0.07720309 -0.9903813 0.1308426 -0.07196158 -0.9887881 0.133522 -0.07093715 -0.9885039 0.1517919 -0.06506592 -0.9862686 0.1548116 -0.06392335 -0.9858739 0.1752687 -0.05746668 -0.9828421 0.1787196 -0.05618232 -0.9822947 0.195264 -0.05105817 -0.9794208 0.1991922 -0.04972916 -0.9786979 0.2165461 -0.04437798 -0.9752632 0.2208785 -0.0428633 -0.974359 0.2470321 -0.0348708 -0.9683797 0.2521542 -0.03312033 -0.9671202 0.2826038 -0.02384287 -0.9589405 0.2885087 -0.02188378 -0.9572272 0.3190231 -0.01255553 -0.9476638 0.3302633 -0.008859515 -0.9438473 0.3626029 9.11533e-4 -0.9319433 0.4211929 0.01940077 -0.9067636 0.4306778 0.02254134 -0.9022243 0.4987825 0.04433465 -0.8655925 0.5187707 0.05114853 -0.8533821 0.5932098 0.07582962 -0.8014687 0.6267178 0.08768057 -0.7742977 0.6712167 0.1032112 -0.7340406 0.9561898 0.2327029 -0.1776246 0.9559426 0.2324651 -0.1792589 0.9311778 0.2147796 -0.2945808 0.9297833 0.2139213 -0.2995676 0.8941796 0.1944927 -0.4032561 0.8912237 0.1929815 -0.4104612 0.8487621 0.1731417 -0.4996249 0.8437864 0.1709032 -0.5087404 0.7977491 0.1514866 -0.583651 0.9476222 0.2647534 0.1786555 0.9164643 0.2679657 0.2971325 0.8828301 0.267335 0.3861907 0.8510417 0.2657302 0.4528968 0.70954 0.2475833 0.659739 0.669851 0.2414854 0.7021286 0.625958 0.2334755 0.7440872 0.5892685 0.2269539 0.7754061 0.921829 0.2676692 0.2803297 0.8827528 0.2675902 0.3861906 0.964738 0.2573982 0.05501639 0.9647555 0.2573823 0.05478376 0.9647763 0.2573499 0.05456906 0.9647757 0.2573696 0.05448663 0.9647859 0.2573397 0.05444741 0.9645416 0.2575881 0.05751532 0.5656933 0.2224001 0.7940587 0.5769877 0.2247263 0.7852281 0.5750226 0.2242895 0.7867931 0.5524697 0.2196378 0.804075 0.5524328 0.2198306 0.8040477 0.5301668 0.214887 0.8202114 0.6598529 0.2390173 0.7123658 0.6318393 0.235479 0.7384638 0.7433941 0.2523384 0.6194277 0.7282969 0.2506534 0.6377746 0.8530509 0.265836 0.4490386 0.8561789 0.2659218 0.4429938 0.9218242 0.2677222 0.2802945 0.9226059 0.2676755 0.2777555 0.9494959 0.2643399 0.1690628 0.9497419 0.2642796 0.1677694 0.9645169 0.2576029 0.05786204 0.9463803 0.2650018 0.1847658 0.9457591 0.2651373 0.1877291 0.9131249 0.2679379 0.3072661 0.9116103 0.2679943 0.3116823 0.8561933 0.2658158 0.4430293 0.8735669 0.2666508 0.4071589 0.8139421 0.2619483 0.5185377 0.7695432 0.2563 0.5849048 0.7534087 0.2542529 0.6064081 0.7060399 0.2470582 0.6636793 0.6908329 0.2447857 0.680316 0.6392393 0.2356653 0.7320076 0.502081 0.2093518 0.8390986 0.510701 0.2109897 0.8334674 0.5560507 0.2202711 0.8014289 0.5711352 0.2229792 0.7899905 0.6152097 0.2316251 0.7535694 0.9469918 0.2648762 0.1817889 0.9463719 0.2650195 0.1847837 0.9147365 0.2679105 0.3024584 0.9131188 0.2679749 0.3072514 0.8608713 0.2661819 0.4336448 0.8561641 0.2659192 0.4430239 0.7791575 0.2576705 0.571419 0.7694927 0.2565203 0.5848746 0.7139056 0.2483447 0.6547243 0.7060215 0.2471823 0.6636524 0.6483103 0.2374242 0.7234112 0.6391694 0.2359419 0.7319794 0.5797049 0.2248107 0.7832 0.5710604 0.2233031 0.7899531 0.5199494 0.2129756 0.8272207 0.5106535 0.2112057 0.8334418 0.9476296 0.264747 0.1786264 0.9469849 0.2649005 0.1817896 0.9164758 0.2678803 0.2971737 0.9147198 0.267942 0.3024812 0.8511062 0.2654656 0.4529308 0.8609212 0.2660174 0.4336467 0.7562029 0.2548516 0.6026675 0.7791977 0.2575666 0.5714108 0.7138695 0.248474 0.6547146 0.6699469 0.2410656 0.7021812 0.6482749 0.2376009 0.7233848 0.5893134 0.2267022 0.7754456 0.5796631 0.2250148 0.7831725 0.5301297 0.2151104 0.8201768 0.5199102 0.2131659 0.8271964 0.8530562 0.2658737 0.449006 0.8009915 0.260061 0.5392411 0.8007521 0.2609362 0.5391738 0.7563177 0.2544156 0.6027076 0.9494765 0.2644663 0.1689733 0.9415953 0.2658622 0.2066775 0.9416363 0.2657318 0.2066586 0.7432523 0.252851 0.6193888 0.7094882 0.2478932 0.6596783 0.6597436 0.2394825 0.7123107 0.625929 0.2336801 0.7440474 -0.2864583 -0.03196436 0.9575594 -0.2896308 -0.03350889 0.9565518 0.4710681 0.2028284 0.8584613 0.4024119 0.1877346 0.8960025 0.3749248 0.1818579 0.909043 0.3437545 0.1742165 0.9227576 0.3217283 0.1692535 0.9315816 0.2989815 0.1634863 0.9401502 0.278787 0.1587386 0.947143 0.2550101 0.1524204 0.9548497 0.236754 0.1481347 0.9602103 0.2096187 0.1406894 0.9676087 0.1981091 0.1379193 0.9704283 0.1079674 0.1126379 0.9877529 0.0903176 0.1075115 0.9900929 0.08462703 0.105663 0.9907945 0.06221324 0.09914863 0.993126 0.05877995 0.09796553 0.9934524 -0.2034935 0.004110872 0.9790677 -0.2132623 3.54413e-4 0.9769949 -0.2232562 -0.004090905 0.9747512 -0.2895131 -0.03399956 0.95657 -0.300463 -0.03909707 0.9529919 -0.3041322 -0.0412271 0.9517374 -0.309761 -0.04392951 0.9497991 -0.3126346 -0.04574263 0.9487715 -0.3108361 -0.04484325 0.9494051 -0.3087866 -0.04365897 0.9501288 -0.3005794 -0.03957134 0.9529355 0.04646742 0.09359884 0.994525 -0.1342371 0.03108566 0.9904617 -0.1384915 0.02974313 0.9899169 0.1806626 0.1328037 0.974538 0.1693147 0.1300063 0.9769498 -0.2813496 -0.02946907 0.9591528 -0.2887547 -0.0333116 0.9568235 -0.2927902 -0.03504669 0.9555342 -0.2988467 -0.03830629 0.9535321 -0.3007637 -0.03908771 0.9528974 -0.2951112 -0.03660827 0.9547613 -0.2842356 -0.03056174 0.9582673 -0.2818357 -0.02943307 0.9590111 -0.07470941 0.05367463 0.9957599 -0.08322757 0.0509358 0.995228 -0.1006695 0.04417788 0.9939387 -0.1088931 0.04155218 0.9931847 -0.1904708 0.009631633 0.9816457 -0.2027392 0.005149364 0.9792193 -0.212892 4.81421e-4 0.9770757 -0.2219675 -0.003051221 0.9750493 0.5114536 0.2114168 0.8328974 0.3937838 0.1861099 0.9001653 0.2787956 0.1584872 0.9471826 0.250943 0.1517279 0.9560368 0.2367746 0.1477676 0.9602618 0.2185221 0.1433122 0.9652511 0.1981273 0.1377018 0.9704555 0.1863864 0.1348636 0.9731763 0.1655575 0.128871 0.9777439 0.151695 0.1253647 0.980445 0.1379055 0.1212109 0.9830005 0.1234476 0.1172847 0.9853959 0.09032016 0.1074228 0.9901023 0.4768433 0.2039837 0.8549919 0.4924755 0.20764 0.8451944 0.4924986 0.2074476 0.8452283 0.524227 0.2146528 0.8240815 0.1682615 0.1296224 0.9771828 0.1655539 0.1289747 0.9777308 0.1327508 0.1198594 0.9838755 0.1379157 0.1211227 0.98301 0.1138982 0.1144818 0.9868745 0.1139172 0.1143366 0.9868891 0.09953814 0.1103471 0.9888962 0.03556424 0.09068143 0.9952448 0.03412413 0.09027677 0.995332 0.01257491 0.08332347 0.9964432 0.01089513 0.08283382 0.9965039 -0.01570439 0.0740078 0.997134 -0.009909927 0.07565397 0.997085 -0.02797681 0.06994086 0.9971588 -0.04732137 0.06318575 0.9968793 -0.05023193 0.06228756 0.9967934 -0.07821714 0.0523898 0.9955589 -0.0738793 0.05371713 0.9958195 -0.1046145 0.04310131 0.9935785 -0.1000885 0.04452049 0.993982 -0.132188 0.03253829 0.9906905 -0.1306449 0.03302937 0.9908789 -0.1561241 0.02339166 0.9874604 -0.1544753 0.02397006 0.9877059 -0.1774929 0.01491022 0.9840092 -0.1705833 0.01723414 0.9851926 -0.1906635 0.009780049 0.9816068 -0.239132 -0.01050901 0.9709302 -0.2345874 -0.00887221 0.9720546 -0.2550255 -0.01784157 0.9667697 -0.2550445 -0.01784956 0.9667646 -0.2721211 -0.0256679 0.9619206 -0.2701823 -0.02490979 0.9624869 -0.285398 -0.03174698 0.9578832 0.4609509 0.2004975 0.8644797 0.454679 0.1993164 0.8680668 0.4189698 0.1913202 0.8876154 0.4037536 0.1881453 0.8953125 0.3787872 0.1819828 0.9074153 0.3653428 0.179127 0.9134759 0.3405143 0.1731939 0.9241504 0.3374248 0.1725198 0.9254088 0.309599 0.1657298 0.936313 0.3070639 0.1651874 0.9372433 0.2770984 0.157692 0.9478132 0.2751308 0.1572644 0.9484573 0.2429729 0.1490142 0.9585191 0.2420107 0.1488132 0.9587938 0.2152638 0.1417975 0.9662065 0.2145688 0.1416363 0.9663847 0.1931967 0.1358892 0.9717043 0.193613 0.135985 0.9716081 0.1680317 0.1291129 0.9772898 0.1685764 0.1292326 0.9771801 0.1422009 0.1218111 0.9823142 0.1413941 0.1216218 0.982454 0.1188136 0.1151179 0.9862207 0.1180945 0.1149465 0.9863271 0.09525835 0.1082152 0.9895531 0.09455949 0.1080465 0.9896386 0.07298201 0.1015359 0.9921513 0.07141983 0.1011492 0.9923045 0.05131602 0.09484213 0.9941688 0.02923208 0.08781015 0.9957082 0.02399289 0.08639168 0.9959724 0.006483912 0.08054918 0.9967296 0.004314422 0.07996767 0.9967882 -0.01382559 0.07395637 0.9971656 -0.01212275 0.07443386 0.9971523 -0.0315423 0.06816351 0.9971755 -0.02973377 0.06865602 0.9971973 -0.04694169 0.06274229 0.9969252 -0.05375421 0.0606448 0.996711 -0.06217461 0.05736911 0.9964151 -0.07010924 0.05469191 0.996039 -0.08415967 0.04960125 0.995217 -0.08576965 0.04914313 0.9951023 -0.1096458 0.04045128 0.9931473 -0.107494 0.04106205 0.9933574 -0.123486 0.03538727 0.9917152 -0.155223 0.02326107 0.9876056 -0.1560547 0.02299475 0.9874807 -0.1709628 0.01715737 0.9851281 -0.1700905 0.01745098 0.985274 -0.1843253 0.01194125 0.9827927 -0.1862436 0.01130741 0.9824386 -0.1967939 0.006750285 0.9804217 -0.2087437 0.002269566 0.9779677 -0.2056103 0.003266632 0.9786285 -0.2218134 -0.003498613 0.9750829 -0.221433 -0.003372073 0.9751698 -0.236983 -0.009890556 0.9714635 -0.2310925 -0.007938504 0.9728995 -0.2430728 -0.01234811 0.9699295 -0.2531096 -0.01724511 0.9672839 -0.2558715 -0.01826965 0.9665381 -0.2677861 -0.02347898 0.9631924 -0.2640732 -0.02221524 0.9642469 -0.2723547 -0.02557611 0.961857 -0.2809147 -0.02976727 0.959271 -0.2822093 -0.03022599 0.9588766 -0.2922586 -0.03499114 0.955699 -0.2913539 -0.03467011 0.955987 -0.3000661 -0.03872203 0.9531323 -0.2991026 -0.03840559 0.9534479 -0.3042688 -0.04098844 0.951704 -0.3034219 -0.04074454 0.9519848 -0.3025298 -0.04026937 0.9522889 -0.3006193 -0.03954941 0.9529239 -0.2947069 -0.03623348 0.9549006 -0.2790146 -0.02789127 0.9598817 -0.2811585 -0.02890092 0.9592261 -0.2918398 -0.03489398 0.9558306 0.4933443 0.2075455 0.8447108 0.4609043 0.2007387 0.8644486 0.4617065 0.2009328 0.8639753 0.4241778 0.1925856 0.8848639 0.4189324 0.1914951 0.8875952 0.3830349 0.1832592 0.905373 0.3787031 0.1823979 0.907367 0.34417 0.1742037 0.922605 0.3404754 0.1733918 0.9241276 0.3126859 0.166636 0.9351257 0.3095551 0.1659604 0.9362868 0.2796005 0.1584897 0.9469449 0.2770556 0.1579324 0.9477857 0.2449625 0.1497198 0.9579027 0.2429208 0.1492858 0.9584901 0.2169597 0.142448 0.9657314 0.2152207 0.1420361 0.966181 0.194759 0.1365444 0.9713004 0.1931474 0.1361671 0.9716752 0.1693691 0.1296498 0.9769877 0.1679916 0.1293357 0.9772672 0.1433783 0.1224172 0.9820677 0.142146 0.1221248 0.9822831 0.1198869 0.1157185 0.9860205 0.1187554 0.1154472 0.9861893 0.09625464 0.1088188 0.9893906 0.09520202 0.1085603 0.9895208 0.07388222 0.1021335 0.9920234 0.07292038 0.1018903 0.9921195 0.05213469 0.09548032 0.9940652 0.05124551 0.09525305 0.9941332 0.02994668 0.08853256 0.9956231 0.02914416 0.08832669 0.9956651 0.007157504 0.08121609 0.9966709 0.006403088 0.08101767 0.9966922 -0.01319521 0.07452303 0.997132 -0.01388704 0.07432705 0.9971373 -0.03093451 0.06857246 0.9971664 -0.03157782 0.06838405 0.9971593 -0.04641109 0.06328618 0.9969157 -0.04700076 0.06310284 0.9968997 -0.06170177 0.05797928 0.9964092 -0.06224983 0.05781489 0.9963847 -0.08373105 0.05019283 0.9952235 -0.08423388 0.05005073 0.9951882 -0.1092774 0.04092872 0.9931684 -0.1097046 0.04080539 0.9931263 -0.1339725 0.0317316 0.990477 -0.1343259 0.03162574 0.9904325 -0.1549829 0.02369964 0.9876329 -0.1552799 0.02360314 0.9875885 -0.1707662 0.01753592 0.9851556 -0.1710119 0.01745212 0.9851145 -0.1841633 0.01221311 0.9828199 -0.184362 0.0121442 0.9827834 -0.1966966 0.007147908 0.9804384 -0.1968521 0.007094919 0.9804075 -0.2086278 0.002247989 0.9779926 -0.208733 0.002209842 0.9779703 -0.2218037 -0.003254175 0.9750859 -0.221852 -0.003270387 0.9750749 -0.2370501 -0.00976479 0.9714484 -0.237008 -0.009750425 0.9714588 -0.2533114 -0.01687806 0.9672375 -0.253181 -0.01683419 0.9672725 -0.2680312 -0.0235123 0.9631234 -0.267796 -0.02342736 0.9631908 -0.2813234 -0.02965599 0.9591547 -0.2809563 -0.02953106 0.9592662 -0.2927775 -0.03513956 0.9555347 -0.2922657 -0.03495252 0.9556983 -0.3007631 -0.03908962 0.9528974 -0.3000463 -0.0388295 0.9531341 -0.3053548 -0.04148662 0.9513345 -0.3042404 -0.04114496 0.9517063 -0.3039995 -0.04101979 0.9517887 -0.3024966 -0.04044932 0.9522919 -0.2951257 -0.03651404 0.9547605 -0.2946916 -0.03631865 0.9549021 -0.2818445 -0.02937602 0.9590104 -0.2811328 -0.02904713 0.9592292 0.5021048 0.2094469 0.8390606 0.4933481 0.2076262 0.8446888 0.4689819 0.2024044 0.8597026 0.461694 0.200974 0.8639724 0.4301894 0.1939975 0.8816474 0.4241513 0.1927372 0.8848436 0.3880823 0.1845093 0.9029665 0.3829977 0.1834849 0.9053431 0.3486148 0.1753619 0.9207149 0.3441377 0.1743748 0.9225848 0.3165158 0.1676814 0.9336492 0.3126501 0.1668413 0.9351011 0.2828221 0.1594232 0.9458309 0.2795681 0.1587026 0.9469189 0.2476343 0.1505517 0.9570849 0.2449251 0.1499638 0.957874 0.2120331 0.1413075 0.9669923 0.2169629 0.1424043 0.9657372 0.1947146 0.1368407 0.9712678 0.1494715 0.124162 0.9809395 0.143341 0.12268 0.9820402 0.1214362 0.116383 0.9857526 0.1198437 0.115992 0.9859936 0.09768939 0.1094695 0.9891781 0.0962156 0.1091008 0.9893632 0.07518661 0.1027631 0.9918603 0.07384365 0.1024184 0.9919968 0.05331176 0.09608781 0.9939442 0.05209153 0.09576934 0.9940397 0.03100043 0.08911496 0.9955388 0.02990609 0.08882784 0.995598 0.008115231 0.08177858 0.9966175 0.007116615 0.08150953 0.9966472 -0.01236015 0.0750572 0.9971027 -0.01323419 0.07480198 0.9971107 -0.03015488 0.06908845 0.9971548 -0.0309689 0.06884735 0.9971464 -0.04571205 0.06377726 0.9969167 -0.04644268 0.06354618 0.9968978 -0.06109398 0.05844026 0.9964197 -0.06173497 0.05824255 0.9963919 -0.08319777 0.05062329 0.9952465 -0.0837652 0.05045735 0.9952073 -0.1088698 0.04130893 0.9931974 -0.1093097 0.04117673 0.9931546 -0.1336832 0.03205704 0.9905055 -0.1340025 0.03195965 0.9904655 -0.1547789 0.02397871 0.9876581 -0.1550086 0.0239039 0.9876239 -0.1706473 0.01777088 0.9851719 -0.1707917 0.01772159 0.9851478 -0.1841019 0.01241403 0.9828288 -0.184186 0.01238387 0.9828134 -0.196718 0.007304072 0.980433 -0.2026804 0.004571616 0.9792343 -0.2086461 0.002390563 0.9779884 -0.2219545 -0.003180742 0.9750518 -0.2218201 -0.003132104 0.9750826 -0.2373269 -0.009763896 0.9713808 -0.2370622 -0.009670674 0.9714463 -0.2536867 -0.0169453 0.9671381 -0.2533195 -0.0168181 0.9672365 -0.2668932 -0.02292442 0.9634535 -0.2680484 -0.02338171 0.9631217 -0.2775902 -0.02797681 0.9602922 -0.3063342 -0.04204666 0.950995 -0.3053221 -0.04171156 0.9513351 -0.3064516 -0.04230028 0.950946 -0.3039641 -0.04126322 0.9517895 -0.2982721 -0.03810924 0.9537199 0.5114074 0.211396 0.8329311 0.5021047 0.2094964 0.8390483 0.4768303 0.2041282 0.8549647 0.4689462 0.2025769 0.8596814 0.4368687 0.1955226 0.8780186 0.4301576 0.1941267 0.8816344 0.3938054 0.1858775 0.9002039 0.3880575 0.1847133 0.9029355 0.3537254 0.1766381 0.9185191 0.3485941 0.1755043 0.9206956 0.3210477 0.1688609 0.9318876 0.3164874 0.1678562 0.9336273 0.2867223 0.1604815 0.9444766 0.2827927 0.1596025 0.9458094 0.2509621 0.1514992 0.956068 0.2476101 0.1507614 0.9570581 0.2185385 0.1431348 0.9652737 0.2119942 0.1415999 0.9669582 0.1864202 0.1344819 0.9732226 0.1806266 0.1331243 0.9745009 0.1517165 0.1250822 0.9804778 0.1494258 0.1245536 0.9808967 0.1234636 0.1171045 0.9854153 0.1214114 0.1165891 0.9857314 0.09955322 0.1101614 0.9889155 0.09766656 0.1096799 0.989157 0.07688277 0.1034219 0.9916618 0.07516717 0.10297 0.9918403 0.0548315 0.09670603 0.9938016 0.05328977 0.09629404 0.9939255 0.03235751 0.08969151 0.9954439 0.03097802 0.08932101 0.995521 0.009326398 0.08231872 0.9965624 0.008093476 0.08197808 0.9966014 -0.01129907 0.07555228 0.9970779 -0.01237607 0.07523339 0.9970892 -0.02919 0.06955295 0.9971512 -0.03017431 0.06925868 0.9971424 -0.05125659 0.06199836 0.9967592 -0.04569613 0.06362533 0.9969272 -0.06111705 0.05865448 0.9964058 -0.1309759 0.03302395 0.9908354 -0.133692 0.0321682 0.9905008 -0.1546224 0.02412474 0.9876791 -0.1547876 0.02406716 0.9876546 -0.1706118 0.01785874 0.9851765 -0.1706563 0.01784181 0.9851692 -0.1841055 0.01247298 0.9828274 -0.2339883 -0.008556365 0.9722018 -0.2373239 -0.00977689 0.9713814 -0.2542724 -0.01720017 0.9669797 -0.2536801 -0.01698994 0.967139 -0.270861 -0.02473217 0.9623007 -0.2668545 -0.02327412 0.9634558 -0.277607 -0.02780443 0.9602923 -0.2856512 -0.03189438 0.9578028 -0.2887673 -0.03317666 0.9568244 -0.2990467 -0.03833174 0.9534683 -0.2988505 -0.03826069 0.9535326 -0.307914 -0.04277074 0.9504524 -0.3063108 -0.04225683 0.9509932 -0.3085064 -0.04340183 0.9502317 -0.306428 -0.04251044 0.9509442 -0.2993275 -0.0387277 0.9533641 -0.2982598 -0.03823411 0.9537187 -0.2852483 -0.03121483 0.9579453 -0.2842148 -0.03073531 0.9582679 0.4368588 0.1955418 0.8780193 0.4324932 0.194514 0.8804056 0.4324654 0.1947767 0.8803611 0.3749586 0.1814583 0.9091089 0.3537087 0.1767486 0.9185043 0.3217537 0.1690644 0.9316071 0.3210348 0.1689075 0.9318836 0.2867116 0.1606117 0.9444578 -0.2852428 -0.03129869 0.9579442 -0.2864641 -0.03188091 0.9575605 -0.2993165 -0.0388199 0.953364 -0.3005874 -0.03942149 0.9529392 -0.3084878 -0.0436325 0.9502272 -0.3108451 -0.04468148 0.9494099 -0.307885 -0.04313707 0.9504452 -0.3097676 -0.04379606 0.9498032 -0.299038 -0.03845161 0.9534662 -0.3004707 -0.0389769 0.9529943 -0.2856529 -0.03187918 0.9578028 -0.2853972 -0.03178167 0.9578823 -0.270855 -0.02480131 0.9623007 -0.2701923 -0.02454072 0.9624937 -0.2542622 -0.01735252 0.9669797 -0.2550522 -0.01764684 0.9667663 -0.2339965 -0.008415997 0.9722011 -0.2345958 -0.008624732 0.9720548 -0.2128999 5.76149e-4 0.9770739 -0.2132676 4.44985e-4 0.9769937 -0.1904829 0.009846329 0.9816411 -0.1906621 0.009787797 0.981607 -0.1706066 0.01780736 0.9851783 -0.1706063 0.01780855 0.9851784 -0.1546161 0.02408838 0.9876809 -0.1544816 0.02413642 0.9877008 -0.1309852 0.03317368 0.9908292 -0.1306473 0.03327924 0.9908703 -0.100687 0.04444837 0.9939248 -0.1000922 0.04463028 0.9939767 -0.07471674 0.05379664 0.9957526 -0.07388794 0.05405926 0.9958003 -0.05126041 0.06205219 0.9967557 -0.05023556 0.06236273 0.9967885 -0.02919679 0.06960707 0.9971472 -0.02798384 0.06998056 0.9971558 -0.01130414 0.07561832 0.9970728 -0.009919226 0.07603329 0.997056 0.009319782 0.08241099 0.9965549 0.01088887 0.08285713 0.9965021 0.03235095 0.08979773 0.9954345 0.03412681 0.09028929 0.9953308 0.05482673 0.09681582 0.9937912 0.06222546 0.09883946 0.993156 0.07687181 0.1035928 0.9916448</float_array>
          <technique_common>
            <accessor source="#right_canard-mesh-normals-array" count="1265" stride="3">
              <param name="X" type="float"/>
              <param name="Y" type="float"/>
              <param name="Z" type="float"/>
            </accessor>
          </technique_common>
        </source>
        <vertices id="right_canard-mesh-vertices">
          <input semantic="POSITION" source="#right_canard-mesh-positions"/>
        </vertices>
        <triangles count="1284">
          <input semantic="VERTEX" source="#right_canard-mesh-vertices" offset="0"/>
          <input semantic="NORMAL" source="#right_canard-mesh-normals" offset="1"/>
          <p>0 0 1 0 2 0 0 1 3 1 1 1 4 2 5 3 6 4 7 5 8 5 9 5 10 6 11 6 12 6 10 7 12 7 13 7 10 8 13 8 14 8 10 9 14 9 15 9 16 10 17 10 18 10 16 11 18 11 19 11 16 12 19 12 11 12 16 13 11 13 10 13 20 14 21 14 22 14 20 15 22 15 23 15 20 16 23 16 24 16 20 17 24 17 25 17 20 18 25 18 26 18 20 19 26 20 27 21 20 22 27 22 28 22 20 23 28 23 29 23 30 24 31 24 32 24 30 25 32 25 29 25 30 26 29 26 28 26 33 27 34 27 35 27 33 28 35 28 36 28 33 29 36 29 37 29 33 30 37 30 9 30 33 31 9 31 8 31 28 32 27 33 38 33 28 34 38 34 39 34 28 35 39 35 40 35 28 36 40 36 41 36 28 37 41 37 3 37 28 38 3 38 0 38 42 39 43 39 6 39 6 40 43 40 44 40 6 41 44 41 4 41 5 42 4 42 45 42 45 43 4 43 46 43 45 44 46 44 47 44 47 45 46 45 48 45 47 46 48 46 49 46 49 47 48 47 50 47 50 48 48 48 51 48 50 49 51 49 52 49 52 50 51 50 53 50 52 51 53 51 54 51 54 52 53 52 55 52 55 53 53 53 56 53 55 54 56 54 57 54 57 55 56 55 58 55 57 56 58 56 59 56 59 57 58 57 60 57 60 58 58 58 61 58 61 59 58 59 15 59 61 60 15 60 14 60 17 61 16 61 62 61 62 62 16 62 63 62 62 63 63 63 64 63 64 64 63 64 65 64 65 65 63 65 66 65 66 66 63 66 67 66 66 67 67 67 68 67 68 68 67 68 69 68 69 69 67 69 70 69 70 70 67 70 71 70 70 71 71 71 72 71 72 72 71 72 73 72 73 73 71 73 74 73 73 74 74 74 21 74 21 75 74 75 22 75 31 76 30 76 75 76 75 77 30 77 76 77 75 78 76 78 77 78 77 79 76 79 78 79 78 80 76 80 79 80 79 81 76 81 8 81 79 82 8 82 80 82 80 83 8 83 7 83 81 84 82 84 83 84 83 85 82 85 84 85 83 86 84 86 85 86 85 87 84 87 86 87 85 88 86 88 34 88 34 89 86 89 87 89 34 90 87 90 35 90 82 91 81 91 88 91 88 92 81 92 89 92 88 93 89 93 90 93 90 94 89 94 91 94 90 95 91 95 92 95 92 96 91 96 93 96 92 97 93 97 94 97 94 98 93 98 95 98 94 99 95 99 96 99 96 100 95 100 97 100 96 101 97 101 98 101 98 102 97 102 99 102 98 103 99 103 100 103 100 104 99 104 101 104 100 105 101 105 102 105 102 106 101 106 103 106 102 107 103 107 104 107 104 108 103 108 105 108 104 109 105 109 106 109 106 110 105 111 107 111 106 112 107 113 108 114 108 115 107 115 109 115 110 116 111 116 112 116 113 117 114 117 115 117 115 116 116 116 113 116 117 116 118 116 119 116 117 118 119 118 120 118 117 116 120 116 121 116 117 119 121 120 122 121 117 116 122 116 123 116 123 122 122 123 124 124 123 125 124 125 125 125 123 126 125 126 116 126 123 127 116 127 115 127 126 116 127 116 128 116 128 128 127 128 129 128 128 129 129 129 130 129 130 130 129 130 131 130 130 131 131 131 132 131 132 132 131 132 112 132 132 133 112 133 111 133 133 116 134 116 135 116 135 134 134 134 136 134 135 116 136 116 137 116 137 135 136 135 138 135 137 136 138 136 139 136 139 137 138 137 140 137 139 138 140 138 141 138 141 116 140 116 142 116 141 139 142 139 143 139 143 140 142 140 144 140 143 116 144 116 145 116 145 116 144 116 146 116 145 116 146 116 147 116 147 141 146 141 148 141 147 142 148 142 149 142 149 143 148 143 150 143 149 144 150 144 151 144 151 116 150 116 152 116 151 145 152 145 153 145 153 146 152 146 154 146 153 116 154 116 155 116 155 147 154 147 126 147 155 148 126 148 128 148 156 149 157 149 158 149 158 116 157 116 159 116 158 116 159 116 160 116 160 150 159 150 161 150 160 116 161 116 162 116 162 151 161 151 134 151 162 116 134 116 133 116 163 116 164 116 165 116 165 116 164 116 166 116 165 152 166 152 167 152 167 116 166 116 168 116 167 153 168 153 169 153 169 116 168 116 170 116 169 116 170 116 171 116 171 116 170 116 172 116 171 154 172 154 173 154 173 155 172 155 174 155 173 116 174 116 175 116 175 116 174 116 176 116 175 156 176 156 177 156 177 116 176 116 178 116 177 157 178 157 179 157 179 116 178 116 157 116 179 158 157 158 156 158 180 159 181 159 182 159 182 116 181 116 164 116 182 160 164 160 163 160 114 161 183 161 115 161 115 116 183 116 184 116 115 116 184 116 185 116 185 116 184 116 186 116 185 162 186 162 187 162 187 116 186 116 188 116 187 163 188 163 189 163 189 116 188 116 181 116 189 164 181 164 180 164 118 165 117 165 190 165 190 166 117 166 191 166 190 167 191 167 192 167 192 168 191 168 193 168 192 169 193 169 194 169 194 170 193 170 195 170 194 171 195 171 196 171 196 172 195 172 197 172 196 173 197 173 198 173 198 174 197 174 199 174 198 175 199 175 2 175 2 176 199 176 0 176 112 177 131 177 200 177 201 178 202 178 183 178 183 179 202 179 184 179 184 180 202 180 203 180 184 181 203 181 186 181 186 182 203 182 204 182 186 183 204 183 188 183 205 184 206 184 166 184 174 185 207 185 176 185 157 186 208 186 159 186 208 187 209 187 159 187 210 188 211 188 136 188 138 189 212 189 140 189 150 190 213 190 214 190 150 191 214 191 215 191 150 192 215 192 152 192 152 193 215 193 216 193 152 194 216 194 154 194 216 195 217 195 154 195 126 196 154 196 217 196 217 197 218 197 126 197 219 198 220 198 129 198 221 199 10 199 222 199 10 200 15 200 222 200 223 201 56 201 224 201 48 202 46 202 225 202 226 203 227 203 42 203 42 204 6 204 226 204 228 205 45 205 229 205 45 206 47 206 229 206 230 207 229 207 47 207 47 208 49 208 230 208 231 209 232 209 55 209 59 210 60 210 233 210 234 211 233 211 60 211 235 212 14 212 13 212 235 213 13 213 236 213 237 214 238 214 239 214 238 215 240 215 239 215 241 216 239 216 240 216 240 217 242 217 241 217 243 218 221 218 244 218 245 219 244 219 221 219 245 220 221 220 222 220 246 221 235 221 236 221 247 222 248 222 249 222 250 223 251 223 252 223 251 224 253 224 252 224 254 225 252 225 253 225 254 226 253 226 255 226 256 227 257 227 258 227 259 228 246 228 260 228 261 229 262 229 263 229 262 230 264 230 263 230 265 231 266 231 267 231 267 232 266 232 268 232 268 233 266 233 269 233 268 234 269 234 270 234 270 235 269 235 271 235 270 236 271 236 272 236 272 237 271 237 273 237 272 238 273 238 274 238 273 239 250 239 274 239 275 240 274 240 250 240 250 241 252 241 275 241 276 242 275 242 252 242 252 243 254 243 276 243 277 244 276 244 254 244 277 245 254 245 278 245 279 246 280 246 281 246 282 247 283 247 284 247 284 248 256 248 282 248 285 249 282 249 256 249 285 250 256 250 286 250 287 251 288 251 289 251 289 252 259 252 287 252 290 253 287 253 259 253 204 254 267 254 291 254 291 255 267 255 268 255 291 256 268 256 205 256 268 257 270 257 205 257 206 258 205 258 270 258 206 259 270 259 272 259 213 260 288 260 287 260 292 261 293 261 217 261 218 262 217 262 293 262 72 263 112 263 200 263 72 264 200 264 294 264 72 265 294 265 295 265 72 266 295 266 296 266 72 267 296 267 297 267 72 268 297 268 70 268 118 269 190 269 119 269 119 270 190 270 298 270 119 271 298 271 120 271 120 272 298 272 299 272 120 273 299 273 121 273 121 274 299 274 300 274 121 275 300 275 122 275 122 276 300 276 301 276 122 277 301 277 124 277 124 278 301 278 302 278 124 279 302 279 125 279 125 280 302 280 116 280 116 281 302 281 303 281 116 282 303 282 113 282 113 283 303 283 304 283 113 284 304 284 114 284 114 285 304 285 201 285 114 286 201 286 183 286 188 287 204 287 181 287 181 288 204 288 291 288 181 289 291 289 164 289 164 290 291 290 205 290 164 291 205 291 166 291 207 292 174 292 305 292 305 293 174 293 172 293 305 294 172 294 306 294 306 295 172 295 170 295 306 296 170 296 206 296 206 297 170 297 168 297 206 298 168 298 166 298 176 299 207 299 178 299 178 300 207 300 307 300 178 301 307 301 157 301 157 302 307 302 308 302 157 303 308 303 208 303 159 304 209 304 161 304 161 305 209 305 309 305 161 306 309 306 134 306 134 307 309 307 210 307 134 308 210 308 136 308 136 309 211 309 138 309 138 310 211 310 310 310 138 311 310 311 212 311 140 312 212 312 142 312 142 313 212 313 311 313 142 314 311 314 144 314 144 315 311 315 312 315 144 316 312 316 146 316 146 317 312 317 313 317 146 318 313 318 148 318 148 319 313 319 213 319 148 320 213 320 150 320 219 321 129 321 218 321 218 322 129 322 127 322 218 323 127 323 126 323 129 324 220 324 131 324 131 325 220 325 314 325 131 326 314 327 200 328 198 329 2 329 315 329 315 330 2 330 1 330 315 331 1 331 316 331 316 332 1 332 3 332 316 333 3 333 317 333 317 334 3 334 41 334 317 335 41 335 318 335 318 336 41 336 40 336 318 337 40 337 319 337 319 338 40 338 39 338 319 339 39 339 38 339 319 340 38 340 320 340 320 341 38 341 27 341 320 342 27 342 321 342 321 343 27 343 26 343 321 344 26 344 322 344 322 345 26 345 25 345 322 346 25 346 323 346 323 347 25 347 24 347 323 348 24 348 23 348 323 349 23 349 238 349 238 350 23 350 22 350 238 351 22 351 240 351 240 352 22 352 74 352 240 353 74 353 242 353 242 354 74 354 71 354 242 355 71 355 324 355 324 356 71 356 67 356 324 357 67 357 243 357 243 358 67 358 63 358 243 359 63 359 221 359 221 360 63 360 16 360 221 361 16 361 10 361 222 362 15 362 223 362 223 363 15 363 58 363 223 364 58 364 56 364 224 365 56 365 325 365 325 366 56 366 53 366 325 367 53 367 326 367 326 368 53 368 51 368 326 369 51 369 327 369 327 370 51 370 48 370 327 371 48 371 225 371 225 372 46 372 328 372 328 373 46 373 4 373 328 374 4 374 329 374 329 375 4 375 44 375 329 376 44 376 227 376 227 377 44 377 43 377 227 378 43 378 42 378 226 379 6 379 228 379 228 380 6 380 5 380 228 381 5 381 45 381 230 382 49 382 330 382 330 383 49 383 50 383 330 384 50 384 331 384 331 385 50 385 52 385 331 386 52 386 232 386 232 387 52 387 54 387 232 388 54 388 55 388 59 389 233 389 57 389 57 390 233 390 231 390 57 391 231 391 55 391 14 392 235 392 61 392 61 393 235 393 234 393 61 394 234 394 60 394 70 395 297 395 69 395 69 396 297 396 332 396 69 397 332 397 68 397 68 398 332 398 333 398 68 399 333 399 66 399 66 400 333 400 334 400 66 401 334 401 65 401 65 402 334 402 335 402 65 403 335 403 64 403 64 404 335 404 336 404 64 405 336 405 62 405 62 406 336 406 249 406 62 407 249 407 17 407 17 408 249 408 337 408 17 409 337 409 18 409 18 410 337 410 338 410 18 411 338 411 19 411 19 412 338 412 339 412 19 413 339 413 11 413 11 414 339 414 340 414 11 415 340 415 12 415 12 416 340 416 236 416 12 417 236 417 13 417 196 418 198 418 341 418 341 419 198 419 315 419 341 420 315 420 342 420 342 421 315 421 316 421 342 422 316 422 343 422 343 423 316 423 317 423 343 424 317 424 344 424 344 425 317 425 318 425 344 426 318 426 345 426 345 427 318 427 319 427 345 428 319 428 346 428 346 429 319 429 320 429 346 430 320 430 347 430 347 431 320 431 321 431 347 432 321 432 348 432 348 433 321 433 322 433 348 434 322 434 237 434 237 435 322 435 323 435 237 436 323 436 238 436 241 437 242 437 349 437 349 438 242 438 324 438 349 439 324 439 350 439 350 440 324 440 243 440 350 441 243 441 244 441 245 442 222 442 351 442 351 443 222 443 223 443 351 444 223 444 352 444 352 445 223 445 224 445 352 446 224 446 353 446 353 447 224 447 325 447 353 448 325 448 354 448 354 449 325 449 326 449 354 450 326 450 251 450 251 451 326 451 327 451 251 452 327 452 253 452 253 453 327 453 225 453 253 454 225 454 255 454 255 455 225 455 328 455 255 456 328 456 355 456 355 457 328 457 329 457 355 458 329 458 356 458 356 459 329 459 227 459 356 460 227 460 357 460 357 461 227 461 226 461 357 462 226 462 358 462 358 463 226 463 228 463 358 464 228 464 359 464 359 465 228 465 229 465 359 466 229 466 360 466 360 467 229 467 230 467 360 468 230 468 361 468 361 469 230 469 330 469 361 470 330 470 362 470 362 471 330 471 331 471 362 472 331 472 257 472 257 473 331 473 232 473 257 474 232 474 258 474 258 475 232 475 231 475 258 476 231 476 363 476 363 477 231 477 233 477 363 478 233 478 364 478 364 479 233 479 234 479 364 480 234 480 365 480 365 481 234 481 235 481 365 482 235 482 246 482 246 483 236 483 260 483 260 484 236 484 340 484 260 485 340 485 366 485 366 486 340 486 339 486 366 487 339 487 367 487 367 488 339 488 338 488 367 489 338 489 248 489 248 490 338 490 337 490 248 491 337 491 249 491 297 492 296 492 332 492 332 493 296 493 368 493 332 494 368 494 333 494 333 495 368 495 369 495 333 496 369 496 334 496 334 497 369 497 370 497 334 498 370 498 335 498 335 499 370 499 371 499 335 500 371 500 336 500 336 501 371 501 247 501 336 502 247 502 249 502 194 503 196 503 372 503 372 504 196 504 341 504 372 505 341 505 373 505 373 506 341 506 342 506 373 507 342 507 374 507 374 508 342 508 343 508 374 509 343 509 375 509 375 510 343 510 344 510 375 511 344 511 262 511 262 512 344 512 345 512 262 513 345 513 264 513 264 514 345 514 346 514 264 515 346 515 376 515 376 516 346 516 347 516 376 517 347 517 377 517 377 518 347 518 348 518 377 519 348 519 378 519 378 520 348 520 237 520 378 521 237 521 379 521 379 522 237 522 239 522 379 523 239 523 380 523 380 524 239 524 241 524 380 525 241 525 381 525 381 526 241 526 349 526 381 527 349 527 382 527 382 528 349 528 350 528 382 529 350 529 265 529 265 530 350 530 244 530 265 531 244 531 266 531 266 532 244 532 245 532 266 533 245 533 269 533 269 534 245 534 351 534 269 535 351 535 271 535 271 536 351 536 352 536 271 537 352 537 273 537 273 538 352 538 353 538 273 539 353 539 250 539 250 540 353 540 354 540 250 541 354 541 251 541 254 542 255 542 278 542 278 543 255 543 355 543 278 544 355 544 383 544 383 545 355 545 356 545 383 546 356 546 384 546 384 547 356 547 357 547 384 548 357 548 385 548 385 549 357 549 358 549 385 550 358 550 386 550 386 551 358 551 359 551 386 552 359 552 387 552 387 553 359 553 360 553 387 554 360 554 280 554 280 555 360 555 361 555 280 556 361 556 388 556 388 557 361 557 362 557 388 558 362 558 284 558 284 559 362 559 257 559 284 560 257 560 256 560 256 561 258 561 286 561 286 562 258 562 363 562 286 563 363 563 389 563 389 564 363 564 364 564 389 565 364 565 390 565 390 566 364 566 365 566 390 567 365 567 289 567 289 568 365 568 246 568 289 569 246 569 259 569 259 570 260 570 391 570 391 571 260 571 366 571 391 572 366 572 392 572 392 573 366 573 367 573 392 574 367 574 393 574 393 575 367 575 248 575 393 576 248 576 394 576 296 577 295 577 368 577 368 578 295 578 395 578 368 579 395 579 369 579 369 580 395 580 396 580 369 581 396 581 370 581 370 582 396 582 397 582 370 583 397 583 371 583 371 584 397 584 398 584 371 585 398 585 247 585 247 586 398 586 394 586 247 587 394 587 248 587 192 588 194 588 399 588 399 589 194 589 372 589 399 590 372 590 400 590 400 591 372 591 373 591 400 592 373 592 401 592 401 593 373 593 374 593 401 594 374 594 261 594 261 595 374 595 375 595 261 596 375 596 262 596 263 597 264 597 402 597 402 598 264 598 376 598 402 599 376 599 403 599 403 600 376 600 377 600 403 601 377 601 404 601 404 602 377 602 378 602 404 603 378 603 405 603 405 604 378 604 379 604 405 605 379 605 406 605 406 606 379 606 380 606 406 607 380 607 407 607 407 608 380 608 381 608 407 609 381 609 408 609 408 610 381 610 382 610 408 611 382 611 409 611 409 612 382 612 265 612 409 613 265 613 267 613 277 614 278 614 410 614 410 615 278 615 383 615 410 616 383 616 411 616 411 617 383 617 384 617 411 618 384 618 412 618 412 619 384 619 385 619 412 620 385 620 413 620 413 621 385 621 386 621 413 622 386 622 279 622 279 623 386 623 387 623 279 624 387 624 280 624 284 625 283 625 388 625 388 626 283 626 281 626 388 627 281 627 280 627 285 628 286 628 414 628 414 629 286 629 389 629 414 630 389 630 288 630 288 631 389 631 390 631 288 632 390 632 289 632 295 633 294 633 395 633 395 634 294 634 415 634 395 635 415 635 396 635 396 636 415 636 416 636 396 637 416 637 397 637 397 638 416 638 417 638 397 639 417 639 398 639 398 640 417 640 418 640 398 641 418 641 394 641 394 642 418 642 293 642 394 643 293 643 393 643 393 644 293 644 292 644 393 645 292 645 392 645 392 646 292 646 419 646 392 647 419 647 391 647 391 648 419 648 290 648 391 649 290 649 259 649 190 650 192 650 298 650 298 651 192 651 399 651 298 652 399 652 400 652 298 653 400 653 299 653 299 654 400 654 401 654 299 655 401 655 300 655 300 656 401 656 261 656 300 657 261 657 301 657 301 658 261 658 263 658 301 659 263 659 302 659 302 660 263 660 402 660 302 661 402 661 303 661 303 662 402 662 403 662 303 663 403 663 304 663 304 664 403 664 404 664 304 665 404 665 201 665 201 666 404 666 405 666 201 667 405 667 202 667 202 668 405 668 406 668 202 669 406 669 407 669 202 670 407 670 203 670 203 671 407 671 408 671 203 672 408 672 204 672 204 673 408 673 409 673 204 674 409 674 267 674 206 675 272 675 306 675 306 676 272 676 274 676 306 677 274 677 305 677 305 678 274 678 275 678 305 679 275 679 207 679 207 680 275 680 276 680 207 681 276 681 307 681 307 682 276 682 277 682 307 683 277 683 308 683 308 684 277 684 410 684 308 685 410 685 208 685 208 686 410 686 411 686 208 687 411 687 209 687 209 688 411 688 412 688 209 689 412 689 309 689 309 690 412 690 413 690 309 691 413 691 210 691 210 692 413 692 279 692 210 693 279 693 211 693 211 694 279 694 281 694 211 695 281 695 310 695 310 696 281 696 283 696 310 697 283 697 212 697 212 698 283 698 282 698 212 699 282 699 311 699 311 700 282 700 285 700 311 701 285 701 312 701 312 702 285 702 414 702 312 703 414 703 313 703 313 704 414 704 288 704 313 705 288 705 213 705 213 706 287 706 214 706 214 707 287 707 290 707 214 708 290 708 215 708 215 709 290 709 419 709 215 710 419 710 216 710 216 711 419 711 292 711 216 712 292 712 217 712 294 713 200 713 415 713 415 714 200 714 314 714 415 715 314 715 416 715 416 716 314 716 220 716 416 717 220 717 417 717 417 718 220 718 219 718 417 719 219 719 418 719 418 720 219 720 218 720 418 721 218 721 293 721 420 722 421 722 422 722 422 723 423 723 424 723 425 724 424 724 423 724 423 725 426 725 425 725 427 726 428 726 429 726 429 727 430 727 427 727 431 728 427 728 430 728 430 729 432 729 431 729 433 730 424 730 434 730 434 731 424 731 425 731 72 732 73 732 435 732 72 733 435 733 436 733 72 734 436 734 421 734 72 735 421 735 420 735 72 736 420 736 437 736 72 737 437 737 112 737 153 738 155 738 438 738 438 739 155 739 439 739 438 740 439 740 440 740 440 741 439 741 431 741 440 742 431 742 441 742 441 743 431 743 432 743 439 744 155 744 442 744 442 745 155 745 128 745 442 746 128 746 443 746 443 747 128 747 130 747 443 748 130 748 434 748 434 749 130 749 132 749 434 750 132 750 433 750 433 751 132 751 111 751 433 752 111 752 437 752 437 753 111 753 110 753 437 754 110 754 112 754 435 755 73 755 444 755 444 756 73 756 21 756 444 757 21 757 445 757 445 758 21 758 20 758 445 759 20 759 446 759 446 760 20 760 29 760 446 761 29 761 32 761 446 762 32 762 447 762 447 763 32 763 31 763 447 764 31 764 448 764 448 765 31 765 75 765 448 766 75 766 449 766 79 767 450 767 78 767 78 768 450 768 451 768 78 769 451 769 77 769 77 770 451 770 449 770 77 771 449 771 75 771 436 772 435 772 452 772 452 773 435 773 444 773 452 774 444 774 453 774 453 775 444 775 445 775 453 776 445 776 454 776 454 777 445 777 446 777 454 778 446 778 455 778 455 779 446 779 447 779 455 780 447 780 456 780 456 781 447 781 448 781 456 782 448 782 457 782 457 783 448 783 449 783 457 784 449 784 458 784 458 785 449 785 451 785 458 786 451 786 459 786 459 787 451 787 450 787 421 788 436 788 422 788 422 789 436 789 452 789 422 790 452 790 423 790 423 791 452 791 453 791 423 792 453 792 426 792 426 793 453 793 454 793 426 794 454 794 429 794 429 795 454 795 455 795 429 796 455 796 456 796 429 797 456 797 430 797 430 798 456 798 457 798 430 799 457 799 432 799 432 800 457 800 458 800 432 801 458 801 441 801 441 802 458 802 459 802 443 803 434 803 428 803 428 804 434 804 425 804 428 805 425 805 429 805 429 806 425 806 426 806 433 807 437 807 424 807 424 808 437 808 420 808 424 809 420 809 422 809 443 810 428 810 442 810 442 811 428 811 427 811 442 812 427 812 439 812 439 813 427 813 431 813 117 814 460 814 191 814 117 815 123 815 460 815 151 816 461 816 149 816 147 817 149 817 462 817 462 818 463 818 147 818 145 819 147 819 463 819 463 820 464 820 145 820 143 821 145 821 464 821 464 822 465 822 143 822 141 823 143 823 465 823 465 824 466 824 141 824 139 825 141 825 466 825 466 826 467 826 139 826 135 827 468 827 133 827 133 828 468 828 469 828 133 829 469 829 162 829 162 830 469 830 470 830 162 831 470 831 160 831 167 832 471 832 165 832 165 833 471 833 472 833 165 834 472 834 163 834 189 835 473 835 187 835 187 836 473 836 474 836 187 837 474 837 185 837 185 838 474 838 475 838 185 839 475 839 115 839 115 840 475 840 476 840 115 841 476 841 123 841 476 842 460 842 123 842 94 843 96 843 477 843 478 844 105 844 479 844 105 845 103 845 479 845 480 846 481 846 482 846 482 847 483 847 480 847 484 848 485 848 486 848 487 849 486 849 485 849 485 850 488 850 487 850 487 851 488 851 489 851 488 852 490 852 489 852 491 853 492 853 493 853 195 854 493 854 492 854 195 855 492 855 197 855 494 856 495 856 496 856 496 857 497 857 494 857 498 858 494 858 497 858 497 859 499 859 498 859 500 860 501 860 502 860 501 861 503 861 502 861 504 862 502 862 503 862 503 863 505 863 504 863 438 864 440 864 506 864 462 865 507 865 508 865 464 866 509 866 465 866 465 867 509 867 510 867 465 868 510 868 466 868 510 869 511 869 466 869 467 870 466 870 511 870 511 871 512 871 467 871 513 872 467 872 512 872 512 873 514 873 513 873 515 874 513 874 514 874 514 875 516 875 515 875 469 876 468 876 517 876 506 877 518 877 438 877 438 878 518 878 461 878 438 879 461 879 153 879 153 880 461 880 151 880 139 881 467 881 137 881 137 882 467 882 513 882 137 883 513 883 135 883 135 884 513 884 515 884 135 885 515 885 468 885 468 886 515 886 516 886 468 887 516 887 517 887 160 888 470 888 158 888 158 889 470 889 519 889 158 890 519 890 156 890 156 891 519 891 520 891 156 892 520 892 179 892 179 893 520 893 521 893 179 894 521 894 522 894 179 895 522 895 177 895 177 896 522 896 523 896 177 897 523 897 175 897 175 898 523 898 524 898 175 899 524 899 173 899 173 900 524 900 525 900 173 901 525 901 171 901 171 902 525 902 526 902 171 903 526 903 169 903 169 904 526 904 527 904 169 905 527 905 167 905 167 906 527 906 528 906 167 907 528 907 471 907 163 908 472 908 182 908 182 909 472 909 529 909 182 910 529 910 180 910 180 911 529 911 530 911 180 912 530 912 189 912 189 913 530 913 531 913 189 914 531 914 473 914 450 915 79 915 532 915 532 916 79 916 80 916 532 917 80 917 533 917 533 918 80 918 7 918 533 919 7 919 534 919 534 920 7 920 9 920 534 921 9 921 535 921 535 922 9 922 37 922 535 923 37 923 536 923 536 924 37 924 36 924 536 925 36 925 537 925 537 926 36 926 35 926 537 927 35 927 538 927 538 928 35 928 87 928 538 929 87 929 539 929 539 930 87 930 86 930 539 931 86 931 540 931 540 932 86 932 84 932 540 933 84 933 541 933 541 934 84 934 82 934 541 935 82 935 542 935 542 936 82 936 88 936 542 937 88 937 543 937 543 938 88 938 90 938 543 939 90 939 544 939 544 940 90 940 92 940 544 941 92 941 545 941 545 942 92 942 94 942 545 943 94 943 477 943 477 944 96 944 546 944 546 945 96 945 98 945 546 946 98 946 547 946 547 947 98 947 100 947 547 948 100 948 548 948 548 949 100 949 102 949 548 950 102 950 549 950 549 951 102 951 104 951 549 952 104 952 550 952 550 953 104 953 106 953 550 954 106 954 551 954 551 955 106 955 108 955 551 956 108 956 552 956 552 957 108 957 109 957 552 958 109 958 478 958 478 959 109 959 107 959 478 960 107 960 105 960 479 961 103 961 553 961 553 962 103 962 101 962 553 963 101 963 554 963 554 964 101 964 99 964 554 965 99 965 555 965 555 966 99 966 97 966 555 967 97 967 556 967 556 968 97 968 557 968 557 969 97 969 95 969 557 970 95 970 558 970 558 971 95 971 93 971 558 972 93 972 559 972 559 973 93 973 91 973 559 974 91 974 89 974 559 975 89 975 560 975 560 976 89 976 81 976 560 977 81 977 561 977 561 978 81 978 83 978 561 979 83 979 85 979 561 980 85 980 562 980 562 981 85 981 34 981 562 982 34 982 563 982 563 983 34 983 33 983 563 984 33 984 564 984 564 985 33 985 8 985 564 986 8 986 565 986 565 987 8 987 76 987 565 988 76 988 566 988 566 989 76 989 30 989 566 990 30 990 567 990 0 991 199 991 28 991 28 992 199 992 567 992 28 993 567 993 30 993 459 994 450 994 568 994 568 995 450 995 532 995 568 996 532 996 569 996 569 997 532 997 570 997 570 998 532 998 533 998 570 999 533 999 571 999 571 1000 533 1000 534 1000 571 1001 534 1001 572 1001 572 1002 534 1002 535 1002 572 1003 535 1003 573 1003 573 1004 535 1004 536 1004 573 1005 536 1005 574 1005 574 1006 536 1006 537 1006 574 1007 537 1007 575 1007 575 1008 537 1008 538 1008 575 1009 538 1009 576 1009 576 1010 538 1010 539 1010 576 1011 539 1011 482 1011 482 1012 539 1012 540 1012 482 1013 540 1013 483 1013 483 1014 540 1014 541 1014 483 1015 541 1015 577 1015 577 1016 541 1016 542 1016 577 1017 542 1017 578 1017 578 1018 542 1018 543 1018 578 1019 543 1019 579 1019 579 1020 543 1020 544 1020 579 1021 544 1021 580 1021 580 1022 544 1022 545 1022 580 1023 545 1023 581 1023 581 1024 545 1024 477 1024 581 1025 477 1025 582 1025 582 1026 477 1026 546 1026 582 1027 546 1027 583 1027 583 1028 546 1028 547 1028 583 1029 547 1029 584 1029 584 1030 547 1030 548 1030 584 1031 548 1031 585 1031 585 1032 548 1032 549 1032 585 1033 549 1033 586 1033 586 1034 549 1034 550 1034 586 1035 550 1035 587 1035 587 1036 550 1036 551 1036 587 1037 551 1037 588 1037 588 1038 551 1038 552 1038 588 1039 552 1039 589 1039 589 1040 552 1040 478 1040 589 1041 478 1041 590 1041 590 1042 478 1042 479 1042 590 1043 479 1043 591 1043 591 1044 479 1044 553 1044 591 1045 553 1045 592 1045 592 1046 553 1046 554 1046 592 1047 554 1047 593 1047 593 1048 554 1048 555 1048 593 1049 555 1049 594 1049 594 1050 555 1050 556 1050 594 1051 556 1051 595 1051 595 1052 556 1052 557 1052 595 1053 557 1053 596 1053 596 1054 557 1054 558 1054 596 1055 558 1055 597 1055 597 1056 558 1056 559 1056 597 1057 559 1057 598 1057 598 1058 559 1058 560 1058 598 1059 560 1059 484 1059 484 1060 560 1060 561 1060 484 1061 561 1061 485 1061 485 1062 561 1062 562 1062 485 1063 562 1063 488 1063 488 1064 562 1064 563 1064 488 1065 563 1065 490 1065 490 1066 563 1066 564 1066 490 1067 564 1067 599 1067 599 1068 564 1068 565 1068 599 1069 565 1069 491 1069 491 1070 565 1070 566 1070 491 1071 566 1071 492 1071 492 1072 566 1072 567 1072 492 1073 567 1073 197 1073 197 1074 567 1074 199 1074 441 1075 459 1075 600 1075 600 1076 459 1076 568 1076 600 1077 568 1077 601 1077 601 1078 568 1078 569 1078 601 1079 569 1079 602 1079 602 1080 569 1080 570 1080 602 1081 570 1081 603 1081 603 1082 570 1082 571 1082 603 1083 571 1083 604 1083 604 1084 571 1084 572 1084 604 1085 572 1085 605 1085 605 1086 572 1086 573 1086 605 1087 573 1087 606 1087 606 1088 573 1088 574 1088 606 1089 574 1089 607 1089 607 1090 574 1090 575 1090 607 1091 575 1091 481 1091 481 1092 575 1092 576 1092 481 1093 576 1093 482 1093 480 1094 483 1094 608 1094 608 1095 483 1095 577 1095 608 1096 577 1096 609 1096 609 1097 577 1097 578 1097 609 1098 578 1098 610 1098 610 1099 578 1099 579 1099 610 1100 579 1100 611 1100 611 1101 579 1101 580 1101 611 1102 580 1102 612 1102 612 1103 580 1103 581 1103 612 1104 581 1104 613 1104 613 1105 581 1105 582 1105 613 1106 582 1106 614 1106 614 1107 582 1107 583 1107 614 1108 583 1108 615 1108 615 1109 583 1109 584 1109 615 1110 584 1110 616 1110 616 1111 584 1111 585 1111 616 1112 585 1112 617 1112 617 1113 585 1113 586 1113 617 1114 586 1114 496 1114 496 1115 586 1115 587 1115 496 1116 587 1116 497 1116 497 1117 587 1117 588 1117 497 1118 588 1118 499 1118 499 1119 588 1119 589 1119 499 1120 589 1120 618 1120 618 1121 589 1121 590 1121 618 1122 590 1122 619 1122 619 1123 590 1123 591 1123 619 1124 591 1124 620 1124 620 1125 591 1125 592 1125 620 1126 592 1126 501 1126 501 1127 592 1127 593 1127 501 1128 593 1128 594 1128 501 1129 594 1129 503 1129 503 1130 594 1130 595 1130 503 1131 595 1131 505 1131 505 1132 595 1132 596 1132 505 1133 596 1133 621 1133 621 1134 596 1134 597 1134 621 1135 597 1135 622 1135 622 1136 597 1136 598 1136 622 1137 598 1137 623 1137 623 1138 598 1138 484 1138 623 1139 484 1139 486 1139 489 1140 490 1140 624 1140 624 1141 490 1141 599 1141 624 1142 599 1142 625 1142 625 1143 599 1143 491 1143 625 1144 491 1144 493 1144 440 1145 441 1145 506 1145 506 1146 441 1146 600 1146 506 1147 600 1147 518 1147 518 1148 600 1148 601 1148 518 1149 601 1149 507 1149 507 1150 601 1150 602 1150 507 1151 602 1151 508 1151 508 1152 602 1152 603 1152 508 1153 603 1153 626 1153 626 1154 603 1154 604 1154 626 1155 604 1155 627 1155 627 1156 604 1156 605 1156 627 1157 605 1157 509 1157 509 1158 605 1158 606 1158 509 1159 606 1159 510 1159 510 1160 606 1160 607 1160 510 1161 607 1161 511 1161 511 1162 607 1162 481 1162 511 1163 481 1163 512 1163 512 1164 481 1164 480 1164 512 1165 480 1165 514 1165 514 1166 480 1166 608 1166 514 1167 608 1167 516 1167 516 1168 608 1168 609 1168 516 1169 609 1169 517 1169 517 1170 609 1170 610 1170 517 1171 610 1171 628 1171 628 1172 610 1172 611 1172 628 1173 611 1173 629 1173 629 1174 611 1174 612 1174 629 1175 612 1175 630 1175 630 1176 612 1176 613 1176 630 1177 613 1177 631 1177 631 1178 613 1178 614 1178 631 1179 614 1179 632 1179 632 1180 614 1180 615 1180 632 1181 615 1181 633 1181 633 1182 615 1182 616 1182 633 1183 616 1183 495 1183 495 1184 616 1184 617 1184 495 1185 617 1185 496 1185 498 1186 499 1186 634 1186 634 1187 499 1187 618 1187 634 1188 618 1188 635 1188 635 1189 618 1189 619 1189 635 1190 619 1190 500 1190 500 1191 619 1191 620 1191 500 1192 620 1192 501 1192 504 1193 505 1193 636 1193 636 1194 505 1194 621 1194 636 1195 621 1195 637 1195 637 1196 621 1196 622 1196 637 1197 622 1197 638 1197 638 1198 622 1198 623 1198 638 1199 623 1199 486 1199 638 1200 486 1200 639 1200 639 1201 486 1201 487 1201 639 1202 487 1202 640 1202 640 1203 487 1203 489 1203 640 1204 489 1204 641 1204 641 1205 489 1205 624 1205 641 1206 624 1206 642 1206 642 1207 624 1207 625 1207 642 1208 625 1208 643 1208 643 1209 625 1209 493 1209 643 1210 493 1210 193 1210 193 1211 493 1211 195 1211 518 1212 507 1212 461 1212 461 1213 507 1213 462 1213 461 1214 462 1214 149 1214 462 1215 508 1215 463 1215 463 1216 508 1216 626 1216 463 1217 626 1217 464 1217 464 1218 626 1218 627 1218 464 1219 627 1219 509 1219 193 1220 191 1220 643 1220 643 1221 191 1221 460 1221 643 1222 460 1222 642 1222 642 1223 460 1223 476 1223 642 1224 476 1224 641 1224 641 1225 476 1225 475 1225 641 1226 475 1226 640 1226 640 1227 475 1227 474 1227 640 1228 474 1228 639 1228 639 1229 474 1229 473 1229 639 1230 473 1230 638 1230 638 1231 473 1231 531 1231 638 1232 531 1232 637 1232 637 1233 531 1233 530 1233 637 1234 530 1234 636 1234 636 1235 530 1235 529 1235 636 1236 529 1236 504 1236 504 1237 529 1237 472 1237 504 1238 472 1238 502 1238 502 1239 472 1239 471 1239 502 1240 471 1240 500 1240 500 1241 471 1241 528 1241 500 1242 528 1242 635 1242 635 1243 528 1243 527 1243 635 1244 527 1244 634 1244 634 1245 527 1245 526 1245 634 1246 526 1246 498 1246 498 1247 526 1247 525 1247 498 1248 525 1248 494 1248 494 1249 525 1249 524 1249 494 1250 524 1250 495 1250 495 1251 524 1251 523 1251 495 1252 523 1252 633 1252 633 1253 523 1253 522 1253 633 1254 522 1254 632 1254 632 1255 522 1255 521 1255 632 1256 521 1256 631 1256 631 1257 521 1257 520 1257 631 1258 520 1258 630 1258 630 1259 520 1259 519 1259 630 1260 519 1260 629 1260 629 1261 519 1261 470 1261 629 1262 470 1262 628 1262 628 1263 470 1263 469 1263 628 1264 469 1264 517 1264</p>
        </triangles>
      </mesh>
    </geometry>
  </library_geometries>
  <library_visual_scenes>
    <visual_scene id="Scene" name="Scene">
      <node id="right_canard" name="right_canard" type="NODE">
        <matrix sid="transform">0.001980197 0 0 0.004484674 0 0.001980197 0 0 0 0 0.001980197 0.003122766 0 0 0 1</matrix>
        <instance_geometry url="#right_canard-mesh" name="right_canard"/>
      </node>
    </visual_scene>
  </library_visual_scenes>
  <scene>
    <instance_visual_scene url="#Scene"/>
  </scene>
</COLLADA>