<?xml version="1.0" encoding="utf-8"?>
<COLLADA xmlns="http://www.collada.org/2005/11/COLLADASchema" version="1.4.1" xmlns:xsi="http://www.w3.org/2001/XMLSchema-instance">
  <asset>
    <contributor>
      <author>Blender User</author>
      <authoring_tool>Blender 4.4.3 commit date:2025-04-29, commit time:14:09, hash:802179c51ccc</authoring_tool>
    </contributor>
    <created>2025-08-27T14:13:54</created>
    <modified>2025-08-27T14:13:54</modified>
    <unit name="meter" meter="1"/>
    <up_axis>Z_UP</up_axis>
  </asset>
  <library_images/>
  <library_geometries>
    <geometry id="left_canard-mesh" name="left_canard">
      <mesh>
        <source id="left_canard-mesh-positions">
          <float_array id="left_canard-mesh-positions-array" count="1932">-254.0267 101.0587 -5.300811 -253.0084 100.835 -5.00873 -254.0525 101.0469 -4.980228 -251.9805 100.6111 -4.749679 -147.6255 79.30439 -5.134792 -147.4521 79.26796 -5.115819 -164.2843 82.77524 -6.372907 -120.136 72.78829 11.65341 -229.9816 95.71418 2.74538 -119.0647 72.59431 11.1869 -204.3128 90.89323 -5.200811 -197.8087 89.58689 -5.629202 -118.4368 73.02556 0.7258885 -117.3139 72.77157 1.183684 -116.3232 72.54501 1.634411 -115.9632 72.46165 1.817146 -213.7274 92.78236 -4.547002 -114.9534 72.22387 2.404287 -114.2838 72.06038 2.901692 -113.8585 71.95333 3.279636 -113.0121 71.59851 6.678359 -113.1315 71.60875 6.941243 -251.0628 100.3883 -4.09206 -246.7139 99.49134 -3.938538 -244.3763 99.00373 -3.754055 -242.0319 98.51828 -3.636249 -240.6612 98.23571 -3.590491 -238.4067 97.77262 -3.546727 -236.1473 97.31035 -3.537254 -112.8739 71.59214 6.268658 -247.2968 99.55553 -2.911805 -113.3204 71.63092 7.24895 -113.5854 71.66666 7.593168 -222.9517 94.15615 5.013466 -121.2177 72.9863 12.08473 -122.8244 73.2837 12.66354 -124.6121 73.61835 13.23761 -218.3892 93.14735 6.440556 -250.944 100.3872 -4.524271 -249.9 100.1636 -4.332882 -249.1183 99.9974 -4.212713 -247.5246 99.6614 -4.020368 -159.4532 81.77536 -6.138613 -157.4019 81.34907 -6.006729 -152.5119 80.32901 -5.620214 -135.3227 76.69905 -3.433324 -172.7437 84.51274 -6.534723 -139.7265 77.63631 -4.129702 -167.5768 83.45341 -6.471825 -142.7459 78.27581 -4.548512 -128.123 75.15311 -2.040373 -181.5375 86.30318 -6.408029 -130.4318 75.651 -2.526932 -176.2231 85.2229 -6.516863 -132.8743 76.17543 -2.998684 -126.6894 74.8427 -1.714687 -186.0454 87.21601 -6.249767 -124.1866 74.29803 -1.094746 -192.8134 88.58169 -5.922228 -122.571 73.94409 -0.6504781 -120.9673 73.59032 -0.1639525 -119.6936 73.30716 0.2629815 -113.5821 71.88179 3.559787 -219.6898 93.98006 -4.157461 -113.2471 71.79065 3.983973 -113.1064 71.74953 4.21423 -112.9877 71.71231 4.456294 -225.5078 95.15192 -3.836321 -112.8929 71.67956 4.708524 -112.8248 71.65174 4.969357 -112.7717 71.61193 5.506364 -228.8695 95.83123 -3.691698 -112.7846 71.62913 5.236307 -112.7977 71.59679 5.891372 -232.6854 96.60509 -3.579558 -114.0519 71.73537 8.0916 -239.9506 97.9266 -0.5266865 -114.7118 71.83972 8.662419 -115.4144 71.95555 9.181737 -116.2187 72.09234 9.697124 -117.542 72.3229 10.44319 -127.1127 74.09172 13.94226 -128.7823 74.41059 14.3597 -213.3906 92.04523 7.946445 -130.5983 74.75976 14.77044 -209.9316 91.28485 8.946099 -133.6806 75.35704 15.38117 -207.1176 90.66774 9.73097 -149.4014 78.47531 17.15 -193.8029 87.77012 13.03002 -145.4844 77.68854 16.89294 -197.5344 88.57822 12.17991 -142.2221 77.03791 16.59182 -199.1669 88.93276 11.78925 -139.2203 76.44326 16.24008 -204.2944 90.05017 10.49003 -136.3773 75.88391 15.8345 -189.3195 86.80363 13.96876 -152.5077 79.10324 17.2793 -184.7186 85.81729 14.82961 -155.6127 79.73439 17.34337 -182.348 85.3114 15.22989 -157.6991 80.16044 17.34981 -179.0033 84.60044 15.74191 -161.2194 80.88285 17.29458 -175.6475 83.89064 16.19007 -165.1318 81.6911 17.13276 -173.58 83.45515 16.43197 -166.3377 81.94136 17.06162 -170.1981 82.74597 16.76862 -26.80689 400.5902 37.21347 -26.84277 400.5902 37.51778 -26.81607 400.5902 37.36666 -94.32852 400.5902 32.90978 -92.10534 400.5902 31.76839 -92.85498 400.5902 31.73493 -94.90681 400.5902 31.60541 -101.1829 400.5902 30.7521 -98.0327 400.5902 31.70594 -97.61655 400.5902 31.28026 -98.51102 400.5902 31.11221 -99.39978 400.5902 30.91426 -100.2815 400.5902 30.68692 -101.1548 400.5902 30.43086 -95.81592 400.5902 31.52512 -96.72296 400.5902 31.41734 -26.89218 400.5902 37.68188 -26.82853 400.5902 36.99205 -27.08854 400.5902 38.06139 -26.89379 400.5902 36.77965 -27.37643 400.5902 38.39014 -26.98166 400.5902 36.61074 -27.09233 400.5902 36.45702 -27.76842 400.5902 38.72554 -27.30269 400.5902 36.24206 -28.0729 400.5902 38.94246 -27.61825 400.5902 35.98404 -28.32336 400.5902 39.10179 -28.17696 400.5902 35.6512 -29.19162 400.5902 39.57823 -28.97159 400.5902 35.29543 -30.29968 400.5902 40.07588 -29.612 400.5902 35.05346 -31.40766 400.5902 40.48863 -30.26245 400.5902 34.83262 -32.43501 400.5902 40.81533 -31.55497 400.5902 34.4485 -34.15094 400.5902 41.27361 -32.47086 400.5902 34.21039 -36.0246 400.5902 41.6795 -34.24399 400.5902 33.80232 -38.17933 400.5902 42.05053 -36.76933 400.5902 33.30475 -40.071 400.5902 42.30576 -39.32587 400.5902 32.87277 -41.25577 400.5902 42.43526 -43.22063 400.5902 42.60309 -41.07412 400.5902 32.61204 -44.96669 400.5902 42.70639 -44.58043 400.5902 32.16361 -46.81846 400.5902 42.77256 -48.6255 400.5902 31.75428 -48.67126 400.5902 42.79595 -51.35754 400.5902 42.75364 -51.10358 400.5902 31.56014 -53.68042 400.5902 42.64338 -53.58456 400.5902 31.41251 -56.35372 400.5902 42.43335 -55.62131 400.5902 31.3252 -58.13918 400.5902 42.24536 -57.69788 400.5902 31.26608 -61.28183 400.5902 41.82602 -59.93029 400.5902 31.23328 -62.77549 400.5902 41.58986 -62.15987 400.5902 31.22833 -65.82273 400.5902 41.04021 -64.9607 400.5902 31.25487 -68.85437 400.5902 40.4101 -70.57412 400.5902 31.38698 -71.01765 400.5902 39.91463 -73.29076 400.5902 39.35478 -73.83032 400.5902 31.49429 -75.9178 400.5902 38.66179 -79.29537 400.5902 37.7063 -79.19773 400.5902 31.68241 -83.34885 400.5902 36.4795 -83.18419 400.5902 31.79676 -88.1911 400.5902 34.93214 -86.69755 400.5902 31.8497 -89.40129 400.5902 31.84009 -180.1071 245.894 11.97686 -154.6881 295.7484 18.2456 -154.661 295.7523 17.92455 -128.0039 348.0352 24.48286 -127.9764 348.0371 24.16171 -180.1338 245.8882 12.29781 -205.3969 196.3422 6.065738 -205.4232 196.3345 6.38657 -229.8005 148.5267 0.3617303 -229.8265 148.5169 0.6824419 -41.31071 345.1243 31.70391 -112.4315 347.5129 25.71107 -115.8586 347.6258 25.68615 -108.2781 347.377 25.64772 -103.0843 347.2078 25.48207 -84.37017 346.5981 24.85856 -90.01802 346.7827 24.98666 -73.6678 346.2454 24.98049 -64.14857 345.9267 25.66899 -61.18109 345.8263 25.99809 -52.22623 345.5203 27.36484 -55.19663 345.6224 26.8411 -48.72089 345.3987 28.10541 -42.94537 345.1927 29.98968 -43.61483 345.2174 29.67819 -42.40229 345.1722 30.30367 -42.04583 345.1582 30.5688 -41.74815 345.1461 30.84269 -41.54185 345.1371 31.09708 -41.38995 345.1296 31.38678 -41.45784 345.1331 31.23774 -180.5464 140.1913 0.5962181 -191.3936 141.9946 1.276105 -165.89 137.746 -0.1255432 -172.5771 138.8637 0.1572345 -150.3894 135.1322 -0.2665684 -137.7591 132.9691 0.3742446 -133.2263 132.1849 0.7831303 -124.1797 130.6077 1.871888 -128.699 131.3977 1.279604 -120.7408 130.0033 2.395084 -111.9485 128.4429 4.073766 -109.2336 127.955 4.728767 -106.9892 127.5483 5.348654 -105.0646 127.1958 5.962475 -103.5045 126.9069 6.533651 -102.3897 126.6979 6.997336 -188.5674 194.0149 7.817367 -213.1679 145.6373 2.128155 -191.9914 194.4774 7.774643 -209.9474 145.0937 2.111099 -185.4449 193.5954 7.793447 -206.3983 144.4973 2.03161 -170.8208 191.6476 7.202255 -197.8603 143.0707 1.657847 -159.9713 190.2087 6.58781 -88.06237 180.3186 12.54037 -99.36347 126.1 8.950866 -85.29879 179.8862 14.25336 -84.95619 179.8262 14.64603 -114.615 239.3268 12.18756 -136.0047 187.0082 5.852521 -118.1933 239.6864 12.14439 -132.206 186.4948 5.909682 -110.182 238.8789 12.329 -128.5453 185.9978 6.028771 -94.36392 181.2389 10.49554 -96.8609 181.596 9.902649 -79.15483 235.6643 16.37069 -87.37112 180.2144 12.85596 -72.79715 234.9723 18.47073 -149.8099 295.4097 19.00149 -175.6483 245.4205 12.99861 -151.2106 295.5072 18.77258 -174.3941 245.2902 13.17501 -122.3586 293.5769 19.05822 -138.7446 241.7302 12.72731 -148.6182 242.7063 13.22893 -115.2083 293.1053 18.73905 -132.0636 241.0686 12.42906 -109.8084 292.7484 18.54232 -126.4649 240.5125 12.24391 -105.0493 292.4329 18.42507 -122.1637 240.0838 12.16135 -100.1476 292.1065 18.38453 -96.87879 291.8878 18.41527 -92.84836 291.6169 18.52969 -88.50074 291.3228 18.75651 -106.4393 238.4987 12.52948 -68.38486 289.937 21.24583 -85.87806 236.375 14.95779 -71.7744 290.1737 20.64267 -81.8105 235.9465 15.75602 -66.78073 289.8243 21.56659 -64.38568 289.6552 22.10209 -62.37165 289.5117 22.62229 -77.27928 235.4633 16.86965 -73.81575 235.0858 18.03142 -59.45995 289.3009 23.56774 -58.56769 289.235 23.93039 -57.80795 289.1779 24.29448 -97.28712 347.0193 25.25077 -56.33771 289.06 25.42814 -56.6657 289.0879 25.08448 -98.60118 125.9032 10.48807 -84.5338 179.7323 15.69701 -70.18347 234.6438 21.01099 -55.97269 289.0209 26.27366 -122.0186 347.831 25.36009 -123.7117 347.8885 25.14202 -125.1827 347.9391 24.87858 -126.0664 347.9698 24.68328 -127.3437 348.0147 24.34972 -118.3245 347.7075 25.60874 -120.5683 347.7823 25.48198 -80.06878 346.457 24.83748 -77.20201 346.3625 24.87237 -67.12091 346.0267 25.39178 -69.85581 346.1184 25.18538 -58.21986 345.7257 26.38262 -50.81958 345.4717 27.64274 -44.65872 345.2552 29.27199 -45.68921 345.2921 28.92557 -46.95486 345.3369 28.55369 -41.34036 345.1266 31.54286 -224.4936 147.5791 1.505481 -225.9599 147.8368 1.2821 -226.9308 148.0092 1.095941 -227.8951 148.1817 0.8802404 -228.852 148.3543 0.6353303 -216.3188 146.1719 2.081921 -218.6427 146.5683 1.999202 -220.8241 146.9426 1.874245 -222.9985 147.3186 1.682045 -203.2716 143.9738 1.91902 -154.5195 135.8326 -0.3175153 -157.4816 136.3329 -0.3106786 -160.7489 136.8832 -0.2654172 -141.9284 133.6869 0.07919627 -146.4091 134.4542 -0.1459957 -115.0244 128.9917 3.421327 -117.2887 129.3935 2.989104 -101.6408 126.5558 7.348773 -100.7223 126.378 7.858037 -100.0232 126.238 8.351392 -99.62347 126.1553 8.694919 -99.0456 126.0292 9.3368 -98.91122 125.9972 9.547129 -98.79734 125.9681 9.769027 -98.7061 125.9425 10.00101 -98.64025 125.9207 10.24152 -195.1042 194.9006 7.656917 -197.1171 195.1761 7.527906 -199.1228 195.453 7.33212 -200.501 195.6448 7.153862 -201.8524 195.8345 6.933322 -202.7479 195.9614 6.754197 -203.6376 196.0883 6.549674 -204.5208 196.2153 6.320043 -176.9853 192.4663 7.517781 -180.9237 192.9909 7.676641 -89.45267 180.5252 11.98683 -90.52782 180.6833 11.60823 -92.29895 180.9412 11.05519 -99.6888 181.9975 9.310925 -101.7706 182.2916 8.917919 -104.9434 182.7378 8.376798 -108.1042 183.1801 7.898922 -112.2591 183.7586 7.355835 -116.4217 184.3351 6.898108 -120.5897 184.9095 6.518848 -124.4238 185.4354 6.242809 -138.7301 187.3752 5.850144 -141.7373 187.7789 5.881009 -146.4699 188.4121 5.990538 -152.6278 189.233 6.222169 -85.86975 179.9806 13.75516 -86.58764 180.0942 13.27283 -84.82912 179.8024 14.83682 -84.72103 179.7807 15.03881 -84.63421 179.7616 15.25069 -84.57128 179.7454 15.47089 -154.2308 243.262 13.48078 -157.8176 243.6182 13.60222 -161.9351 244.0286 13.68154 -164.779 244.3135 13.68465 -167.8976 244.6275 13.6255 -170.7337 244.9149 13.50014 -172.5674 245.1021 13.37018 -176.8779 245.5493 12.78448 -177.6932 245.6354 12.6145 -178.5035 245.7216 12.42306 -179.3084 245.8078 12.2104 -83.98864 236.1764 15.31071 -88.75703 236.6762 14.47099 -91.62503 236.9748 14.03996 -95.39615 237.3655 13.54821 -99.17459 237.755 13.13154 -102.9584 238.1432 12.78429 -74.69268 235.1824 17.69858 -75.67025 235.2892 17.3617 -70.57915 234.7083 20.0628 -70.93791 234.7545 19.67333 -71.42158 234.8136 19.26709 -72.08142 234.8909 18.83995 -70.46062 234.6919 20.2338 -70.35947 234.677 20.41552 -70.27804 234.6639 20.60676 -70.21882 234.6527 20.80603 -152.4898 295.5972 18.50747 -153.2183 295.6489 18.33074 -153.9422 295.7006 18.13634 -128.4443 293.9783 19.32538 -132.2606 294.2306 19.4613 -134.6223 294.3871 19.52341 -138.3239 294.6333 19.57155 -140.8808 294.8041 19.55831 -143.6846 294.9925 19.48769 -146.2352 295.1649 19.35928 -147.8842 295.2772 19.2316 -75.22546 290.4132 20.11628 -78.60435 290.6463 19.67661 -81.99009 290.8788 19.30219 -85.38099 291.1106 18.98845 -60.92873 289.4078 23.05481 -57.10397 289.1234 24.72571 -56.22876 289.0501 25.57964 -56.13552 289.041 25.74121 -56.0603 289.0331 25.91183 -56.00547 289.0263 26.09006 -70.23709 234.6301 21.73635 -70.18822 234.632 21.47989 -55.97574 289.0139 26.68376 -56.05077 289.013 27.02446 -70.32685 234.6318 22.01472 -56.22518 289.0176 27.42632 -70.5642 234.6437 22.4677 -70.82126 234.6608 22.79749 -56.39866 289.0246 27.68739 -56.79028 289.0433 28.11559 -71.32283 234.6982 23.28887 -57.22186 289.0656 28.48564 -71.90441 234.7445 23.74439 -31.72121 382.1362 35.93719 -31.66775 382.1361 35.76127 -31.63885 382.1363 35.59924 -84.54077 179.7146 16.22685 -98.61087 125.8786 11.07934 -42.8794 345.1564 33.96466 -32.52241 382.1421 36.93916 -57.87963 289.1014 28.94735 -72.44056 234.7888 24.10255 -31.93445 382.1374 36.34299 -32.11665 382.1387 36.56219 -99.01438 125.8969 12.20599 -98.79838 125.8794 11.77806 -98.67728 125.875 11.41435 -100.1409 126.0335 13.42466 -99.61165 125.9654 12.94056 -99.29878 125.9279 12.59375 -100.9119 126.1378 14.0115 -101.6227 126.2376 14.4723 -85.1354 179.7475 17.56432 -84.89002 179.7265 17.22025 -84.70327 179.7148 16.84233 -84.59819 179.7119 16.52198 -85.40764 179.7734 17.87099 -85.8693 179.8204 18.30015 -86.54419 179.8929 18.8205 -87.16635 179.9622 19.2294 -125.0936 347.9321 25.35693 -43.6749 345.1785 34.43361 -44.59811 345.2049 34.89297 -45.9079 345.2432 35.44083 -47.15697 345.2805 35.87899 -48.58086 345.3236 36.30533 -50.51865 345.3831 36.7923 -52.37184 345.4406 37.1788 -57.80645 345.6124 37.97507 -59.64388 345.6713 38.14907 -62.5072 345.7638 38.33768 -88.67111 346.6431 36.06479 -91.69293 346.748 35.4052 -106.4917 347.2691 31.37042 -111.8828 347.4609 29.66281 -118.8598 347.7099 27.37586 -122.423 347.837 26.20325 -131.4837 130.9847 21.25467 -159.7448 135.8181 19.97511 -155.6641 135.1049 20.50578 -99.67543 181.4935 23.56392 -83.08013 235.7557 27.88192 -85.2424 235.9611 28.31076 -102.0608 181.7986 24.01793 -150.0858 242.6272 21.85277 -174.6603 191.8472 16.20445 -169.3154 191.0716 17.79611 -154.0642 243.0576 20.63717 -179.3306 192.5273 14.74845 -159.8506 243.6856 18.79843 -184.6444 193.3028 13.03944 -176.4772 245.4931 13.39501 -202.1308 195.8566 7.368811 -198.6667 195.3519 8.458899 -111.0595 238.514 29.59893 -91.9365 291.288 33.8784 -94.29605 291.4484 33.71001 -114.3543 238.8508 29.34063 -97.84957 291.6916 33.36091 -117.6586 239.191 28.99258 -110.0382 292.5396 31.37589 -128.318 240.3029 27.31652 -106.0138 292.2575 32.15398 -132.78 240.7742 26.39518 -113.4734 292.7819 30.62752 -135.9623 241.112 25.66968 -58.04638 289.1107 29.0521 -60.5853 289.258 30.31971 -59.37601 289.1868 29.77598 -63.69579 289.4467 31.40476 -65.48711 289.5576 31.89254 -67.00506 289.6527 32.25031 -69.35498 289.8013 32.72097 -54.33194 345.5021 37.51881 -71.8815 289.9627 33.13251 -56.02229 345.5556 37.76255 -73.85744 290.09 33.3952 -75.94889 290.2256 33.62085 -58.78923 289.1529 29.47648 -70.35894 346.0213 38.39295 -68.64045 345.9644 38.43718 -66.92106 345.9078 38.44997 -64.71367 345.8355 38.41983 -85.13243 346.5209 36.7509 -83.35639 346.4599 37.05736 -81.18672 346.3857 37.39489 -77.95597 346.2759 37.81718 -74.83378 346.1706 38.12685 -72.76068 346.1012 38.27691 -101.8274 347.1038 32.76562 -99.00641 347.0043 33.56007 -95.59485 346.8844 34.4623 -128.5335 130.4949 21.05566 -125.7425 130.0343 20.80322 -122.9562 129.5775 20.48504 -120.3189 129.148 20.11718 -117.8162 128.7432 19.70469 -115.2237 128.3271 19.20397 -113.271 128.0162 18.77225 -111.7934 127.7825 18.40875 -109.4024 127.4078 17.74441 -107.7438 127.1508 17.21675 -106.2539 126.9226 16.68371 -105.2505 126.7706 16.28551 -103.6339 126.5293 15.56229 -102.8467 126.4138 15.16582 -151.7237 134.4209 20.91295 -147.7941 133.7435 21.21149 -145.1997 133.2989 21.34778 -143.3815 132.9887 21.41387 -140.7797 132.5466 21.46595 -138.1744 132.1061 21.4694 -134.8293 131.5437 21.40219 -171.0224 137.8119 17.9926 -168.3624 137.3389 18.52327 -165.692 136.8656 19.01836 -163.0172 136.3933 19.47433 -181.4284 139.6771 15.58864 -177.4577 138.9628 16.56454 -173.6721 138.2848 17.42813 -190.7776 141.3702 13.03786 -186.5477 140.6024 14.23257 -226.27 147.8688 1.744416 -222.5284 147.1841 2.925148 -216.228 146.0285 4.975562 -207.3672 144.4024 7.878485 -201.618 143.3487 9.731251 -196.5636 142.4245 11.31076 -88.28933 180.0909 19.87 -87.37247 179.9856 19.35554 -127.2736 185.1414 25.4745 -125.5986 184.9137 25.53802 -123.2019 184.5892 25.59005 -120.8025 184.266 25.59765 -117.7218 183.8532 25.54189 -114.641 183.443 25.41275 -111.9252 183.0836 25.2358 -109.3556 182.7457 25.00963 -106.7907 182.4105 24.72323 -104.3644 182.0956 24.39127 -97.87776 181.2653 23.17138 -96.51812 181.0939 22.84065 -94.3184 180.8192 22.23518 -92.79219 180.6307 21.75299 -91.42195 180.4634 21.265 -90.49876 180.352 20.89958 -89.01232 180.1753 20.23495 -129.6642 185.4678 25.34546 -133.2855 185.9651 25.06587 -136.917 186.4674 24.687 -140.6788 186.9911 24.19496 -143.6961 187.4136 23.73162 -146.1633 187.7606 23.31013 -148.6259 188.1082 22.853 -151.0797 188.4558 22.36325 -153.5246 188.8033 21.8425 -157.0177 189.3016 21.04626 -160.683 189.8267 20.14658 -165.4094 190.507 18.89691 -192.8385 194.5004 10.35711 -80.9299 235.5534 27.38088 -78.93197 235.3676 26.83471 -77.54547 235.2401 26.39863 -76.30126 235.127 25.95652 -75.46273 235.0517 25.62468 -74.1133 234.9324 25.02033 -73.45777 234.8754 24.68794 -72.62715 234.8045 24.21813 -126.0758 240.0674 27.73355 -123.829 239.8322 28.11849 -121.0823 239.5459 28.54199 -108.8848 238.2929 29.7193 -107.3613 238.1387 29.77929 -105.1816 237.919 29.82999 -102.9999 237.7001 29.84055 -100.1987 237.4207 29.79482 -97.39793 237.143 29.68275 -94.92966 236.8998 29.52685 -92.59407 236.6711 29.32611 -90.26292 236.4442 29.07078 -88.05913 236.2312 28.77415 -146.2212 242.2103 22.98205 -143.6107 241.9297 23.71187 -139.3026 241.4682 24.85 -173.1208 245.1289 14.45927 -168.6362 244.6411 15.92617 -89.20198 291.1032 34.00752 -87.24508 290.9718 34.05565 -85.28678 290.8409 34.06792 -82.77256 290.6738 34.03059 -80.25901 290.5078 33.93393 -78.0445 290.3623 33.79758 -62.45242 289.3705 31.01436 -61.33718 289.303 30.61792 -103.9941 292.1166 32.50119 -101.5259 291.9453 32.8834 -125.8424 293.664 27.38351 -121.7839 293.373 28.53334 -117.9078 293.0965 29.55749 -144.3207 294.9994 21.52044 -136.4046 294.4259 24.11079 -130.2852 293.9838 26.04786 -148.3625 295.2923 20.19483 -151.3896 295.511 19.23553</float_array>
          <technique_common>
            <accessor source="#left_canard-mesh-positions-array" count="644" stride="3">
              <param name="X" type="float"/>
              <param name="Y" type="float"/>
              <param name="Z" type="float"/>
            </accessor>
          </technique_common>
        </source>
        <source id="left_canard-mesh-normals">
          <float_array id="left_canard-mesh-normals-array" count="3750">-0.1999931 -0.9784076 -0.05216842 -0.1999827 -0.9784083 -0.05219238 -0.2002434 -0.9785314 -0.04877287 -0.2002434 -0.9785314 -0.04877299 -0.2002436 -0.9785314 -0.04877287 -0.1999582 -0.9784054 -0.05234211 -0.1999581 -0.9784054 -0.05234175 -0.1999561 -0.9784043 -0.05237048 -0.1999616 -0.9784068 -0.05230236 -0.1999535 -0.9784051 -0.052365 -0.1999601 -0.9784062 -0.05232024 -0.1999597 -0.9784052 -0.05233979 -0.199953 -0.9784039 -0.05238908 -0.1999785 -0.9784135 -0.05211269 -0.1999278 -0.9783906 -0.05273479 -0.1999413 -0.9784004 -0.05249994 -0.1994777 -0.9781951 -0.05781906 -0.1994755 -0.9781957 -0.05781602 -0.1994765 -0.9781954 -0.05781757 -0.1999778 -0.9784045 -0.05228501 -0.1999411 -0.978399 -0.05252504 -0.1999561 -0.9784103 -0.05225789 -0.1999634 -0.9784036 -0.05235666 -0.1999654 -0.9784069 -0.0522868 -0.1999617 -0.9784072 -0.0522961 -0.1999652 -0.9784091 -0.05224621 -0.1999572 -0.9784024 -0.05240082 -0.199959 -0.9784056 -0.05233371 -0.1999619 -0.9784084 -0.05227166 -0.1999583 -0.9784039 -0.05236899 -0.1999591 -0.9784069 -0.05231165 -0.199957 -0.9784039 -0.05237507 -0.1999473 -0.9784045 -0.05240082 -0.1999434 -0.9784008 -0.05248367 -0.1999363 -0.9784044 -0.0524457 -0.1999444 -0.9784008 -0.05248236 -0.1999414 -0.9783996 -0.05251449 -0.1999331 -0.9783867 -0.05278623 -0.1999331 -0.9783867 -0.05278623 -0.1999331 -0.9783867 -0.05278623 -0.1999585 -0.9784049 -0.05235016 -0.1999701 -0.9784068 -0.05226975 -0.1999558 -0.9784067 -0.0523253 -0.1999596 -0.9784066 -0.05231469 -0.1999584 -0.9784044 -0.05236148 -0.1999483 -0.9784054 -0.05238062 -0.1999499 -0.9783993 -0.05248707 -0.1999629 -0.9784117 -0.05220645 -0.1999548 -0.9784039 -0.05238336 -0.1999564 -0.9784046 -0.05236369 -0.1999543 -0.9784041 -0.05238032 -0.1999638 -0.9784075 -0.05228215 -0.199967 -0.9784066 -0.05228596 -0.1999585 -0.9784053 -0.05234348 -0.1999605 -0.9784058 -0.05232489 -0.1999589 -0.9784035 -0.05237364 -0.1999592 -0.9784063 -0.05232107 -0.1999628 -0.9784069 -0.05229818 -0.1999586 -0.9784047 -0.05235356 -0.1999634 -0.9784101 -0.05223548 -0.1999558 -0.9784035 -0.05238515 -0.1999576 -0.9784067 -0.05231976 -0.1999381 -0.978398 -0.05255722 -0.1999581 -0.9784048 -0.0523535 -0.1999608 -0.9784074 -0.0522958 -0.19994 -0.978398 -0.05255055 -0.199955 -0.9784038 -0.05238336 -0.1999592 -0.9784055 -0.05233633 -0.1999965 -0.9784227 -0.05186951 -0.199976 -0.978409 -0.0522055 -0.1999253 -0.9783909 -0.05273759 -0.1999608 -0.9784074 -0.05229634 -0.19992 -0.9783899 -0.05277603 -0.1999896 -0.9784169 -0.05200785 -0.1999578 -0.9784058 -0.05233657 -0.1999503 -0.978402 -0.05243754 -0.1999619 -0.9784064 -0.05230951 -0.1999642 -0.978408 -0.05226987 -0.1999598 -0.9784054 -0.05233561 -0.1999631 -0.9784086 -0.05226325 -0.1999602 -0.9784047 -0.05234622 -0.1999564 -0.9784056 -0.05234402 -0.1999589 -0.9784055 -0.05233788 -0.1999603 -0.9784058 -0.05232679 -0.1999582 -0.978406 -0.05233258 -0.1999605 -0.9784075 -0.05229562 -0.1999547 -0.9784039 -0.05238282 -0.1999595 -0.9784055 -0.05233615 -0.1999592 -0.978407 -0.05230784 -0.1999612 -0.9784063 -0.05231249 -0.1999608 -0.9784052 -0.05233526 -0.199954 -0.9784045 -0.05237579 -0.1999583 -0.9784051 -0.05234825 -0.1999578 -0.9784032 -0.05238503 -0.1999604 -0.9784081 -0.05228388 -0.1999573 -0.9784022 -0.05240517 -0.1999573 -0.9784055 -0.05234229 -0.1999572 -0.9784043 -0.05236566 -0.1999616 -0.9784076 -0.0522893 -0.1999629 -0.9784064 -0.0523051 -0.1999574 -0.978405 -0.05235326 -0.1999596 -0.9784062 -0.05232268 -0.1999616 -0.9784075 -0.05228894 -0.1999604 -0.9784052 -0.05233681 -0.1999575 -0.9784053 -0.05234587 -0.1999634 -0.9784068 -0.05229526 -0.1999537 -0.9784013 -0.05243414 -0.1999556 -0.9784054 -0.05235034 -0.1999607 -0.978407 -0.05230307 -0.1999635 -0.9784075 -0.05228269 -0.1999608 -0.9784036 -0.05236619 -0.1999341 -0.9783956 -0.05261617 -0.2000278 -0.9784023 -0.05213463 -0.2000278 -0.9784023 -0.05213463 -0.2000278 -0.9784022 -0.05213463 -0.1999409 -0.9783838 -0.05280977 0 1 0 0 1 -6.56273e-5 0 1 1.1731e-5 0 1 3.19985e-6 0 1 3.02069e-6 0 1 3.13268e-6 0 1 -2.32609e-4 0 1 -7.37953e-6 0 1 -1.78274e-4 0 1 1.51477e-4 -8.13793e-5 1 1.86006e-4 -8.14006e-5 1 1.86016e-4 -8.13894e-5 1 1.86031e-4 0 1 -1.31428e-4 0 1 -1.37099e-4 0 1 3.05155e-5 0 1 -6.8415e-5 0 1 2.45104e-5 0 1 1.45202e-5 0 1 2.08578e-5 0 1 -1.75312e-5 0 1 -2.63303e-5 0 1 1.80427e-5 0 1 1.42484e-5 0 1 -1.945e-5 0 1 8.30758e-6 0 1 -1.49664e-5 0 1 5.35687e-6 0 1 -9.99032e-6 0 1 6.77169e-6 0 1 -6.57362e-6 0 1 -3.35653e-6 0 1 -5.34799e-6 0 1 -1.63481e-6 -0.8852157 0.4600237 -0.06907582 -0.8852197 0.4600103 -0.06911337 -0.884795 0.4602708 -0.07272326 -0.8847951 0.4602708 -0.07272326 -0.8847622 0.460281 -0.07305711 -0.8847734 0.46026 -0.07305324 -0.8842658 0.4605291 -0.07737612 -0.8856297 0.4597733 -0.06533581 -0.885619 0.4597942 -0.06533408 -0.8860311 0.4595203 -0.06156325 -0.8860165 0.4595457 -0.06158393 -0.8864161 0.4592628 -0.05782777 -0.8863999 0.4592959 -0.05781561 -0.8867509 0.4590267 -0.05447334 0.9654065 -0.2430745 -0.09436672 0.01085352 0.1100572 -0.9938661 0.003530979 0.1131979 -0.9935663 -0.01120716 0.1202418 -0.9926814 -0.0149545 0.1217344 -0.9924501 -0.02746653 0.1275202 -0.9914557 -0.02843725 0.127874 -0.9913827 -0.01844441 0.1241609 -0.9920907 0.04260504 0.1018856 -0.9938834 0.100338 0.08189105 -0.9915777 0.1124858 0.07743239 -0.9906318 0.1752552 0.05682456 -0.9828819 0.2240791 0.04172557 -0.9736773 0.4211741 -0.01961308 -0.9067678 0.4987761 -0.0445075 -0.8655875 0.5111914 -0.04841554 -0.8581022 0.5931606 -0.0760836 -0.801481 0.6304922 -0.08877205 -0.7711026 0.6711623 -0.1033836 -0.734066 0.7098018 -0.1172831 -0.694569 0.7667355 -0.1392149 -0.6266865 0.8912101 -0.1930277 -0.4104691 -0.03952968 0.1354718 -0.9899924 -0.03813731 0.134817 -0.9901364 -0.02047741 0.1283398 -0.9915188 0.03422099 0.1079201 -0.9935704 0.1038877 0.08374226 -0.9910573 0.1150333 0.07948899 -0.9901763 0.1417821 0.07083338 -0.9873604 0.1510706 0.06739991 -0.9862226 0.1611327 0.06428962 -0.9848366 0.1686378 0.06143367 -0.9837618 0.2408886 0.03848201 -0.9697896 0.2945457 0.0213055 -0.9553999 0.3067564 0.0177555 -0.9516225 0.376638 -0.004532217 -0.9263494 0.3830064 -0.006412148 -0.9237235 0.02638858 0.1035112 -0.9942783 0.01332098 0.1100996 -0.9938314 0.007517218 0.1126112 -0.9936107 -0.002480268 0.1175985 -0.9930582 -0.0362935 0.1332451 -0.9904184 -0.0383014 0.1340553 -0.9902335 -0.03962898 0.1349018 -0.9900662 0.3829409 -0.006828188 -0.9237476 0.737625 -0.1275147 -0.6630606 0.02312719 0.1108514 -0.993568 0.02957975 0.108228 -0.993686 0.04221433 0.1040202 -0.993679 0.04621988 0.1023365 -0.9936755 0.2360996 0.03883612 -0.9709526 0.4131796 -0.01660811 -0.9104982 0.1634925 0.03389245 -0.9859623 0.1436629 0.0444591 -0.9886275 -0.03720045 0.1327005 -0.9904579 -0.03549915 0.1321782 -0.9905902 -0.03133356 0.1303159 -0.9909773 -0.02757811 0.1291311 -0.991244 -0.02027922 0.126056 -0.9918159 -0.01616972 0.1247742 -0.9920534 -0.006988227 0.1210544 -0.9926214 -2.94475e-4 0.1189005 -0.9929062 0.007338821 0.1157116 -0.9932557 0.01686853 0.1124623 -0.9935129 0.0230385 0.1099606 -0.9936689 0.03532499 0.1058257 -0.9937571 0.04211521 0.103003 -0.9937891 0.05843514 0.0976057 -0.9935082 0.06293749 0.09573352 -0.9934154 0.1787627 0.05693012 -0.9822438 0.220914 0.04345214 -0.974325 0.2293897 0.04048502 -0.9724924 0.2521882 0.03367614 -0.9670921 0.2600677 0.03098767 -0.965093 0.3761997 -0.005002975 -0.9265251 0.3949556 -0.01114064 -0.9186326 0.4307054 -0.02216804 -0.9022203 -0.03525727 0.1313374 -0.9907106 -0.03554987 0.1314712 -0.9906824 -0.03176617 0.1302481 -0.9909725 -0.02763295 0.1283531 -0.9913435 -0.01841253 0.1250506 -0.9919795 -0.01622056 0.1240355 -0.9921452 0.3761796 -0.005350172 -0.9265313 0.7134262 -0.1189157 -0.6905665 0.7667453 -0.1389468 -0.6267338 0.9671016 -0.2467415 -0.06191152 0.9670692 -0.2466601 -0.06273752 0.9670525 -0.2466241 -0.06313604 0.9670231 -0.2465217 -0.06397867 0.9670152 -0.2464581 -0.06434249 0.9671763 -0.2469878 -0.05972599 0.1178027 0.05733603 -0.9913805 0.1293014 0.05169969 -0.9902567 0.1514976 0.04000937 -0.9876477 0.1771169 0.02688813 -0.9838225 0.1845923 0.02281618 -0.9825503 0.2160015 0.006180167 -0.9763735 0.2173939 0.005408704 -0.976069 0.2522138 -0.01324111 -0.967581 0.2496488 -0.01179474 -0.9682646 0.2837152 -0.0305165 -0.958423 0.2812463 -0.02911502 -0.9591939 0.02636754 0.1023665 -0.9943972 0.03449046 0.09873819 -0.9945156 0.04438984 0.09383612 -0.9945976 0.05907392 0.08675545 -0.9944767 0.06277287 0.08480483 -0.9944183 0.08597117 0.07343685 -0.9935875 0.0877459 0.07251644 -0.9934999 -0.0233398 0.1263952 -0.9917054 -0.0317977 0.1293783 -0.9910854 -0.03265851 0.1297999 -0.9910023 -0.03527295 0.1309157 -0.9907658 -0.03472751 0.1306226 -0.9908238 -0.009405136 0.1209735 -0.9926112 0.002203643 0.1162685 -0.9932155 -0.00100702 0.1177031 -0.9930484 0.01460134 0.1119636 -0.9936051 0.01577007 0.1114816 -0.9936414 0.02829611 0.1070036 -0.993856 0.03387695 0.1047897 -0.9939173 0.09531772 0.08335924 -0.9919506 0.07793289 0.08936774 -0.9929451 0.07779103 0.08942347 -0.9929512 0.05663549 0.09679394 -0.9936918 0.05912476 0.09575366 -0.9936476 0.1663081 0.05998462 -0.9842478 0.1517768 0.06440711 -0.9863141 0.1471826 0.0660572 -0.9869012 0.1308306 0.07138741 -0.9888312 0.1265193 0.07302391 -0.9892727 0.2165335 0.04387205 -0.975289 0.1952562 0.05073708 -0.979439 0.1930579 0.05149912 -0.979835 0.4085859 -0.01547282 -0.9125888 0.3625944 -0.001345336 -0.9319461 0.3534497 0.001627266 -0.9354521 0.3190116 0.01226603 -0.9476715 0.3214753 0.0114606 -0.9468486 0.2826014 0.02359914 -0.9589471 0.2847952 0.02286201 -0.9583157 0.2470187 0.03446751 -0.9683976 0.251482 0.03295588 -0.9673008 0.8019381 -0.1531627 -0.5774396 0.8720334 -0.1838619 -0.4535997 0.8437134 -0.1707313 -0.5089191 0.9559093 -0.2324938 -0.1793993 0.929843 -0.2138599 -0.299426 0.933304 -0.2160602 -0.2868133 0.1303624 0.05152225 -0.9901269 0.1593335 0.03609699 -0.9865648 0.1569257 0.03743702 -0.9869007 0.1849957 0.022816 -0.9824745 0.1915645 0.01921302 -0.981292 0.2140194 0.007363736 -0.9768018 0.2190669 0.004556834 -0.9756993 0.2427157 -0.008086323 -0.9700638 0.2462319 -0.01005727 -0.9691588 0.2708852 -0.02340668 -0.9623271 0.2729497 -0.02458208 -0.9617142 0.03936862 0.09768092 -0.9944388 0.05201244 0.0912671 -0.9944672 0.05105429 0.09178388 -0.9944693 0.06731837 0.08383429 -0.9942033 0.07098793 0.08183968 -0.9941142 0.09315299 0.07083421 -0.9931289 0.09940445 0.06737869 -0.9927632 0.1128183 0.06060272 -0.9917657 0.1263036 0.05352663 -0.9905465 -0.04146313 0.1359417 -0.9898489 -0.03771919 0.1342877 -0.9902243 -0.03625863 0.1334463 -0.9903926 -0.02850508 0.1300813 -0.9910936 -0.02633976 0.1288564 -0.9913134 -0.01744085 0.1248864 -0.9920178 -0.01502996 0.1236286 -0.9922147 -0.005027532 0.1190861 -0.9928713 -0.002462983 0.1176989 -0.9930463 0.01060235 0.1116492 -0.9936912 0.01333242 0.1101686 -0.9938235 0.02553105 0.1044121 -0.9942064 0.03175181 0.1011497 -0.9943645 -0.02200537 0.1287286 -0.9914357 -0.03146255 0.1324435 -0.9906911 -0.03242242 0.1329246 -0.9905958 0.03081113 0.1094189 -0.9935182 0.0181474 0.1138947 -0.9933272 0.01702463 0.1143709 -0.9932922 0.003884494 0.1191381 -0.9928702 0.006130635 0.1180708 -0.9929863 -0.00963205 0.1244525 -0.9921789 -0.006386816 0.1228271 -0.9924076 0.09630644 0.0859335 -0.9916353 0.08275306 0.09118187 -0.99239 0.08569908 0.08991903 -0.9922552 0.06802523 0.09598088 -0.993056 0.06646519 0.09667015 -0.9930948 0.05087894 0.1021073 -0.9934715 0.04771268 0.1034237 -0.9934924 0.1344858 0.07286041 -0.9882332 0.1243417 0.07662683 -0.9892763 0.1219896 0.07751846 -0.9894996 0.2299329 0.04176741 -0.9723098 0.2155765 0.0464766 -0.9753803 0.2152221 0.04661107 -0.9754521 0.2000034 0.0513395 -0.9784492 0.1962539 0.05269223 -0.9791364 0.1860862 0.05587238 -0.9809436 0.1792933 0.05833351 -0.9820647 0.2476635 0.03605955 -0.9681748 0.2709776 0.02890902 -0.9621515 0.2709217 0.02892899 -0.9621666 0.3204222 0.01319384 -0.9471831 0.3447207 0.005698561 -0.9386881 0.3466162 0.005048215 -0.9379936 0.4111219 -0.015518 -0.9114484 0.4218294 -0.01876419 -0.906481 0.4474657 -0.0270735 -0.8938913 0.4790594 -0.03715604 -0.8769958 0.4946823 -0.04258036 -0.8680301 0.5664517 -0.06613194 -0.8214373 0.5833436 -0.07217025 -0.8090129 0.6381537 -0.09107381 -0.7645034 0.6478695 -0.09463238 -0.7558505 0.6856356 -0.1081451 -0.7198671 0.6931464 -0.1109665 -0.712204 0.7528599 -0.1333467 -0.6445313 0.7627745 -0.1373554 -0.6319086 0.8204571 -0.1606828 -0.5486631 0.8284206 -0.1641294 -0.5355193 0.8652614 -0.1804418 -0.4677217 0.8712167 -0.1832612 -0.4554087 0.9042061 -0.1995098 -0.3776338 0.9079566 -0.2015478 -0.3674144 0.9361321 -0.2178246 -0.2760602 0.9380888 -0.2191249 -0.2682793 0.9575642 -0.2339298 -0.1683682 0.9581562 -0.2345055 -0.1641467 0.03175848 0.1011864 -0.9943605 0.05100876 0.09151232 -0.9944968 0.05011969 0.09200274 -0.9944967 0.0709818 0.08180135 -0.9941178 0.07463479 0.07982903 -0.9940106 0.09942412 0.06750005 -0.9927531 0.1057091 0.06404441 -0.9923326 0.1263195 0.05361503 -0.9905397 0.13482 0.04900062 -0.9896578 0.1569586 0.03762733 -0.9868882 0.165477 0.03293675 -0.9856636 0.1915788 0.0193116 -0.9812873 0.1982526 0.01565808 -0.980026 0.219084 0.00464493 -0.975695 0.2242687 0.001764774 -0.9745258 0.2462466 -0.009991586 -0.9691557 0.2499831 -0.01208913 -0.9681748 0.272952 -0.02453029 -0.9617149 0.275222 -0.0258215 -0.9610339 -0.03323596 0.1315814 -0.9907481 -0.02635949 0.1287431 -0.9913277 -0.02308189 0.1270027 -0.9916338 -0.0150659 0.1234187 -0.9922403 -0.009526371 0.1205578 -0.9926606 0.3695994 -0.00236082 -0.9291883 0.3446345 0.005153656 -0.9387228 0.3332999 0.008926987 -0.9427787 0.3066547 0.01710957 -0.9516671 0.3005525 0.01922351 -0.9535716 0.2708805 0.02830946 -0.9621967 0.2655184 0.03019392 -0.9636329 0.2407749 0.0377717 -0.9698458 0.2361759 0.03943365 -0.9709098 0.2151102 0.04591739 -0.9755098 0.2110263 0.04742813 -0.9763291 0.1961497 0.05204999 -0.9791916 0.1925132 0.0533455 -0.9798433 0.1791618 0.05751949 -0.9821368 0.1758588 0.05878216 -0.9826589 0.1610034 0.06348776 -0.9849098 0.1580143 0.06464296 -0.9853186 0.1416294 0.06989574 -0.9874491 0.1389915 0.07098388 -0.9877462 0.1218369 0.07658386 -0.9895913 0.1195769 0.07752853 -0.9897933 0.1037322 0.08279317 -0.9911534 0.1017279 0.08364331 -0.9912897 0.08556616 0.08911031 -0.9923396 0.08377641 0.08986538 -0.9924243 0.06633073 0.09585785 -0.9931826 0.06475389 0.09654361 -0.9932202 0.04756575 0.1025437 -0.9935907 0.04631787 0.1030794 -0.9935942 0.03067672 0.1086204 -0.9936099 0.02968961 0.1090521 -0.9935926 0.01690322 0.1136513 -0.993377 0.01621007 0.1139436 -0.993355 0.006056249 0.1176352 -0.9930384 0.00562483 0.1178202 -0.9930191 -0.006481051 0.1222774 -0.9924748 -0.006601452 0.1223344 -0.992467 -0.02060526 0.1275988 -0.9916119 -0.02031075 0.1274468 -0.9916375 -0.0325514 0.1321805 -0.990691 -0.03182321 0.1317754 -0.9907687 0.685606 -0.1083149 -0.7198696 0.6381616 -0.09105026 -0.7644996 0.6457073 -0.09385484 -0.7577952 0.5663797 -0.06656301 -0.8214522 0.5500149 -0.06076395 -0.8329415 0.4789793 -0.03762859 -0.8770194 0.465512 -0.0330258 -0.8844253 0.421768 -0.01912641 -0.906502 0.4132263 -0.01629173 -0.9104827 0.752819 -0.1335517 -0.6445368 0.8127322 -0.1575029 -0.5609452 0.8204284 -0.1607767 -0.5486786 0.8595639 -0.1778769 -0.479072 0.8652499 -0.1805264 -0.4677102 0.9006795 -0.1977118 -0.3868934 0.9041894 -0.1995806 -0.3776363 0.9343404 -0.216694 -0.2829344 0.9361125 -0.2178729 -0.2760885 0.9570186 -0.2334209 -0.1721341 0.9575631 -0.2339563 -0.1683369 0.01611131 0.1132089 -0.9934406 0.00555551 0.1173101 -0.9930799 0.007415652 0.1164754 -0.993166 -0.0066908 0.1216805 -0.9925468 -0.006913185 0.1217831 -0.9925327 -0.02039211 0.1268604 -0.991711 -0.02020537 0.1267679 -0.9917267 -0.03188985 0.1312949 -0.9908304 -0.03126597 0.1309601 -0.9908945 -0.03833729 0.133799 -0.9902667 -0.0371626 0.1330626 -0.9904108 -0.03325992 0.1314076 -0.9907703 -0.03154879 0.130462 -0.9909512 -0.02311468 0.1267681 -0.9916631 -0.02109646 0.1257164 -0.9918419 -0.00952959 0.1205339 -0.9926636 -0.007236897 0.1192871 -0.9928335 0.007502973 0.1125088 -0.9936225 0.01005047 0.1111653 -0.9937511 0.02638673 0.1035019 -0.9942793 0.02913147 0.1020131 -0.9943565 0.05011224 0.09194934 -0.994502 0.05311042 0.09030896 -0.9944967 0.07462626 0.07976669 -0.9940162 0.07837861 0.07776528 -0.9938861 0.1057201 0.06413269 -0.9923257 0.1122121 0.06060475 -0.9918344 0.1348348 0.04911881 -0.9896499 0.1436579 0.04436075 -0.9886327 0.1654999 0.03310728 -0.985654 0.1743649 0.02824765 -0.9842759 0.1982682 0.01574748 -0.9800213 0.2052883 0.01190799 -0.9786291 0.2242869 0.001843392 -0.9745215 0.2298094 -0.001205265 -0.973235 0.2499916 -0.01202684 -0.9681733 0.2539862 -0.01425373 -0.9671029 0.2752253 -0.02577638 -0.9610341 0.2778314 -0.02725106 -0.9602434 0.2294565 0.04119008 -0.972447 0.2109393 0.04674118 -0.9763811 0.2050071 0.0488435 -0.977541 0.1924386 0.05274885 -0.9798904 0.1888279 0.05401349 -0.9805237 0.1757726 0.05809611 -0.9827151 0.1724595 0.05933618 -0.9832279 0.1579253 0.06394028 -0.9853788 0.1549274 0.0650742 -0.9857803 0.1388936 0.07021844 -0.9878147 0.1362338 0.07128626 -0.9881087 0.1194779 0.07675963 -0.9898652 0.1171898 0.07769286 -0.9900659 0.1016285 0.08286839 -0.991365 0.09958064 0.08371454 -0.9915018 0.08367681 0.0891003 -0.9925016 0.08183634 0.08985942 -0.9925866 0.06465256 0.09576892 -0.9933018 0.06300812 0.09646594 -0.9933401 0.3950067 -0.01065146 -0.9186165 0.3695229 -0.002959549 -0.9292169 0.3550239 0.001821935 -0.9348555 0.3332504 0.008529067 -0.9427999 0.3268302 0.01064652 -0.9450232 0.3004883 0.01871573 -0.9536019 0.294429 0.02078378 -0.9554473 0.2654494 0.02964401 -0.963669 0.2601122 0.03148818 -0.9650649 0.7227561 -0.1219733 -0.6802545 0.6456598 -0.09413546 -0.7578007 0.634097 -0.08987635 -0.7680125 0.5499572 -0.06117957 -0.8329491 0.5378223 -0.05692124 -0.8411344 0.46547 -0.03336763 -0.8844345 0.455547 -0.03001856 -0.8897055 0.737577 -0.1277766 -0.6630637 0.8050177 -0.1543469 -0.5728208 0.8127296 -0.1575914 -0.5609239 0.854053 -0.1754139 -0.4897177 0.8595402 -0.1779448 -0.4790892 0.8972982 -0.1960063 -0.3955218 0.9006661 -0.1977673 -0.3868964 0.9326443 -0.2156493 -0.289258 0.9343094 -0.2167323 -0.2830071 0.956582 -0.2330347 -0.1750592 0.9570109 -0.2334378 -0.1721545 0.174375 0.02838593 -0.9842702 0.2052942 0.01183259 -0.9786288 0.2037723 0.01267039 -0.9789363 0.2298128 -0.001137852 -0.9732342 0.2354711 -0.004250645 -0.9718722 0.2539974 -0.01420432 -0.9671007 0.2582081 -0.01654475 -0.9659478 0.2778421 -0.02720481 -0.9602416 0.2806045 -0.02876585 -0.9593924 -0.03481829 0.1314986 -0.9907048 -0.03157126 0.1302533 -0.990978 -0.02685362 0.127906 -0.9914228 -0.02112126 0.1254881 -0.9918703 -0.01788347 0.1238827 -0.9921358 -0.007254302 0.1191111 -0.9928544 -0.005068778 0.1179437 -0.9930074 0.01003199 0.1109879 -0.9937711 0.01247555 0.1097131 -0.9938851 0.02911972 0.1018951 -0.9943689 0.03179591 0.1004607 -0.9944329 0.05310148 0.09022504 -0.9945048 0.05605804 0.0886265 -0.9944863 0.07837057 0.07768207 -0.9938932 0.08210134 0.07569777 -0.9937451 0.112216 0.06066048 -0.9918306 0.1222179 0.05525344 -0.9909641 0.1724022 0.05870574 -0.9832757 0.1548807 0.0645619 -0.9858214 0.1548489 0.06457459 -0.9858256 0.1361672 0.07057321 -0.9881691 0.1335598 0.07159954 -0.988451 0.1171222 0.0769729 -0.9901302 0.1148641 0.07787531 -0.990324 0.09951245 0.08298718 -0.9915698 0.0974856 0.08380877 -0.991702 0.08176845 0.0891363 -0.9926574 0.07991898 0.08988589 -0.9927404 0.1887762 0.05346018 -0.9805639 0.1992232 0.05021983 -0.9786665 0.2049548 0.04825556 -0.9775813 0.354995 0.001467049 -0.9348671 0.3268162 0.01050031 -0.9450297 0.3302811 0.009321331 -0.9438366 0.2943897 0.02032357 -0.9554694 0.2885351 0.02229732 -0.9572098 0.45552 -0.03037321 -0.8897074 0.5188214 -0.05066752 -0.8533799 0.5377956 -0.05723518 -0.8411303 0.6267528 -0.0874089 -0.7743002 0.6340766 -0.09006756 -0.768007 0.7134599 -0.1186368 -0.6905798 0.7227241 -0.1222212 -0.6802439 0.7977589 -0.1514204 -0.5836547 0.8050219 -0.1544304 -0.5727924 0.8488148 -0.1731081 -0.4995468 0.8540191 -0.1754675 -0.4897577 0.8941888 -0.1944643 -0.4032493 0.8972944 -0.196049 -0.3955094 0.9311807 -0.2147561 -0.2945886 0.9326344 -0.2156803 -0.2892667 0.9561874 -0.2326909 -0.1776527 0.9565768 -0.2330458 -0.1750726 0.2582096 -0.01656359 -0.965947 0.2806159 -0.02872598 -0.9593902 0.2837246 -0.03047347 -0.9584216 -0.005081117 0.1177822 -0.9930265 0.01244956 0.1093024 -0.9939306 0.01085507 0.1101539 -0.9938553 0.03178811 0.10031 -0.9944483 0.03449618 0.09888219 -0.9945011 0.05605107 0.08851093 -0.994497 0.05907714 0.08690184 -0.9944637 0.08209306 0.07559055 -0.9937539 0.08597385 0.07354944 -0.9935789 0.1222243 0.05540198 -0.990955 0.1292978 0.05157089 -0.9902639 0.1635063 0.03405559 -0.9859544 0.1771087 0.0266546 -0.9838303 0.203789 0.01283812 -0.9789307 0.2159782 0.006159782 -0.9763789 0.2354906 -0.004195809 -0.9718676 0.2521985 -0.01340448 -0.9675827 -0.03484022 0.1311914 -0.9907447 -0.02688312 0.1274854 -0.9914761 -0.02745628 0.1277939 -0.9914207 -0.01790493 0.1235717 -0.9921742 -0.01120591 0.1202995 -0.9926744 0.3626029 -9.11533e-4 -0.9319433 0.3302633 0.008859515 -0.9438473 0.3190231 0.01255553 -0.9476638 0.2885087 0.02188378 -0.9572272 0.2826038 0.02384287 -0.9589405 0.2521542 0.03312033 -0.9671202 0.2470321 0.03487133 -0.9683797 0.2208785 0.0428633 -0.974359 0.2165461 0.04437798 -0.9752632 0.1991922 0.04972916 -0.9786979 0.195264 0.05105817 -0.9794208 0.1787196 0.05618232 -0.9822947 0.1752687 0.05746668 -0.9828421 0.1548116 0.06392335 -0.9858739 0.1517919 0.06506592 -0.9862686 0.133522 0.07093715 -0.9885039 0.1308426 0.07196158 -0.9887881 0.1148254 0.07720309 -0.9903813 0.1125007 0.07810783 -0.990577 0.09744304 0.08312362 -0.9917638 0.09533387 0.08395761 -0.9918985 0.07987678 0.08920335 -0.9928054 0.07794934 0.08996719 -0.9928897 0.05837911 0.09671008 -0.9935991 0.05665254 0.09744077 -0.9936276 0.03526991 0.1049748 -0.9938493 0.03390163 0.105558 -0.9938352 0.01681941 0.1116995 -0.9935997 0.01578855 0.1121311 -0.9935681 -3.5423e-4 0.1180295 -0.9930101 -9.85511e-4 0.1183168 -0.9929755 0.6712167 -0.1032112 -0.7340406 0.6267178 -0.08768057 -0.7742977 0.5932098 -0.07582962 -0.8014687 0.5187707 -0.05114853 -0.8533821 0.4987825 -0.04433465 -0.8655925 0.4306778 -0.02254134 -0.9022243 0.4211929 -0.01940077 -0.9067636 0.7977491 -0.1514866 -0.583651 0.8437864 -0.1709032 -0.5087404 0.8487621 -0.1731417 -0.4996249 0.8912237 -0.1929815 -0.4104612 0.8941796 -0.1944927 -0.4032561 0.9297833 -0.2139213 -0.2995676 0.9311778 -0.2147796 -0.2945808 0.9559426 -0.2324651 -0.1792589 0.9561898 -0.2327029 -0.1776246 0.9476207 -0.2647539 0.1786631 0.9164597 -0.2679655 0.2971469 0.8828281 -0.2673346 0.3861954 0.85104 -0.26573 0.4529001 0.7095404 -0.2475829 0.6597388 0.6698527 -0.2414863 0.7021267 0.6259586 -0.2334755 0.7440867 0.5892669 -0.2269542 0.7754072 0.921829 -0.2676692 0.2803297 0.8827542 -0.2675925 0.3861855 0.9645416 -0.2575881 0.05751532 0.9647859 -0.2573397 0.05444741 0.9647757 -0.2573696 0.05448663 0.9647763 -0.2573499 0.05456906 0.9647555 -0.2573823 0.05478376 0.964738 -0.2573982 0.05501639 0.5656995 -0.2224024 0.7940537 0.5769835 -0.2247275 0.7852309 0.5750361 -0.2242948 0.7867817 0.5524626 -0.2196363 0.8040803 0.5524328 -0.2198306 0.8040477 0.5301691 -0.214887 0.82021 0.9645155 -0.2576012 0.05789256 0.9497419 -0.2642796 0.1677694 0.9494959 -0.2643399 0.1690628 0.9226059 -0.2676755 0.2777555 0.9218242 -0.2677222 0.2802945 0.8561789 -0.2659218 0.4429938 0.8530507 -0.2658368 0.4490385 0.7282969 -0.2506534 0.6377746 0.7433941 -0.2523384 0.6194277 0.6318393 -0.235479 0.7384638 0.6598528 -0.2390179 0.7123656 0.8139406 -0.2619476 0.5185405 0.8735669 -0.2666508 0.4071589 0.8561927 -0.2658163 0.4430302 0.9116103 -0.2679943 0.3116823 0.9131249 -0.2679379 0.3072661 0.9457591 -0.2651373 0.1877291 0.9463803 -0.2650018 0.1847658 0.6392393 -0.2356653 0.7320076 0.6908329 -0.2447857 0.680316 0.7060399 -0.2470582 0.6636793 0.7534087 -0.2542529 0.6064081 0.7695432 -0.2563 0.5849048 0.6152095 -0.2316263 0.7535693 0.5711352 -0.2229792 0.7899905 0.5560507 -0.2202711 0.8014289 0.510701 -0.2109897 0.8334674 0.502081 -0.2093518 0.8390986 0.7791575 -0.2576705 0.571419 0.8561641 -0.2659192 0.4430239 0.8608713 -0.2661819 0.4336448 0.9131188 -0.2679749 0.3072514 0.9147365 -0.2679105 0.3024584 0.9463719 -0.2650195 0.1847837 0.9469918 -0.2648762 0.1817889 0.7694922 -0.25652 0.5848754 0.713909 -0.248345 0.6547204 0.7060257 -0.2471838 0.6636474 0.6483083 -0.2374242 0.7234129 0.6391677 -0.2359413 0.7319811 0.5797075 -0.2248113 0.7831981 0.5710577 -0.2233029 0.789955 0.5199497 -0.2129766 0.8272202 0.5106548 -0.211206 0.8334409 0.7138702 -0.2484753 0.6547132 0.7791977 -0.2575666 0.5714108 0.7562029 -0.2548516 0.6026675 0.8609212 -0.2660174 0.4336467 0.8511062 -0.2654656 0.4529308 0.9147198 -0.267942 0.3024812 0.9164758 -0.2678803 0.2971737 0.9469849 -0.2649005 0.1817896 0.9476296 -0.264747 0.1786264 0.6699469 -0.2410656 0.7021812 0.648273 -0.2376009 0.7233865 0.5893149 -0.2267019 0.7754445 0.5796655 -0.2250154 0.7831705 0.5301275 -0.2151104 0.8201782 0.5199106 -0.2131655 0.8271962 0.8530562 -0.2658737 0.449006 0.8009932 -0.260061 0.5392385 0.8007521 -0.2609362 0.5391738 0.7563175 -0.2544154 0.6027078 0.9416365 -0.2657316 0.2066583 0.9415953 -0.2658622 0.2066775 0.9494805 -0.2644646 0.1689534 0.7432523 -0.252851 0.6193888 0.7094925 -0.2478944 0.6596733 0.6597436 -0.2394825 0.7123107 0.6259267 -0.2336808 0.7440491 -0.2864575 0.03196436 0.9575597 -0.289632 0.03350931 0.9565513 0.4710681 -0.2028284 0.8584613 0.4024109 -0.1877343 0.896003 0.3749225 -0.1818573 0.9090441 0.3437545 -0.1742166 0.9227576 0.3217293 -0.169254 0.9315811 0.2989795 -0.1634854 0.9401509 0.2787871 -0.1587379 0.9471431 0.255011 -0.1524209 0.9548494 0.2367533 -0.1481348 0.9602104 0.2096191 -0.1406897 0.9676085 0.19811 -0.1379197 0.9704281 0.1079674 -0.1126379 0.9877529 0.09031528 -0.1075112 0.9900932 0.08462774 -0.105664 0.9907943 0.06221199 -0.09914875 0.993126 0.05877995 -0.09796553 0.9934524 -0.2034935 -0.004110872 0.9790677 -0.213262 -3.54322e-4 0.9769951 -0.2232562 0.004090905 0.9747512 -0.2895131 0.03399956 0.95657 -0.3004626 0.03909713 0.952992 -0.3041322 0.0412271 0.9517374 -0.3097616 0.04392957 0.949799 -0.3126329 0.04574239 0.948772 -0.3108354 0.04484307 0.9494053 -0.3087866 0.04365897 0.9501288 -0.3005782 0.03957128 0.952936 0.04646754 -0.09359866 0.9945251 -0.1342371 -0.03108566 0.9904617 -0.1384912 -0.02974337 0.9899169 0.1806636 -0.1328038 0.9745378 0.1693155 -0.1300063 0.9769496 -0.28135 0.02946889 0.9591527 -0.2887545 0.0333113 0.9568236 -0.2927901 0.03504669 0.9555342 -0.2988467 0.03830629 0.9535321 -0.3007637 0.03908795 0.9528974 -0.2951118 0.03660899 0.9547612 -0.2842356 0.03056108 0.9582673 -0.281835 0.02943295 0.9590113 -0.07470965 -0.05367475 0.9957597 -0.08322751 -0.0509358 0.995228 -0.1006698 -0.044178 0.9939387 -0.1088925 -0.04155206 0.9931848 -0.1904708 -0.009631872 0.9816457 -0.2027387 -0.005149424 0.9792194 -0.2128928 -4.81584e-4 0.9770755 -0.2219671 0.003051519 0.9750495 0.5114514 -0.2114185 0.8328985 0.393782 -0.1861085 0.9001663 0.2787955 -0.1584875 0.9471825 0.2509423 -0.151727 0.9560372 0.2367746 -0.1477676 0.9602618 0.2185224 -0.1433128 0.965251 0.1981265 -0.1377018 0.9704557 0.1863867 -0.1348633 0.9731762 0.165558 -0.1288711 0.9777438 0.1516958 -0.1253646 0.9804449 0.1379051 -0.1212108 0.9830006 0.1234475 -0.1172849 0.9853959 0.09032022 -0.1074226 0.9901024 0.4768433 -0.2039837 0.8549919 0.4924792 -0.2076418 0.8451918 0.4924986 -0.2074476 0.8452283 0.5242196 -0.2146501 0.8240869 0.0995382 -0.110347 0.9888962 0.1139172 -0.1143366 0.9868891 0.1138967 -0.1144814 0.9868746 0.1379157 -0.1211227 0.98301 0.1327508 -0.1198594 0.9838755 0.1655539 -0.1289747 0.9777308 0.1682629 -0.1296234 0.9771825 -0.0279743 -0.06994092 0.9971589 -0.009909927 -0.07565397 0.997085 -0.01570439 -0.07400798 0.997134 0.01089513 -0.08283382 0.9965039 0.01257491 -0.08332347 0.9964432 0.03412413 -0.09027677 0.995332 0.03556424 -0.09068143 0.9952448 -0.1906635 -0.009779989 0.9816067 -0.1705833 -0.01723414 0.9851926 -0.1774929 -0.01491022 0.9840092 -0.1544753 -0.02397006 0.9877059 -0.1561241 -0.02339166 0.9874604 -0.1306449 -0.03302937 0.9908789 -0.132188 -0.03253829 0.9906905 -0.1000885 -0.04452049 0.993982 -0.1046145 -0.04310131 0.9935785 -0.0738793 -0.05371713 0.9958195 -0.07821714 -0.0523898 0.9955589 -0.05023193 -0.06228756 0.9967934 -0.04732137 -0.06318575 0.9968793 -0.2853989 0.0317471 0.9578829 -0.2701823 0.02490979 0.9624869 -0.2721197 0.02566778 0.961921 -0.2550445 0.01784956 0.9667646 -0.2550255 0.01784157 0.9667697 -0.2345874 0.00887221 0.9720546 -0.239132 0.01050901 0.9709302 0.05131602 -0.09484213 0.9941688 0.07141983 -0.1011492 0.9923045 0.07298213 -0.101536 0.9921512 0.09455949 -0.1080465 0.9896386 0.09525835 -0.1082152 0.9895531 0.1180945 -0.1149465 0.9863271 0.1188136 -0.1151179 0.9862207 0.1413941 -0.1216218 0.982454 0.1422009 -0.1218111 0.9823142 0.1685764 -0.1292326 0.9771801 0.1680319 -0.1291131 0.9772897 0.193613 -0.135985 0.9716081 0.1931967 -0.1358892 0.9717043 0.2145688 -0.1416363 0.9663847 0.2152633 -0.1417971 0.9662067 0.2420107 -0.1488132 0.9587938 0.2429729 -0.1490142 0.9585191 0.2751308 -0.1572644 0.9484573 0.2770984 -0.157692 0.9478132 0.3070639 -0.1651874 0.9372433 0.309599 -0.1657298 0.936313 0.3374248 -0.1725198 0.9254088 0.3405143 -0.1731939 0.9241504 0.3653428 -0.179127 0.9134759 0.3787872 -0.1819834 0.9074152 0.4037536 -0.1881453 0.8953125 0.4189698 -0.1913202 0.8876154 0.454679 -0.1993164 0.8680668 0.4609507 -0.200499 0.8644794 -0.1234861 -0.03538763 0.9917151 -0.107494 -0.04106205 0.9933574 -0.1096458 -0.04045128 0.9931473 -0.08576965 -0.04914313 0.9951023 -0.08415967 -0.04960125 0.995217 -0.07010924 -0.05469191 0.996039 -0.06217473 -0.05736917 0.9964151 -0.05375421 -0.0606448 0.996711 -0.04694169 -0.06274229 0.9969252 -0.02973377 -0.06865602 0.9971973 -0.03154236 -0.06816363 0.9971754 -0.01212275 -0.07443386 0.9971523 -0.01382559 -0.07395637 0.9971656 0.004314422 -0.07996767 0.9967882 0.006483912 -0.08054918 0.9967296 0.02399289 -0.08639168 0.9959724 0.02923208 -0.08781015 0.9957082 -0.1967942 -0.006750285 0.9804216 -0.1862436 -0.01130741 0.9824386 -0.1843256 -0.01194047 0.9827927 -0.1700905 -0.01745098 0.985274 -0.1709631 -0.01715826 0.9851281 -0.1560547 -0.02299475 0.9874807 -0.1552232 -0.02326107 0.9876056 -0.2430728 0.01234811 0.9699295 -0.2310925 0.007938504 0.9728995 -0.236983 0.009890556 0.9714635 -0.221433 0.003372073 0.9751698 -0.2218134 0.003498613 0.9750829 -0.2056103 -0.003266632 0.9786285 -0.2087437 -0.002269566 0.9779677 -0.2723546 0.02557593 0.961857 -0.2640732 0.02221524 0.9642469 -0.2677861 0.02347898 0.9631924 -0.2558715 0.01826965 0.9665381 -0.2531098 0.01724511 0.9672839 -0.2947069 0.03623348 0.9549006 -0.3006193 0.03954941 0.9529239 -0.3025298 0.04026973 0.9522889 -0.3034219 0.04074454 0.9519848 -0.3042685 0.04098844 0.951704 -0.2991026 0.03840559 0.9534479 -0.3000658 0.03872197 0.9531323 -0.2913539 0.03467011 0.955987 -0.2922586 0.03499114 0.955699 -0.2822093 0.03022599 0.9588766 -0.2809149 0.02976733 0.9592709 -0.2918398 0.03489398 0.9558306 -0.2811585 0.02890092 0.9592261 -0.2790146 0.02789127 0.9598817 0.4617065 -0.2009328 0.8639753 0.4609043 -0.2007387 0.8644486 0.4933443 -0.2075455 0.8447108 -0.04641109 -0.06328618 0.9969157 -0.03157782 -0.06838405 0.9971593 -0.03093451 -0.06857246 0.9971664 -0.01388704 -0.07432705 0.9971373 -0.01319521 -0.07452303 0.997132 0.006403088 -0.08101767 0.9966922 0.007157504 -0.08121609 0.9966709 0.02914416 -0.08832669 0.9956651 0.02994668 -0.08853256 0.9956231 0.05124551 -0.09525305 0.9941332 0.05213469 -0.09548032 0.9940652 0.07292038 -0.1018903 0.9921195 0.07388222 -0.1021335 0.9920234 0.09520202 -0.1085603 0.9895208 0.09625458 -0.1088193 0.9893905 0.1187554 -0.1154472 0.9861893 0.1198866 -0.1157187 0.9860205 0.142146 -0.1221248 0.9822831 0.1433786 -0.1224178 0.9820675 0.1679916 -0.1293357 0.9772672 0.1693688 -0.1296499 0.9769878 0.1931474 -0.1361671 0.9716752 0.1947581 -0.1365438 0.9713007 0.2152207 -0.1420361 0.966181 0.2169597 -0.142448 0.9657314 0.2429208 -0.1492858 0.9584901 0.2449629 -0.1497201 0.9579025 0.2770556 -0.1579324 0.9477857 0.2796005 -0.1584897 0.9469449 0.3095551 -0.1659604 0.9362868 0.3126859 -0.166636 0.9351257 0.3404754 -0.1733918 0.9241276 0.34417 -0.1742037 0.922605 0.3787031 -0.1823979 0.907367 0.3830358 -0.1832596 0.9053726 0.4189324 -0.1914951 0.8875952 0.4241778 -0.1925856 0.8848639 -0.04700171 -0.0631026 0.9968997 -0.06170189 -0.05797958 0.9964092 -0.06224942 -0.05781453 0.9963847 -0.08373075 -0.05019253 0.9952235 -0.0842334 -0.05005067 0.9951884 -0.109278 -0.04092895 0.9931682 -0.109705 -0.04080516 0.9931263 -0.1339725 -0.03173184 0.9904769 -0.1343258 -0.03162592 0.9904325 -0.1549831 -0.02369976 0.9876328 -0.1552798 -0.02360296 0.9875885 -0.1707665 -0.01753604 0.9851555 -0.1710109 -0.01745247 0.9851146 -0.1841628 -0.01221281 0.9828199 -0.1843623 -0.01214385 0.9827834 -0.1966958 -0.007147789 0.9804385 -0.1968523 -0.007095336 0.9804075 -0.2086282 -0.002248227 0.9779924 -0.208733 -0.002209663 0.9779703 -0.2218037 0.003253936 0.9750859 -0.2218517 0.003270566 0.975075 -0.23705 0.009764969 0.9714484 -0.2370082 0.009750306 0.9714588 -0.2533113 0.01687818 0.9672377 -0.253181 0.01683437 0.9672725 -0.2680311 0.0235126 0.9631234 -0.2677962 0.02342724 0.9631908 -0.2813235 0.02965623 0.9591547 -0.2809563 0.02953088 0.9592662 -0.2927775 0.03513956 0.9555347 -0.2922656 0.03495228 0.9556983 -0.3007631 0.03908979 0.9528974 -0.3000462 0.0388295 0.9531341 -0.3053549 0.04148679 0.9513345 -0.3042405 0.04114496 0.9517064 -0.3039995 0.04101979 0.9517887 -0.3024967 0.04044896 0.9522919 -0.2951261 0.03651404 0.9547604 -0.2946918 0.03631925 0.954902 -0.2818446 0.02937602 0.9590104 -0.2811335 0.02904671 0.959229 0.1947154 -0.1368412 0.9712675 0.2169629 -0.1424043 0.9657372 0.2120331 -0.1413075 0.9669923 0.2449251 -0.1499638 0.957874 0.2476343 -0.1505517 0.9570849 0.2795681 -0.1587026 0.9469189 0.2828221 -0.1594232 0.9458309 0.3126501 -0.1668413 0.9351011 0.3165158 -0.1676814 0.9336492 0.3441377 -0.1743748 0.9225848 0.3486148 -0.1753619 0.9207149 0.3829977 -0.1834849 0.9053431 0.3880823 -0.1845093 0.9029665 0.4241513 -0.1927372 0.8848436 0.4301894 -0.1939975 0.8816474 0.461694 -0.200974 0.8639724 0.4689819 -0.2024044 0.8597026 0.4933481 -0.2076262 0.8446888 0.5021048 -0.2094469 0.8390606 -0.1967179 -0.007303953 0.9804331 -0.184186 -0.01238387 0.9828134 -0.1841019 -0.01241403 0.9828288 -0.1707917 -0.01772159 0.9851478 -0.170648 -0.01777094 0.9851719 -0.1550086 -0.0239039 0.9876239 -0.1547794 -0.02397882 0.987658 -0.1340025 -0.03195965 0.9904655 -0.1336832 -0.0320574 0.9905055 -0.1093097 -0.04117673 0.9931546 -0.1088698 -0.04130923 0.9931974 -0.0837652 -0.05045735 0.9952073 -0.08319753 -0.05062311 0.9952464 -0.06173497 -0.05824255 0.9963919 -0.06109374 -0.05844008 0.9964198 -0.04644268 -0.06354618 0.9968978 -0.04571205 -0.06377726 0.9969167 -0.0309689 -0.06884735 0.9971464 -0.03015488 -0.06908845 0.9971548 -0.01323419 -0.07480198 0.9971107 -0.01236015 -0.0750572 0.9971027 0.007116615 -0.08150953 0.9966472 0.008115231 -0.08177858 0.9966175 0.02990609 -0.08882784 0.995598 0.03100043 -0.08911496 0.9955388 0.05209153 -0.09576934 0.9940397 0.05331176 -0.09608781 0.9939442 0.07384365 -0.1024184 0.9919968 0.07518661 -0.1027631 0.9918603 0.0962156 -0.1091008 0.9893632 0.09768903 -0.1094691 0.9891781 0.1198437 -0.115992 0.9859936 0.1214362 -0.116383 0.9857526 0.143341 -0.12268 0.9820402 0.1494715 -0.124162 0.9809395 -0.2775902 0.02797681 0.9602922 -0.2680484 0.02338171 0.9631217 -0.2668932 0.02292442 0.9634535 -0.2533195 0.0168181 0.9672365 -0.2536867 0.0169453 0.9671381 -0.2370622 0.009670674 0.9714463 -0.2373275 0.009763956 0.9713807 -0.2218201 0.003132104 0.9750826 -0.2219539 0.003180742 0.9750521 -0.2086461 -0.002390563 0.9779884 -0.2026807 -0.004571676 0.9792342 -0.2982721 0.03810989 0.9537199 -0.3039641 0.04126322 0.9517895 -0.3064516 0.04230028 0.950946 -0.3053221 0.04171156 0.9513351 -0.306334 0.0420466 0.9509952 -0.06111675 -0.05865436 0.9964058 -0.04569613 -0.06362533 0.9969272 -0.05125677 -0.06199854 0.9967593 -0.03017431 -0.06925868 0.9971424 -0.02919 -0.06955295 0.9971512 -0.01237607 -0.07523339 0.9970892 -0.01129907 -0.07555228 0.9970779 0.008093476 -0.08197808 0.9966014 0.009326398 -0.08231902 0.9965625 0.03097802 -0.08932101 0.995521 0.03235751 -0.08969151 0.9954439 0.05328977 -0.09629404 0.9939255 0.05483126 -0.09670561 0.9938015 0.07516717 -0.10297 0.9918403 0.07688248 -0.1034214 0.9916619 0.09766656 -0.1096799 0.989157 0.09955364 -0.1101619 0.9889154 0.1214114 -0.1165891 0.9857314 0.1234636 -0.1171045 0.9854153 0.1494258 -0.1245536 0.9808967 0.151716 -0.1250818 0.9804779 0.1806266 -0.1331243 0.9745009 0.1864209 -0.1344824 0.9732224 0.2119942 -0.1415999 0.9669582 0.2185385 -0.1431348 0.9652737 0.2476101 -0.1507614 0.9570581 0.2509621 -0.1514992 0.956068 0.2827927 -0.1596025 0.9458094 0.2867223 -0.1604815 0.9444766 0.3164874 -0.1678562 0.9336273 0.3210477 -0.1688609 0.9318876 0.3485941 -0.1755043 0.9206956 0.3537254 -0.1766381 0.9185191 0.3880575 -0.1847133 0.9029355 0.3938054 -0.1858775 0.9002039 0.4301576 -0.1941267 0.8816344 0.4368687 -0.1955226 0.8780186 0.4689462 -0.2025769 0.8596814 0.4768303 -0.2041282 0.8549647 0.5021047 -0.2094964 0.8390483 0.5114074 -0.211396 0.8329311 -0.1841066 -0.01247274 0.9828271 -0.1706563 -0.01784181 0.9851692 -0.1706118 -0.01785874 0.9851765 -0.1547876 -0.02406716 0.9876546 -0.1546224 -0.02412474 0.9876791 -0.133692 -0.0321682 0.9905008 -0.1309759 -0.03302395 0.9908354 -0.2776067 0.02780455 0.9602923 -0.2668545 0.02327412 0.9634558 -0.270861 0.02473217 0.9623007 -0.2536801 0.01698994 0.967139 -0.2542724 0.01720017 0.9669797 -0.2373239 0.00977689 0.9713814 -0.2339883 0.008556067 0.9722018 -0.3079137 0.04277074 0.9504525 -0.2988505 0.03826069 0.9535326 -0.2990467 0.03833192 0.9534683 -0.2887673 0.03317666 0.9568244 -0.2856512 0.03189438 0.9578028 -0.3063108 0.04225683 0.9509933 -0.3085069 0.04340177 0.9502314 -0.3064281 0.04251033 0.9509441 -0.2993284 0.03872776 0.9533639 -0.2982603 0.03823435 0.9537185 -0.2852483 0.03121483 0.9579453 -0.2842148 0.03073525 0.9582679 0.432464 -0.1947764 0.880362 0.4324932 -0.194514 0.8804056 0.4368556 -0.1955413 0.8780211 0.2867118 -0.1606107 0.9444578 0.3210348 -0.1689075 0.9318836 0.3217537 -0.1690644 0.9316071 0.3537087 -0.1767486 0.9185043 0.3749586 -0.1814583 0.9091089 0.07687181 -0.1035928 0.9916448 0.06222546 -0.09883946 0.993156 0.05482673 -0.09681582 0.9937912 0.03412681 -0.09028929 0.9953308 0.03235095 -0.08979773 0.9954345 0.01088887 -0.08285713 0.9965021 0.009319782 -0.08241099 0.9965549 -0.009919226 -0.07603329 0.997056 -0.01130414 -0.07561832 0.9970728 -0.02798384 -0.06998056 0.9971558 -0.02919679 -0.06960707 0.9971472 -0.05023556 -0.06236273 0.9967885 -0.05126041 -0.06205219 0.9967557 -0.07388794 -0.05405926 0.9958003 -0.07471674 -0.05379664 0.9957526 -0.1000922 -0.04463028 0.9939767 -0.1006865 -0.04444819 0.9939249 -0.1306473 -0.03327924 0.9908703 -0.1309852 -0.03317368 0.9908292 -0.1544816 -0.02413642 0.9877008 -0.1546161 -0.02408838 0.9876809 -0.1706063 -0.01780855 0.9851784 -0.1706066 -0.01780736 0.9851783 -0.1906621 -0.009787797 0.981607 -0.1904829 -0.009846329 0.9816411 -0.2132676 -4.44985e-4 0.9769937 -0.2128999 -5.76462e-4 0.9770739 -0.2345958 0.008624732 0.9720548 -0.2339965 0.008416295 0.9722011 -0.2550522 0.01764684 0.9667663 -0.2542622 0.01735228 0.9669797 -0.2701923 0.02454072 0.9624937 -0.270855 0.02480131 0.9623007 -0.2853972 0.03178167 0.9578823 -0.2856529 0.03187918 0.9578028 -0.3004707 0.0389769 0.9529943 -0.299038 0.03845143 0.9534662 -0.3097676 0.04379606 0.9498032 -0.307885 0.04313707 0.9504452 -0.3108451 0.04468148 0.9494099 -0.3084878 0.0436325 0.9502272 -0.3005874 0.03942149 0.9529392 -0.2993149 0.03881973 0.9533644 -0.2864641 0.03188091 0.9575605 -0.2852428 0.03129869 0.9579442</float_array>
          <technique_common>
            <accessor source="#left_canard-mesh-normals-array" count="1250" stride="3">
              <param name="X" type="float"/>
              <param name="Y" type="float"/>
              <param name="Z" type="float"/>
            </accessor>
          </technique_common>
        </source>
        <vertices id="left_canard-mesh-vertices">
          <input semantic="POSITION" source="#left_canard-mesh-positions"/>
        </vertices>
        <triangles count="1284">
          <input semantic="VERTEX" source="#left_canard-mesh-vertices" offset="0"/>
          <input semantic="NORMAL" source="#left_canard-mesh-normals" offset="1"/>
          <p>0 0 1 0 2 0 1 1 3 1 2 1 4 2 5 3 6 4 7 5 8 5 9 5 10 6 11 6 12 6 10 7 12 7 13 7 10 8 13 8 14 8 10 9 14 9 15 9 16 10 10 10 15 10 16 11 15 11 17 11 16 12 17 12 18 12 16 13 18 13 19 13 20 14 21 14 22 14 20 15 22 15 23 15 20 16 23 17 24 18 20 19 24 19 25 19 20 20 25 20 26 20 20 21 26 21 27 21 20 22 27 22 28 22 20 23 28 23 29 23 30 24 22 24 21 24 30 25 21 25 31 25 30 26 31 26 32 26 33 27 8 27 7 27 33 28 7 28 34 28 33 29 34 29 35 29 33 30 35 30 36 30 33 31 36 31 37 31 22 32 2 32 3 32 22 33 3 33 38 33 22 34 38 34 39 34 22 35 39 35 40 35 22 36 40 36 41 36 22 37 41 38 23 39 6 40 42 40 4 40 4 41 42 41 43 41 4 42 43 42 44 42 45 43 46 43 47 43 47 44 46 44 48 44 47 45 48 45 49 45 49 46 48 46 6 46 49 47 6 47 5 47 50 48 51 48 52 48 52 49 51 49 53 49 52 50 53 50 54 50 54 51 53 51 46 51 54 52 46 52 45 52 55 53 51 53 50 53 51 54 55 54 56 54 56 55 55 55 57 55 56 56 57 56 58 56 58 57 57 57 59 57 58 58 59 58 60 58 12 59 11 59 61 59 61 60 11 60 58 60 61 61 58 61 60 61 19 62 62 62 16 62 16 63 62 63 63 63 62 64 64 64 63 64 63 65 64 65 65 65 65 66 66 66 63 66 63 67 66 67 67 67 66 68 68 68 67 68 67 69 68 69 69 69 70 70 71 70 72 70 72 71 71 71 67 71 72 72 67 72 69 72 70 73 73 73 71 73 71 74 73 74 74 74 73 75 29 75 74 75 74 76 29 76 28 76 32 77 75 77 30 77 30 78 75 78 76 78 75 79 77 79 76 79 76 80 77 80 78 80 78 81 79 81 76 81 76 82 79 82 8 82 79 83 80 83 8 83 8 84 80 84 9 84 36 85 81 85 37 85 37 86 81 86 82 86 37 87 82 87 83 87 83 88 82 88 84 88 83 89 84 89 85 89 85 90 84 90 86 90 85 91 86 91 87 91 88 92 89 92 90 92 90 93 89 93 91 93 90 94 91 94 92 94 92 95 91 95 93 95 92 96 93 96 94 96 94 97 93 97 95 97 94 98 95 98 96 98 96 99 95 99 87 99 96 100 87 100 86 100 89 101 88 101 97 101 97 102 88 102 98 102 97 103 98 103 99 103 99 104 98 104 100 104 99 105 100 105 101 105 101 106 100 106 102 106 101 107 102 107 103 107 103 108 102 108 104 108 103 109 104 109 105 109 105 110 104 110 106 110 105 111 106 111 107 111 107 112 106 113 108 114 107 115 108 115 109 115 110 116 111 116 112 116 113 117 114 117 115 117 115 118 116 118 113 118 117 116 118 116 119 116 117 119 119 120 120 121 117 116 120 116 121 116 117 122 121 122 122 122 117 116 122 116 123 116 118 123 113 123 116 123 118 124 116 124 124 124 118 125 124 125 125 125 118 126 125 127 119 128 111 116 110 116 126 116 126 129 110 129 127 129 126 130 127 130 128 130 128 131 127 131 129 131 128 116 129 116 130 116 130 132 129 132 131 132 130 116 131 116 132 116 130 116 132 116 133 116 133 133 132 133 134 133 133 116 134 116 135 116 135 134 134 134 136 134 135 116 136 116 137 116 137 116 136 116 138 116 137 135 138 135 139 135 139 136 138 136 140 136 139 137 140 137 141 137 141 138 140 138 142 138 141 116 142 116 143 116 143 116 142 116 144 116 143 116 144 116 145 116 145 139 144 139 146 139 145 116 146 116 147 116 147 116 146 116 148 116 147 140 148 140 149 140 149 141 148 141 150 141 149 142 150 142 151 142 151 143 150 143 152 143 151 116 152 116 153 116 153 144 152 144 154 144 153 116 154 116 155 116 155 116 154 116 156 116 156 145 154 145 157 145 156 116 157 116 158 116 158 146 157 146 159 146 158 116 159 116 160 116 160 116 159 116 161 116 160 147 161 147 162 147 162 116 161 116 163 116 163 116 161 116 164 116 163 116 164 116 165 116 165 116 164 116 166 116 165 116 166 116 167 116 167 116 166 116 168 116 167 116 168 116 169 116 169 148 168 148 170 148 169 116 170 116 171 116 171 116 170 116 172 116 171 116 172 116 173 116 173 116 172 116 174 116 173 116 174 116 175 116 175 116 174 116 176 116 175 116 176 116 177 116 177 116 176 116 178 116 177 149 178 149 179 149 179 116 178 116 180 116 180 116 178 116 181 116 180 116 181 116 182 116 182 116 181 116 183 116 183 116 181 116 184 116 183 116 184 116 185 116 185 116 184 116 186 116 185 116 186 116 187 116 187 116 186 116 188 116 187 116 188 116 113 116 113 116 188 116 189 116 113 116 189 116 114 116 190 150 191 150 192 150 192 151 191 151 193 151 192 152 193 153 194 154 194 155 193 155 117 155 194 156 117 156 123 156 191 157 190 157 195 157 195 158 190 158 196 158 195 159 196 159 197 159 197 160 196 160 198 160 197 161 198 161 199 161 199 162 198 162 0 162 199 163 0 163 2 163 200 164 127 164 110 164 189 165 201 165 202 165 188 166 201 166 189 166 203 167 201 167 188 167 186 168 203 168 188 168 204 169 203 169 186 169 184 170 204 170 186 170 176 171 205 171 206 171 166 172 207 172 168 172 159 173 208 173 161 173 159 174 209 174 208 174 152 175 210 175 211 175 148 176 212 176 150 176 213 177 214 177 138 177 215 178 213 178 138 178 136 179 215 179 138 179 216 180 215 180 136 180 134 181 216 181 136 181 134 182 217 182 216 182 217 183 134 183 132 183 132 184 218 184 217 184 129 185 219 185 220 185 221 186 10 186 222 186 221 187 11 187 10 187 223 188 56 188 224 188 225 189 48 189 46 189 44 190 226 190 227 190 227 191 4 191 44 191 228 192 49 192 229 192 228 193 47 193 49 193 47 194 228 194 230 194 230 195 45 195 47 195 55 196 231 196 232 196 233 197 60 197 59 197 60 198 233 198 234 198 13 199 12 199 235 199 236 200 13 200 235 200 237 201 238 201 239 201 237 202 240 202 238 202 240 203 237 203 241 203 241 204 242 204 240 204 243 205 222 205 244 205 222 206 243 206 245 206 221 207 222 207 245 207 236 208 235 208 246 208 247 209 248 209 249 209 250 210 251 210 252 210 250 211 253 211 251 211 253 212 250 212 254 212 255 213 253 213 254 213 256 214 257 214 258 214 259 215 246 215 260 215 261 216 262 216 263 216 261 217 264 217 262 217 265 218 266 218 267 218 268 219 266 219 265 219 269 220 266 220 268 220 270 221 269 221 268 221 271 222 269 222 270 222 272 223 271 223 270 223 273 224 271 224 272 224 274 225 273 225 272 225 274 226 252 226 273 226 252 227 274 227 275 227 275 228 250 228 252 228 250 229 275 229 276 229 276 230 254 230 250 230 254 231 276 231 277 231 278 232 254 232 277 232 279 233 280 233 281 233 282 234 283 234 284 234 284 235 258 235 282 235 258 236 284 236 285 236 286 237 258 237 285 237 287 238 288 238 289 238 289 239 260 239 287 239 260 240 289 240 290 240 291 241 265 241 204 241 268 242 265 242 291 242 206 243 268 243 291 243 206 244 270 244 268 244 270 245 206 245 205 245 272 246 270 246 205 246 289 247 288 247 214 247 217 248 292 248 293 248 292 249 217 249 218 249 70 250 72 250 294 250 70 251 294 251 295 251 70 252 295 252 296 252 70 253 296 253 297 253 70 254 297 254 200 254 70 255 200 255 110 255 124 256 298 256 125 256 125 257 298 257 299 257 125 258 299 258 119 258 119 259 299 259 300 259 119 260 300 260 120 260 120 261 300 261 301 261 120 262 301 262 121 262 121 263 301 263 302 263 121 264 302 264 122 264 122 265 302 265 194 265 122 266 194 266 123 266 189 267 202 267 114 267 114 268 202 268 303 268 114 269 303 269 115 269 115 270 303 270 304 270 115 271 304 271 116 271 116 272 304 272 298 272 116 273 298 273 124 273 176 274 206 274 178 274 178 275 206 275 291 275 178 276 291 276 181 276 181 277 291 277 204 277 181 278 204 278 184 278 176 279 174 279 205 279 205 280 174 280 172 280 205 281 172 281 305 281 305 282 172 282 170 282 305 283 170 283 306 283 306 284 170 284 168 284 306 285 168 285 207 285 208 286 307 286 161 286 161 287 307 287 308 287 161 288 308 288 164 288 164 289 308 289 207 289 164 290 207 290 166 290 152 291 211 291 154 291 154 292 211 292 309 292 154 293 309 293 157 293 157 294 309 294 209 294 157 295 209 295 159 295 212 296 310 296 150 296 150 297 310 297 210 297 150 298 210 298 152 298 138 299 214 299 140 299 140 300 214 300 311 300 140 301 311 301 142 301 142 302 311 302 312 302 142 303 312 303 144 303 144 304 312 304 313 304 144 305 313 305 146 305 146 306 313 306 212 306 146 307 212 307 148 307 132 308 131 308 218 308 218 309 131 309 129 309 218 310 129 310 220 310 200 311 314 311 127 311 127 312 314 312 219 312 127 313 219 313 129 313 41 314 40 314 315 314 315 315 40 315 39 315 315 316 39 316 316 316 316 317 39 317 38 317 316 318 38 318 317 318 317 319 38 319 3 319 317 320 3 320 318 320 318 321 3 321 1 321 318 322 1 322 319 322 319 323 1 323 0 323 319 324 0 324 198 324 27 325 26 325 320 325 320 326 26 326 25 326 320 327 25 327 321 327 321 328 25 328 24 328 321 329 24 329 322 329 322 330 24 330 23 330 322 331 23 331 323 331 323 332 23 332 41 332 323 333 41 333 315 333 10 334 16 334 222 334 222 335 16 335 63 335 222 336 63 336 244 336 244 337 63 337 67 337 244 338 67 338 324 338 324 339 67 339 71 339 324 340 71 340 242 340 242 341 71 341 74 341 242 342 74 342 240 342 240 343 74 343 28 343 240 344 28 344 238 344 238 345 28 345 27 345 238 346 27 346 320 346 56 347 58 347 224 347 224 348 58 348 11 348 224 349 11 349 221 349 225 350 46 350 325 350 325 351 46 351 53 351 325 352 53 352 326 352 326 353 53 353 51 353 326 354 51 354 327 354 327 355 51 355 56 355 327 356 56 356 223 356 44 357 43 357 226 357 226 358 43 358 42 358 226 359 42 359 328 359 328 360 42 360 6 360 328 361 6 361 329 361 329 362 6 362 48 362 329 363 48 363 225 363 49 364 5 364 229 364 229 365 5 365 4 365 229 366 4 366 227 366 55 367 50 367 231 367 231 368 50 368 52 368 231 369 52 369 330 369 330 370 52 370 54 370 330 371 54 371 331 371 331 372 54 372 45 372 331 373 45 373 230 373 55 374 232 374 57 374 57 375 232 375 233 375 57 376 233 376 59 376 60 377 234 377 61 377 61 378 234 378 235 378 61 379 235 379 12 379 13 380 236 380 14 380 14 381 236 381 332 381 14 382 332 382 15 382 15 383 332 383 333 383 15 384 333 384 17 384 17 385 333 385 334 385 17 386 334 386 18 386 18 387 334 387 335 387 18 388 335 388 19 388 19 389 335 389 247 389 19 390 247 390 62 390 62 391 247 391 336 391 62 392 336 392 64 392 64 393 336 393 337 393 64 394 337 394 65 394 65 395 337 395 338 395 65 396 338 396 66 396 66 397 338 397 339 397 66 398 339 398 68 398 68 399 339 399 340 399 68 400 340 400 69 400 69 401 340 401 294 401 69 402 294 402 72 402 238 403 320 403 239 403 239 404 320 404 321 404 239 405 321 405 341 405 341 406 321 406 322 406 341 407 322 407 342 407 342 408 322 408 323 408 342 409 323 409 343 409 343 410 323 410 315 410 343 411 315 411 344 411 344 412 315 412 316 412 344 413 316 413 345 413 345 414 316 414 317 414 345 415 317 415 346 415 346 416 317 416 318 416 346 417 318 417 347 417 347 418 318 418 319 418 347 419 319 419 348 419 348 420 319 420 198 420 348 421 198 421 196 421 243 422 244 422 349 422 349 423 244 423 324 423 349 424 324 424 350 424 350 425 324 425 242 425 350 426 242 426 241 426 246 427 235 427 351 427 351 428 235 428 234 428 351 429 234 429 352 429 352 430 234 430 233 430 352 431 233 431 353 431 353 432 233 432 232 432 353 433 232 433 256 433 256 434 232 434 231 434 256 435 231 435 257 435 257 436 231 436 330 436 257 437 330 437 354 437 354 438 330 438 331 438 354 439 331 439 355 439 355 440 331 440 230 440 355 441 230 441 356 441 356 442 230 442 228 442 356 443 228 443 357 443 357 444 228 444 229 444 357 445 229 445 358 445 358 446 229 446 227 446 358 447 227 447 359 447 359 448 227 448 226 448 359 449 226 449 360 449 360 450 226 450 328 450 360 451 328 451 361 451 361 452 328 452 329 452 361 453 329 453 255 453 255 454 329 454 225 454 255 455 225 455 253 455 253 456 225 456 325 456 253 457 325 457 251 457 251 458 325 458 326 458 251 459 326 459 362 459 362 460 326 460 327 460 362 461 327 461 363 461 363 462 327 462 223 462 363 463 223 463 364 463 364 464 223 464 224 464 364 465 224 465 365 465 365 466 224 466 221 466 365 467 221 467 245 467 247 468 335 468 248 468 248 469 335 469 334 469 248 470 334 470 366 470 366 471 334 471 333 471 366 472 333 472 367 472 367 473 333 473 332 473 367 474 332 474 259 474 259 475 332 475 236 475 259 476 236 476 246 476 247 477 249 477 336 477 336 478 249 478 368 478 336 479 368 479 337 479 337 480 368 480 369 480 337 481 369 481 338 481 338 482 369 482 370 482 338 483 370 483 339 483 339 484 370 484 371 484 339 485 371 485 340 485 340 486 371 486 295 486 340 487 295 487 294 487 251 488 362 488 252 488 252 489 362 489 363 489 252 490 363 490 273 490 273 491 363 491 364 491 273 492 364 492 271 492 271 493 364 493 365 493 271 494 365 494 269 494 269 495 365 495 245 495 269 496 245 496 266 496 266 497 245 497 243 497 266 498 243 498 267 498 267 499 243 499 349 499 267 500 349 500 372 500 372 501 349 501 350 501 372 502 350 502 373 502 373 503 350 503 241 503 373 504 241 504 374 504 374 505 241 505 237 505 374 506 237 506 375 506 375 507 237 507 239 507 375 508 239 508 376 508 376 509 239 509 341 509 376 510 341 510 377 510 377 511 341 511 342 511 377 512 342 512 378 512 378 513 342 513 343 513 378 514 343 514 264 514 264 515 343 515 344 515 264 516 344 516 262 516 262 517 344 517 345 517 262 518 345 518 379 518 379 519 345 519 346 519 379 520 346 520 380 520 380 521 346 521 347 521 380 522 347 522 381 522 381 523 347 523 348 523 381 524 348 524 382 524 382 525 348 525 196 525 382 526 196 526 190 526 258 527 257 527 282 527 282 528 257 528 354 528 282 529 354 529 383 529 383 530 354 530 355 530 383 531 355 531 280 531 280 532 355 532 356 532 280 533 356 533 384 533 384 534 356 534 357 534 384 535 357 535 385 535 385 536 357 536 358 536 385 537 358 537 386 537 386 538 358 538 359 538 386 539 359 539 387 539 387 540 359 540 360 540 387 541 360 541 388 541 388 542 360 542 361 542 388 543 361 543 278 543 278 544 361 544 255 544 278 545 255 545 254 545 260 546 246 546 287 546 287 547 246 547 351 547 287 548 351 548 389 548 389 549 351 549 352 549 389 550 352 550 390 550 390 551 352 551 353 551 390 552 353 552 286 552 286 553 353 553 256 553 286 554 256 554 258 554 391 555 248 555 392 555 392 556 248 556 366 556 392 557 366 557 393 557 393 558 366 558 367 558 393 559 367 559 394 559 394 560 367 560 259 560 394 561 259 561 260 561 248 562 391 562 249 562 249 563 391 563 395 563 249 564 395 564 368 564 368 565 395 565 396 565 368 566 396 566 369 566 369 567 396 567 397 567 369 568 397 568 370 568 370 569 397 569 398 569 370 570 398 570 371 570 371 571 398 571 296 571 371 572 296 572 295 572 262 573 379 573 263 573 263 574 379 574 380 574 263 575 380 575 399 575 399 576 380 576 381 576 399 577 381 577 400 577 400 578 381 578 382 578 400 579 382 579 401 579 401 580 382 580 190 580 401 581 190 581 192 581 265 582 267 582 402 582 402 583 267 583 372 583 402 584 372 584 403 584 403 585 372 585 373 585 403 586 373 586 404 586 404 587 373 587 374 587 404 588 374 588 405 588 405 589 374 589 375 589 405 590 375 590 406 590 406 591 375 591 376 591 406 592 376 592 407 592 407 593 376 593 377 593 407 594 377 594 408 594 408 595 377 595 378 595 408 596 378 596 409 596 409 597 378 597 264 597 409 598 264 598 261 598 280 599 384 599 281 599 281 600 384 600 385 600 281 601 385 601 410 601 410 602 385 602 386 602 410 603 386 603 411 603 411 604 386 604 387 604 411 605 387 605 412 605 412 606 387 606 388 606 412 607 388 607 413 607 413 608 388 608 278 608 413 609 278 609 277 609 280 610 279 610 383 610 383 611 279 611 283 611 383 612 283 612 282 612 287 613 389 613 288 613 288 614 389 614 390 614 288 615 390 615 414 615 414 616 390 616 286 616 414 617 286 617 285 617 260 618 290 618 394 618 394 619 290 619 415 619 394 620 415 620 393 620 393 621 415 621 293 621 393 622 293 622 392 622 392 623 293 623 292 623 392 624 292 624 391 624 391 625 292 625 416 625 391 626 416 626 395 626 395 627 416 627 417 627 395 628 417 628 396 628 396 629 417 629 418 629 396 630 418 630 397 630 397 631 418 631 419 631 397 632 419 632 398 632 398 633 419 633 297 633 398 634 297 634 296 634 400 635 401 635 302 635 302 636 401 636 192 636 302 637 192 637 194 637 404 638 405 638 201 638 201 639 405 639 406 639 201 640 406 640 202 640 202 641 406 641 407 641 202 642 407 642 303 642 303 643 407 643 408 643 303 644 408 644 304 644 304 645 408 645 409 645 304 646 409 646 298 646 298 647 409 647 261 647 298 648 261 648 299 648 299 649 261 649 263 649 299 650 263 650 300 650 300 651 263 651 399 651 300 652 399 652 301 652 301 653 399 653 400 653 301 654 400 654 302 654 265 655 402 655 204 655 204 656 402 656 403 656 204 657 403 657 203 657 203 658 403 658 404 658 203 659 404 659 201 659 214 660 288 660 311 660 311 661 288 661 414 661 311 662 414 662 312 662 312 663 414 663 285 663 312 664 285 664 313 664 313 665 285 665 284 665 313 666 284 666 212 666 212 667 284 667 283 667 212 668 283 668 310 668 310 669 283 669 279 669 310 670 279 670 210 670 210 671 279 671 281 671 210 672 281 672 211 672 211 673 281 673 410 673 211 674 410 674 309 674 309 675 410 675 411 675 309 676 411 676 209 676 209 677 411 677 412 677 209 678 412 678 208 678 208 679 412 679 413 679 208 680 413 680 307 680 307 681 413 681 277 681 307 682 277 682 308 682 308 683 277 683 276 683 308 684 276 684 207 684 207 685 276 685 275 685 207 686 275 686 306 686 306 687 275 687 274 687 306 688 274 688 305 688 305 689 274 689 272 689 305 690 272 690 205 690 217 691 293 691 216 691 216 692 293 692 415 692 216 693 415 693 215 693 215 694 415 694 290 694 215 695 290 695 213 695 213 696 290 696 289 696 213 697 289 697 214 697 292 698 218 698 416 698 416 699 218 699 220 699 416 700 220 700 417 700 417 701 220 701 219 701 417 702 219 702 418 702 418 703 219 703 314 703 418 704 314 704 419 704 419 705 314 705 200 705 419 706 200 706 297 706 420 707 421 707 422 707 423 708 424 708 420 708 424 709 423 709 425 709 425 710 426 710 424 710 427 711 428 711 429 711 429 712 430 712 427 712 430 713 429 713 431 713 431 714 432 714 430 714 433 715 423 715 434 715 425 716 423 716 433 716 70 717 110 717 435 717 70 718 435 718 422 718 70 719 422 719 421 719 70 720 421 720 436 720 70 721 436 721 437 721 70 722 437 722 73 722 438 723 133 723 135 723 133 724 438 724 439 724 439 725 438 725 440 725 439 726 440 726 431 726 431 727 440 727 441 727 431 728 441 728 432 728 110 729 112 729 435 729 435 730 112 730 111 730 435 731 111 731 434 731 434 732 111 732 126 732 434 733 126 733 433 733 433 734 126 734 128 734 433 735 128 735 442 735 442 736 128 736 130 736 442 737 130 737 443 737 443 738 130 738 133 738 443 739 133 739 439 739 31 740 21 740 444 740 444 741 21 741 20 741 444 742 20 742 445 742 445 743 20 743 29 743 445 744 29 744 446 744 446 745 29 745 73 745 446 746 73 746 437 746 447 747 75 747 448 747 448 748 75 748 32 748 448 749 32 749 449 749 449 750 32 750 31 750 449 751 31 751 444 751 75 752 447 752 77 752 77 753 447 753 450 753 77 754 450 754 78 754 78 755 450 755 451 755 78 756 451 756 79 756 452 757 444 757 453 757 453 758 444 758 445 758 453 759 445 759 454 759 454 760 445 760 446 760 454 761 446 761 455 761 455 762 446 762 437 762 455 763 437 763 436 763 444 764 452 764 449 764 449 765 452 765 456 765 449 766 456 766 448 766 448 767 456 767 457 767 448 768 457 768 447 768 447 769 457 769 458 769 447 770 458 770 450 770 450 771 458 771 459 771 450 772 459 772 451 772 456 773 452 773 427 773 427 774 452 774 453 774 427 775 453 775 426 775 426 776 453 776 454 776 426 777 454 777 424 777 424 778 454 778 455 778 424 779 455 779 420 779 420 780 455 780 436 780 420 781 436 781 421 781 430 782 456 782 427 782 456 783 430 783 457 783 457 784 430 784 432 784 457 785 432 785 458 785 458 786 432 786 441 786 458 787 441 787 459 787 442 788 428 788 433 788 433 789 428 789 425 789 428 790 427 790 425 790 425 791 427 791 426 791 420 792 422 792 423 792 423 793 422 793 435 793 423 794 435 794 434 794 442 795 443 795 428 795 428 796 443 796 429 796 443 797 439 797 429 797 429 798 439 798 431 798 193 799 460 799 117 799 460 800 118 800 117 800 139 801 461 801 137 801 462 802 139 802 141 802 141 803 463 803 462 803 463 804 141 804 143 804 143 805 464 805 463 805 464 806 143 806 145 806 145 807 465 807 464 807 465 808 145 808 147 808 147 809 466 809 465 809 466 810 147 810 149 810 149 811 467 811 466 811 155 812 468 812 153 812 469 813 468 813 155 813 156 814 469 814 155 814 470 815 469 815 156 815 158 816 470 816 156 816 177 817 471 817 175 817 472 818 471 818 177 818 179 819 472 819 177 819 185 820 473 820 183 820 474 821 473 821 185 821 187 822 474 822 185 822 475 823 474 823 187 823 113 824 475 824 187 824 476 825 475 825 113 825 118 826 476 826 113 826 118 827 460 827 476 827 477 828 88 828 90 828 478 829 105 829 479 829 478 830 103 830 105 830 480 831 481 831 482 831 482 832 483 832 480 832 484 833 485 833 486 833 485 834 484 834 487 834 487 835 488 835 485 835 489 836 488 836 487 836 489 837 490 837 488 837 491 838 492 838 493 838 492 839 491 839 195 839 197 840 492 840 195 840 494 841 495 841 496 841 496 842 497 842 494 842 497 843 496 843 498 843 498 844 499 844 497 844 500 845 501 845 502 845 500 846 503 846 501 846 503 847 500 847 504 847 504 848 505 848 503 848 506 849 440 849 438 849 507 850 508 850 462 850 465 851 509 851 464 851 510 852 509 852 465 852 466 853 510 853 465 853 466 854 511 854 510 854 511 855 466 855 467 855 467 856 512 856 511 856 512 857 467 857 513 857 513 858 514 858 512 858 514 859 513 859 515 859 515 860 516 860 514 860 517 861 468 861 469 861 506 862 438 862 518 862 518 863 438 863 461 863 438 864 135 864 461 864 461 865 135 865 137 865 517 866 516 866 468 866 468 867 516 867 515 867 468 868 515 868 153 868 153 869 515 869 513 869 153 870 513 870 151 870 151 871 513 871 467 871 151 872 467 872 149 872 519 873 520 873 163 873 163 874 520 874 521 874 163 875 521 875 162 875 162 876 521 876 522 876 162 877 522 877 160 877 160 878 522 878 470 878 160 879 470 879 158 879 471 880 523 880 175 880 175 881 523 881 524 881 175 882 524 882 173 882 173 883 524 883 525 883 173 884 525 884 171 884 171 885 525 885 526 885 171 886 526 886 169 886 169 887 526 887 527 887 169 888 527 888 167 888 167 889 527 889 528 889 167 890 528 890 165 890 165 891 528 891 519 891 165 892 519 892 163 892 473 893 529 893 183 893 183 894 529 894 530 894 183 895 530 895 182 895 182 896 530 896 531 896 182 897 531 897 180 897 180 898 531 898 472 898 180 899 472 899 179 899 477 900 90 900 532 900 532 901 90 901 92 901 532 902 92 902 533 902 533 903 92 903 94 903 533 904 94 904 534 904 534 905 94 905 96 905 534 906 96 906 535 906 535 907 96 907 86 907 535 908 86 908 536 908 536 909 86 909 84 909 536 910 84 910 537 910 537 911 84 911 82 911 537 912 82 912 538 912 538 913 82 913 81 913 538 914 81 914 539 914 539 915 81 915 36 915 539 916 36 916 540 916 540 917 36 917 35 917 540 918 35 918 541 918 541 919 35 919 34 919 541 920 34 920 542 920 542 921 34 921 7 921 542 922 7 922 543 922 543 923 7 923 9 923 543 924 9 924 544 924 544 925 9 925 80 925 544 926 80 926 545 926 545 927 80 927 79 927 545 928 79 928 451 928 105 929 107 929 479 929 479 930 107 930 109 930 479 931 109 931 546 931 546 932 109 932 108 932 546 933 108 933 547 933 547 934 108 934 106 934 547 935 106 935 548 935 548 936 106 936 104 936 548 937 104 937 549 937 549 938 104 938 102 938 549 939 102 939 550 939 550 940 102 940 100 940 550 941 100 941 551 941 551 942 100 942 98 942 551 943 98 943 552 943 552 944 98 944 88 944 552 945 88 945 477 945 553 946 97 946 554 946 554 947 97 947 99 947 554 948 99 948 555 948 555 949 99 949 101 949 555 950 101 950 556 950 556 951 101 951 103 951 556 952 103 952 478 952 95 953 93 953 557 953 557 954 93 954 91 954 557 955 91 955 558 955 558 956 91 956 89 956 558 957 89 957 559 957 559 958 89 958 97 958 559 959 97 959 553 959 83 960 85 960 560 960 560 961 85 961 87 961 560 962 87 962 561 962 561 963 87 963 95 963 561 964 95 964 557 964 562 965 30 965 563 965 563 966 30 966 76 966 563 967 76 967 564 967 564 968 76 968 8 968 564 969 8 969 565 969 565 970 8 970 33 970 565 971 33 971 566 971 566 972 33 972 37 972 566 973 37 973 567 973 567 974 37 974 83 974 567 975 83 975 560 975 30 976 562 976 22 976 22 977 562 977 199 977 22 978 199 978 2 978 568 979 545 979 569 979 569 980 545 980 451 980 569 981 451 981 459 981 570 982 549 982 571 982 571 983 549 983 550 983 571 984 550 984 572 984 572 985 550 985 551 985 572 986 551 986 573 986 573 987 551 987 552 987 573 988 552 988 574 988 574 989 552 989 477 989 574 990 477 990 575 990 575 991 477 991 532 991 575 992 532 992 576 992 576 993 532 993 533 993 576 994 533 994 577 994 577 995 533 995 534 995 577 996 534 996 578 996 578 997 534 997 535 997 578 998 535 998 579 998 579 999 535 999 536 999 579 1000 536 1000 483 1000 483 1001 536 1001 537 1001 483 1002 537 1002 480 1002 480 1003 537 1003 538 1003 480 1004 538 1004 580 1004 580 1005 538 1005 539 1005 580 1006 539 1006 581 1006 581 1007 539 1007 540 1007 581 1008 540 1008 582 1008 582 1009 540 1009 541 1009 582 1010 541 1010 583 1010 583 1011 541 1011 542 1011 583 1012 542 1012 584 1012 584 1013 542 1013 543 1013 584 1014 543 1014 585 1014 585 1015 543 1015 544 1015 585 1016 544 1016 586 1016 586 1017 544 1017 545 1017 586 1018 545 1018 568 1018 549 1019 570 1019 548 1019 548 1020 570 1020 587 1020 548 1021 587 1021 547 1021 547 1022 587 1022 588 1022 547 1023 588 1023 546 1023 546 1024 588 1024 589 1024 546 1025 589 1025 479 1025 479 1026 589 1026 590 1026 479 1027 590 1027 478 1027 478 1028 590 1028 591 1028 478 1029 591 1029 556 1029 556 1030 591 1030 592 1030 556 1031 592 1031 555 1031 555 1032 592 1032 593 1032 555 1033 593 1033 554 1033 554 1034 593 1034 594 1034 554 1035 594 1035 553 1035 553 1036 594 1036 595 1036 553 1037 595 1037 559 1037 559 1038 595 1038 596 1038 559 1039 596 1039 558 1039 558 1040 596 1040 597 1040 558 1041 597 1041 557 1041 557 1042 597 1042 598 1042 557 1043 598 1043 561 1043 561 1044 598 1044 486 1044 561 1045 486 1045 560 1045 560 1046 486 1046 485 1046 560 1047 485 1047 567 1047 567 1048 485 1048 488 1048 567 1049 488 1049 566 1049 566 1050 488 1050 490 1050 566 1051 490 1051 565 1051 565 1052 490 1052 599 1052 565 1053 599 1053 564 1053 564 1054 599 1054 493 1054 564 1055 493 1055 563 1055 563 1056 493 1056 492 1056 563 1057 492 1057 562 1057 562 1058 492 1058 197 1058 562 1059 197 1059 199 1059 480 1060 580 1060 481 1060 481 1061 580 1061 581 1061 481 1062 581 1062 600 1062 600 1063 581 1063 582 1063 600 1064 582 1064 601 1064 601 1065 582 1065 583 1065 601 1066 583 1066 602 1066 602 1067 583 1067 584 1067 602 1068 584 1068 603 1068 603 1069 584 1069 585 1069 603 1070 585 1070 604 1070 604 1071 585 1071 586 1071 604 1072 586 1072 605 1072 605 1073 586 1073 568 1073 605 1074 568 1074 606 1074 606 1075 568 1075 569 1075 606 1076 569 1076 607 1076 607 1077 569 1077 459 1077 607 1078 459 1078 441 1078 594 1079 593 1079 501 1079 501 1080 593 1080 592 1080 501 1081 592 1081 608 1081 608 1082 592 1082 591 1082 608 1083 591 1083 609 1083 609 1084 591 1084 590 1084 609 1085 590 1085 610 1085 610 1086 590 1086 589 1086 610 1087 589 1087 499 1087 499 1088 589 1088 588 1088 499 1089 588 1089 497 1089 497 1090 588 1090 587 1090 497 1091 587 1091 494 1091 494 1092 587 1092 570 1092 494 1093 570 1093 611 1093 611 1094 570 1094 571 1094 611 1095 571 1095 612 1095 612 1096 571 1096 572 1096 612 1097 572 1097 613 1097 613 1098 572 1098 573 1098 613 1099 573 1099 614 1099 614 1100 573 1100 574 1100 614 1101 574 1101 615 1101 615 1102 574 1102 575 1102 615 1103 575 1103 616 1103 616 1104 575 1104 576 1104 616 1105 576 1105 617 1105 617 1106 576 1106 577 1106 617 1107 577 1107 618 1107 618 1108 577 1108 578 1108 618 1109 578 1109 619 1109 619 1110 578 1110 579 1110 619 1111 579 1111 620 1111 620 1112 579 1112 483 1112 620 1113 483 1113 482 1113 484 1114 486 1114 621 1114 621 1115 486 1115 598 1115 621 1116 598 1116 622 1116 622 1117 598 1117 597 1117 622 1118 597 1118 623 1118 623 1119 597 1119 596 1119 623 1120 596 1120 505 1120 505 1121 596 1121 595 1121 505 1122 595 1122 503 1122 503 1123 595 1123 594 1123 503 1124 594 1124 501 1124 491 1125 493 1125 624 1125 624 1126 493 1126 599 1126 624 1127 599 1127 625 1127 625 1128 599 1128 490 1128 625 1129 490 1129 489 1129 494 1130 611 1130 495 1130 495 1131 611 1131 612 1131 495 1132 612 1132 626 1132 626 1133 612 1133 613 1133 626 1134 613 1134 627 1134 627 1135 613 1135 614 1135 627 1136 614 1136 628 1136 628 1137 614 1137 615 1137 628 1138 615 1138 629 1138 629 1139 615 1139 616 1139 629 1140 616 1140 630 1140 630 1141 616 1141 617 1141 630 1142 617 1142 631 1142 631 1143 617 1143 618 1143 631 1144 618 1144 517 1144 517 1145 618 1145 619 1145 517 1146 619 1146 516 1146 516 1147 619 1147 620 1147 516 1148 620 1148 514 1148 514 1149 620 1149 482 1149 514 1150 482 1150 512 1150 512 1151 482 1151 481 1151 512 1152 481 1152 511 1152 511 1153 481 1153 600 1153 511 1154 600 1154 510 1154 510 1155 600 1155 601 1155 510 1156 601 1156 509 1156 509 1157 601 1157 602 1157 509 1158 602 1158 632 1158 632 1159 602 1159 603 1159 632 1160 603 1160 633 1160 633 1161 603 1161 604 1161 633 1162 604 1162 507 1162 507 1163 604 1163 605 1163 507 1164 605 1164 508 1164 508 1165 605 1165 606 1165 508 1166 606 1166 518 1166 518 1167 606 1167 607 1167 518 1168 607 1168 506 1168 506 1169 607 1169 441 1169 506 1170 441 1170 440 1170 501 1171 608 1171 502 1171 502 1172 608 1172 609 1172 502 1173 609 1173 634 1173 634 1174 609 1174 610 1174 634 1175 610 1175 635 1175 635 1176 610 1176 499 1176 635 1177 499 1177 498 1177 484 1178 621 1178 636 1178 636 1179 621 1179 622 1179 636 1180 622 1180 637 1180 637 1181 622 1181 623 1181 637 1182 623 1182 638 1182 638 1183 623 1183 505 1183 638 1184 505 1184 504 1184 639 1185 489 1185 640 1185 640 1186 489 1186 487 1186 640 1187 487 1187 641 1187 641 1188 487 1188 484 1188 641 1189 484 1189 636 1189 489 1190 639 1190 625 1190 625 1191 639 1191 642 1191 625 1192 642 1192 624 1192 624 1193 642 1193 643 1193 624 1194 643 1194 491 1194 491 1195 643 1195 191 1195 491 1196 191 1196 195 1196 139 1197 462 1197 461 1197 461 1198 462 1198 508 1198 461 1199 508 1199 518 1199 509 1200 632 1200 464 1200 464 1201 632 1201 633 1201 464 1202 633 1202 463 1202 463 1203 633 1203 507 1203 463 1204 507 1204 462 1204 517 1205 469 1205 631 1205 631 1206 469 1206 470 1206 631 1207 470 1207 630 1207 630 1208 470 1208 522 1208 630 1209 522 1209 629 1209 629 1210 522 1210 521 1210 629 1211 521 1211 628 1211 628 1212 521 1212 520 1212 628 1213 520 1213 627 1213 627 1214 520 1214 519 1214 627 1215 519 1215 626 1215 626 1216 519 1216 528 1216 626 1217 528 1217 495 1217 495 1218 528 1218 527 1218 495 1219 527 1219 496 1219 496 1220 527 1220 526 1220 496 1221 526 1221 498 1221 498 1222 526 1222 525 1222 498 1223 525 1223 635 1223 635 1224 525 1224 524 1224 635 1225 524 1225 634 1225 634 1226 524 1226 523 1226 634 1227 523 1227 502 1227 502 1228 523 1228 471 1228 502 1229 471 1229 500 1229 500 1230 471 1230 472 1230 500 1231 472 1231 504 1231 504 1232 472 1232 531 1232 504 1233 531 1233 638 1233 638 1234 531 1234 530 1234 638 1235 530 1235 637 1235 637 1236 530 1236 529 1236 637 1237 529 1237 636 1237 636 1238 529 1238 473 1238 636 1239 473 1239 641 1239 641 1240 473 1240 474 1240 641 1241 474 1241 640 1241 640 1242 474 1242 475 1242 640 1243 475 1243 639 1243 639 1244 475 1244 476 1244 639 1245 476 1245 642 1245 642 1246 476 1246 460 1246 642 1247 460 1247 643 1247 643 1248 460 1248 193 1248 643 1249 193 1249 191 1249</p>
        </triangles>
      </mesh>
    </geometry>
  </library_geometries>
  <library_visual_scenes>
    <visual_scene id="Scene" name="Scene">
      <node id="left_canard" name="left_canard" type="NODE">
        <matrix sid="transform">0.001980197 0 0 0.004484674 0 0.001980197 0 0 0 0 0.001980197 0.003122766 0 0 0 1</matrix>
        <instance_geometry url="#left_canard-mesh" name="left_canard"/>
      </node>
    </visual_scene>
  </library_visual_scenes>
  <scene>
    <instance_visual_scene url="#Scene"/>
  </scene>
</COLLADA>