<?xml version="1.0" encoding="utf-8"?>
<COLLADA xmlns="http://www.collada.org/2005/11/COLLADASchema" version="1.4.1" xmlns:xsi="http://www.w3.org/2001/XMLSchema-instance">
  <asset>
    <contributor>
      <author>Blender User</author>
      <authoring_tool>Blender 4.4.3 commit date:2025-04-29, commit time:14:09, hash:802179c51ccc</authoring_tool>
    </contributor>
    <created>2025-08-27T14:14:04</created>
    <modified>2025-08-27T14:14:04</modified>
    <unit name="meter" meter="1"/>
    <up_axis>Z_UP</up_axis>
  </asset>
  <library_images/>
  <library_geometries>
    <geometry id="left_elevator-mesh" name="left_elevator">
      <mesh>
        <source id="left_elevator-mesh-positions">
          <float_array id="left_elevator-mesh-positions-array" count="1572">-1159.516 50.92553 215.3753 -1159.346 50.94383 215.6453 -1159.614 51.26334 220.2816 -1159.198 50.9627 215.9231 -1159.411 51.24163 219.9705 -1159.072 50.98208 216.2077 -1159.237 51.21937 219.6512 -1158.969 51.00191 216.4982 -1159.09 51.19646 219.3217 -1158.888 51.02211 216.7936 -1158.971 51.17321 218.9866 -1158.83 51.04261 217.0928 -1158.881 51.14981 218.6488 -1158.793 51.06334 217.3949 -1158.819 51.12627 218.3083 -1158.78 51.08425 217.6988 -1158.788 51.10525 218.0036 -1160.161 50.87482 214.6222 -1159.924 50.89096 214.8628 -1160.394 51.32462 221.155 -1159.709 50.90789 215.1141 -1159.972 51.29486 220.7317 -1160.702 50.84518 214.1775 -1160.42 50.85954 214.3934 -1160.88 51.35229 221.5468 -1169.485 50.81816 213.5356 -1168.146 50.7962 213.255 -1171.49 51.42525 222.4292 -1167.497 50.78638 213.1319 -1168.146 51.45326 222.8764 -1166.892 50.77895 213.0417 -1167.53 51.45726 222.9454 -1166.31 50.77342 212.9785 -1166.934 51.45957 222.9894 -1165.749 50.76974 212.9413 -1166.36 51.46024 223.0096 -1165.209 50.76783 212.9292 -1165.806 51.45935 223.0066 -1164.691 50.76764 212.9412 -1165.274 51.45695 222.9815 -1164.195 50.76909 212.9764 -1164.763 51.4531 222.9351 -1163.72 50.77211 213.0337 -1164.272 51.44786 222.8682 -1163.267 50.77665 213.1123 -1163.803 51.4413 222.7818 -1162.836 50.78263 213.2111 -1163.355 51.43348 222.6768 -1162.426 50.78998 213.3292 -1162.928 51.42445 222.5539 -1162.039 50.79865 213.4656 -1162.522 51.41428 222.4142 -1161.672 50.80855 213.6194 -1162.137 51.40304 222.2584 -1161.328 50.81963 213.7896 -1161.773 51.39077 222.0876 -1161.005 50.83181 213.9753 -1161.43 51.37755 221.9024 -1184.024 51.01991 216.0715 -1181.882 50.9999 215.8229 -1184.147 51.28295 220.2129 -1179.797 50.9767 215.5299 -1181.025 51.32288 220.8414 -1177.538 50.9464 215.1539 -1177.909 51.35958 221.4142 -1174.252 50.89632 214.5245 -1174.935 51.39112 221.9084 -1188.268 51.04191 216.3354 -1186.212 51.0341 216.2455 -1187.988 51.23056 219.3672 -1192.132 51.04782 216.3855 -1190.65 51.04619 216.3751 -1191.634 51.18189 218.5389 -1195.375 51.1372 217.7717 -1194.804 51.049 216.3788 -1194.045 51.15257 218.0342 -1197.415 51.1148 217.3913 -1197.462 51.0479 216.3396 -1200.103 51.08739 216.9302 -1200.359 51.04421 216.2599 -1202.806 51.06237 216.5141 -1202.804 51.03899 216.1611 -1168.146 327.6576 192.4711 -1168.146 180.5043 203.5104 -1172.919 327.7342 193.455 -1177.984 327.8176 194.5165 -1181.96 327.8822 195.3312 -1188.386 327.9696 196.4306 -1190.295 327.9893 196.6824 -1192.458 328.0067 196.9027 -1198.426 328.0289 197.1513 -1196.013 328.0238 197.1058 -1201.505 328.0326 197.1707 -1204.705 328.0334 197.1491 -1207.562 328.0316 197.0939 -1209.479 328.0289 197.0376 -1203.933 85.66199 213.7581 -1205.062 120.285 211.3551 -1206.191 154.908 208.952 -1207.32 189.531 206.549 -1208.449 224.154 204.146 -1209.578 258.7769 201.743 -1210.707 293.4 199.34 -1211.836 328.0234 196.9369 -1185.166 327.9299 195.9308 -1194.525 328.0184 197.0451 -1207.317 189.5543 206.902 -1206.189 154.9314 209.3051 -1205.062 120.3084 211.7081 -1203.934 85.68537 214.1111 -1208.445 224.1773 204.499 -1209.573 258.8003 202.096 -1210.701 293.4233 199.6929 -1211.829 328.0457 197.29 -1207.96 328.0825 197.9027 -1205.298 328.1107 198.3794 -1199.467 328.1803 199.5615 -1195.67 328.2319 200.4259 -1190.846 328.2963 201.476 -1186.794 328.346 202.2639 -1183.225 328.386 202.8854 -1180.221 328.4171 203.3664 -1176.892 328.4481 203.8437 -1210.286 328.0596 197.5201 -1202.352 328.1445 198.9529 -1174.766 328.4662 204.1221 -1171.628 328.4915 204.5051 -1168.146 145.7541 216.7685 -1169.192 328.5095 204.7737 -1168.146 259.7729 209.3597 -1168.146 328.5169 204.8826 -1167.682 145.7572 216.8172 -1167.231 98.60892 219.9111 -1166.362 98.61005 219.9402 -1165.549 77.5907 221.2977 -1166.396 283.3114 207.9065 -1165.898 328.5185 204.9083 -1166.457 328.5208 204.9411 -1164.777 77.58533 221.2329 -1165.59 283.308 207.8594 -1165.16 328.5122 204.8193 -1164.052 77.57686 221.1225 -1164.83 283.3008 207.7594 -1164.435 328.5021 204.6757 -1164.115 283.2902 207.6096 -1163.729 328.488 204.4744 -1160.927 305.7726 204.3915 -1160.732 328.3554 202.5901 -1161.028 328.3765 202.8888 -1160.497 305.7412 203.9476 -1160.457 328.3331 202.2738 -1160.119 305.7078 203.4749 -1159.972 328.2851 201.5933 -1160.203 328.3097 201.9411 -1159.795 305.6727 202.9773 -1159.765 328.2596 201.2319 -1159.124 77.08628 214.1054 -1159.975 77.00149 212.8562 -1159.638 77.02812 213.2504 -1159.83 305.238 196.7761 -1159.983 327.8226 195.0096 -1159.776 327.8463 195.3507 -1160.365 76.97683 212.489 -1160.159 305.2056 196.3086 -1160.466 327.7786 194.3734 -1160.213 327.8 194.6833 -1160.808 76.9544 212.1526 -1160.541 305.1754 195.8707 -1160.737 327.7587 194.0854 -1161.411 282.5299 196.75 -1161.665 327.7077 193.3381 -1161.338 327.7232 193.5668 -1162.439 97.90608 209.796 -1161.835 97.92057 210.0214 -1161.952 282.5083 196.4307 -1162.365 327.6813 192.9454 -1162.008 327.6937 193.1309 -1162.545 282.4901 196.157 -1162.735 327.6704 192.782 -1163.806 97.88727 209.487 -1163.096 97.8949 209.6167 -1163.189 282.4754 195.9328 -1163.766 327.6492 192.4538 -1163.115 327.6612 192.6406 -1164.568 97.88346 209.4109 -1163.886 282.4647 195.7621 -1164.437 327.6413 192.3247 -1165.384 97.88372 209.3919 -1164.635 282.4581 195.6492 -1165.121 327.6372 192.2505 -1166.252 97.88832 209.4338 -1165.435 282.4559 195.5978 -1165.639 327.6365 192.2285 -1166.735 191.1448 202.4799 -1166.287 282.4585 195.612 -1166.682 327.6407 192.264 -1166.16 327.6378 192.2336 -1167.682 191.1563 202.6185 -1167.225 145.0137 206.0106 -1167.243 282.4667 195.7028 -1167.203 327.6454 192.318 -1166.758 282.4619 195.6474 -1167.23 145.7592 216.8515 -1166.36 145.7604 216.8781 -1166.364 191.9306 213.8711 -1167.238 238.0996 210.84 -1166.375 238.1001 210.8511 -1167.019 328.5212 204.9467 -1165.54 98.60765 219.9174 -1163.356 98.58113 219.568 -1162.837 119.586 218.019 -1163.351 145.7303 216.4815 -1162.839 145.7184 216.3169 -1163.393 238.0656 210.3752 -1162.885 238.0525 210.1918 -1162.913 260.658 208.7138 -1163.447 283.2762 207.4131 -1162.945 283.2628 207.2246 -1162.982 305.8663 205.7176 -1159.522 305.6361 202.459 -1159.426 328.2064 200.4778 -1159.583 328.2334 200.8601 -1159.354 77.05648 213.6681 -1161.028 327.7403 193.8162 -1164.565 145.0001 205.89 -1165.389 191.1368 202.402 -1164.575 191.1375 202.4329 -1161.284 97.93809 210.289 -1160.786 97.95839 210.5953 -1167.583 328.5199 204.9267 -1167.686 238.0978 210.8128 -1163.296 328.477 204.3169 -1161.03 77.49047 219.925 -1161.316 77.5036 220.1099 -1161.616 77.51589 220.2826 -1161.933 77.52745 220.4442 -1162.383 77.54169 220.6422 -1162.863 77.55439 220.8177 -1163.373 77.56547 220.9692 -1161.19 305.7891 204.6252 -1161.47 305.8048 204.848 -1161.344 328.3962 203.1688 -1161.763 305.8196 205.0572 -1161.695 328.4155 203.4417 -1162.073 305.8336 205.2544 -1162.064 328.4331 203.6922 -1162.513 305.8508 205.4983 -1162.462 328.4496 203.9262 -1162.875 328.4642 204.1353 -1159.324 77.36198 218.097 -1159.602 77.39277 218.5375 -1159.934 77.42232 218.959 -1160.321 77.45037 219.3577 -1160.761 77.47665 219.73 -1159.099 77.3302 217.6412 -1159.294 98.37294 216.6286 -1159.069 98.34056 216.1649 -1159.282 119.3855 215.1831 -1159.057 119.3525 214.7116 -1159.286 145.5137 213.4225 -1159.06 145.48 212.9409 -1159.308 191.6728 210.2463 -1159.084 191.6377 209.747 -1159.34 222.4441 208.1088 -1159.117 222.4083 207.5986 -1159.365 237.8315 207.0638 -1159.142 237.7953 206.5488 -1159.41 260.4343 205.5472 -1159.187 260.3976 205.0253 -1159.461 283.0361 204.016 -1159.24 282.9989 203.4877 -1159.303 305.5984 201.9239 -1159.735 283.0722 204.5276 -1159.685 260.4698 206.0525 -1159.642 237.8665 207.5627 -1159.618 222.4789 208.6028 -1159.587 191.7067 210.7296 -1159.565 145.5464 213.8883 -1159.562 119.4174 215.6392 -1159.573 98.40431 217.0771 -1158.96 305.4272 199.4867 -1159.031 328.0358 198.0569 -1158.955 305.4764 200.1882 -1159.03 328.0646 198.467 -1158.984 305.501 200.5394 -1159.056 328.0935 198.8766 -1159.054 305.5338 201.0058 -1159.109 328.1222 199.2844 -1159.16 305.5663 201.4681 -1159.189 328.1507 199.6884 -1159.295 328.1788 200.0867 -1158.781 77.16545 215.2608 -1158.748 77.18595 215.5585 -1158.743 77.22734 216.1583 -1158.772 77.2481 216.4586 -1158.844 77.27572 216.8573 -1158.953 77.30313 217.2522 -1159.553 305.2722 197.2692 -1159.594 327.871 195.7049 -1159.327 305.3081 197.7839 -1159.437 327.8965 196.0705 -1159.179 305.339 198.2263 -1159.305 327.9227 196.4457 -1159.068 305.3706 198.6786 -1159.195 327.9503 196.8405 -1158.992 305.4027 199.1383 -1159.113 327.9785 197.2419 -1159.058 328.007 197.6479 -1158.973 77.11203 214.4823 -1158.858 77.13848 214.8681 -1159.771 282.6433 198.4025 -1159.492 282.6771 198.8893 -1159.723 260.0473 200.0083 -1159.442 260.0804 200.4878 -1159.683 237.4507 201.6066 -1159.4 237.4832 202.0776 -1159.66 222.0676 202.7069 -1159.376 222.0998 203.1726 -1159.627 191.3045 204.9503 -1159.343 191.3359 205.4071 -1159.603 145.1593 208.3082 -1159.318 145.1895 208.7493 -1159.601 119.0397 210.1831 -1159.316 119.0691 210.6135 -1159.612 98.03337 211.7085 -1159.327 98.06216 212.1319 -1160.778 145.0806 207.1458 -1161.277 145.0591 206.8248 -1160.8 191.2224 203.7454 -1161.297 191.1999 203.4121 -1160.828 221.9836 201.4778 -1161.324 221.9606 201.1373 -1160.848 237.3654 200.362 -1161.342 237.342 200.0165 -1160.882 259.9601 198.7388 -1161.373 259.9361 198.3852 -1160.923 282.5544 197.1109 -1160.974 305.1476 195.4665 -1162.433 145.0251 206.3054 -1163.09 145.013 206.1146 -1162.45 191.1642 202.8712 -1163.106 191.1514 202.6714 -1162.472 221.9238 200.5836 -1163.139 237.291 199.2438 -1162.487 237.3046 199.4535 -1166.256 191.1408 202.4352 -1165.538 145.7578 216.8513 -1165.544 191.9277 213.8364 -1165.56 238.0967 210.807 -1164.765 98.60187 219.8458 -1164.762 145.7518 216.7743 -1164.77 191.9213 213.7503 -1164.791 238.0897 210.7109 -1164.037 98.59296 219.7284 -1164.033 145.7426 216.65 -1164.043 191.9114 213.616 -1164.069 238.0792 210.5659 -1163.363 191.8985 213.4365 -1162.844 98.56967 219.4108 -1162.852 191.886 213.2624 -1162.87 222.663 211.2056 -1162.363 98.55658 219.2295 -1162.355 119.5726 217.8332 -1162.358 145.7048 216.1275 -1162.371 191.8717 213.0631 -1162.391 222.6483 210.9989 -1162.408 238.0376 209.9828 -1162.438 260.643 208.5023 -1162.473 283.2476 207.0098 -1161.911 98.54195 219.0256 -1161.903 119.5577 217.6247 -1161.906 145.6896 215.9148 -1161.921 191.8558 212.84 -1161.942 222.6319 210.7684 -1161.96 238.0211 209.7497 -1161.993 260.6263 208.2665 -1162.03 283.2307 206.7706 -1161.594 98.5301 218.8596 -1161.585 119.5456 217.4551 -1161.588 145.6772 215.7417 -1161.604 191.8429 212.6589 -1161.626 222.6186 210.5816 -1161.645 238.0077 209.561 -1161.679 260.6127 208.0755 -1161.718 283.2169 206.577 -1161.292 98.51749 218.6824 -1161.283 119.5327 217.2743 -1161.286 145.6641 215.5573 -1161.303 191.8293 212.4662 -1161.327 222.6045 210.3831 -1161.346 237.9935 209.3605 -1161.382 260.5984 207.8726 -1161.423 283.2024 206.3712 -1161.005 98.50405 218.493 -1160.996 119.519 217.0811 -1160.999 145.6501 215.3602 -1161.017 191.8147 212.2605 -1161.042 222.5896 210.1716 -1161.062 237.9783 209.1468 -1161.099 260.5831 207.6563 -1161.141 283.1869 206.1521 -1160.735 98.48992 218.2936 -1160.725 119.5046 216.8778 -1160.729 145.6354 215.1527 -1160.747 191.7994 212.0442 -1160.773 222.5739 209.9495 -1160.794 237.9625 208.9225 -1160.832 260.567 207.4292 -1160.876 283.1706 205.922 -1160.294 98.46308 217.9133 -1160.283 119.4773 216.4903 -1160.287 145.6075 214.7572 -1160.306 191.7703 211.6325 -1160.334 222.544 209.5272 -1160.356 237.9323 208.496 -1160.396 260.5365 206.9975 -1160.443 283.1397 205.4846 -1159.906 98.43444 217.5065 -1159.895 119.4481 216.0762 -1159.899 145.5777 214.3344 -1159.92 191.7393 211.193 -1159.949 222.5123 209.077 -1159.972 237.9003 208.0414 -1160.014 260.504 206.5372 -1160.063 283.1068 205.0185 -1158.922 98.31301 215.7695 -1158.91 119.3245 214.3097 -1158.914 145.4513 212.5302 -1158.938 191.6079 209.3214 -1158.971 222.3778 207.1641 -1158.997 237.7645 206.11 -1159.043 260.3663 204.5808 -1159.096 282.9673 203.0375 -1158.813 98.28511 215.3683 -1158.801 119.2961 213.9019 -1158.805 145.4223 212.1135 -1158.829 191.5777 208.8897 -1158.863 222.347 206.7235 -1158.889 237.7333 205.6651 -1158.935 260.3347 204.1298 -1158.989 282.9352 202.5808 -1158.742 98.25701 214.9633 -1158.729 119.2675 213.4903 -1158.733 145.393 211.6928 -1158.758 191.5473 208.4541 -1158.792 222.3159 206.2791 -1158.818 237.7018 205.2163 -1158.865 260.3028 203.6748 -1158.919 282.9028 202.12 -1158.713 98.23588 214.6584 -1158.7 119.246 213.1805 -1158.704 145.3709 211.3761 -1158.729 191.5244 208.1261 -1158.764 222.2925 205.9446 -1158.789 237.6782 204.8786 -1158.836 260.2787 203.3322 -1158.89 282.8785 201.7731 -1158.717 98.19379 214.0495 -1158.705 119.2031 212.5619 -1158.708 145.327 210.7436 -1158.734 191.4788 207.4713 -1158.769 222.2459 205.2769 -1158.794 237.6311 204.2042 -1158.84 260.2309 202.648 -1158.894 282.8299 201.0799 -1158.751 98.17295 213.7474 -1158.739 119.1819 212.255 -1158.742 145.3053 210.4296 -1158.767 191.4562 207.1464 -1158.802 222.2228 204.9456 -1158.828 237.6077 203.8695 -1158.874 260.2072 202.3084 -1158.927 282.8058 200.7357 -1158.829 98.14553 213.349 -1158.817 119.154 211.8502 -1158.819 145.2767 210.0155 -1158.845 191.4265 206.7177 -1158.88 222.1924 204.5087 -1158.905 237.577 203.4281 -1158.95 260.1759 201.8602 -1159.003 282.7741 200.2815 -1158.943 98.11864 212.9576 -1158.932 119.1266 211.4526 -1158.934 145.2486 209.6086 -1158.96 191.3973 206.2965 -1158.994 222.1626 204.0793 -1159.019 237.5468 202.9942 -1159.063 260.1452 201.4195 -1159.116 282.7429 199.8346 -1159.095 98.09246 212.5755 -1159.084 119.1 211.0642 -1159.086 145.2212 209.211 -1159.112 191.3688 205.885 -1159.146 222.1335 203.6598 -1159.17 237.5173 202.5702 -1159.214 260.1152 200.9886 -1159.265 282.7124 199.3976 -1159.95 98.00628 211.3087 -1159.94 119.0122 209.7767 -1159.942 145.1309 207.8913 -1159.965 191.2749 204.5184 -1159.996 222.0374 202.2666 -1160.018 237.42 201.161 -1160.057 260.016 199.5544 -1160.103 282.6115 197.9411 -1160.341 97.9812 210.9364 -1160.332 118.9866 209.398 -1160.333 145.1046 207.5026 -1160.356 191.2474 204.1155 -1160.386 222.0093 201.8555 -1160.407 237.3915 200.7448 -1160.443 259.9868 199.1299 -1160.487 282.5817 197.5093 -1161.828 145.0405 206.5434 -1161.847 191.1805 203.1193 -1161.872 221.9406 200.8379 -1161.888 237.3217 199.7124 -1161.917 259.9151 198.073 -1162.513 259.8974 197.8062 -1163.801 145.0046 205.9749 -1163.814 191.1424 202.524 -1163.843 237.2813 199.0874 -1164.599 237.2757 198.9881 -1165.408 237.2745 198.95</float_array>
          <technique_common>
            <accessor source="#left_elevator-mesh-positions-array" count="524" stride="3">
              <param name="X" type="float"/>
              <param name="Y" type="float"/>
              <param name="Z" type="float"/>
            </accessor>
          </technique_common>
        </source>
        <source id="left_elevator-mesh-normals">
          <float_array id="left_elevator-mesh-normals-array" count="3828">-0.001643598 -0.9976425 0.06860691 -0.001665234 -0.9976359 0.0687018 -0.001429915 -0.997641 0.06863361 -0.001657128 -0.9976398 0.06864607 -0.001645207 -0.9976348 0.06871706 -0.001634359 -0.9976396 0.06864911 -0.001542508 -0.9976322 0.06875818 -0.001632153 -0.9976448 0.06857222 -0.001470565 -0.9976374 0.06868398 -0.001634895 -0.9976444 0.0685774 -0.001642465 -0.9976413 0.06862425 -0.001543641 -0.9976561 0.06841164 -0.0015437 -0.9976561 0.06841182 -0.001543641 -0.9976561 0.06841176 -0.001585245 -0.9976495 0.06850528 -0.001585185 -0.9976496 0.0685054 -0.001585185 -0.9976495 0.06850534 -0.00121349 -0.9976451 0.06857746 -0.001213669 -0.997645 0.0685777 -0.00121355 -0.9976451 0.06857758 -0.00136733 -0.9976087 0.06910175 -0.00173515 -0.9976453 0.06856346 -0.001633644 -0.9976408 0.06863099 -0.001496076 -0.9976385 0.06866633 -0.001725733 -0.9976409 0.06862676 -0.001501917 -0.99764 0.06864738 -0.001812934 -0.997624 0.0688712 -0.001812934 -0.997624 0.0688712 -0.001812875 -0.9976239 0.0688712 -0.001765251 -0.99764 0.06864047 -0.001466929 -0.9976384 0.06866961 -0.002192139 -0.9977096 0.06760782 -0.00228393 -0.9977119 0.0675708 -7.66834e-4 -0.9976695 0.06822854 -0.0020864 -0.9976741 0.06813317 -0.001164376 -0.9976673 0.06825441 -0.002078115 -0.9976704 0.06818765 -0.001179158 -0.9976614 0.06834119 -0.002022027 -0.9976664 0.06824791 -0.00123465 -0.9976629 0.06831783 -0.001998126 -0.9976604 0.06833589 -0.0012272 -0.9976594 0.0683698 -0.001946747 -0.9976603 0.06833809 -0.001280426 -0.9976555 0.06842488 -0.001943349 -0.9976562 0.06839841 -0.001298487 -0.9976557 0.06842154 -0.001904189 -0.9976558 0.06840598 -0.001322329 -0.9976494 0.06851255 -0.001875638 -0.9976561 0.06840264 -0.001336872 -0.9976476 0.06853789 -0.001853704 -0.9976531 0.0684455 -0.001352965 -0.997648 0.06853318 -0.001845061 -0.997649 0.06850624 -0.001373589 -0.9976493 0.06851458 -0.001792311 -0.9976459 0.06855231 -0.001437842 -0.9976266 0.06884247 -0.001437902 -0.9976266 0.06884247 -0.001437962 -0.9976266 0.06884247 -0.001811027 -0.9976442 0.06857717 -0.001384735 -0.9976451 0.06857496 -0.0017699 -0.9976463 0.06854707 -0.001441955 -0.9976453 0.06857049 -0.001804232 -0.9976425 0.0686022 -0.00140661 -0.9976416 0.06862616 -0.001747667 -0.997648 0.06852304 -0.001462519 -0.9976387 0.06866669 -0.001974165 -0.9979907 0.06333047 -0.002222895 -0.9979987 0.06319588 -3.14103e-4 -0.9978874 0.06496673 -0.002663016 -0.9979192 0.06442326 -3.5057e-4 -0.9978301 0.06584149 -0.002622783 -0.9978359 0.065701 -5.20261e-4 -0.9977658 0.0668075 -0.002538979 -0.9977747 0.06662899 -3.97841e-4 -0.9976845 0.06801152 -0.001069486 -0.9980627 0.06220853 -0.001547634 -0.9980791 0.06193441 -3.42382e-4 -0.9979899 0.0633732 -6.61093e-4 -0.9980576 0.06229519 -7.54627e-4 -0.9980604 0.06224912 -8.02816e-4 -0.9980649 0.06217586 -8.66868e-4 -0.9980242 0.06282514 -6.00066e-4 -0.9980313 0.06271666 -9.14655e-4 -0.9980543 0.06234598 -7.66697e-4 -0.9980209 0.06287914 -5.21327e-4 -0.9979812 0.06350827 -7.19218e-4 -0.9979811 0.06350827 -5.02248e-4 -0.9979182 0.06449079 -7.00858e-4 -0.9979154 0.06453251 -5.4229e-4 -0.9978142 0.06608051 -0.2024749 -0.07325941 -0.9765434 -0.2037242 -0.07328015 -0.976282 -0.2013373 -0.07328569 -0.9767766 -0.188694 -0.07311457 -0.9793104 -0.1395657 -0.07242208 -0.9875609 -0.1311679 -0.0723133 -0.9887193 -0.1156643 -0.07197046 -0.9906777 -0.1016462 -0.07175672 -0.9922294 -0.07953757 -0.07122945 -0.9942837 -0.01896977 -0.06976389 -0.9973832 -0.01674872 -0.06970578 -0.997427 0.006717741 -0.0690242 -0.9975925 0.01473474 -0.06871998 -0.9975272 0.01930081 -0.06860166 -0.9974575 0.02753573 -0.06829082 -0.9972854 0.02940285 -0.0682398 -0.9972356 0.04042804 -0.06786108 -0.9968754 0.0425871 -0.06777447 -0.9967914 0.04260271 -0.06774562 -0.9967926 0.04288691 -0.06779497 -0.9967772 0.04277908 -0.06778919 -0.9967822 0.04271358 -0.06781464 -0.9967832 0.04267925 -0.06778222 -0.996787 0.04273438 -0.06778103 -0.9967846 0.04274606 -0.06779259 -0.9967833 -0.2057189 -0.07331973 -0.9758607 -0.2057186 -0.07331693 -0.975861 -0.2056061 -0.0733124 -0.975885 -0.1647171 -0.07292228 -0.9836416 -0.1538327 -0.07262873 -0.9854242 -0.184398 -0.07310318 -0.9801293 -0.04382121 -0.07041472 -0.9965549 -0.04091483 -0.0703212 -0.996685 -0.06895077 -0.07105463 -0.9950865 -0.00636053 -0.06941348 -0.9975678 -0.007104933 -0.06944102 -0.9975608 0.002477705 -0.0691204 -0.9976053 -0.9994569 -0.0320537 0.007652699 -0.9994564 -0.03206747 0.007654249 -0.9994734 -0.0323795 0.002148807 -0.9994717 -0.03243333 0.002149999 -0.9994684 -0.03260332 -1.25207e-4 -0.9994684 -0.03260332 -1.25208e-4 -0.9994685 -0.03260326 -1.25207e-4 -0.9994673 -0.03263193 -6.01167e-4 -0.9994565 -0.0327959 -0.003358602 -0.9994382 -0.03186398 0.01039487 -0.9994389 -0.03184115 0.01039505 -0.999408 -0.03165036 0.01349455 -0.9994085 -0.03163385 0.01349204 -0.9993737 -0.03143537 0.01625341 -0.9993682 -0.0314356 0.01658308 -0.9993683 -0.0314356 0.01658308 -0.9993683 -0.0314356 0.01658314 -0.9993314 -0.03123515 0.01900482 -0.9993311 -0.03124648 0.01900231 -0.999282 -0.03109246 0.02165484 -0.1693467 0.06276059 0.9835563 -0.1765749 0.0623995 0.9823074 -0.1836115 0.06210434 0.9810351 -0.2223464 0.06037688 0.9730966 -0.2154182 0.06067395 0.9746351 -0.2130911 0.06080013 0.9751388 -0.1977357 0.06139099 0.9783311 -0.1912356 0.06171393 0.9796022 -0.1811498 0.06204438 0.9814965 -0.1719034 0.06245702 0.983132 -0.1642608 0.06269443 0.9844226 -0.1584195 0.06292754 0.9853646 -0.1497858 0.0631873 0.9866974 -0.1422165 0.06349456 0.987797 -0.1477471 0.06369245 0.9869722 -0.1477993 0.06368261 0.986965 -0.1477515 0.06369316 0.9869714 -0.1477352 0.06366032 0.9869761 -0.1479737 0.0636956 0.9869381 -0.1482185 0.06362688 0.9869057 -0.1475599 0.06370103 0.9869997 -0.1473913 0.06375724 0.9870212 -0.1524251 0.06351029 0.9862723 -0.162597 0.06302988 0.9846774 -0.191408 0.06172454 0.9795678 -0.1939543 0.06163746 0.9790723 -0.2067561 0.06106489 0.976485 -0.2052156 0.06111896 0.9768067 -0.2218899 0.06039994 0.9731993 -0.1301406 0.0638433 0.9894379 -0.1327967 0.06378787 0.9890886 -0.1214107 0.06415873 0.9905267 -0.1215913 0.06415975 0.9905045 -0.1098411 0.06446701 0.9918563 -0.1133627 0.06440985 0.9914638 -0.1038141 0.0646311 0.9924946 -0.1045925 0.06427061 0.9924364 -0.1115053 0.06428891 0.9916822 -0.07929408 0.06448483 0.9947634 -0.03350204 0.06489819 0.9973294 -0.07373905 0.06453895 0.9951871 0.01330989 0.06495893 0.9977993 -0.03518736 0.064906 0.9972709 0.05872136 0.06542462 0.9961282 0.08390486 0.06494665 0.9943551 0.04733347 0.06469839 0.9967817 0.1200237 0.06547164 0.9906099 0.1508911 0.06433027 0.9864551 0.09084582 0.06480944 0.9937539 0.1947752 0.0650658 0.9786874 0.2748253 0.06420326 0.9593483 0.7111728 0.049775 0.7012529 0.7554547 0.04707443 0.6535077 0.8337427 0.04048913 0.5506669 0.868258 0.03707832 0.4947257 0.9147379 -0.03061884 -0.4028858 0.7608008 -0.04822796 -0.6471911 0.8049144 -0.04437345 -0.5917297 0.8553951 -0.03464257 -0.5168161 0.6862798 -0.05390226 -0.7253375 0.7132763 -0.05234295 -0.6989257 0.7752829 -0.04347133 -0.6301165 0.6056112 -0.05913835 -0.7935602 0.6630148 -0.0557993 -0.7465239 0.7291277 -0.04765158 -0.6827167 0.5563363 -0.06206506 -0.8286363 0.5563363 -0.06206506 -0.8286362 0.5563363 -0.062065 -0.8286363 0.5740309 -0.05849123 -0.816742 0.3502715 -0.06977045 -0.9340461 0.3871896 -0.06884062 -0.9194266 0.4620612 -0.06399154 -0.8845365 0.4617701 -0.06407219 -0.8846826 0.4620612 -0.0639916 -0.8845365 0.4047015 -0.06643372 -0.9120325 0.1800052 -0.07341635 -0.9809222 0.2237719 -0.0729081 -0.9719108 0.2762931 -0.0702691 -0.9585011 0.3294014 -0.06915718 -0.9416539 0.09949898 -0.07430726 -0.9922593 0.1198112 -0.07433134 -0.9900102 0.1892765 -0.07220572 -0.9792654 0.02317869 -0.07476359 -0.9969319 0.07083278 -0.07474023 -0.9946843 0.1079953 -0.07342535 -0.9914363 -0.04849177 -0.07464885 -0.9960302 -0.02258026 -0.07493585 -0.9969328 0.04231369 -0.0741344 -0.9963502 -0.1035045 -0.07457894 -0.991829 -0.1035045 -0.07457894 -0.9918291 -0.1035045 -0.07457894 -0.9918291 -0.06647467 -0.07478398 -0.9949817 -0.05839598 -0.07427304 -0.9955268 -0.01689648 -0.07451653 -0.9970766 -0.1587721 -0.07396507 -0.9845409 -0.1479266 -0.07406467 -0.9862211 -0.113921 -0.07415902 -0.9907183 -0.03060257 0.06495171 0.9974191 -0.01286286 0.06525582 0.9977857 -0.01288598 0.06499183 0.9978027 0.01004785 0.06546437 0.9978043 0.005587279 0.06521332 0.9978558 0.02790504 0.06550651 0.997462 0.1354362 0.06489521 0.9886586 0.3183712 0.06187915 0.9459444 0.3067717 0.06185692 0.9497709 0.3402854 0.06177395 0.938291 0.3359075 0.06199145 0.9398528 0.3523568 0.06202811 0.9338079 0.3523086 0.0628432 0.9337717 0.7955143 0.04335421 0.6043819 0.9253632 0.02917945 0.3779571 0.882921 -0.03521555 -0.4681991 0.7606167 -0.04830062 -0.6474021 0.8180378 -0.03932583 -0.5738185 0.60861 -0.05890589 -0.7912801 0.6798783 -0.05191981 -0.7314847 0.5178323 -0.06146931 -0.8532709 0.3329822 -0.0704801 -0.9402955 0.3494248 -0.06831282 -0.9344708 0.1712649 -0.07361066 -0.9824714 0.02300685 -0.07474893 -0.996937 0.03791093 -0.07466447 -0.9964879 -0.009903788 -0.07440805 -0.9971787 -0.1138557 -0.07413756 -0.9907273 0.5246058 -0.06350511 -0.8489734 0.5319352 -0.06295102 -0.8444419 0.4992043 -0.06462973 -0.8640706 0.4441291 -0.06679862 -0.8934694 0.4375838 -0.06694954 -0.8966818 -0.07816892 0.06478935 0.9948326 -0.08646464 0.06479865 0.9941455 -0.03552168 0.0649513 0.9972561 -0.06073647 0.06508511 0.9960297 -0.01803404 0.06506097 0.9977184 0.3547562 0.06271356 0.9328532 0.3426684 0.06304228 0.9373388 0.2827267 0.06398177 0.9570643 0.5436459 0.05508244 0.8375054 0.5439272 0.05505275 0.8373247 0.5436459 0.05508238 0.8375052 0.5438541 0.05508327 0.83737 0.475969 0.05811023 0.8775402 0.5001096 0.05670356 0.8641037 0.5001096 0.05670362 0.8641037 0.5001096 0.05670356 0.8641036 0.425673 0.05983704 0.9028966 0.4550339 0.05819648 0.8885704 0.3762595 0.0613203 0.924483 0.3762595 0.06132024 0.924483 0.4036735 0.05983263 0.9129446 0.3261222 0.06216812 0.9432812 0.3441331 0.06140321 0.936911 0.277311 0.06305569 0.9587088 0.2855176 0.06264448 0.956324 0.2286759 0.06365162 0.9714196 0.2208302 0.06387335 0.9732186 0.181635 0.06405705 0.9812775 0.6235402 0.05548191 0.7798202 0.6642068 0.05173015 0.7457569 0.581924 0.05699622 0.8112435 0.6146974 0.05440688 0.7868844 0.5374929 0.05848163 0.8412381 0.5374928 0.05848163 0.8412381 0.5374928 0.05848157 0.841238 0.5625692 0.05681955 0.8247954 0.4859871 0.06007283 0.871899 0.4859871 0.06007283 0.8718991 0.4859871 0.06007283 0.871899 0.5078023 0.0586524 0.8594748 0.4244539 0.06192028 0.9033299 0.4526481 0.0601114 0.8896609 0.3968127 0.06226533 0.9157854 0.8380879 0.03622728 0.5443311 0.8462767 0.03512489 0.5315845 0.7833312 0.04104733 0.620248 0.7863229 0.04069584 0.616474 0.7090576 0.04667228 0.7036043 0.7184358 0.04575824 0.6940867 0.6285691 0.05165457 0.7760366 0.6468266 0.04993957 0.7610002 0.5877903 0.05343633 0.8072467 0.5877903 0.05343633 0.8072467 0.8786008 0.03127622 0.4765317 0.8970547 0.02921116 0.440953 0.8970741 0.02953535 0.4408921 0.9000927 0.02927273 0.4347141 0.9002389 0.02925193 0.4344128 0.9002389 0.02925199 0.4344128 0.9001268 0.02938026 0.4346361 0.9028411 0.02918243 0.428983 0.9028337 0.02904611 0.4290078 0.9057764 0.02875894 0.4227792 0.9057764 0.02875888 0.4227792 0.9057763 0.02875888 0.4227792 0.9056276 0.02955538 0.4230428 0.9127631 0.02867537 0.4074817 0.9127688 0.02925652 0.4074276 0.9167258 0.0287984 0.3984779 0.9167248 0.02855718 0.3984976 0.9178752 0.02847695 0.3958463 0.9178752 0.02847695 0.3958463 0.9178752 0.02847886 0.3958461 0.9180063 0.02834272 0.3955517 0.9199017 0.02819734 0.3911342 0.9199011 0.02857631 0.3911081 0.9228357 0.02829873 0.3841527 0.9228348 0.02893716 0.3841077 0.9258219 0.02869939 0.376869 0.925831 0.02916234 0.3768111 0.8985973 0.03341031 0.4375005 0.8852629 0.03467005 0.4637972 0.8852494 0.03434187 0.4638473 0.8819795 0.03458374 0.4700172 0.882139 0.03381127 0.4697741 0.882139 0.03381133 0.4697741 0.882139 0.03381127 0.469774 0.87883 0.03406578 0.4759175 0.8788139 0.03371274 0.4759724 0.8748111 0.03394961 0.4832733 0.8748034 0.03426498 0.4832649 0.8719286 0.03439545 0.4884235 0.8719278 0.03484141 0.4883933 0.8666496 0.03527981 0.4976685 0.8666328 0.03464037 0.4977427 0.8583831 0.03542643 0.5117846 0.858403 0.03461849 0.5118067 0.8528361 0.03499275 0.5210049 0.8531157 0.03536057 0.5205223 0.8531157 0.03536051 0.5205223 0.8531156 0.03536057 0.5205223 0.8494787 0.03553652 0.526425 0.8494787 0.03553658 0.5264249 0.8494787 0.03553652 0.526425 0.8497548 0.0355342 0.5259792 0.8462775 0.0357688 0.5315403 0.9999709 0.00269699 -0.007148265 0.9999918 0.003119528 -0.002600431 0.9966061 0.009549498 0.08176356 0.9966061 0.009549558 0.08176356 0.9966061 0.009549558 0.08176356 0.997996 0.007746815 0.06280171 0.9980134 0.007902801 0.06250512 0.9889978 0.01399892 0.1472665 0.9889484 0.01399755 0.1475984 0.9889978 0.01399904 0.1472665 0.9917035 0.01218187 0.1279684 0.9748419 0.01926833 0.222063 0.9810037 0.01651757 0.1932848 0.9543137 0.02466809 0.297787 0.9664186 0.02051383 0.2561534 0.9664186 0.02051383 0.2561534 0.9664555 0.02049571 0.2560155 0.9484673 0.02538007 0.3158571 0.9990813 -0.003975272 -0.04267096 0.9991016 -0.00391066 -0.04219639 0.9939507 -0.01021754 -0.1093511 0.9996522 9.15209e-4 0.02636122 0.9996609 9.07177e-4 0.02602583 0.999964 -0.002271413 -0.008184373 0.9948857 0.005344927 0.1008667 0.9954046 0.004978299 0.09562939 0.9954046 0.004978239 0.09562939 0.9953727 0.005040645 0.09595757 0.9838901 0.01085799 0.178445 0.9841173 0.01075619 0.1771933 0.9841429 0.01074331 0.1770523 0.9841428 0.01074534 0.1770522 0.9664608 0.01618039 0.2563041 0.9641131 0.01692694 0.2649516 0.9427044 0.02145123 0.332939 0.9364966 0.02282392 0.349933 0.9133842 0.0264517 0.4062386 0.9133841 0.02645176 0.4062386 0.9135202 0.0264011 0.405936 0.8724699 -0.03283363 -0.4875637 0.8898978 -0.02989453 -0.4551794 0.916062 -0.02602463 -0.4001916 0.9159275 -0.02605891 -0.400497 0.919235 -0.02527266 -0.3928973 0.9485988 -0.01936477 -0.3158884 0.9436048 -0.02076613 -0.3304224 0.9713267 -0.01334565 -0.2373739 0.9634862 -0.01631271 -0.2672606 0.9633982 -0.0163998 -0.2675725 0.9866466 -0.007707417 -0.162693 0.9798466 -0.01148724 -0.1994211 0.9958236 -0.002318501 -0.09126925 0.9958236 -0.002318441 -0.09126925 0.9958236 -0.002318501 -0.09126925 0.991012 -0.006566524 -0.1336123 0.997816 -0.001029491 -0.06604695 0.9427244 -0.02493244 -0.33264 0.9285799 -0.0284242 -0.3700426 0.9645183 -0.02015948 -0.2632458 0.9645183 -0.02015942 -0.2632458 0.9644803 -0.02018111 -0.2633827 0.958517 -0.02205145 -0.2841811 0.9817407 -0.01513749 -0.1896209 0.9813836 -0.01528316 -0.1914489 0.9926708 -0.01026773 -0.1204136 0.8722851 -0.03281444 -0.4878956 0.872285 -0.03281444 -0.4878956 0.8722851 -0.03281438 -0.4878956 0.8681855 -0.03317052 -0.4951299 0.8679327 -0.03331822 -0.4955631 0.8679327 -0.03331828 -0.4955631 0.8679327 -0.03331822 -0.4955631 0.8632975 -0.03369957 -0.5035693 0.863278 -0.03412765 -0.5035736 0.8576337 -0.03447842 -0.513104 0.8576464 -0.03542852 -0.5130181 0.8543836 -0.03554856 -0.5184257 0.8541331 -0.03690528 -0.5187434 0.8541331 -0.03690534 -0.5187434 0.8541331 -0.03690534 -0.5187433 0.8497568 -0.03728187 -0.5258548 0.8497473 -0.03780221 -0.5258333 0.8405734 -0.03866571 -0.5403161 0.8405889 -0.0386936 -0.5402898 0.8343533 -0.03916096 -0.5498372 0.8343313 -0.04035347 -0.5497844 0.8301157 -0.04063498 -0.5561087 0.8301147 -0.04181408 -0.5560227 0.8275216 -0.04201751 -0.5598594 0.8274913 -0.04172098 -0.5599263 0.8467272 -0.03984528 -0.5305333 0.5246946 -0.06223058 -0.849013 0.5418159 -0.06168705 -0.8382304 0.5417972 -0.06152099 -0.8382548 0.5579171 -0.06098031 -0.8276534 0.5579172 -0.06051325 -0.8276875 0.5667965 -0.06028127 -0.8216495 0.5667659 -0.05886393 -0.8217735 0.5740143 -0.05882883 -0.8167293 0.574006 -0.05782574 -0.8168068 0.5853419 -0.05759441 -0.8087384 0.5852961 -0.05720537 -0.8087992 0.5955181 -0.05701428 -0.8013162 0.5955644 -0.05699414 -0.8012833 0.6105945 -0.0566225 -0.7899168 0.6275166 -0.05514097 -0.7766483 0.6275166 -0.05514103 -0.7766483 0.6275165 -0.05514097 -0.7766483 0.2776545 -0.07190942 -0.9579859 0.2776545 -0.07190948 -0.9579859 0.2776545 -0.07190948 -0.9579859 0.2637673 -0.07195031 -0.9618992 0.2637111 -0.07131427 -0.9619619 0.2794088 -0.07119661 -0.957529 0.279468 -0.07117825 -0.9575131 0.2918159 -0.07106161 -0.9538311 0.2917872 -0.0707314 -0.9538644 0.288538 -0.07071739 -0.9548534 0.3067298 -0.06946069 -0.9492587 -0.1083297 -0.07447069 -0.9913218 -0.1342991 -0.07420635 -0.9881585 -0.1418431 -0.07406044 -0.9871148 -0.1034533 -0.07409214 -0.9918709 -0.07530575 -0.07430166 -0.9943885 -0.07523781 -0.07440233 -0.9943861 -0.09327721 -0.07421392 -0.9928705 -0.09333604 -0.07451689 -0.9928423 -0.1869444 -0.07360148 -0.9796095 -0.1935012 -0.0735771 -0.9783373 -0.1935012 -0.07357716 -0.9783372 -0.1935012 -0.07357716 -0.9783372 -0.195598 -0.07334923 -0.9779373 -0.1607306 -0.0737192 -0.9842415 -0.2033851 -0.07299309 -0.9763742 -0.2033851 -0.07299304 -0.9763742 -0.2033851 -0.07299309 -0.9763742 -0.1491582 -0.07395756 -0.9860438 -0.09654396 0.06452906 0.9932348 -0.1046414 0.06449937 0.9924163 -0.06066429 0.06480264 0.9960525 -0.07579058 0.06475895 0.9950187 -0.02914893 0.06493037 0.9974641 -0.03346812 0.06476134 0.9973394 -0.03061735 0.06471008 0.9974344 -0.07578903 0.06459057 0.9950297 0.02789378 0.06478393 0.9975094 0.03272354 0.06484389 0.9973587 0.03275048 0.06496202 0.9973502 0.04243493 0.06511837 0.9969749 0.04238367 0.06523436 0.9969695 0.05419731 0.06539356 0.9963867 0.05418533 0.06490623 0.9964192 0.0585162 0.06500315 0.996168 0.05846387 0.06541812 0.9961439 0.08390879 0.06526571 0.9943338 0.09228712 0.06553637 0.9935734 0.09226286 0.06461584 0.993636 0.09906834 0.06468063 0.9929763 0.09900552 0.06484889 0.9929717 0.1107841 0.06495827 0.9917194 0.1108379 0.06509357 0.9917045 0.1243613 0.06525832 0.9900887 0.1243298 0.06464034 0.9901332 0.1307995 0.06466871 0.9892975 0.1308011 0.06528806 0.9892566 0.150948 0.06501257 0.9864017 0.1596524 0.06522226 0.9850164 0.1596568 0.06415987 0.9850854 0.1685116 0.06420487 0.9836065 0.1686024 0.064453 0.9835746 0.1820901 0.06452232 0.9811627 0.1820904 0.0646795 0.9811522 0.1974726 0.06471598 0.97817 0.1973909 0.06405544 0.9782299 0.2056118 0.06404715 0.9765356 0.2055584 0.06481611 0.9764961 0.2208558 0.06440514 0.9731777 0.2297869 0.06458616 0.9710956 0.2298458 0.06339806 0.9711599 0.2404978 0.06340426 0.9685767 0.2403814 0.06371515 0.9685851 0.2559244 0.06366604 0.9645981 0.2558117 0.0638929 0.964613 0.2721306 0.06384158 0.9601402 0.2720774 0.06304901 0.9602077 0.2828934 0.06304913 0.9570769 0.2855139 0.06349349 0.9562691 0.2942028 0.06359678 0.9536249 0.2942817 0.0630325 0.953638 0.3066973 0.06272459 0.9497382 0.3232548 0.06255978 0.9442419 0.3232554 0.06281393 0.9442248 0.3601554 0.06239092 0.9308037 0.3403233 0.06214058 0.9382531 0.3441915 0.06239885 0.9368237 0.3534197 0.06238937 0.9333821 0.3534981 0.0616886 0.933399 0.3608632 0.06175893 0.9305717 0.3608632 0.06175893 0.9305717 0.3608632 0.06175887 0.9305717 0.3605106 0.06064444 0.9307817 0.3672029 0.06063568 0.9281624 0.3671224 0.06152033 0.928136 0.3836947 0.06125414 0.9214263 0.3836417 0.06182277 0.9214103 0.3971178 0.06167608 0.9156929 0.3971691 0.06071907 0.9157347 0.4022177 0.06074589 0.9135266 0.4022572 0.06022268 0.9135439 0.4019501 0.06022071 0.9136793 0.4019501 0.06022065 0.9136792 0.4076609 0.06022918 0.9111449 0.4076625 0.06058168 0.9111208 0.4147182 0.0605241 0.9079349 0.4147182 0.06052404 0.9079349 0.4147182 0.0605241 0.9079349 0.4150842 0.06121158 0.9077215 0.4244534 0.06117117 0.9033811 0.4036089 0.06099855 0.9128959 0.4120621 0.06091207 0.9091174 0.4120612 0.06025773 0.9091615 0.4197744 0.06023377 0.9056277 0.4196988 0.05915468 0.9057338 0.4266936 0.05910962 0.9024626 0.4266146 0.06000983 0.9024405 0.4450627 0.05965381 0.8935104 0.4450447 0.06022119 0.8934812 0.457535 0.0600205 0.8871637 0.4575367 0.05911177 0.8872237 0.4620825 0.05906385 0.884868 0.4620825 0.05906379 0.884868 0.4620825 0.05906385 0.884868 0.4623233 0.05857938 0.8847744 0.4690985 0.05848759 0.8812071 0.4690314 0.05889624 0.8812156 0.4759963 0.05887907 0.8774741 0.4763574 0.05954968 0.8772329 0.4760646 0.05951875 0.8773939 0.4856258 0.059408 0.8721459 0.4551459 0.05951404 0.8884257 0.4647703 0.05934268 0.8834405 0.4647709 0.05869525 0.8834834 0.4715056 0.05860066 0.8799139 0.4715591 0.05762636 0.8799496 0.478987 0.05749285 0.8759372 0.478946 0.05849897 0.8758931 0.4970616 0.05800205 0.8657746 0.4969302 0.05862802 0.8658079 0.4973448 0.05865067 0.8655683 0.5099787 0.05831652 0.858208 0.5099158 0.05741399 0.8583062 0.5146743 0.05734807 0.8554658 0.5146742 0.05734807 0.8554658 0.5146743 0.05734807 0.8554658 0.5147985 0.05688363 0.8554221 0.5206971 0.05676442 0.8518523 0.5206968 0.05720394 0.8518231 0.5281705 0.05707567 0.847218 0.5281729 0.05780923 0.8471667 0.5375738 0.05761623 0.8412461 0.5375737 0.05761617 0.8412461 0.5375737 0.05761617 0.8412461 0.4997731 0.05795437 0.8642154 0.5067368 0.05772477 0.8601661 0.5067369 0.05772477 0.8601661 0.5067368 0.05772483 0.8601661 0.5071234 0.05725157 0.8599699 0.5145812 0.05709886 0.8555384 0.5148512 0.05615556 0.8554384 0.5148512 0.05615121 0.8554388 0.5148512 0.05615121 0.8554388 0.5217705 0.05594319 0.8512497 0.5217705 0.05594319 0.8512497 0.5217705 0.05594319 0.8512497 0.5220549 0.05695629 0.8510081 0.5402188 0.05643016 0.8396304 0.5399832 0.05708241 0.839738 0.5402623 0.05701881 0.8395628 0.5398637 0.05710977 0.8398129 0.5539287 0.05667078 0.8306331 0.5539279 0.0557453 0.8306963 0.557913 0.05576491 0.8280238 0.557989 0.05528432 0.828005 0.5650185 0.05508869 0.8232372 0.5650981 0.05553382 0.8231527 0.573142 0.05533784 0.8175854 0.5732226 0.05611252 0.8174762 0.5819233 0.0558598 0.8113231 0.5438783 0.05621749 0.837279 0.5519036 0.05604505 0.8320225 0.5515038 0.05607312 0.8322857 0.5518785 0.05551713 0.8320746 0.5518785 0.0555185 0.8320745 0.5518785 0.0555185 0.8320745 0.5594668 0.05537086 0.8270012 0.5596749 0.05448424 0.8269193 0.5596749 0.05448424 0.8269194 0.5596749 0.05448424 0.8269194 0.5667304 0.05413448 0.8221231 0.5667303 0.05413448 0.8221231 0.5667303 0.05413454 0.8221231 0.567021 0.05521786 0.8218505 0.5849095 0.05458831 0.8092596 0.584872 0.05521893 0.8092439 0.596624 0.05477839 0.8006492 0.596624 0.05477839 0.8006492 0.5966241 0.05477833 0.8006492 0.596735 0.05392509 0.8006246 0.596735 0.05392509 0.8006246 0.5970042 0.05391043 0.8004248 0.6022107 0.05383235 0.7965202 0.6022443 0.05336725 0.796526 0.6080108 0.05319637 0.7921447 0.6080883 0.05373662 0.7920486 0.6144959 0.05345928 0.7871067 0.6144946 0.05433356 0.7870479 0.6236128 0.05403357 0.7798639 0.5879686 0.05432009 0.8070578 0.5953215 0.05410754 0.8016638 0.595146 0.05356448 0.8018305 0.6010848 0.05342894 0.7973973 0.6011033 0.05259376 0.797439 0.6102666 0.05226868 0.79047 0.610296 0.0533142 0.7903774 0.6260845 0.05263084 0.777977 0.6261956 0.05329513 0.7778424 0.6375777 0.05285191 0.768571 0.6375811 0.05203628 0.7686238 0.6427606 0.05186617 0.7643094 0.6428203 0.05148351 0.7642849 0.6489297 0.05126196 0.7591195 0.6489307 0.05175346 0.7590855 0.6565424 0.05150133 0.7525289 0.6564741 0.05227249 0.7525352 0.6652697 0.05189961 0.7447971 0.6652679 0.05248087 0.744758 0.6467832 0.05120664 0.760953 0.6539782 0.05101871 0.7547911 0.6537248 0.05101299 0.755011 0.6537248 0.05101293 0.7550111 0.6539763 0.05056124 0.7548236 0.660124 0.05038779 0.7494648 0.6600998 0.04957401 0.7495403 0.6678222 0.04935485 0.7426828 0.6678476 0.05026805 0.7425987 0.6832726 0.04956638 0.7284791 0.683272 0.05014729 0.7284399 0.6941917 0.04975938 0.7180683 0.694193 0.04886394 0.7181285 0.6985678 0.04885214 0.7138743 0.6984552 0.04833751 0.7140195 0.7044749 0.0482046 0.70809 0.7044757 0.04859054 0.708063 0.7118682 0.04842001 0.700642 0.7118681 0.04841995 0.7006421 0.7118682 0.04842001 0.700642 0.7115687 0.0490725 0.7009008 0.7191843 0.04883736 0.6931009 0.7191841 0.04911601 0.6930814 0.718393 0.04682177 0.69406 0.7246345 0.04660701 0.6875556 0.7246345 0.04660707 0.6875556 0.7246345 0.04660707 0.6875556 0.7244461 0.04618382 0.6877827 0.7308321 0.04600679 0.681005 0.7308321 0.04600685 0.681005 0.7308321 0.04600679 0.681005 0.7305469 0.04532694 0.6813566 0.7375301 0.04503703 0.6738108 0.7376007 0.04590719 0.6736749 0.7520657 0.04510807 0.6575427 0.7520409 0.0456953 0.6575307 0.7607768 0.04520362 0.6474375 0.7607551 0.04448497 0.6475128 0.7649208 0.04441243 0.6425915 0.7649208 0.04441237 0.6425915 0.7649208 0.04441243 0.6425915 0.7647039 0.04394227 0.6428817 0.7703273 0.04377347 0.6361446 0.7703561 0.0441848 0.6360812 0.7758204 0.04394811 0.6294216 0.77582 0.04464596 0.6293729 0.7816948 0.04441124 0.622078 0.7816912 0.04512214 0.6220312 0.7863103 0.04156297 0.6164321 0.7909762 0.04135906 0.6104474 0.7909774 0.04112482 0.6104618 0.7960915 0.04088729 0.6037935 0.796114 0.04037153 0.6037986 0.801236 0.04010188 0.5970033 0.8012178 0.04101002 0.5969659 0.8128559 0.04012572 0.5810811 0.8128655 0.04074293 0.5810247 0.8130576 0.04078692 0.5807529 0.8130576 0.04078692 0.580753 0.8206129 0.04019719 0.5700689 0.8209412 0.03958564 0.569639 0.8208865 0.03958505 0.5697178 0.8208865 0.03958505 0.5697178 0.824024 0.03949421 0.5651767 0.8237426 0.03916752 0.5656095 0.8238241 0.03915899 0.5654913 0.8237426 0.0391674 0.5656095 0.8280708 0.03895354 0.5592687 0.8280698 0.0393759 0.5592405 0.8318492 0.03913325 0.5536205 0.8321121 0.03917831 0.5532222 0.8321122 0.03985255 0.5531736 0.8386591 0.03946161 0.5432255 0.8386348 0.03979003 0.5432389 0.93651 0.02324569 0.3498693 0.9377598 0.02312344 0.346514 0.9377598 0.02312338 0.3465139 0.9377598 0.0231235 0.346514 0.9375286 0.02341353 0.3471196 0.9394255 0.02322071 0.3419659 0.9394438 0.02330344 0.34191 0.9423471 0.0228759 0.3338545 0.9423791 0.02287077 0.3337643 0.942347 0.02288472 0.3338539 0.9424606 0.02355122 0.3334867 0.9424606 0.02355128 0.3334867 0.9424607 0.02355122 0.3334867 0.946139 0.02293497 0.3229473 0.9461457 0.02355355 0.3228835 0.9482628 0.02323639 0.3166349 0.9482628 0.02323633 0.3166349 0.9482628 0.02323639 0.3166349 0.9481628 0.02318894 0.3169379 0.9497123 0.0230028 0.3122779 0.9498233 0.02294242 0.3119447 0.9498233 0.02294242 0.3119447 0.9498233 0.02294242 0.3119447 0.9516078 0.02269017 0.3064767 0.9514961 0.02309656 0.3067927 0.9514961 0.02309656 0.3067927 0.9514961 0.02309656 0.3067927 0.9527269 0.02291035 0.3029633 0.952726 0.02359288 0.3029134 0.9543095 0.02338725 0.2979034 0.964203 0.01729029 0.2646012 0.964203 0.01729023 0.2646012 0.964203 0.01729023 0.2646012 0.9652482 0.01705372 0.2607783 0.9651604 0.01707977 0.2611011 0.9651228 0.01708585 0.2612398 0.9652554 0.01758044 0.2607163 0.9662245 0.01737338 0.2571157 0.9662356 0.01767289 0.2570533 0.967598 0.01740497 0.2518952 0.9675992 0.01799088 0.2518495 0.9697056 0.01750028 0.2436491 0.9697088 0.01810795 0.2435922 0.9713611 0.01779085 0.2369412 0.9713647 0.01791149 0.2369174 0.9719709 0.01778066 0.234428 0.9718922 0.01783442 0.2347497 0.9718891 0.01785004 0.2347614 0.9719681 0.0178442 0.2344353 0.9726192 0.01771265 0.2317288 0.9726954 0.01811188 0.2313777 0.9726955 0.01811188 0.2313777 0.9726955 0.01811182 0.2313777 0.97373 0.01787918 0.2270026 0.9737283 0.01854389 0.2269569 0.9748405 0.01827257 0.2221534 0.9842005 0.01110363 0.1767095 0.9841411 0.01110917 0.1770398 0.984141 0.01110917 0.1770397 0.985034 0.0108267 0.1720196 0.9850305 0.01147472 0.1719976 0.9851059 0.01137423 0.1715722 0.9851601 0.01146864 0.1712548 0.9851047 0.01186412 0.1715465 0.9857265 0.01172441 0.1679463 0.9857273 0.01228457 0.1679011 0.9871104 0.01177191 0.1596076 0.9871104 0.01177185 0.1596076 0.9871104 0.01177185 0.1596076 0.9870722 0.01234292 0.1597999 0.9870723 0.01234292 0.1597999 0.9870722 0.01234287 0.1597999 0.9875647 0.01214098 0.1567443 0.9875625 0.01242256 0.1567357 0.9878019 0.01237267 0.1552236 0.9878038 0.01256281 0.1551964 0.9883925 0.01234459 0.1514198 0.9883925 0.01234459 0.1514198 0.9883925 0.01234459 0.1514198 0.9884417 0.01270586 0.151069 0.9887282 0.0126174 0.149189 0.9887248 0.01321834 0.1491593 0.9889528 0.01317566 0.1476443 0.995436 0.005329191 0.09528356 0.995436 0.005329191 0.09528356 0.9954359 0.005329191 0.0952835 0.9955649 0.005262255 0.09392994 0.9955649 0.005262255 0.09392994 0.9955649 0.005262255 0.09392994 0.9955427 0.005990445 0.09412246 0.9955427 0.005990266 0.09412252 0.9955427 0.005990326 0.09412246 0.9956576 0.005918502 0.0929026 0.9956576 0.005918502 0.0929026 0.9956576 0.005918443 0.0929026 0.9956583 0.006540536 0.09285414 0.9956583 0.006540417 0.09285414 0.9956583 0.006540477 0.09285414 0.9958735 0.006375551 0.09052807 0.9958431 0.006426036 0.09085845 0.9958736 0.006918489 0.09048753 0.9961189 0.006714105 0.08776199 0.9961175 0.00738573 0.08772397 0.9965401 0.007027328 0.08281606 0.9965401 0.007027328 0.08281606 0.9965401 0.007027328 0.08281606 0.9965114 0.00745666 0.08312332 0.9963366 0.007454812 0.08519369 0.9963363 0.007834374 0.08516323 0.9964384 0.007849156 0.08395838 0.9964107 0.008139193 0.08425909 0.9964107 0.008139193 0.08425909 0.9964107 0.008139193 0.08425909 0.9965269 0.008090257 0.0828787 0.9965632 0.008663356 0.08238285 0.9965632 0.008663356 0.08238285 0.9965632 0.008663356 0.08238291 0.9966371 0.008542239 0.08149558 0.9999643 -0.002024292 -0.008204817 0.9999771 -0.001956045 -0.00648117 0.9999781 -0.001072943 -0.006541073 0.9999673 -0.00112152 -0.008011281 0.9999674 -3.90894e-4 -0.008062422 0.999978 -3.32238e-4 -0.006633341 0.999978 -3.32328e-4 -0.006633341 0.999978 -3.3219e-4 -0.006633341 0.9999788 1.06762e-4 -0.006518185 0.9999788 1.06764e-4 -0.006518185 0.9999788 1.06725e-4 -0.006518185 0.9999708 3.21555e-5 -0.007644653 0.9999703 6.27031e-4 -0.007684528 0.9999715 6.14901e-4 -0.007537484 0.9999708 0.001117467 -0.00757277 0.9999713 0.001123845 -0.007497727 0.9999704 0.001561999 -0.007529318 0.9999818 0.001618504 -0.005823373 0.999981 0.001995682 -0.00584805 0.9999803 0.00200057 -0.005949616 0.999979 0.002481281 -0.005983293 0.9999717 0.00240612 -0.007130026 0.9939542 -0.009343385 -0.1093974 0.9937704 -0.009414017 -0.1110497 0.9937331 -0.009471714 -0.1113781 0.9937863 -0.009389281 -0.1109089 0.9937346 -0.008444666 -0.1114462 0.993932 -0.008365333 -0.109678 0.9939684 -0.008390426 -0.1093454 0.9939163 -0.008354544 -0.1098206 0.9939703 -0.007470726 -0.1093945 0.9941966 -0.007362186 -0.1073263 0.9941965 -0.007067084 -0.1073482 0.9948807 -0.006641089 -0.1008383 0.9948815 -0.00609225 -0.1008657 0.9951114 -0.005928874 -0.09858137 0.9951103 -0.005312263 -0.09862726 0.9949223 -0.005304574 -0.1005057 0.9949218 -0.004889547 -0.1005332 0.9950634 -0.004803657 -0.09912526 0.9950634 -0.004803657 -0.09912526 0.9950634 -0.004803657 -0.09912526 0.9950302 -0.004536032 -0.09947174 0.9954661 -0.004290759 -0.09502118 0.9954649 -0.003793299 -0.09505456 0.9957982 -0.003564298 -0.09150522 0.9813873 -0.01517158 -0.1914387 0.9814478 -0.01515704 -0.19113 0.9815127 -0.01415663 -0.1908729 0.9815128 -0.01415663 -0.1908729 0.9815128 -0.01415657 -0.1908729 0.9820147 -0.01394456 -0.1882894 0.982023 -0.01306265 -0.188309 0.9832153 -0.01271969 -0.1820057 0.9832792 -0.01241332 -0.1816809 0.9832792 -0.01241326 -0.1816809 0.9832792 -0.01241326 -0.1816809 0.9839231 -0.01215404 -0.1781792 0.983922 -0.01159852 -0.1782225 0.984506 -0.01149404 -0.1749743 0.9845074 -0.01060366 -0.1750222 0.9845659 -0.01054722 -0.1746966 0.9845659 -0.01054722 -0.1746966 0.9851809 -0.0104686 -0.1711987 0.985179 -0.009791314 -0.1712502 0.9860195 -0.009578227 -0.1663545 0.9860188 -0.009247124 -0.1663772 0.9863312 -0.009199261 -0.1645183 0.9863328 -0.008801519 -0.1645302 0.9866515 -0.008722007 -0.1626127 0.9585149 -0.02192282 -0.2841982 0.9602758 -0.02153301 -0.2782207 0.960276 -0.02045494 -0.2783017 0.960812 -0.02025908 -0.2764598 0.9608072 -0.01928442 -0.2765461 0.9624778 -0.01909643 -0.2706877 0.9624797 -0.01885211 -0.270698 0.9649221 -0.0182352 -0.2619026 0.9649332 -0.01768958 -0.2618988 0.9666609 -0.01738494 -0.2554693 0.9666658 -0.01635283 -0.2555191 0.9673184 -0.01626509 -0.2530428 0.96732 -0.01562666 -0.2530768 0.9687195 -0.01533859 -0.247684 0.9688367 -0.01502841 -0.2472441 0.9688367 -0.01502835 -0.2472441 0.9688367 -0.01502841 -0.2472441 0.9696086 -0.01485854 -0.2442097 0.9697478 -0.01453858 -0.2436757 0.9697478 -0.01453852 -0.2436757 0.9697478 -0.01453858 -0.2436757 0.9713342 -0.01419872 -0.237294 0.9285711 -0.0282343 -0.3700793 0.9294892 -0.02807593 -0.3677794 0.9294909 -0.02686631 -0.3678653 0.9316049 -0.02656775 -0.3625002 0.9316051 -0.02656775 -0.3625002 0.9316051 -0.02656674 -0.3625003 0.9316022 -0.02556759 -0.3625794 0.9316022 -0.02556759 -0.3625794 0.9316022 -0.02556759 -0.3625794 0.9343681 -0.02517992 -0.3554185 0.9343697 -0.02496498 -0.3554295 0.9382535 -0.02438765 -0.345088 0.9382517 -0.02380013 -0.345134 0.9404637 -0.02350801 -0.3390802 0.9404639 -0.0223928 -0.3391553 0.9423877 -0.02218204 -0.3337866 0.9422299 -0.02141737 -0.3342818 0.9422298 -0.02141737 -0.3342818 0.9422298 -0.02141737 -0.3342818 0.9439923 -0.02119529 -0.3292862 0.943971 -0.02086925 -0.329368 0.9467751 -0.02047568 -0.3212442 0.946667 -0.02049756 -0.3215612 0.9467839 -0.02021765 -0.3212345 0.9486083 -0.01996243 -0.3158223 0.9159132 -0.02625203 -0.4005171 0.913422 -0.02648687 -0.4061512 0.913409 -0.02672058 -0.406165 0.910556 -0.02701562 -0.4125022 0.9105586 -0.02730894 -0.4124771 0.9064106 -0.02773672 -0.4214861 0.9064236 -0.02860718 -0.4214001 0.9046067 -0.02867949 -0.4252815 0.9046154 -0.02992415 -0.425177 0.9007689 -0.03033322 -0.4332383 0.9007768 -0.03089767 -0.4331818 0.8939186 -0.03167808 -0.4471086 0.8939321 -0.03185409 -0.4470692 0.8895907 -0.03227728 -0.4556166 0.8896216 -0.03341555 -0.4554746 0.8866139 -0.03363287 -0.461286 0.8866319 -0.03485506 -0.4611606 0.8853463 -0.03495454 -0.4636163 0.8853464 -0.03495454 -0.4636164 0.885513 -0.03476804 -0.463312 0.7607851 -0.04845863 -0.6471924 0.764514 -0.04827409 -0.6427969 0.7644808 -0.04708337 -0.6429249 0.7687545 -0.04688221 -0.6378234 0.7687056 -0.04575204 -0.6379645 0.7766185 -0.04525536 -0.6283436 0.7765704 -0.04532867 -0.6283977 0.7879917 -0.04446178 -0.6140784 0.7879917 -0.04446178 -0.6140784 0.7879918 -0.04446178 -0.6140784 0.7885044 -0.04394376 -0.6134572 0.7885045 -0.04394376 -0.6134572 0.7885045 -0.04394376 -0.6134572 0.7955697 -0.04343724 -0.604303 0.7955895 -0.04203683 -0.604376 0.8000171 -0.04185241 -0.5985159 0.8000289 -0.04092413 -0.5985642 0.8061488 -0.0405938 -0.5903189 0.8060988 -0.04023617 -0.5904117 0.8062962 -0.04025286 -0.5901408 0.8123553 -0.03988331 -0.5817975 0.8123278 -0.03977209 -0.5818434 0.8183701 -0.03939026 -0.5733401 0.8183473 -0.03929871 -0.5733787 0.6862449 -0.05426138 -0.7253439 0.6903038 -0.05410152 -0.7214942 0.6903042 -0.05296504 -0.721578 0.6954882 -0.05276703 -0.7165974 0.695499 -0.05169939 -0.7166647 0.7058379 -0.05128079 -0.7065148 0.705841 -0.05128031 -0.7065117 0.7184298 -0.0505439 -0.6937608 0.7181326 -0.05003088 -0.6941056 0.7182317 -0.05004304 -0.6940022 0.7181326 -0.05003076 -0.6941056 0.7262444 -0.04966628 -0.6856402 0.7262721 -0.04826933 -0.6857106 0.7313568 -0.04812067 -0.6802954 0.7313376 -0.04710197 -0.6803872 0.7405507 -0.04672521 -0.6703741 0.7405844 -0.04632872 -0.6703645 0.748008 -0.04604268 -0.6620908 0.7480415 -0.04596567 -0.6620584 0.754346 -0.04569715 -0.6548847 0.7543811 -0.04588001 -0.6548313 0.6056539 -0.05938273 -0.7935095 0.609256 -0.05928945 -0.790754 0.6093096 -0.05819177 -0.7907943 0.603715 -0.05827176 -0.7950678 0.626591 -0.05639189 -0.7773054 0.626703 -0.05639225 -0.7772151 0.626703 -0.05639219 -0.7772151 0.6263862 -0.05676436 -0.7774434 0.6412093 -0.05609118 -0.7653133 0.6409398 -0.05562621 -0.7655729 0.6411973 -0.05559921 -0.7653594 0.6409398 -0.05562621 -0.765573 0.6505637 -0.0552293 -0.7574409 0.6505647 -0.05380105 -0.7575428 0.6561809 -0.05373519 -0.7526881 0.6561809 -0.05373525 -0.752688 0.6564337 -0.05373674 -0.7524674 0.6564012 -0.05273926 -0.7525663 0.6661183 -0.05244565 -0.744 0.666038 -0.05206626 -0.7440985 0.675423 -0.05178314 -0.7356101 0.6753824 -0.05174916 -0.7356498 0.6832454 -0.05145418 -0.7283737 0.6828989 -0.05157995 -0.7286897 0.6828989 -0.05157995 -0.7286897 0.6828989 -0.05158001 -0.7286897 0.4376384 -0.06602013 -0.8967241 0.4556655 -0.06557452 -0.8877325 0.4556487 -0.06546539 -0.8877491 0.4706791 -0.06510686 -0.8798991 0.470639 -0.06465125 -0.879954 0.4803158 -0.06448632 -0.8747218 0.4800302 -0.06314426 -0.8749766 0.4800302 -0.06314426 -0.8749766 0.4800302 -0.0631442 -0.8749766 0.4873426 -0.06324058 -0.8709178 0.4873521 -0.06222027 -0.8709861 0.4985375 -0.06209391 -0.8646415 0.4985874 -0.06171381 -0.8646399 0.5091018 -0.06162303 -0.8584976 0.5091513 -0.06204938 -0.8584375 0.3502071 -0.06899327 -0.9341279 0.3667715 -0.06876564 -0.9277662 0.3666514 -0.06870251 -0.9278182 0.3812593 -0.06846809 -0.9219293 0.3812032 -0.06806504 -0.9219824 0.3909848 -0.06799733 -0.917882 0.390946 -0.06674832 -0.9179902 0.3975127 -0.06685835 -0.9151578 0.3974964 -0.06590819 -0.9152337 0.4096298 -0.06594544 -0.9098653 0.4096298 -0.06594544 -0.9098653 0.4096298 -0.06594538 -0.9098653 0.4093915 -0.06553697 -0.9100019 0.4197723 -0.06548631 -0.9052639 0.4198256 -0.06601214 -0.905201 0.3068003 -0.06886482 -0.9492794 0.318057 -0.06893533 -0.9455621 0.3293701 -0.06827378 -0.9417293 0.179957 -0.07293927 -0.9809666 0.1931402 -0.07294088 -0.9784563 0.1931021 -0.07295936 -0.9784624 0.2041168 -0.07296139 -0.976224 0.2041726 -0.07237678 -0.9762557 0.2172746 -0.07237607 -0.9734236 0.2171671 -0.07111877 -0.9735403 0.238345 -0.07102894 -0.9685797 0.2383421 -0.07156866 -0.9685407 0.09947371 -0.07398456 -0.9922859 0.1105564 -0.07407176 -0.9911058 0.1105947 -0.07409131 -0.9911001 0.1189714 -0.07416433 -0.9901241 0.1190261 -0.07365465 -0.9901555 0.1304367 -0.07377207 -0.9887083 0.1304336 -0.07265156 -0.9887917 0.1492436 -0.07274347 -0.9861211 0.1492984 -0.07319778 -0.9860792 -0.04844945 -0.07476502 -0.9960236 -0.03849625 -0.07470721 -0.9964622 0.02318543 -0.07472568 -0.9969346 0.0485804 -0.0744059 -0.996044 0.03783285 -0.07437014 -0.9965129 0.04706257 -0.07451575 -0.9961087 0.0470497 -0.07356846 -0.9961797 0.06415146 -0.07381719 -0.9952063 0.06415116 -0.07417988 -0.9951794 -0.03853124 -0.074557 -0.9964721 -0.0440132 -0.07445734 -0.9962525 -0.01686739 -0.07399064 -0.9971163 0.004822194 0.9975166 -0.07026702 3.05533e-4 0.9976574 -0.06840723 -4.36192e-4 0.9975247 -0.07031577 -4.36206e-4 0.9975247 -0.07031565 -4.36211e-4 0.9975247 -0.07031595 -2.82692e-4 0.9975455 -0.07002246 -2.82719e-4 0.9975454 -0.07002222 -2.82766e-4 0.9975455 -0.07002198 0.000999987 0.9975319 -0.07020789 0.001038908 0.9975346 -0.07016944 0.001038908 0.9975346 -0.07016932 0.001038908 0.9975346 -0.07016909 7.32689e-4 0.997523 -0.07033812 6.33017e-4 0.997536 -0.07015317 4.5378e-4 0.9975274 -0.07027673 0.001566171 0.9975268 -0.07027155 7.50852e-4 0.9975461 -0.07001048 0.001505196 0.9975542 -0.06988161 0.001505136 0.9975543 -0.06988155 0.001505255 0.9975542 -0.06988161 2.04597e-4 0.9975411 -0.07008379 0.001308083 0.9975357 -0.07014942 5.34556e-4 0.9975371 -0.07013928 9.21962e-4 0.9975424 -0.07005965 6.64673e-4 0.9975413 -0.07007867 9.89035e-4 0.9975425 -0.07005941 8.45956e-4 0.9975435 -0.07004481 8.45949e-4 0.9975435 -0.07004481 1.1726e-4 0.9975385 -0.07012134 0.001380205 0.9975434 -0.07003861 2.42357e-4 0.997542 -0.07007151 0.00124973 0.9975511 -0.06993186 5.24301e-4 0.9975444 -0.07003623 0.001116633 0.9975516 -0.06992495 1.12783e-4 0.9975467 -0.07000464 0.0015859 0.9975501 -0.0699383 5.23684e-4 0.9975507 -0.06994509 0.001231312 0.9975579 -0.06983423 1.28462e-4 0.9975522 -0.06992626 0.00153923 0.9975535 -0.06989127 2.19213e-4 0.9975557 -0.06987607 0.001419842 0.9975655 -0.06972193 -5.58168e-5 0.9975572 -0.06985467 0.001600086 0.9975649 -0.06972712 0.001336753 0.997564 -0.06974416 2.88055e-4 0.9975661 -0.06972849 0.00180912 0.9975683 -0.06967318 -3.63333e-5 0.9975681 -0.0696994 0.001596987 0.9975723 -0.06962096 7.16813e-5 0.997574 -0.06961327 0.00162965 0.9975798 -0.06951367 8.15905e-5 0.9975802 -0.0695253 0.001527726 0.9975853 -0.06943494 1.64215e-4 0.9975839 -0.06947261 0.00197941 0.9975858 -0.06941699 0.00197941 0.9975858 -0.06941699 0.001979351 0.9975858 -0.06941705 8.59755e-6 0.9975914 -0.06936502 0.001782894 0.9975953 -0.06928586 1.27906e-5 0.9975948 -0.06931626 0.001509547 0.9976003 -0.0692209 1.87135e-4 0.9975988 -0.0692569 0.001833736 0.9976045 -0.06915253 1.19806e-4 0.9976037 -0.0691877 0.001702129 0.9976105 -0.06906998 1.17271e-4 0.9976114 -0.06907737 0.001801848 0.9976201 -0.06892699 1.68431e-4 0.9976587 -0.06838965 4.60761e-4 0.9976588 -0.06838685 0.002240657 0.997703 -0.06770318 3.83452e-4 0.9977204 -0.06748348 0.002492129 0.9977536 -0.06694591 3.2736e-4 0.9977868 -0.0664938 3.91818e-4 0.9977869 -0.06649279 0.002713859 0.9978897 -0.06487518 4.81991e-4 0.9978572 -0.06542861 0.002460896 0.9979835 -0.06342661 0.00189042 0.9979675 -0.06369727 5.77571e-4 0.9979604 -0.06383472 0.001683831 0.998059 -0.06225365 0.001348078 0.9980394 -0.06257438 3.55393e-4 0.9980044 -0.06314438 3.75015e-4 0.9980219 -0.06286752 4.45324e-4 0.9980276 -0.06277692 4.72698e-4 0.9980385 -0.06260204 5.78601e-4 0.9980469 -0.06246602 6.05447e-4 0.9980471 -0.06246352 6.6897e-4 0.998049 -0.06243199 6.81483e-4 0.9980562 -0.06231611 8.03813e-4 0.9980593 -0.0622673 7.70658e-4 0.9980519 -0.06238526 9.34569e-4 0.9980568 -0.06230461 6.92806e-4 0.9980367 -0.06262964 0.001066386 0.9980356 -0.06264114</float_array>
          <technique_common>
            <accessor source="#left_elevator-mesh-normals-array" count="1276" stride="3">
              <param name="X" type="float"/>
              <param name="Y" type="float"/>
              <param name="Z" type="float"/>
            </accessor>
          </technique_common>
        </source>
        <vertices id="left_elevator-mesh-vertices">
          <input semantic="POSITION" source="#left_elevator-mesh-positions"/>
        </vertices>
        <triangles count="1044">
          <input semantic="VERTEX" source="#left_elevator-mesh-vertices" offset="0"/>
          <input semantic="NORMAL" source="#left_elevator-mesh-normals" offset="1"/>
          <p>0 0 1 0 2 0 2 1 1 1 3 1 2 2 3 2 4 2 4 3 3 3 5 3 4 4 5 4 6 4 6 5 5 5 7 5 6 6 7 6 8 6 8 7 7 7 9 7 8 8 9 8 10 8 10 9 9 9 11 9 10 10 11 10 12 10 12 11 11 12 13 13 12 14 13 15 14 16 14 17 13 18 15 19 14 20 15 20 16 20 17 21 18 21 19 21 19 22 18 22 20 22 19 23 20 23 21 23 21 24 20 24 0 24 21 25 0 25 2 25 22 26 23 27 24 28 24 29 23 29 17 29 24 30 17 30 19 30 25 31 26 31 27 31 27 32 26 32 28 32 27 33 28 33 29 33 29 34 28 34 30 34 29 35 30 35 31 35 31 36 30 36 32 36 31 37 32 37 33 37 33 38 32 38 34 38 33 39 34 39 35 39 35 40 34 40 36 40 35 41 36 41 37 41 37 42 36 42 38 42 37 43 38 43 39 43 39 44 38 44 40 44 39 45 40 45 41 45 41 46 40 46 42 46 41 47 42 47 43 47 43 48 42 48 44 48 43 49 44 49 45 49 45 50 44 50 46 50 45 51 46 51 47 51 47 52 46 52 48 52 47 53 48 53 49 53 49 54 48 54 50 54 49 55 50 56 51 57 51 58 50 58 52 58 51 59 52 59 53 59 53 60 52 60 54 60 53 61 54 61 55 61 55 62 54 62 56 62 55 63 56 63 57 63 57 64 56 64 22 64 57 65 22 65 24 65 58 66 59 66 60 66 60 67 59 67 61 67 60 68 61 68 62 68 62 69 61 69 63 69 62 70 63 70 64 70 64 71 63 71 65 71 64 72 65 72 66 72 66 73 65 73 25 73 66 74 25 74 27 74 67 75 68 75 69 75 69 76 68 76 58 76 69 77 58 77 60 77 70 78 71 78 72 78 72 79 71 79 67 79 72 80 67 80 69 80 73 81 74 81 75 81 75 82 74 82 70 82 75 83 70 83 72 83 76 84 74 84 73 84 74 85 76 85 77 85 77 86 76 86 78 86 77 87 78 87 79 87 79 88 78 88 80 88 79 89 80 89 81 89 82 90 83 90 84 90 85 91 25 91 65 91 85 92 65 92 86 92 86 93 65 93 63 93 61 94 59 94 87 94 88 95 87 95 59 95 59 96 58 96 88 96 88 97 58 97 89 97 89 98 58 98 68 98 90 99 91 99 67 99 67 100 71 100 90 100 92 101 74 101 93 101 74 102 77 102 93 102 94 103 93 103 77 103 77 104 79 104 94 104 95 105 94 105 79 105 95 106 79 106 81 106 95 107 81 107 96 107 95 108 96 108 97 108 95 109 97 109 98 109 95 110 98 110 99 110 95 111 99 111 100 111 95 112 100 112 101 112 95 113 101 113 102 113 95 114 102 114 103 114 25 115 85 115 26 115 26 116 85 116 84 116 26 117 84 117 83 117 61 118 87 118 63 118 63 119 87 119 104 119 63 120 104 120 86 120 67 121 91 121 68 121 68 122 91 122 105 122 68 123 105 123 89 123 90 124 71 124 92 124 92 125 71 125 70 125 92 126 70 126 74 126 106 127 98 127 107 127 107 128 98 128 97 128 107 129 97 129 108 129 108 130 97 130 96 130 108 131 96 132 109 133 109 134 96 134 81 134 109 135 81 135 80 135 98 136 106 136 99 136 99 137 106 137 110 137 99 138 110 138 100 138 100 139 110 139 111 139 100 140 111 140 101 140 101 141 111 142 112 143 101 144 112 144 102 144 102 145 112 145 113 145 102 146 113 146 103 146 114 147 78 147 76 147 114 148 76 148 115 148 115 149 76 149 73 149 116 150 69 150 117 150 117 151 69 151 60 151 117 152 60 152 118 152 118 153 60 153 62 153 118 154 62 154 119 154 119 155 62 155 64 155 119 156 64 156 120 156 64 157 66 157 120 157 121 158 120 158 66 158 66 159 27 159 121 159 121 160 27 160 122 160 123 161 113 161 112 161 123 162 112 162 111 162 123 163 111 163 110 163 123 164 110 164 106 164 123 165 106 165 107 165 123 166 107 166 108 166 123 167 108 167 109 167 123 168 109 168 80 168 123 169 80 169 78 169 123 170 78 170 114 170 115 171 73 171 124 171 124 172 73 172 75 172 124 173 75 173 116 173 116 174 75 174 72 174 116 175 72 175 69 175 122 176 27 176 125 176 125 177 27 177 29 177 125 178 29 178 126 178 126 179 29 179 127 179 126 180 127 180 128 180 128 181 127 181 129 181 128 182 129 182 130 182 29 183 131 183 127 183 29 184 31 184 131 184 31 185 132 185 131 185 33 186 133 186 132 186 33 187 132 187 31 187 35 188 134 188 133 188 35 189 133 189 33 189 135 190 136 190 137 190 39 191 138 191 134 191 39 192 134 192 37 192 139 193 140 193 136 193 41 194 141 194 138 194 41 195 138 195 39 195 142 196 143 196 140 196 144 197 145 197 143 197 146 198 147 198 148 198 149 199 150 199 147 199 151 200 152 200 153 200 154 201 155 201 152 201 3 202 156 202 5 202 20 203 157 203 158 203 20 204 158 204 0 204 159 205 160 205 161 205 17 206 162 206 157 206 17 207 157 207 18 207 163 208 164 208 165 208 23 209 166 209 162 209 23 210 162 210 17 210 167 211 168 211 164 211 56 212 166 213 22 214 169 215 170 215 171 215 50 216 172 216 173 216 50 217 173 217 52 217 174 218 175 219 176 220 177 221 178 221 175 221 44 222 179 222 180 222 44 223 180 223 46 223 181 224 182 224 183 224 181 225 183 225 177 225 40 226 184 226 179 226 40 227 179 227 42 227 185 228 186 228 182 228 38 229 187 229 184 229 38 230 184 230 40 230 188 231 189 231 186 231 34 232 190 232 187 232 34 233 187 233 36 233 191 234 192 234 189 234 32 235 193 236 190 237 32 238 190 238 34 238 194 239 195 239 196 239 194 240 196 240 191 240 28 241 197 241 198 241 28 242 198 242 30 242 199 243 200 243 201 243 202 244 203 244 204 244 205 245 204 245 206 245 205 246 206 246 135 246 207 247 135 247 137 247 35 248 37 248 134 248 133 249 134 249 208 249 141 250 41 250 43 250 209 251 210 251 211 251 211 252 210 252 212 252 213 253 214 253 215 253 213 254 215 254 216 254 216 255 215 255 217 255 218 256 216 256 217 256 149 257 153 257 150 257 219 258 220 258 221 258 222 259 3 259 1 259 157 260 20 260 18 260 159 261 165 261 160 261 166 262 23 262 22 262 167 263 223 263 168 263 169 264 176 264 170 264 172 265 50 265 48 265 177 266 183 266 178 266 179 267 44 267 42 267 187 268 38 268 36 268 224 269 225 269 226 269 191 270 196 270 192 270 193 271 199 271 201 271 227 272 228 272 166 272 227 273 166 273 56 273 227 274 56 274 54 274 227 275 54 275 52 275 227 276 52 276 173 276 130 277 129 277 229 277 229 278 129 278 230 278 229 279 230 279 207 279 207 280 230 280 205 280 207 281 205 281 135 281 218 282 231 282 216 282 216 283 231 283 145 283 216 284 145 284 144 284 24 285 232 286 57 287 57 288 232 288 233 288 57 289 233 289 55 289 55 290 233 291 234 292 55 293 234 293 53 293 53 294 234 294 235 294 53 295 235 296 51 296 51 297 235 297 236 297 51 298 236 298 49 298 49 299 236 299 237 299 49 300 237 300 47 300 47 301 237 301 238 301 47 302 238 302 45 302 45 303 238 303 141 303 45 304 141 304 43 304 239 305 148 305 240 305 240 306 148 306 241 306 240 307 241 307 242 307 242 308 241 308 243 308 242 309 243 310 244 311 244 312 243 312 245 312 244 313 245 314 246 315 246 316 245 316 247 316 246 317 247 317 218 317 218 318 247 318 248 318 218 319 248 319 231 319 4 320 249 320 2 320 2 321 249 321 250 321 2 322 250 322 21 322 21 323 250 323 251 323 21 324 251 324 19 324 19 325 251 325 252 325 19 326 252 326 24 326 24 327 252 327 253 327 24 328 253 329 232 328 4 330 6 330 249 330 249 331 6 331 254 331 249 332 254 332 255 332 255 333 254 334 256 335 255 336 256 336 257 336 257 337 256 337 258 337 257 338 258 338 259 338 259 339 258 340 260 341 259 342 260 342 261 342 261 343 260 343 262 343 261 344 262 344 263 344 263 345 262 345 264 345 263 346 264 346 265 346 265 347 264 348 266 349 265 350 266 350 267 350 267 351 266 351 268 351 267 352 268 352 269 352 269 353 268 353 270 353 269 354 270 354 219 354 219 355 270 355 271 355 219 356 271 356 220 356 221 357 155 357 219 357 219 358 155 358 154 358 219 359 154 359 269 359 269 360 154 360 272 360 269 361 272 362 267 363 267 364 272 364 273 364 267 365 273 365 265 365 265 366 273 366 274 366 265 367 274 367 263 367 263 368 274 368 275 368 263 369 275 369 261 369 261 370 275 370 276 370 261 371 276 371 259 371 259 372 276 372 277 372 259 373 277 373 257 373 257 374 277 374 278 374 257 375 278 376 255 377 255 378 278 379 279 380 255 381 279 381 249 381 249 382 279 382 250 382 280 383 281 383 282 383 282 384 281 384 283 384 282 385 283 386 284 387 284 388 283 388 285 389 284 390 285 391 286 392 286 393 285 393 287 393 286 394 287 394 288 394 288 395 287 395 289 395 288 396 289 396 271 396 271 397 289 398 290 399 271 400 290 400 220 400 13 401 291 401 15 402 15 403 291 403 292 403 15 404 292 404 16 405 16 406 292 406 293 406 16 407 293 407 14 407 14 408 293 409 294 410 14 411 294 411 12 411 12 412 294 413 295 414 12 415 295 415 10 415 10 416 295 416 296 416 10 417 296 417 8 417 8 418 296 418 254 418 8 419 254 420 6 421 159 422 161 422 297 422 297 423 161 423 298 423 297 424 298 425 299 425 299 426 298 426 300 426 299 427 300 427 301 427 301 428 300 428 302 428 301 429 302 429 303 429 303 430 302 430 304 431 303 432 304 432 305 432 305 433 304 433 306 433 305 434 306 435 280 436 280 437 306 437 307 437 280 438 307 438 281 438 5 439 156 439 7 439 7 440 156 440 308 440 7 441 308 442 9 443 9 444 308 444 309 444 9 445 309 445 11 445 11 446 309 446 291 446 11 447 291 447 13 447 159 448 297 449 310 450 310 451 297 451 311 451 310 452 311 453 312 454 312 455 311 455 313 455 312 456 313 456 314 456 314 457 313 457 315 457 314 458 315 458 316 458 316 459 315 459 317 459 316 460 317 461 318 462 318 463 317 463 319 463 318 464 319 464 320 464 320 465 319 465 321 465 320 466 321 466 322 466 322 467 321 467 323 467 322 468 323 468 324 468 324 469 323 469 325 469 324 470 325 470 158 470 158 471 325 471 222 471 158 472 222 472 0 472 0 473 222 473 1 473 228 474 227 474 326 474 326 475 227 475 327 475 326 476 327 476 328 476 328 477 327 477 329 477 328 478 329 478 330 478 330 479 329 479 331 479 330 480 331 480 332 480 332 481 331 481 333 481 332 482 333 482 334 482 334 483 333 483 335 483 334 484 335 484 336 484 336 485 335 485 169 485 336 486 169 486 337 486 337 487 169 487 171 487 337 488 171 489 223 490 48 491 46 492 172 493 172 494 46 494 180 494 172 495 180 495 338 495 338 496 180 496 339 496 338 497 339 497 340 497 340 498 339 498 341 498 340 499 341 499 342 499 342 500 341 500 343 500 342 501 343 501 344 501 32 502 30 502 193 502 193 503 30 503 198 503 193 504 198 504 199 504 200 505 195 505 201 505 201 506 195 506 194 506 201 507 194 507 193 507 193 508 194 508 345 508 193 509 345 509 190 509 28 510 26 510 197 510 197 511 26 512 83 513 197 514 83 514 82 514 82 515 200 515 197 515 197 516 200 517 199 518 197 519 199 519 198 519 129 520 127 520 230 520 230 521 127 521 131 521 230 522 131 522 205 522 205 523 131 523 202 523 205 524 202 524 204 524 133 525 203 525 132 525 132 526 203 526 202 526 132 527 202 527 131 527 133 528 208 528 203 528 203 529 208 529 346 529 203 530 346 530 204 530 204 531 346 531 347 531 204 532 347 532 206 532 206 533 347 533 348 533 206 534 348 534 135 534 135 535 348 535 139 535 135 536 139 536 136 536 134 537 138 537 208 537 208 538 138 538 349 538 208 539 349 539 346 539 346 540 349 540 350 540 346 541 350 541 347 541 347 542 350 542 351 542 347 543 351 543 348 543 348 544 351 544 352 544 348 545 352 545 139 545 139 546 352 546 142 546 139 547 142 547 140 547 138 548 141 548 349 548 349 549 141 549 353 549 349 550 353 550 350 550 350 551 353 551 354 551 350 552 354 552 351 552 351 553 354 553 355 553 351 554 355 554 352 554 352 555 355 555 356 555 352 556 356 556 142 556 142 557 356 557 144 557 142 558 144 558 143 558 141 559 238 559 353 559 353 560 238 560 209 560 353 561 209 561 354 561 354 562 209 562 211 562 354 563 211 563 355 563 355 564 211 564 357 564 355 565 357 565 356 565 356 566 357 566 213 566 356 567 213 567 144 567 144 568 213 568 216 568 238 569 237 569 209 569 209 570 237 570 358 570 209 571 358 571 210 571 211 572 212 572 357 572 357 573 212 573 359 573 357 574 359 574 213 574 213 575 359 575 360 575 213 576 360 576 214 576 237 577 236 577 358 577 358 578 236 578 361 578 358 579 361 579 210 579 210 580 361 581 362 582 210 583 362 583 212 583 212 584 362 584 363 584 212 585 363 585 359 585 359 586 363 586 364 586 359 587 364 587 360 587 360 588 364 588 365 588 360 589 365 589 214 589 214 590 365 590 366 590 214 591 366 592 215 593 215 594 366 594 367 594 215 595 367 595 217 595 217 596 367 597 368 598 217 599 368 599 218 599 218 600 368 600 246 600 236 601 235 601 361 601 361 602 235 602 369 602 361 603 369 603 362 603 362 604 369 604 370 604 362 605 370 605 363 605 363 606 370 606 371 606 363 607 371 607 364 607 364 608 371 608 372 608 364 609 372 609 365 609 365 610 372 610 373 610 365 611 373 611 366 611 366 612 373 613 374 614 366 615 374 615 367 615 367 616 374 616 375 616 367 617 375 617 368 617 368 618 375 618 376 618 368 619 376 620 246 620 246 621 376 621 244 621 235 622 234 622 369 622 369 623 234 623 377 623 369 624 377 624 370 624 370 625 377 625 378 625 370 626 378 626 371 626 371 627 378 627 379 627 371 628 379 628 372 628 372 629 379 629 380 629 372 630 380 630 373 631 373 632 380 632 381 632 373 633 381 633 374 633 374 634 381 635 382 636 374 637 382 637 375 637 375 638 382 638 383 638 375 639 383 639 376 639 376 640 383 640 384 640 376 641 384 641 244 641 244 642 384 643 242 644 234 645 233 645 377 645 377 646 233 647 385 648 377 649 385 649 378 649 378 650 385 650 386 650 378 651 386 652 379 653 379 654 386 655 387 656 379 657 387 657 380 657 380 658 387 658 388 658 380 659 388 660 381 661 381 662 388 662 389 662 381 663 389 663 382 663 382 664 389 664 390 664 382 665 390 665 383 665 383 666 390 666 391 666 383 667 391 667 384 667 384 668 391 668 392 668 384 669 392 669 242 669 242 670 392 670 240 670 233 671 232 671 385 671 385 672 232 673 393 673 385 674 393 675 386 676 386 677 393 677 394 677 386 678 394 679 387 680 387 681 394 682 395 683 387 684 395 684 388 684 388 685 395 685 396 685 388 686 396 686 389 686 389 687 396 688 397 689 389 690 397 691 390 692 390 693 397 693 398 693 390 694 398 694 391 694 391 695 398 695 399 695 391 696 399 696 392 696 392 697 399 697 400 697 392 698 400 698 240 698 240 699 400 699 239 699 232 700 253 700 393 700 393 701 253 701 401 701 393 702 401 702 394 702 394 703 401 703 402 703 394 704 402 704 395 704 395 705 402 705 403 705 395 706 403 706 396 706 396 707 403 707 404 707 396 708 404 708 397 708 397 709 404 709 405 709 397 710 405 710 398 710 398 711 405 711 406 711 398 712 406 712 399 712 399 713 406 713 407 713 399 714 407 714 400 714 400 715 407 715 408 715 400 716 408 716 239 716 239 717 408 717 146 717 239 718 146 718 148 718 253 719 252 719 401 719 401 720 252 721 409 722 401 723 409 723 402 723 402 724 409 724 410 724 402 725 410 725 403 725 403 726 410 726 411 726 403 727 411 727 404 727 404 728 411 728 412 728 404 729 412 729 405 729 405 730 412 730 413 730 405 731 413 731 406 731 406 732 413 732 414 732 406 733 414 733 407 733 407 734 414 734 415 734 407 735 415 735 408 735 408 736 415 737 416 738 408 739 416 739 146 739 146 740 416 740 149 740 146 741 149 741 147 741 252 742 251 742 409 742 409 743 251 744 417 745 409 746 417 746 410 746 410 747 417 748 418 749 410 750 418 750 411 750 411 751 418 751 419 751 411 752 419 752 412 752 412 753 419 753 420 753 412 754 420 754 413 754 413 755 420 755 421 755 413 756 421 756 414 756 414 757 421 758 422 759 414 760 422 760 415 760 415 761 422 761 423 761 415 762 423 762 416 762 416 763 423 763 424 763 416 764 424 764 149 764 149 765 424 765 151 765 149 766 151 766 153 766 251 767 250 767 417 767 417 768 250 768 279 768 417 769 279 769 418 769 418 770 279 770 278 770 418 771 278 771 419 771 419 772 278 772 277 772 419 773 277 773 420 773 420 774 277 774 276 774 420 775 276 776 421 777 421 778 276 778 275 778 421 779 275 780 422 781 422 782 275 782 274 782 422 783 274 784 423 785 423 786 274 786 273 786 423 787 273 787 424 787 424 788 273 789 272 789 424 790 272 790 151 790 151 791 272 791 154 791 151 792 154 792 152 792 254 793 296 793 256 793 256 794 296 795 425 796 256 797 425 797 258 797 258 798 425 798 426 798 258 799 426 799 260 799 260 800 426 801 427 802 260 803 427 804 262 805 262 806 427 806 428 806 262 807 428 807 264 807 264 808 428 809 429 810 264 811 429 811 266 811 266 812 429 812 430 812 266 813 430 814 268 815 268 816 430 816 431 816 268 817 431 818 270 819 270 820 431 820 432 820 270 821 432 821 271 821 271 822 432 822 288 822 296 823 295 824 425 825 425 826 295 827 433 828 425 829 433 829 426 829 426 830 433 830 434 830 426 831 434 831 427 831 427 832 434 832 435 832 427 833 435 833 428 833 428 834 435 834 436 834 428 835 436 835 429 835 429 836 436 836 437 836 429 837 437 837 430 837 430 838 437 839 438 839 430 840 438 840 431 841 431 842 438 842 439 842 431 843 439 844 432 845 432 846 439 846 440 846 432 847 440 847 288 847 288 848 440 848 286 848 295 849 294 850 433 851 433 852 294 852 441 852 433 853 441 853 434 853 434 854 441 854 442 855 434 856 442 856 435 856 435 857 442 857 443 857 435 858 443 858 436 858 436 859 443 860 444 861 436 862 444 863 437 864 437 865 444 865 445 865 437 866 445 866 438 866 438 867 445 867 446 867 438 868 446 868 439 868 439 869 446 870 447 871 439 872 447 872 440 872 440 873 447 873 448 873 440 874 448 874 286 874 286 875 448 875 284 875 294 876 293 877 441 878 441 879 293 880 449 881 441 882 449 883 442 884 442 885 449 886 450 887 442 888 450 889 443 890 443 891 450 891 451 892 443 893 451 893 444 893 444 894 451 894 452 894 444 895 452 895 445 895 445 896 452 897 453 898 445 899 453 899 446 899 446 900 453 900 454 900 446 901 454 901 447 901 447 902 454 902 455 902 447 903 455 904 448 905 448 906 455 906 456 906 448 907 456 908 284 909 284 910 456 910 282 910 293 911 292 911 449 911 449 912 292 912 457 912 449 913 457 913 450 913 450 914 457 914 458 914 450 915 458 915 451 915 451 916 458 917 459 918 451 919 459 920 452 921 452 922 459 922 460 922 452 923 460 923 453 923 453 924 460 924 461 924 453 925 461 925 454 925 454 926 461 926 462 926 454 927 462 927 455 927 455 928 462 928 463 928 455 929 463 929 456 929 456 930 463 930 464 930 456 931 464 931 282 931 282 932 464 932 280 932 292 933 291 933 457 933 457 934 291 935 465 936 457 937 465 937 458 937 458 938 465 939 466 940 458 941 466 941 459 941 459 942 466 942 467 942 459 943 467 943 460 943 460 944 467 944 468 944 460 945 468 945 461 945 461 946 468 946 469 946 461 947 469 947 462 947 462 948 469 948 470 948 462 949 470 949 463 949 463 950 470 951 471 952 463 953 471 953 464 953 464 954 471 954 472 954 464 955 472 955 280 955 280 956 472 956 305 956 291 957 309 957 465 957 465 958 309 958 473 958 465 959 473 960 466 961 466 962 473 962 474 962 466 963 474 963 467 963 467 964 474 964 475 964 467 965 475 966 468 967 468 968 475 968 476 968 468 969 476 969 469 969 469 970 476 970 477 970 469 971 477 972 470 973 470 974 477 974 478 974 470 975 478 975 471 975 471 976 478 976 479 976 471 977 479 977 472 977 472 978 479 978 480 978 472 979 480 979 305 979 305 980 480 980 303 980 309 981 308 981 473 981 473 982 308 982 481 982 473 983 481 983 474 983 474 984 481 984 482 984 474 985 482 985 475 985 475 986 482 986 483 986 475 987 483 987 476 987 476 988 483 988 484 988 476 989 484 989 477 989 477 990 484 990 485 990 477 991 485 991 478 991 478 992 485 992 486 992 478 993 486 993 479 993 479 994 486 994 487 994 479 995 487 996 480 997 480 998 487 998 488 998 480 999 488 1000 303 1001 303 1002 488 1002 301 1002 308 1003 156 1003 481 1003 481 1004 156 1004 489 1004 481 1005 489 1005 482 1005 482 1006 489 1007 490 1008 482 1009 490 1010 483 1011 483 1012 490 1012 491 1012 483 1013 491 1013 484 1013 484 1014 491 1014 492 1014 484 1015 492 1015 485 1015 485 1016 492 1016 493 1016 485 1017 493 1017 486 1017 486 1018 493 1018 494 1018 486 1019 494 1020 487 1021 487 1022 494 1022 495 1022 487 1023 495 1023 488 1023 488 1024 495 1025 496 1024 488 1026 496 1026 301 1026 301 1027 496 1027 299 1027 297 1028 299 1028 311 1028 311 1029 299 1029 496 1029 311 1030 496 1030 313 1030 313 1031 496 1031 495 1031 313 1032 495 1032 315 1032 315 1033 495 1033 494 1033 315 1034 494 1034 317 1034 317 1035 494 1035 493 1035 317 1036 493 1036 319 1036 319 1037 493 1037 492 1037 319 1038 492 1038 321 1038 321 1039 492 1039 491 1039 321 1040 491 1040 323 1040 323 1041 491 1041 490 1041 323 1042 490 1042 325 1042 325 1043 490 1043 489 1043 325 1044 489 1044 222 1044 222 1045 489 1045 156 1046 222 1047 156 1047 3 1047 158 1048 157 1048 324 1048 324 1049 157 1049 497 1049 324 1050 497 1050 322 1050 322 1051 497 1051 498 1051 322 1052 498 1052 320 1052 320 1053 498 1053 499 1053 320 1054 499 1054 318 1054 318 1055 499 1056 500 1057 318 1058 500 1059 316 1060 316 1061 500 1061 501 1061 316 1062 501 1062 314 1062 314 1063 501 1063 502 1063 314 1064 502 1064 312 1064 312 1065 502 1065 503 1065 312 1066 503 1067 310 1066 310 1068 503 1068 504 1068 310 1069 504 1069 159 1069 159 1070 504 1070 163 1070 159 1071 163 1071 165 1071 157 1072 162 1072 497 1072 497 1073 162 1073 505 1073 497 1074 505 1074 498 1074 498 1075 505 1075 506 1075 498 1076 506 1076 499 1076 499 1077 506 1077 507 1077 499 1078 507 1078 500 1078 500 1079 507 1079 508 1079 500 1080 508 1081 501 1082 501 1083 508 1083 509 1083 501 1084 509 1084 502 1084 502 1085 509 1085 510 1085 502 1086 510 1086 503 1086 503 1087 510 1087 511 1087 503 1088 511 1088 504 1088 504 1089 511 1089 512 1089 504 1090 512 1090 163 1090 163 1091 512 1091 167 1091 163 1092 167 1092 164 1092 162 1093 166 1093 505 1093 505 1094 166 1094 228 1094 505 1095 228 1095 506 1095 506 1096 228 1096 326 1096 506 1097 326 1098 507 1099 507 1100 326 1100 508 1100 508 1101 326 1101 328 1101 508 1102 328 1103 509 1104 509 1105 328 1105 330 1105 509 1106 330 1106 510 1106 510 1107 330 1108 332 1109 510 1110 332 1110 511 1110 511 1111 332 1111 334 1111 511 1112 334 1112 512 1112 512 1113 334 1113 336 1113 512 1114 336 1114 167 1114 167 1115 336 1115 337 1115 167 1116 337 1117 223 1118 227 1119 173 1119 327 1119 327 1120 173 1120 513 1120 327 1121 513 1121 329 1121 329 1122 513 1122 514 1122 329 1123 514 1123 331 1123 331 1124 514 1124 515 1124 331 1125 515 1126 333 1127 333 1128 515 1128 516 1128 333 1129 516 1129 335 1129 335 1130 516 1130 517 1130 335 1131 517 1131 169 1131 169 1132 517 1132 174 1132 169 1133 174 1133 176 1133 173 1134 172 1134 513 1134 513 1135 172 1135 338 1135 513 1136 338 1136 514 1136 514 1137 338 1137 340 1137 514 1138 340 1138 515 1138 515 1139 340 1139 342 1139 515 1140 342 1140 516 1140 516 1141 342 1141 344 1141 516 1142 344 1142 517 1142 517 1143 344 1144 518 1145 517 1146 518 1146 174 1146 174 1147 518 1147 177 1147 174 1148 177 1148 175 1148 344 1149 343 1149 518 1149 518 1150 343 1150 181 1150 518 1151 181 1151 177 1151 180 1152 179 1152 339 1152 339 1153 179 1153 519 1153 339 1154 519 1154 341 1154 341 1155 519 1155 520 1155 341 1156 520 1156 343 1156 343 1157 520 1157 521 1157 343 1158 521 1158 181 1158 181 1159 521 1159 185 1159 181 1160 185 1160 182 1160 179 1161 184 1161 519 1161 519 1162 184 1162 224 1162 519 1163 224 1163 520 1163 520 1164 224 1164 226 1164 520 1165 226 1165 521 1165 521 1166 226 1166 522 1166 521 1167 522 1167 185 1167 185 1168 522 1168 188 1168 185 1169 188 1169 186 1169 190 1170 345 1170 187 1170 187 1171 345 1171 225 1171 187 1172 225 1172 184 1172 184 1173 225 1173 224 1173 226 1174 225 1174 522 1174 522 1175 225 1175 523 1175 522 1176 523 1176 188 1176 188 1177 523 1177 191 1177 188 1178 191 1178 189 1178 225 1179 345 1179 523 1179 523 1180 345 1180 194 1180 523 1181 194 1181 191 1181 281 1182 285 1182 283 1182 126 1183 84 1183 125 1183 285 1184 281 1185 287 1186 287 1187 281 1188 307 1189 287 1190 307 1190 289 1190 289 1191 307 1192 306 1193 289 1194 306 1194 290 1194 290 1195 306 1195 304 1195 290 1196 304 1196 220 1196 220 1197 304 1197 302 1197 220 1198 302 1198 221 1198 221 1199 302 1200 300 1201 221 1202 300 1202 155 1202 155 1203 300 1203 298 1203 155 1204 298 1204 152 1204 152 1205 298 1205 161 1205 152 1206 161 1206 153 1206 153 1207 161 1208 160 1209 153 1210 160 1210 150 1210 150 1211 160 1211 165 1211 150 1212 165 1212 147 1212 147 1213 165 1213 164 1213 147 1214 164 1214 148 1214 148 1215 164 1215 168 1215 148 1216 168 1216 241 1216 241 1217 168 1217 223 1217 241 1218 223 1218 243 1218 243 1219 223 1219 171 1219 243 1220 171 1220 245 1220 245 1221 171 1221 170 1221 245 1222 170 1222 247 1222 247 1223 170 1223 176 1223 247 1224 176 1224 248 1224 248 1225 176 1225 175 1225 248 1226 175 1226 178 1226 248 1227 178 1227 231 1227 231 1228 178 1228 183 1228 231 1229 183 1229 145 1229 145 1230 183 1230 182 1230 145 1231 182 1231 143 1231 143 1232 182 1232 186 1232 143 1233 186 1233 140 1233 140 1234 186 1234 189 1234 140 1235 189 1235 136 1235 136 1236 189 1237 192 1238 136 1239 192 1239 137 1239 137 1240 192 1240 196 1240 137 1241 196 1241 207 1241 207 1242 196 1242 195 1242 207 1243 195 1243 229 1243 229 1244 195 1244 200 1244 229 1245 200 1245 130 1245 130 1246 200 1246 82 1246 130 1247 82 1247 128 1247 128 1248 82 1248 84 1248 128 1249 84 1249 126 1249 125 1250 84 1250 122 1250 122 1251 84 1251 85 1251 122 1252 85 1252 121 1252 121 1253 85 1253 86 1253 121 1254 86 1254 120 1254 120 1255 86 1255 119 1255 119 1256 86 1256 104 1256 119 1257 104 1257 118 1257 118 1258 104 1258 87 1258 118 1259 87 1259 88 1259 118 1260 88 1260 117 1260 117 1261 88 1261 89 1261 117 1262 89 1262 105 1262 103 1263 113 1263 95 1263 95 1264 113 1264 123 1264 95 1265 123 1265 94 1265 94 1266 123 1266 114 1266 94 1267 114 1267 93 1267 93 1268 114 1268 115 1268 93 1269 115 1269 92 1269 92 1270 115 1270 124 1270 92 1271 124 1271 90 1271 90 1272 124 1272 116 1272 90 1273 116 1273 91 1273 91 1274 116 1274 117 1274 91 1275 117 1275 105 1275</p>
        </triangles>
      </mesh>
    </geometry>
  </library_geometries>
  <library_visual_scenes>
    <visual_scene id="Scene" name="Scene">
      <node id="left_elevator" name="left_elevator" type="NODE">
        <matrix sid="transform">0.001980197 0 0 0.004484674 0 0.001980197 0 0 0 0 0.001980197 0.003122766 0 0 0 1</matrix>
        <instance_geometry url="#left_elevator-mesh" name="left_elevator"/>
      </node>
    </visual_scene>
  </library_visual_scenes>
  <scene>
    <instance_visual_scene url="#Scene"/>
  </scene>
</COLLADA>